<svg id="Grupo_1126470" data-name="Grupo 1126470" xmlns="http://www.w3.org/2000/svg" xmlns:xlink="http://www.w3.org/1999/xlink" width="177" height="156.301" viewBox="0 0 177 156.301">
  <defs>
    <clipPath id="clip-path">
      <rect id="Rectángulo_416506" data-name="Rectángulo 416506" width="177" height="156.301" fill="none"/>
    </clipPath>
    <clipPath id="clip-path-3">
      <rect id="Rectángulo_416485" data-name="Rectángulo 416485" width="16.602" height="9.616" fill="none"/>
    </clipPath>
    <clipPath id="clip-path-4">
      <rect id="Rectángulo_416486" data-name="Rectángulo 416486" width="25.037" height="14.502" fill="none"/>
    </clipPath>
    <clipPath id="clip-path-5">
      <rect id="Rectángulo_416487" data-name="Rectángulo 416487" width="33.218" height="15.436" fill="none"/>
    </clipPath>
    <clipPath id="clip-path-6">
      <path id="Trazado_903796" data-name="Trazado 903796" d="M64.9,196.054c-4.834,2.791-12.646,2.791-17.448,0-2.386-1.386-3.581-3.2-3.586-5.018l0,1.42c0,1.817,1.2,3.632,3.585,5.018,4.8,2.791,12.614,2.791,17.449,0,2.434-1.405,3.65-3.25,3.644-5.092l0-1.42c0,1.843-1.211,3.687-3.645,5.092" transform="translate(-43.861 -190.962)" fill="none"/>
    </clipPath>
    <clipPath id="clip-path-8">
      <rect id="Rectángulo_416489" data-name="Rectángulo 416489" width="40.431" height="23.419" fill="none"/>
    </clipPath>
    <clipPath id="clip-path-9">
      <rect id="Rectángulo_416490" data-name="Rectángulo 416490" width="49.131" height="22.83" fill="none"/>
    </clipPath>
    <clipPath id="clip-path-10">
      <rect id="Rectángulo_416491" data-name="Rectángulo 416491" width="17.699" height="10.171" fill="none"/>
    </clipPath>
    <clipPath id="clip-path-11">
      <rect id="Rectángulo_416492" data-name="Rectángulo 416492" width="16.524" height="9.495" fill="none"/>
    </clipPath>
    <clipPath id="clip-path-13">
      <path id="Trazado_903884" data-name="Trazado 903884" d="M34.236,175.092a1.012,1.012,0,0,0-.59.83l-.006,1.968a1.01,1.01,0,0,1,.59-.83,3.2,3.2,0,0,1,2.9,0,1.02,1.02,0,0,1,.6.841l.006-1.968a1.019,1.019,0,0,0-.6-.841,3.2,3.2,0,0,0-2.9,0" transform="translate(-33.641 -174.745)" fill="none"/>
    </clipPath>
    <clipPath id="clip-path-14">
      <path id="Trazado_903890" data-name="Trazado 903890" d="M32.332,178.629a1.428,1.428,0,0,0,.841,1.179,4.447,4.447,0,0,0,4.026,0,1.418,1.418,0,0,0,.829-1.163l.006-1.968a1.417,1.417,0,0,1-.829,1.162,4.447,4.447,0,0,1-4.026,0,1.429,1.429,0,0,1-.841-1.178Z" transform="translate(-32.332 -176.661)" fill="none"/>
    </clipPath>
    <clipPath id="clip-path-16">
      <path id="Trazado_903918" data-name="Trazado 903918" d="M52.613,203.6a.69.69,0,0,0-.4.567l0,1.347a.692.692,0,0,1,.4-.568,2.189,2.189,0,0,1,1.984,0,.7.7,0,0,1,.41.575l0-1.347a.7.7,0,0,0-.41-.575,2.186,2.186,0,0,0-1.984,0" transform="translate(-52.205 -203.362)" fill="none"/>
    </clipPath>
    <clipPath id="clip-path-17">
      <path id="Trazado_903924" data-name="Trazado 903924" d="M51.309,206.02a.977.977,0,0,0,.576.806,3.041,3.041,0,0,0,2.754,0,.97.97,0,0,0,.568-.8l0-1.347a.97.97,0,0,1-.567.8,3.04,3.04,0,0,1-2.755,0,.978.978,0,0,1-.576-.806Z" transform="translate(-51.309 -204.673)" fill="none"/>
    </clipPath>
    <clipPath id="clip-path-19">
      <rect id="Rectángulo_416496" data-name="Rectángulo 416496" width="42.374" height="24.939" fill="none"/>
    </clipPath>
    <clipPath id="clip-path-20">
      <path id="Trazado_903958" data-name="Trazado 903958" d="M243.655,236.648a.318.318,0,0,0,.323.034l-18.952-16.344a.317.317,0,0,1-.323-.034Z" transform="translate(-224.704 -220.304)" fill="none"/>
    </clipPath>
    <clipPath id="clip-path-22">
      <path id="Trazado_903969" data-name="Trazado 903969" d="M221.57,219.087a1.52,1.52,0,0,0,.48,1.234L241,236.665a1.521,1.521,0,0,1-.479-1.235,3.678,3.678,0,0,1,2.314-3.059l-18.952-16.343a3.678,3.678,0,0,0-2.314,3.059" transform="translate(-221.569 -216.028)" fill="none"/>
    </clipPath>
    <clipPath id="clip-path-24">
      <path id="Trazado_903976" data-name="Trazado 903976" d="M243.655,228.362a.315.315,0,0,0,.323.034l-18.952-16.342a.317.317,0,0,1-.323-.034Z" transform="translate(-224.704 -212.019)" fill="none"/>
    </clipPath>
    <clipPath id="clip-path-26">
      <path id="Trazado_903987" data-name="Trazado 903987" d="M221.57,210.8a1.52,1.52,0,0,0,.48,1.235L241,228.38a1.523,1.523,0,0,1-.479-1.236,3.677,3.677,0,0,1,2.314-3.058l-18.952-16.343a3.676,3.676,0,0,0-2.314,3.058" transform="translate(-221.569 -207.743)" fill="none"/>
    </clipPath>
    <clipPath id="clip-path-28">
      <path id="Trazado_903994" data-name="Trazado 903994" d="M243.655,220.076a.317.317,0,0,0,.323.034l-18.952-16.343a.317.317,0,0,1-.323-.034Z" transform="translate(-224.704 -203.734)" fill="none"/>
    </clipPath>
    <clipPath id="clip-path-30">
      <path id="Trazado_904005" data-name="Trazado 904005" d="M221.57,202.516a1.52,1.52,0,0,0,.48,1.235L241,220.093a1.52,1.52,0,0,1-.479-1.235,3.676,3.676,0,0,1,2.314-3.058l-18.952-16.343a3.677,3.677,0,0,0-2.314,3.059" transform="translate(-221.569 -199.457)" fill="none"/>
    </clipPath>
    <clipPath id="clip-path-32">
      <path id="Trazado_904012" data-name="Trazado 904012" d="M243.655,211.791a.317.317,0,0,0,.323.034l-18.952-16.342a.319.319,0,0,1-.323-.034Z" transform="translate(-224.704 -195.448)" fill="none"/>
    </clipPath>
    <clipPath id="clip-path-34">
      <path id="Trazado_904023" data-name="Trazado 904023" d="M221.57,194.23a1.521,1.521,0,0,0,.48,1.235L241,211.808a1.52,1.52,0,0,1-.479-1.235,3.677,3.677,0,0,1,2.314-3.059l-18.952-16.343a3.678,3.678,0,0,0-2.314,3.059" transform="translate(-221.569 -191.171)" fill="none"/>
    </clipPath>
  </defs>
  <g id="Grupo_1126469" data-name="Grupo 1126469" clip-path="url(#clip-path)">
    <g id="Grupo_1126402" data-name="Grupo 1126402">
      <g id="Grupo_1126401" data-name="Grupo 1126401" clip-path="url(#clip-path)">
        <g id="Grupo_1126394" data-name="Grupo 1126394" transform="translate(115.307 115.342)" style="mix-blend-mode: screen;isolation: isolate">
          <g id="Grupo_1126393" data-name="Grupo 1126393">
            <g id="Grupo_1126392" data-name="Grupo 1126392" clip-path="url(#clip-path-3)">
              <path id="Trazado_903790" data-name="Trazado 903790" d="M204.65,192.913l-8.274,4.808-8.328-4.809,8.274-4.808Z" transform="translate(-188.048 -188.105)" fill="#161616"/>
            </g>
          </g>
        </g>
        <g id="Grupo_1126397" data-name="Grupo 1126397" transform="translate(2.047 120.15)" style="mix-blend-mode: screen;isolation: isolate">
          <g id="Grupo_1126396" data-name="Grupo 1126396">
            <g id="Grupo_1126395" data-name="Grupo 1126395" clip-path="url(#clip-path-4)">
              <path id="Trazado_903791" data-name="Trazado 903791" d="M28.376,203.2,15.9,210.449,3.339,203.2l12.478-7.251Z" transform="translate(-3.339 -195.947)" fill="#161616"/>
            </g>
          </g>
        </g>
        <g id="Grupo_1126400" data-name="Grupo 1126400" transform="translate(22.625 111.562)" style="mix-blend-mode: multiply;isolation: isolate">
          <g id="Grupo_1126399" data-name="Grupo 1126399">
            <g id="Grupo_1126398" data-name="Grupo 1126398" clip-path="url(#clip-path-5)">
              <path id="Trazado_903792" data-name="Trazado 903792" d="M70.116,189.658c0-4.262-7.436-7.718-16.609-7.718S36.9,185.4,36.9,189.658s7.436,7.718,16.609,7.718,16.609-3.456,16.609-7.718" transform="translate(-36.898 -181.94)" fill="#999"/>
            </g>
          </g>
        </g>
      </g>
    </g>
    <g id="Grupo_1126404" data-name="Grupo 1126404" transform="translate(26.895 117.094)">
      <g id="Grupo_1126403" data-name="Grupo 1126403" clip-path="url(#clip-path-6)">
        <path id="Trazado_903793" data-name="Trazado 903793" d="M43.862,191.083l0,1.42a4.355,4.355,0,0,0,.351,1.685l0-1.42a4.367,4.367,0,0,1-.351-1.685" transform="translate(-43.861 -191.009)" fill="#c8a376"/>
        <path id="Trazado_903794" data-name="Trazado 903794" d="M44.435,193.831l0,1.42a7.342,7.342,0,0,0,3.234,3.333,17.828,17.828,0,0,0,8.937,2.092l0-1.42a17.826,17.826,0,0,1-8.936-2.092,7.344,7.344,0,0,1-3.235-3.333" transform="translate(-44.083 -192.072)" fill="#a48157"/>
        <path id="Trazado_903795" data-name="Trazado 903795" d="M64.284,198.147l0,1.42a17.746,17.746,0,0,0,8.512-2.092c2.434-1.405,3.65-3.25,3.644-5.092l0-1.42c0,1.842-1.211,3.687-3.644,5.092a17.751,17.751,0,0,1-8.512,2.092" transform="translate(-51.761 -190.962)" fill="#c8a376"/>
      </g>
    </g>
    <g id="Grupo_1126421" data-name="Grupo 1126421">
      <g id="Grupo_1126420" data-name="Grupo 1126420" clip-path="url(#clip-path)">
        <path id="Trazado_903797" data-name="Trazado 903797" d="M47.5,181.463c-4.834,2.791-4.859,7.316-.057,10.107s12.614,2.791,17.449,0,4.864-7.318.061-10.109-12.618-2.789-17.452,0" transform="translate(-16.967 -69.384)" fill="#f4e0ce"/>
        <path id="Trazado_903798" data-name="Trazado 903798" d="M62.035,108.167h2.4v50.319a1.2,1.2,0,1,1-2.4,0Z" transform="translate(-23.996 -41.841)" fill="#a48157"/>
        <path id="Trazado_903799" data-name="Trazado 903799" d="M61.712,32.443c0,2.656.493,3.551,3.156,5.129S69.8,41.616,69.7,45.166s-3.647,8.383-3.993,15.189.616,14.477.961,18.274-5.894,8.158-11.22,6.482S49.482,79.884,45.192,78.9s-3.971-1.473-4.781-3.357c-1.27-2.954,1.03-10.584,1.819-16.995.592-4.812.644-6.228-1.723-7.855-.935-.643-2.121-1.874-1.677-4.636.433-2.692,2.307-5.411,3.829-7.978,2.515-4.241,4.414-5.789,7.344-5.682.806.029.955-.835,1.143-1.424a2.118,2.118,0,0,1,1.547-1.543,8.921,8.921,0,0,1,4.186-.442c3.748.592,4.833,2.077,4.833,3.458" transform="translate(-14.983 -11.174)" fill="#ffb74d"/>
        <path id="Trazado_903800" data-name="Trazado 903800" d="M48.536,39.174c-3.309-.478-5.573,6.362-6.411,10.159s.592,4.044,4.685,5.227,5.72,4.389,10.7,5.376,6.017-9.222,7.2-11.392c.546-1-.13-3.731-3.008-4.636-1.575-.5-5.834.724-7.841-.1-2.283-.936-2.581-4.24-5.326-4.636" transform="translate(-16.206 -15.144)" fill="#d88d2b"/>
        <path id="Trazado_903801" data-name="Trazado 903801" d="M46.744,73.6c.481-2.677,8.581,3.551,11.343,5.819s-.987,7.594-.592,11.244,3.157,7.446-.049,7.15-10.8-5.129-11.836-8.038S46.4,75.523,46.744,73.6" transform="translate(-17.521 -28.216)" fill="#d88d2b"/>
        <path id="Trazado_903802" data-name="Trazado 903802" d="M69.083,31.79c.943,1.223-2.219,2.848-5.474,2.293s-4.036-2.22-3.308-3.292c.867-1.276,6.9-1.448,8.782,1" transform="translate(-23.228 -11.557)" fill="#d88d2b"/>
        <g id="Grupo_1126407" data-name="Grupo 1126407" transform="translate(89.684 112.386)" style="mix-blend-mode: multiply;isolation: isolate">
          <g id="Grupo_1126406" data-name="Grupo 1126406">
            <g id="Grupo_1126405" data-name="Grupo 1126405" clip-path="url(#clip-path-8)">
              <path id="Trazado_903803" data-name="Trazado 903803" d="M180.725,186.714c7.92,4.573,7.96,11.986.091,16.559s-20.667,4.574-28.588,0-7.963-11.987-.094-16.56,20.67-4.573,28.59,0" transform="translate(-146.261 -183.285)" fill="#838383"/>
            </g>
          </g>
        </g>
        <path id="Trazado_903804" data-name="Trazado 903804" d="M187.495,76.12c-1.626-3.574-3.39-7.056-4.085-8.217s-1.347-7.892-2.971-12.581-4.829-6.852-7.938-8.37c-2.647-1.031-5.772.187-6.716.031s-.213-2.555-.944-3.688c-.025-.039-.041-.075-.061-.112a6.5,6.5,0,0,1-3.382.252,2.56,2.56,0,0,1-1.272-1.157,16.846,16.846,0,0,0-2.875.162c-2.8.45-3.494.513-4.339,1.166a61.367,61.367,0,0,0-5.5,5.031c-1.41,1.44-2.955,3.536-4.456,4.967-4.167,3.972-7.493,7.689-7.892,8.124a1.308,1.308,0,0,0-.226.977,3.163,3.163,0,0,0,.356,1.139,4.243,4.243,0,0,0,2.908-1.139c1.394-1.251,4.875-4.807,7.312-6.827s5.431-2.507,7.172-4.248,3.133-3.412,3.133-3.08a35.959,35.959,0,0,0-1.671,5.168c-.177,1.028-.862,3.177-1.545,6.119-.481,4.572,2.138,12.63-.85,16.832,1.461,2.561,8.949,3.741,13.411,4.074a3.164,3.164,0,0,0,2.006-2.015c.543-2.027-.836-12.058-.487-15.4s1.879-9.679,3.77-9.61,2.149.7,3.889,4.039,3.133,6.685,4.317,8.7c.74,1.262.69,2.388.992,4.268l.008.021c.47,1.193,4.452,9.845,5.645,11.56a1.558,1.558,0,0,0,.16.191c-.07-.28-.119-.456-.119-.456a4.931,4.931,0,0,1,2.527-1.583c1.357-1.217,1.142-1.225-.276-4.345" transform="translate(-52.155 -16.353)" fill="#a5d6a7"/>
        <path id="Trazado_903805" data-name="Trazado 903805" d="M184.679,46.169c.943.156,4.069-1.061,6.716-.031-.183-.089-.359-.186-.53-.289l.955-.616c-2.165-1.344-3.066-5.065-3.066-5.065-1.572,1.041-2.157.571-2.157.571a5.969,5.969,0,0,1-2.923,1.629c.02.037.036.072.061.112.731,1.133,0,3.532.944,3.688" transform="translate(-71.049 -15.538)" fill="#a5d6a7"/>
        <path id="Trazado_903806" data-name="Trazado 903806" d="M178.786,49.9l0,.031,0-.031" transform="translate(-69.158 -19.304)" fill="#5b6989"/>
        <path id="Trazado_903807" data-name="Trazado 903807" d="M178.689,49.084l0,.018,0-.018" transform="translate(-69.121 -18.987)" fill="#5b6989"/>
        <path id="Trazado_903808" data-name="Trazado 903808" d="M178.887,50.733c0,.018,0,.036.007.055,0-.018,0-.037-.007-.055" transform="translate(-69.197 -19.625)" fill="#5b6989"/>
        <path id="Trazado_903809" data-name="Trazado 903809" d="M179.221,53.263c0,.012,0,.024,0,.036,0-.012,0-.024,0-.036" transform="translate(-69.327 -20.603)" fill="#5b6989"/>
        <path id="Trazado_903810" data-name="Trazado 903810" d="M179.337,54.061l0,.02,0-.02" transform="translate(-69.371 -20.912)" fill="#5b6989"/>
        <path id="Trazado_903811" data-name="Trazado 903811" d="M178.995,51.581l.007.059-.007-.059" transform="translate(-69.239 -19.953)" fill="#5b6989"/>
        <path id="Trazado_903812" data-name="Trazado 903812" d="M179.106,52.432c0,.017,0,.033.007.05,0-.017,0-.033-.007-.05" transform="translate(-69.282 -20.282)" fill="#5b6989"/>
        <path id="Trazado_903813" data-name="Trazado 903813" d="M189.977,34.39c.026,0,.052,0,.078,0s.054,0,.08.007a2.941,2.941,0,0,1,.309.05.691.691,0,0,0,0,.094.676.676,0,0,0,.033.2.5.5,0,0,0,.031.069c.11.2.407.325,1.18-.174a7.189,7.189,0,0,1,.85-1.851c.849-1.239.41-2.713-.585-2.168-.9.492-1.286,3.2-1.973,3.77" transform="translate(-73.487 -11.8)" fill="#e8b188"/>
        <path id="Trazado_903814" data-name="Trazado 903814" d="M177.018,37.128c2.318.612,5.923-1.1,6.3-1.881.063-.128.123-.277.183-.434.017-.044.033-.088.048-.134.048-.137.1-.28.139-.423a10.663,10.663,0,0,0,.327-1.356c0-.008,0-.015,0-.023a.675.675,0,0,0,.009-.13c-.28.021-.375-1.242-.824-2.856s-1.309-1.785-1.662-3.923c-3.008.641-4.848.661-5.986.1a52.473,52.473,0,0,0-.316,7.353,15.221,15.221,0,0,0,.159,1.613,2.723,2.723,0,0,0,.342.934,2.561,2.561,0,0,0,1.273,1.157" transform="translate(-67.775 -10.045)" fill="#e8b188"/>
        <path id="Trazado_903815" data-name="Trazado 903815" d="M180.609,22.048c.353,2.138,1.213,2.309,1.662,3.923s.544,2.877.825,2.856a.426.426,0,0,0,.232-.112c.686-.57,1.074-3.278,1.973-3.77.995-.545,1.434.929.585,2.168a7.189,7.189,0,0,0-.85,1.851c-.028.088-.054.174-.078.257s-.046.162-.066.237c-.04.151-.073.287-.1.4s-.045.2-.058.268-.018.1-.018.1a8.848,8.848,0,0,0,3.291-5.569c.487-3.571-.008-8.334-6.111-8.773s-9.111,2.136-9.111,2.136c.156,2.095.538,3.491,1.838,4.13,1.137.56,2.978.54,5.985-.1" transform="translate(-66.837 -6.124)" fill="#311b0b"/>
        <path id="Trazado_903816" data-name="Trazado 903816" d="M190.772,38.352s.006-.035.018-.1.031-.155.057-.268.059-.249.1-.4c.02-.075.042-.155.066-.238s.05-.168.077-.256c-.773.5-1.069.376-1.179.174a.458.458,0,0,1-.031-.069.678.678,0,0,1-.033-.2.772.772,0,0,1,0-.094,3.045,3.045,0,0,0-.308-.051l-.08-.006-.078,0a.427.427,0,0,1-.233.112.678.678,0,0,1-.009.13c0,.007,0,.015,0,.023a10.558,10.558,0,0,1-.327,1.356c-.044.143-.09.286-.139.423-.016.045-.032.09-.048.133-.059.158-.12.307-.183.435,0,0,.585.468,2.157-.572Z" transform="translate(-72.893 -14.251)" fill="#ce9772"/>
        <path id="Trazado_903817" data-name="Trazado 903817" d="M227.039,112.96a91.15,91.15,0,0,0-4.969-7.74,2.783,2.783,0,0,0-.814-.806,4.546,4.546,0,0,0-4.207,1.636s.049.177.118.456a12.185,12.185,0,0,1,.443,3.342c-.11,1.09.047,3.181.008,3.637-.088,1.008.7.132,1.1.438s.92-2.717,1.139-2.5,2.06,4.163,2.323,4.294,2.586.22,3.068-.307,2.235-1.665,1.8-2.454" transform="translate(-83.959 -40.355)" fill="#e8b188"/>
        <path id="Trazado_903818" data-name="Trazado 903818" d="M131.254,75.6c-.838.738-3.033,3.691-3.577,4.236a25.762,25.762,0,0,0-2.069,4.52c-.218.6.49.654.817.436s2.088-2.218,2.524-2.544a4.054,4.054,0,0,1,1.706-.627c.49-.055,1.991-1.578,2.263-1.741a6.655,6.655,0,0,0,.887-1.505.733.733,0,0,1-.168-.013,3.282,3.282,0,0,1-2.382-2.762" transform="translate(-48.572 -29.243)" fill="#e8b188"/>
        <path id="Trazado_903819" data-name="Trazado 903819" d="M153.513,196.51c.193.842,1.481,1.747,2.526,2.269a6.14,6.14,0,0,0,3.795,0c.835-.279,3.864-3.35,5.083-3.968s3.891-.314,4.958-1.985a3.4,3.4,0,0,0,.413-2.463,3.162,3.162,0,0,1-.7,1.208,6.951,6.951,0,0,1-3.377,1.741,12.988,12.988,0,0,0-4.289,2.751c-1.331,1.149-2.6,2.228-4.345,2.108a5.347,5.347,0,0,1-3.819-2.576,1.151,1.151,0,0,0-.244.915" transform="translate(-59.374 -73.637)" fill="#292e3f"/>
        <path id="Trazado_903820" data-name="Trazado 903820" d="M183.949,213.991a7.071,7.071,0,0,0,2.946.865c1.184.115,3.97-.419,4.944-1.6a4.247,4.247,0,0,0,.435-3.083,3.875,3.875,0,0,1-2.031,2.571,9.531,9.531,0,0,1-5.571.243c-1.323-.522-1.353-1.919-.871-3.266a4.53,4.53,0,0,0-.365.725,5.21,5.21,0,0,0,.514,3.547" transform="translate(-70.908 -81.124)" fill="#292e3f"/>
        <path id="Trazado_903821" data-name="Trazado 903821" d="M181.265,138.446a18.941,18.941,0,0,0,.416-4.642c-.045-1.949-2.263-12.162-1.618-17.083s2.169-7.323-.635-8.913c-.905-.513-1.966-1.073-2.989-1.6-3.368-.107-11.294-.751-15.015-5.424a73.659,73.659,0,0,0,0,10.978c.485,4.874,2.578,10.376,2.369,12.882-.315,3.778-.258,5.083.442,6.688.617,1.413.885,9.412,1.586,14.749.072.46.477.777,1.009.984,2.608.292,2.456-5.141,2.828-7.787s.232-8.542.418-12.348,2.6-4.086.185-8.4-3.846-7.938-3.431-9.1,3.521.743,5.5,1.114,1.6,6.406,1.6,8.4-.14,7.037.106,8.223c.185.893.361,1.743.435,2.1.186.882.239,3.157.416,5.177.225,2.567.652,2.622,1.209,6.939.359,2.785.643,8.92.8,12.925.088.807,1.234,1.286,2.537,1.453l0-.048c3.907-.9,1.465-14.947,1.836-17.268" transform="translate(-62.359 -38.987)" fill="#a5d6a7"/>
        <path id="Trazado_903822" data-name="Trazado 903822" d="M192.944,155.709a1.443,1.443,0,0,0,.023-.294c.345-4.379,1.207-12.794,1.257-14.691.1-3.716-.681-6.853-.724-8.492a151.286,151.286,0,0,1,1.548-16.785,21.142,21.142,0,0,0-1.367-11.729q-.141-.312-.293-.614s-4.039,4.056-6.2,4.027c-.269,0-.656-.009-1.135-.024,1.022.522,2.084,1.082,2.989,1.6,2.8,1.59,1.279,3.992.634,8.913s1.573,15.134,1.619,17.083a18.974,18.974,0,0,1-.417,4.642c-.371,2.321,2.07,16.367-1.836,17.268l0,.048c1.735.223,3.747-.1,3.9-.949" transform="translate(-71.968 -39.883)" fill="#75a075"/>
        <path id="Trazado_903823" data-name="Trazado 903823" d="M177.433,124.168c0-2,.372-8.031-1.6-8.4s-5.082-2.275-5.5-1.114,1.018,4.782,3.432,9.1,0,4.6-.186,8.4-.046,9.7-.418,12.348-.22,8.079-2.829,7.787a6.021,6.021,0,0,0,2.782.267c1.045-.186,2-.77,2.133-1.463.583-3.005,1.492-8.147,1.393-10.5-.058-1.389.324-10.978.324-10.978s.3,1.439.574,2.78c-.246-1.187-.106-6.227-.106-8.224" transform="translate(-65.861 -44.206)" fill="#75a075"/>
        <path id="Trazado_903824" data-name="Trazado 903824" d="M177.207,102.348c-2.951.462-10.4-1.581-13.949-3.96a1.116,1.116,0,0,0-1.738.968c0,.086.007.169.012.248a.556.556,0,0,0,.13.325c4.309,5.195,13.887,5.274,16.033,5.3,2.166.029,6.2-4.026,6.2-4.026.1.2.2.406.293.614-.12-.289-.452-1.106-.824-2.158a.571.571,0,0,0-.94-.216,9.728,9.728,0,0,1-5.221,2.9" transform="translate(-62.479 -37.984)" fill="#fbb03b"/>
        <path id="Trazado_903825" data-name="Trazado 903825" d="M170.377,79.315c-.007-.632-.16-15.5.41-19a20.308,20.308,0,0,1,2.61-7.223c.443-.821.9-1.67,1.336-2.66a15.092,15.092,0,0,1,2-3.19c.96-1.261,1.594-2.093,1.137-3.265l.519-.2c.57,1.462-.217,2.5-1.213,3.8a14.661,14.661,0,0,0-1.928,3.078c-.445,1.01-.908,1.869-1.355,2.7a19.83,19.83,0,0,0-2.551,7.048c-.562,3.449-.4,18.75-.4,18.9Z" transform="translate(-65.896 -16.934)" fill="#75a075"/>
        <path id="Trazado_903826" data-name="Trazado 903826" d="M212.882,82.793a2.783,2.783,0,0,1,.814.806.76.76,0,0,0,.009-.1c0-.9-1.384-4.877-2.766-8.835-.673-1.926-2.017-4-2.529-5.558-.544-1.659-1.03-5.56-1.641-7.792a31.98,31.98,0,0,0-3.207-8.075c-.8-1.293-3.655-3.06-7.207-4.811l-.955.616c.171.1.347.2.53.289,3.111,1.518,6.314,3.682,7.938,8.37s2.275,11.42,2.971,12.58,2.46,4.642,4.085,8.217c1.418,3.12,1.634,3.128.277,4.345a3.151,3.151,0,0,1,1.68-.053" transform="translate(-75.585 -18.733)" fill="#75a075"/>
        <path id="Trazado_903827" data-name="Trazado 903827" d="M193.314,64.982c-1.741-3.342-2-3.969-3.889-4.039s-3.423,6.267-3.771,9.61,1.031,13.373.487,15.4a3.16,3.16,0,0,1-2.005,2.015,8.269,8.269,0,0,0,1.819-.03c2.872-.449,5.27-1.434,6.153-2.474-.559-1.694-3.443-3.241-3.173-6.953.216-2.975,1.553-13.5,4.452-9.807.624.8,3.729,5.817,4.474,6.638s.3,1.435.762,2.614c-.3-1.88-.253-3.006-.992-4.268-1.184-2.019-2.577-5.362-4.317-8.7" transform="translate(-71.228 -23.574)" fill="#75a075"/>
        <path id="Trazado_903828" data-name="Trazado 903828" d="M155.949,52.485c0-.331-1.393,1.34-3.133,3.081s-4.735,2.229-7.172,4.248-5.919,5.576-7.312,6.826a4.247,4.247,0,0,1-2.908,1.139,3.25,3.25,0,0,0,2.026,1.624,2.743,2.743,0,0,0,1.3-.188s5.394-5.447,7.453-6.755c1.481-.941,7.1-3.9,7.1-3.9s-.252,2.168-.572,5.213c.684-2.943,1.369-5.09,1.545-6.118a36,36,0,0,1,1.671-5.17" transform="translate(-52.385 -20.286)" fill="#75a075"/>
        <path id="Trazado_903829" data-name="Trazado 903829" d="M192.48,192.81a10.843,10.843,0,0,1,.09-3.648c.009-.22-.2-.416-.555-.586-.066.358-.469.622-1.041.792a13.26,13.26,0,0,1-.147,3.36c-.418,1.857-.836,2.553-.455,4.566s.548,4.022-.614,4.44-4.5.372-4.352-.388a12.114,12.114,0,0,0,.779-5.508c-.278-3.249-1.229-5.8-.523-7.467a.959.959,0,0,1-.088-.3c-.587.141-.933.365-.844.684a68.577,68.577,0,0,1,.977,8.252c.054,1.605-1.118,3.222-1.775,4.338-.481,1.347-.451,2.744.871,3.266a9.526,9.526,0,0,0,5.571-.244,3.875,3.875,0,0,0,2.031-2.57c-.094-.895-.251-1.863-.319-2.813-.162-2.3-.533-3.051-.325-3.812s1.088-1.341.718-2.362" transform="translate(-71.039 -72.75)" fill="#5b6989"/>
        <path id="Trazado_903830" data-name="Trazado 903830" d="M169.327,175.023a.929.929,0,0,0-.4-.709c-.133.693-1.088,1.277-2.133,1.463a4.752,4.752,0,0,1-.8.058,2.472,2.472,0,0,1,.455,1.347c-.034,1.148,1.184,3.864.662,5.779a3.029,3.029,0,0,1-2.507,2.124s-4.909,4.561-5.814,4.909a4.519,4.519,0,0,1-4.222-1.281,3.663,3.663,0,0,0-.641.673,5.348,5.348,0,0,0,3.818,2.577c1.741.12,3.015-.96,4.345-2.108a12.984,12.984,0,0,1,4.29-2.751,6.967,6.967,0,0,0,3.377-1.741,3.167,3.167,0,0,0,.7-1.208c-.146-1.025-.519-2.18-.705-3.6-.348-2.646-.423-5.536-.423-5.536" transform="translate(-59.542 -67.428)" fill="#5b6989"/>
        <path id="Trazado_903831" data-name="Trazado 903831" d="M159.193,190.127c.905-.348,5.814-4.909,5.814-4.909a3.03,3.03,0,0,0,2.507-2.124c.522-1.915-.7-4.63-.662-5.779a2.482,2.482,0,0,0-.455-1.347c-1.193,0-2.835-.334-2.988-1.309-.423.216-.662.46-.589.707a16.349,16.349,0,0,1,.372,3.76,8.846,8.846,0,0,1-1.149,3.151c-.825,1.651-4.6,4.961-5.814,5.692a9.662,9.662,0,0,0-1.257.877,4.519,4.519,0,0,0,4.221,1.28" transform="translate(-59.947 -67.562)" fill="#fbb03b"/>
        <path id="Trazado_903832" data-name="Trazado 903832" d="M187.292,196.026a12.126,12.126,0,0,1-.779,5.508c-.15.759,3.189.806,4.352.388s1-2.427.614-4.44.037-2.709.455-4.566a13.287,13.287,0,0,0,.147-3.36c-1.655.492-4.739.183-5.31-1-.708,1.672.243,4.218.521,7.467" transform="translate(-72.145 -72.939)" fill="#fbb03b"/>
        <g id="Grupo_1126410" data-name="Grupo 1126410" transform="translate(56.459 126.413)" style="mix-blend-mode: multiply;isolation: isolate">
          <g id="Grupo_1126409" data-name="Grupo 1126409">
            <g id="Grupo_1126408" data-name="Grupo 1126408" clip-path="url(#clip-path-9)">
              <path id="Trazado_903833" data-name="Trazado 903833" d="M141.208,217.575c0-6.3-11-11.415-24.566-11.415s-24.566,5.111-24.566,11.415,11,11.415,24.566,11.415,24.566-5.111,24.566-11.415" transform="translate(-92.076 -206.16)" fill="#999"/>
            </g>
          </g>
        </g>
        <path id="Trazado_903834" data-name="Trazado 903834" d="M161,142.55l.777-.039c-.4-8.069,1.109-23.064,1.412-25.945-.321-.051-.6-.09-.771-.1-.3,2.848-1.822,17.945-1.418,26.086" transform="translate(-62.251 -45.051)" fill="#fbb03b"/>
        <path id="Trazado_903835" data-name="Trazado 903835" d="M165.887,47.976l.155,36.339c.261-.388.61-.8.757-.7l.017.012-.154-35.994a1.085,1.085,0,0,1-.755.343l-.02,0" transform="translate(-64.169 -18.426)" fill="#fbb03b"/>
        <path id="Trazado_903836" data-name="Trazado 903836" d="M125.048,182.2a5,5,0,0,0,4.409-.418.993.993,0,0,0,.484-.895c-.2-1.3-.5-18.634.35-22.331s1.4-2.748,1.4-5.5c0-1.908.264-7.9.427-11.393-1.291,7.552-3.57,20.366-4.59,22.917-.848,2.122-1.833,10.09-2.479,17.616" transform="translate(-48.371 -54.801)" fill="#c2882e"/>
        <path id="Trazado_903837" data-name="Trazado 903837" d="M119.534,70.424a27.49,27.49,0,0,0,1.39-5.251c.65-3.062,1.336-6.374,1.957-6.939,1.1-1,1.853-.659,2.561-2.008-.157-2.981.682-4.321,1.686-3.937,1.3.5.153,1.991,1.015,1.765.186-.049.451-1.814.833-1.965a4.64,4.64,0,0,0,2.409-2.688,7.145,7.145,0,0,0,.316-.991,6.922,6.922,0,0,0,.073-3.015,15.916,15.916,0,0,0-1.317-1.653c-6.218-6.823-14.759-3.2-14.619,3.6a115.8,115.8,0,0,1-.636,11.8c-.123,1.584-.213,3.111-.213,4.587,0,4.846,3.6,8.293,4.546,6.694" transform="translate(-44.48 -15.508)" fill="#311b0b"/>
        <path id="Trazado_903838" data-name="Trazado 903838" d="M129.929,79.927c.192-.511.261-2.618.574-4.278l0-.014c-.851,1.389-1.9,3.35-2.593,4.237,1.31.581,1.8.62,2.016.055" transform="translate(-49.48 -29.257)" fill="#e8b188"/>
        <path id="Trazado_903839" data-name="Trazado 903839" d="M135.56,57.963c-.382.151-.647,1.916-.833,1.965-.862.226.289-1.266-1.015-1.765-.969-.372-1.783.871-1.7,3.645a2.812,2.812,0,0,1,.213.652c.364,1.6.826,2.805,1.968,2.556a1.284,1.284,0,0,1,.332-.039,2.071,2.071,0,0,0,.482-.618c.533-.944,2.877-5.149,2.959-9.084a4.642,4.642,0,0,1-2.409,2.688" transform="translate(-51.064 -21.382)" fill="#e8b188"/>
        <path id="Trazado_903840" data-name="Trazado 903840" d="M131.358,69.137c-1.142.249-1.6-.953-1.968-2.556a2.862,2.862,0,0,0-.213-.653c0,.1,0,.191.009.292-.708,1.348-1.462,1.009-2.561,2.008-.622.565-1.307,3.878-1.957,6.939.818.4,1.467.718,1.989.95.7-.888,1.742-2.848,2.593-4.238a3.486,3.486,0,0,1,.822-2c.8-.583,1.2-.449,1.616-.78a1.291,1.291,0,0,0-.332.04" transform="translate(-48.225 -25.502)" fill="#ce9772"/>
        <path id="Trazado_903841" data-name="Trazado 903841" d="M133.117,99.244c4,3.4,6.149,5.645,7.356,5.786s8.252-.587,9.856-.49,2.109.415,2.658.134a2.256,2.256,0,0,0,.741-1.113,13.994,13.994,0,0,0-.161-2.345c-.163-.621-1.619-1.42-1.893-1.607l-.017-.012c-.148-.105-.5.311-.757.7a3.4,3.4,0,0,0-.308.534,7.987,7.987,0,0,1-1.141,1.19s-7.885-.69-8.751-1.29a40.861,40.861,0,0,1-2.78-3.449c-2.808-3.625-6.867-8.73-8.244-8.308a4.681,4.681,0,0,0-2.848,2.5c-.644,3.6,2.3,4.373,6.291,7.774" transform="translate(-49.025 -34.407)" fill="#e8b188"/>
        <path id="Trazado_903842" data-name="Trazado 903842" d="M127.8,98.458a68.117,68.117,0,0,0,8.294,6.752c1.725,1.242,3.109,2.179,3.49,2.407,1,.6,8.807-.212,9.307-.212.028,0,.065,0,.105.006.172.013.45.051.771.1.969.153,2.326.415,2.326.415s1.236-.778,1.369-1.277a8.461,8.461,0,0,0,.074-1.5,2.252,2.252,0,0,1-.741,1.113c-.548.281-1.055-.037-2.658-.134s-8.648.632-9.856.49-3.36-2.385-7.356-5.786-6.936-4.178-6.292-7.774a4.824,4.824,0,0,0,1.166,5.4" transform="translate(-48.834 -35.998)" fill="#ce9772"/>
        <path id="Trazado_903843" data-name="Trazado 903843" d="M159.422,43.137s-1.687-2.991-2.526-2.969-1.557,2.375-2.141,2.375c-.563,0-6.915,1.749-12.358,3.385a7.093,7.093,0,0,1-.155,2.512A67.463,67.463,0,0,1,153.136,44.3c1.855-.394,2.706.774,3.6.791l.02,0a1.085,1.085,0,0,0,.755-.343c.354-.331.579-.742.944-.45a2.842,2.842,0,0,1,.218.2,1.6,1.6,0,0,1-.166-.558c.053-.361.91-.8.91-.8" transform="translate(-55.023 -15.538)" fill="#ce9772"/>
        <path id="Trazado_903844" data-name="Trazado 903844" d="M159.148,44.05a1.579,1.579,0,0,0,.906-.963s-2.209-5.1-3.115-5.551a2.661,2.661,0,0,0-1.982,0,10.008,10.008,0,0,1-3.342,2.039c-1.165.269-8.419,2.274-11.4,3.1a16.049,16.049,0,0,1,1.317,1.653c.035.165.06.334.081.5,5.443-1.636,11.8-3.385,12.358-3.385.583,0,1.3-2.353,2.141-2.375s2.527,2.969,2.527,2.969-.857.437-.91.8a1.592,1.592,0,0,0,.166.558c.419.413.669.847,1.254.652" transform="translate(-54.238 -14.442)" fill="#e8b188"/>
        <path id="Trazado_903845" data-name="Trazado 903845" d="M115.819,235.536c1.555.517,2.721.031,4.276,1a24.158,24.158,0,0,0,4.56,2.575c1.464.486,3.845-.557,4.282-.619.276-.039.562-.446.736-.741a2.127,2.127,0,0,0-.711-.656c-2.271-1.41-6.942-3.273-7.442-3.772a6.816,6.816,0,0,1-1.465-2.577c-.976,1.069-3.566.983-5.037-.018.028,1.786-.621,4.332.8,4.8" transform="translate(-44.443 -89.252)" fill="#e8b188"/>
        <path id="Trazado_903846" data-name="Trazado 903846" d="M128.721,210.987a36.4,36.4,0,0,1,8.551-.61,1.105,1.105,0,0,0,1.236-1.035,11.543,11.543,0,0,0-2.019-.7,59.519,59.519,0,0,0-5.9-.833,3.243,3.243,0,0,1-1.3-.721,5,5,0,0,1-4.409.419c-.093,1.081-.177,2.146-.253,3.187.928.9,2.236.773,4.086.29" transform="translate(-48.212 -80.107)" fill="#e8b188"/>
        <path id="Trazado_903847" data-name="Trazado 903847" d="M125.411,214.427c1.565-.133,3.53-.766,4.8-1s6.795-.567,7.727-.833,1.3-.633.933-1.366a1.189,1.189,0,0,0-.446-.469,1.106,1.106,0,0,1-1.236,1.036,36.394,36.394,0,0,0-8.551.609c-1.85.483-3.157.614-4.086-.29-.048.659-.094,1.31-.137,1.943.167.3.456.415,1,.368" transform="translate(-48.125 -81.527)" fill="#ce9772"/>
        <path id="Trazado_903848" data-name="Trazado 903848" d="M114.162,230.335c-.216,3.335-.752,3.989-.366,4.784a4.031,4.031,0,0,0,3.822,2.2c1.3,0,4.735,2.887,6.182,3.1,1.3.188,5.424-1.2,5.483-1.9a.989.989,0,0,0-.088-.917c-.174.295-.46.7-.736.741-.437.061-2.818,1.1-4.281.619a24.147,24.147,0,0,1-4.561-2.575c-1.555-.971-2.72-.486-4.276-1-1.422-.473-.773-3.019-.8-4.8a3.164,3.164,0,0,1-.322-.247Z" transform="translate(-43.966 -89.096)" fill="#ce9772"/>
        <path id="Trazado_903849" data-name="Trazado 903849" d="M128.513,125.239s-1.8,3.3-5.4,3.1c-3.268-.182-6.864-.446-9.068-5.56-3.246,4.53,1.281,17.894,1.878,27.061.621,9.523.254,5.764,0,14.4s-2.085,20.293-1.461,22.917a4.047,4.047,0,0,0,2.057,2.581,3.4,3.4,0,0,0,2.755-.743,1.427,1.427,0,0,0,.376-.8c-.049-1.748.072-4.727.3-8.161.109-1.635.239-3.365.391-5.13.646-7.525,1.63-15.494,2.479-17.616,1.02-2.551,3.3-15.365,4.59-22.917.563-3.293,1.346-9.968,1.347-9.97-.155.534-.247.848-.247.848" transform="translate(-43.668 -47.492)" fill="#fbb03b"/>
        <path id="Trazado_903850" data-name="Trazado 903850" d="M112.924,186.078c-.624-2.624,1.207-14.284,1.461-22.917s.621-4.874,0-14.4c-.6-9.167-5.124-22.531-1.879-27.061a17.054,17.054,0,0,1-.623-1.7s-5.411,5.2-1.66,16.553c2.209,6.689,2.864,12.856,1.932,17.385s-.533,10.495-.533,23.647c0,1.4-.533,6.528.067,8.993a2.12,2.12,0,0,0,.688,1.071,4.641,4.641,0,0,0,2.6,1.007,4.043,4.043,0,0,1-2.057-2.581" transform="translate(-42.125 -46.42)" fill="#c2882e"/>
        <path id="Trazado_903851" data-name="Trazado 903851" d="M93.049,117.711l-.083-.405s.027.537.083.405" transform="translate(-35.961 -45.377)" fill="#292e3f"/>
        <path id="Trazado_903852" data-name="Trazado 903852" d="M115.528,96.349a60.739,60.739,0,0,0-2.348-14.916,9.2,9.2,0,0,1,.05-4.713,9.676,9.676,0,0,1-.05-.971c0-1.476.091-3,.213-4.587-2.735,1.537-3.626,8.864-2.761,12.13.9,3.4,3.3,9.459,1.8,17.818,1.506,4.854,3.991,6.378,6.6,6.925-3.993-2.759-3.613-8.089-3.507-11.687" transform="translate(-42.672 -27.527)" fill="#292e3f"/>
        <path id="Trazado_903853" data-name="Trazado 903853" d="M123.994,80.045c-.375,1.764-.737,3.445-1.069,4.468.908-1.346,3.239-3.289,5.28-2.609,1.234.411.719-1.662.12-3.368A19.376,19.376,0,0,1,128,81.05c-.3.79-1.138.4-4.005-1" transform="translate(-47.55 -30.38)" fill="#292e3f"/>
        <path id="Trazado_903854" data-name="Trazado 903854" d="M131.841,83.333c-2.4-2.4-3.866-5.143-6.52-7.675-.106.564-.184,1.178-.248,1.765.6,1.705,1.114,3.779-.12,3.368-2.041-.68-4.373,1.263-5.28,2.608a4.126,4.126,0,0,1-.321.783c-.885,1.489-4.066-1.4-4.5-5.723a9.2,9.2,0,0,0-.05,4.712,60.75,60.75,0,0,1,2.348,14.916c-.106,3.6-.486,8.928,3.506,11.687a20.572,20.572,0,0,0,3.087.336c3.6.2,5.4-3.1,5.4-3.1s.092-.314.246-.847c.421-1.452,1.315-4.567,2.169-7.687-.676-.487-1.4-1.021-2.146-1.577.009,3.248-1.763,6.282-3.391,5.607-1.819-.754-4.769-8.957-4.225-13.491a4.514,4.514,0,0,1,3.151-5.185c1.377-.422,5.436,4.683,8.244,8.307.016-.072.033-.146.048-.215,1-4.5,1.2-5.994-1.4-8.592" transform="translate(-44.297 -29.266)" fill="#5b6989"/>
        <path id="Trazado_903855" data-name="Trazado 903855" d="M130.572,110.937c1.628.675,3.4-2.359,3.391-5.608a53.544,53.544,0,0,1-6.148-5.175,5.6,5.6,0,0,1-1.468-2.708c-.545,4.533,2.406,12.736,4.225,13.491" transform="translate(-48.848 -37.694)" fill="#292e3f"/>
        <g id="Grupo_1126413" data-name="Grupo 1126413" transform="translate(13.536 127.793)" style="mix-blend-mode: multiply;isolation: isolate">
          <g id="Grupo_1126412" data-name="Grupo 1126412">
            <g id="Grupo_1126411" data-name="Grupo 1126411" clip-path="url(#clip-path-10)">
              <path id="Trazado_903856" data-name="Trazado 903856" d="M37.182,209.917a12.863,12.863,0,0,0-6.29-1.505,12.743,12.743,0,0,0-6.264,1.5c-1.648.958-2.555,2.226-2.553,3.57s.923,2.631,2.594,3.6a13.847,13.847,0,0,0,12.554,0c1.647-.957,2.553-2.224,2.551-3.567s-.922-2.629-2.592-3.592" transform="translate(-22.075 -208.412)" fill="#848484"/>
            </g>
          </g>
        </g>
        <g id="Grupo_1126416" data-name="Grupo 1126416" transform="translate(25.171 136.423)" style="mix-blend-mode: multiply;isolation: isolate">
          <g id="Grupo_1126415" data-name="Grupo 1126415">
            <g id="Grupo_1126414" data-name="Grupo 1126414" clip-path="url(#clip-path-11)">
              <path id="Trazado_903857" data-name="Trazado 903857" d="M55.153,223.89a12.011,12.011,0,0,0-5.872-1.405,11.887,11.887,0,0,0-5.847,1.4c-1.539.894-2.386,2.077-2.384,3.333s.862,2.456,2.422,3.357a12.928,12.928,0,0,0,11.72,0c1.538-.893,2.383-2.076,2.382-3.331s-.862-2.454-2.42-3.353" transform="translate(-41.049 -222.485)" fill="#848484"/>
            </g>
          </g>
        </g>
        <g id="Grupo_1126419" data-name="Grupo 1126419" transform="translate(0 135.332)" style="mix-blend-mode: multiply;isolation: isolate">
          <g id="Grupo_1126418" data-name="Grupo 1126418">
            <g id="Grupo_1126417" data-name="Grupo 1126417" clip-path="url(#clip-path-10)">
              <path id="Trazado_903858" data-name="Trazado 903858" d="M15.107,222.211a12.863,12.863,0,0,0-6.29-1.505,12.743,12.743,0,0,0-6.264,1.5C.905,223.166,0,224.434,0,225.778s.923,2.631,2.594,3.6a13.847,13.847,0,0,0,12.554,0c1.647-.957,2.553-2.224,2.551-3.567s-.922-2.629-2.592-3.592" transform="translate(0 -220.706)" fill="#848484"/>
            </g>
          </g>
        </g>
        <path id="Trazado_903859" data-name="Trazado 903859" d="M51.981,213.353c0-.006,0-.012,0-.018a3.32,3.32,0,0,0,.059-.586l0-1.194c-.02.083-.037.167-.063.25Z" transform="translate(-20.107 -81.834)" fill="#999"/>
        <path id="Trazado_903860" data-name="Trazado 903860" d="M47.753,214.871l-.006,1.849.05-.033.045-.029c.149-.092.3-.184.437-.281.189-.135.36-.272.521-.411.052-.045.1-.091.147-.137.106-.1.208-.2.3-.3.05-.054.1-.109.145-.164q.125-.145.235-.294c.04-.055.082-.11.12-.166.072-.108.137-.218.2-.328.026-.047.055-.093.079-.14a3.776,3.776,0,0,0,.2-.476c.007-.02.01-.039.016-.058a3.38,3.38,0,0,0,.1-.395l0-1.548a5.472,5.472,0,0,1-2.595,2.907" transform="translate(-18.47 -81.992)" fill="#b3b3b3"/>
        <path id="Trazado_903861" data-name="Trazado 903861" d="M44.305,219.487c.07-.024.136-.053.205-.078.185-.067.37-.133.548-.208.091-.038.183-.075.272-.116a10.035,10.035,0,0,0,.9-.457c.041-.024.076-.05.117-.075l0-1.849c-.023.013-.042.029-.066.042a10.914,10.914,0,0,1-2.149.934l-.006,1.863.169-.058" transform="translate(-17.073 -83.826)" fill="#ccc"/>
        <path id="Trazado_903862" data-name="Trazado 903862" d="M36.013,220.859c.435-.009.868-.033,1.3-.075.047,0,.094-.007.141-.012.446-.048.886-.12,1.319-.205.086-.017.172-.034.257-.052.027-.006.052-.015.078-.021.4-.088.786-.187,1.163-.307.026-.008.05-.018.075-.026l.006-1.863a15.426,15.426,0,0,1-4.656.7c-.453,0-.9-.025-1.353-.061l0,1.872.134.011c.083.006.168,0,.252.009.363.021.726.042,1.09.039.067,0,.134,0,.2-.006" transform="translate(-13.282 -84.442)" fill="#b3b3b3"/>
        <path id="Trazado_903863" data-name="Trazado 903863" d="M24.82,217.139c.075.033.15.065.226.1.371.149.754.283,1.15.4.072.021.145.039.218.058.38.1.767.194,1.162.267.047.009.093.02.139.028.422.074.853.127,1.286.167l.14.011.006-1.871a13.217,13.217,0,0,1-5.46-1.568,5.361,5.361,0,0,1-2.775-3.255l0,1.193c0,1.367.87,2.732,2.6,3.8.075.046.142.1.221.141a10.1,10.1,0,0,0,1.087.533" transform="translate(-8.088 -81.801)" fill="#999"/>
        <path id="Trazado_903864" data-name="Trazado 903864" d="M21.083,206.807c0,1.447.987,2.811,2.772,3.843a14.8,14.8,0,0,0,13.416,0C39.032,209.624,40,208.27,40,206.834s-.986-2.81-2.77-3.839a13.748,13.748,0,0,0-6.722-1.609,13.613,13.613,0,0,0-6.693,1.606c-1.762,1.023-2.73,2.379-2.729,3.815m13.631.02a2.111,2.111,0,0,1-1.231,1.749,6.474,6.474,0,0,1-5.863,0,2.14,2.14,0,0,1-1.255-1.763,2.118,2.118,0,0,1,1.235-1.752,6.472,6.472,0,0,1,5.864,0,2.133,2.133,0,0,1,1.25,1.76" transform="translate(-8.155 -77.901)" fill="#dcdcdc"/>
        <path id="Trazado_903865" data-name="Trazado 903865" d="M23.628,210.7a13.208,13.208,0,0,0,5.46,1.568c.449.037.9.061,1.353.061a15.426,15.426,0,0,0,4.656-.7,10.914,10.914,0,0,0,2.149-.934c.023-.013.043-.028.066-.042a5.472,5.472,0,0,0,2.6-2.907c.026-.083.043-.167.063-.25a3.42,3.42,0,0,0,.1-.788c0-1.521-1.022-2.946-2.871-4.013a15.027,15.027,0,0,0-13.618,0c-1.826,1.062-2.83,2.478-2.829,3.99a3.4,3.4,0,0,0,.1.762,5.359,5.359,0,0,0,2.774,3.255m6.751-9.438a13.752,13.752,0,0,1,6.722,1.609c1.784,1.03,2.768,2.393,2.77,3.838s-.966,2.791-2.727,3.813a14.8,14.8,0,0,1-13.416,0c-1.786-1.031-2.77-2.4-2.772-3.843s.968-2.792,2.729-3.815a13.617,13.617,0,0,1,6.694-1.606" transform="translate(-8.028 -77.776)" fill="#fff"/>
        <path id="Trazado_903866" data-name="Trazado 903866" d="M37.227,186.472l-.246,18.287a12.849,12.849,0,0,0,3.586-.484L39.4,186.213a10.929,10.929,0,0,1-2.171.259" transform="translate(-14.305 -72.031)" fill="#fbb03b"/>
        <path id="Trazado_903867" data-name="Trazado 903867" d="M47.54,198.058,46.2,180.551a3.2,3.2,0,0,1-1.882,2.632c-.144.083-.308.146-.462.22l1.682,17.662a3.717,3.717,0,0,0,2.008-3.006" transform="translate(-16.963 -69.841)" fill="#fbb03b"/>
        <path id="Trazado_903868" data-name="Trazado 903868" d="M40.924,185.822l1.167,18.063a9.148,9.148,0,0,0,2.047-.853c.093-.054.175-.112.262-.168L42.719,185.2a8.239,8.239,0,0,1-1.795.62" transform="translate(-15.83 -71.64)" fill="#ffd092"/>
        <path id="Trazado_903869" data-name="Trazado 903869" d="M25.536,180.551l-1.347,17.486a3.214,3.214,0,0,0,1.079,2.275l1.206-17.85a2.7,2.7,0,0,1-.938-1.911" transform="translate(-9.357 -69.841)" fill="#fbb03b"/>
        <path id="Trazado_903870" data-name="Trazado 903870" d="M28.129,184.391a5.112,5.112,0,0,1-.974-.723l-1.206,17.85a6.068,6.068,0,0,0,1.229.923,11.4,11.4,0,0,0,5.536,1.334l.246-18.287a9.554,9.554,0,0,1-4.831-1.1" transform="translate(-10.038 -71.047)" fill="#c2882e"/>
        <path id="Trazado_903871" data-name="Trazado 903871" d="M28.3,180.814a10.213,10.213,0,0,0,9.26,0,3.2,3.2,0,0,0,1.882-2.631,3.239,3.239,0,0,0-1.912-2.65,9.486,9.486,0,0,0-4.64-1.11,9.4,9.4,0,0,0-4.62,1.109,3.2,3.2,0,0,0-1.883,2.633c0,.006,0,.012,0,.018a3.252,3.252,0,0,0,1.912,2.634" transform="translate(-10.206 -67.469)" fill="#fbb03b"/>
        <path id="Trazado_903872" data-name="Trazado 903872" d="M40.2,198.853l-.032-.417c-1.023-.185-2.063-.423-3.1-.714-.183.082-.372.158-.566.225l-.13-.38c.023-.008.045-.019.068-.028a30.5,30.5,0,0,1-4.994-1.99c-.218.035-.435.078-.659.1l-.032-.4c.029,0,.056-.01.084-.012a15.139,15.139,0,0,1-5.283-4.393l-.047.62c2.811,3.727,8.917,6.394,14.688,7.394" transform="translate(-9.87 -73.821)" fill="#875e20"/>
        <path id="Trazado_903873" data-name="Trazado 903873" d="M43.3,200.134c-.023.009-.045.02-.069.028l.131.38c.194-.067.382-.143.565-.226a8.64,8.64,0,0,0,2.874-2.188l-.045-.581a8.228,8.228,0,0,1-3.456,2.587" transform="translate(-16.723 -76.415)" fill="#875e20"/>
        <path id="Trazado_903874" data-name="Trazado 903874" d="M29.773,206.857a15.2,15.2,0,0,1-5.533,1.716,2.679,2.679,0,0,0,.088.4,14.9,14.9,0,0,0,5.875-1.915c-.143-.066-.286-.131-.43-.2" transform="translate(-9.377 -80.017)" fill="#c2882e"/>
        <path id="Trazado_903875" data-name="Trazado 903875" d="M36.159,191.75c.126-.071.251-.143.373-.219a33.22,33.22,0,0,1-6.071-6.233,7.212,7.212,0,0,1-.711-.335,31.114,31.114,0,0,0,6.408,6.787" transform="translate(-11.508 -71.548)" fill="#c2882e"/>
        <path id="Trazado_903876" data-name="Trazado 903876" d="M38.2,192.975c-.123.075-.248.147-.373.219a9.18,9.18,0,0,1-3.675,1.209c-.029,0-.056.01-.084.012l.032.4c.224-.018.44-.061.659-.1,3.638-.583,6.484-3.423,8.08-5.417l-.047-.608a18,18,0,0,1-4.592,4.281" transform="translate(-13.179 -72.991)" fill="#875e20"/>
        <path id="Trazado_903877" data-name="Trazado 903877" d="M30.014,203.729c.145.071.288.136.43.2a24.13,24.13,0,0,0,2.508.986,23.107,23.107,0,0,0,6.743,1.22c.1,0,.194-.006.292-.009a2.823,2.823,0,0,0,.175-.615,21.345,21.345,0,0,1-7.02-1.17c-2.329-.766-6.3-2.474-8.206-5.572l-.074.957a14.069,14.069,0,0,0,5.153,4" transform="translate(-9.617 -76.889)" fill="#875e20"/>
        <path id="Trazado_903878" data-name="Trazado 903878" d="M37.579,178.093c0-.329-.719-.6-1.606-.6s-1.606.267-1.606.6.719.6,1.606.6,1.606-.267,1.606-.6" transform="translate(-13.294 -68.659)" fill="#333"/>
      </g>
    </g>
    <g id="Grupo_1126423" data-name="Grupo 1126423" transform="translate(20.628 107.15)">
      <g id="Grupo_1126422" data-name="Grupo 1126422" clip-path="url(#clip-path-13)">
        <path id="Trazado_903879" data-name="Trazado 903879" d="M39.2,175.941l-.006,1.968a1.018,1.018,0,0,0-.6-.841,2.806,2.806,0,0,0-1.16-.335l.006-1.968a2.806,2.806,0,0,1,1.16.335,1.019,1.019,0,0,1,.6.841" transform="translate(-35.11 -174.752)" fill="#4d4d4d"/>
        <path id="Trazado_903880" data-name="Trazado 903880" d="M36.63,174.756l-.006,1.968a3.365,3.365,0,0,0-1.291.139l.006-1.968a3.367,3.367,0,0,1,1.292-.139" transform="translate(-34.296 -174.745)" fill="#666"/>
        <path id="Trazado_903881" data-name="Trazado 903881" d="M35.041,174.99l-.006,1.968a2.311,2.311,0,0,0-.448.2l-.025.014.006-1.968.025-.014a2.31,2.31,0,0,1,.448-.2" transform="translate(-33.998 -174.84)" fill="#666"/>
        <path id="Trazado_903882" data-name="Trazado 903882" d="M34.22,175.335l-.006,1.968a1.08,1.08,0,0,0-.552.679l.006-1.968a1.08,1.08,0,0,1,.552-.679" transform="translate(-33.65 -174.973)" fill="#666"/>
        <path id="Trazado_903883" data-name="Trazado 903883" d="M33.66,176.442l-.006,1.968a.732.732,0,0,0-.014.136l.006-1.968a.642.642,0,0,1,.014-.136" transform="translate(-33.641 -175.401)" fill="#999"/>
      </g>
    </g>
    <g id="Grupo_1126425" data-name="Grupo 1126425" transform="translate(19.825 108.325)">
      <g id="Grupo_1126424" data-name="Grupo 1126424" clip-path="url(#clip-path-14)">
        <path id="Trazado_903885" data-name="Trazado 903885" d="M41.616,176.687l-.006,1.968a.982.982,0,0,1-.019.189l.006-1.968a.993.993,0,0,0,.019-.189" transform="translate(-35.914 -176.671)" fill="#999"/>
        <path id="Trazado_903886" data-name="Trazado 903886" d="M41.106,176.995l-.006,1.968a1.516,1.516,0,0,1-.776.952l.006-1.968a1.516,1.516,0,0,0,.776-.952" transform="translate(-35.424 -176.79)" fill="#b3b3b3"/>
        <path id="Trazado_903887" data-name="Trazado 903887" d="M39.917,178.548l-.006,1.968-.035.02a3.178,3.178,0,0,1-.621.273l.006-1.968a3.177,3.177,0,0,0,.621-.272l.035-.021" transform="translate(-35.01 -177.391)" fill="#ccc"/>
        <path id="Trazado_903888" data-name="Trazado 903888" d="M38.13,179.027,38.124,181a4.69,4.69,0,0,1-1.8.193l.006-1.968a4.69,4.69,0,0,0,1.8-.193" transform="translate(-33.878 -177.576)" fill="#b3b3b3"/>
        <path id="Trazado_903889" data-name="Trazado 903889" d="M34.788,178.3l-.006,1.969a3.9,3.9,0,0,1-1.61-.465,1.428,1.428,0,0,1-.841-1.178l.006-1.968a1.428,1.428,0,0,0,.841,1.178,3.9,3.9,0,0,0,1.61.465" transform="translate(-32.332 -176.661)" fill="#999"/>
      </g>
    </g>
    <g id="Grupo_1126427" data-name="Grupo 1126427">
      <g id="Grupo_1126426" data-name="Grupo 1126426" clip-path="url(#clip-path)">
        <path id="Trazado_903891" data-name="Trazado 903891" d="M37.2,174.469a1.234,1.234,0,0,1,.009,2.335,4.447,4.447,0,0,1-4.026,0,1.235,1.235,0,0,1-.018-2.335,4.458,4.458,0,0,1,4.036,0m-3.451,2.006a3.2,3.2,0,0,0,2.889,0,.887.887,0,0,0,0-1.676,3.2,3.2,0,0,0-2.9,0,.887.887,0,0,0,.015,1.676" transform="translate(-12.51 -67.302)" fill="#dcdcdc"/>
        <path id="Trazado_903892" data-name="Trazado 903892" d="M26.384,180.521a2.642,2.642,0,0,0,.855,1.8,5.511,5.511,0,0,0,1.695,1.107,8.683,8.683,0,0,0,1.947.589,11.364,11.364,0,0,0,2.029.186,10.012,10.012,0,0,0,3.978-.763,5.459,5.459,0,0,0,1.7-1.1,2.615,2.615,0,0,0,.853-1.8,2.652,2.652,0,0,1-.8,1.852,5.524,5.524,0,0,1-1.7,1.16,8.233,8.233,0,0,1-1.972.614,11.624,11.624,0,0,1-2.057.2,11.444,11.444,0,0,1-2.055-.2,8.2,8.2,0,0,1-1.97-.619,5.586,5.586,0,0,1-1.7-1.164,2.683,2.683,0,0,1-.8-1.852" transform="translate(-10.206 -69.829)" fill="#fff0dc"/>
        <path id="Trazado_903893" data-name="Trazado 903893" d="M64.755,229.781l0-.013a2.211,2.211,0,0,0,.04-.4l0-.817c-.013.057-.025.115-.043.171Z" transform="translate(-25.049 -88.408)" fill="#999"/>
        <path id="Trazado_903894" data-name="Trazado 903894" d="M61.862,230.819l0,1.265.034-.022.031-.02c.1-.063.206-.126.3-.192.129-.093.246-.186.357-.282.036-.031.067-.062.1-.093.072-.067.142-.134.207-.2.035-.037.067-.074.1-.112.058-.066.111-.134.161-.2.028-.038.056-.075.082-.113.05-.074.094-.149.135-.224.018-.032.038-.064.054-.1a2.515,2.515,0,0,0,.137-.325c0-.013.007-.027.011-.04a2.376,2.376,0,0,0,.067-.27l0-1.059a3.745,3.745,0,0,1-1.776,1.989" transform="translate(-23.928 -88.516)" fill="#b3b3b3"/>
        <path id="Trazado_903895" data-name="Trazado 903895" d="M59.5,233.977c.048-.017.093-.036.14-.053.126-.045.253-.091.375-.142.063-.026.125-.052.186-.079.213-.1.422-.2.618-.313.028-.017.052-.034.08-.051l0-1.264c-.015.009-.029.02-.045.029a7.458,7.458,0,0,1-1.47.639l0,1.275.116-.04" transform="translate(-22.972 -89.771)" fill="#ccc"/>
        <path id="Trazado_903896" data-name="Trazado 903896" d="M53.828,234.916c.3-.006.594-.023.888-.052l.1-.008c.305-.034.606-.082.9-.14l.176-.036c.018,0,.035-.01.053-.014.271-.06.538-.128.8-.21l.052-.018,0-1.275a10.53,10.53,0,0,1-3.186.478c-.31,0-.618-.017-.926-.042l0,1.281.092.007c.058,0,.115,0,.173.006.248.015.5.028.746.026.046,0,.091,0,.137,0" transform="translate(-20.378 -90.193)" fill="#b3b3b3"/>
        <path id="Trazado_903897" data-name="Trazado 903897" d="M46.169,232.371c.052.022.1.045.155.066a8.209,8.209,0,0,0,.787.272c.049.015.1.027.15.04q.389.107.8.183l.1.019c.289.051.584.087.88.114l.1.008,0-1.281a9.036,9.036,0,0,1-3.735-1.073,3.666,3.666,0,0,1-1.9-2.227l0,.816a3.194,3.194,0,0,0,1.78,2.6c.052.032.1.066.151.1a7.035,7.035,0,0,0,.744.364" transform="translate(-16.824 -88.386)" fill="#999"/>
        <path id="Trazado_903898" data-name="Trazado 903898" d="M43.613,225.3a3.212,3.212,0,0,0,1.9,2.629,10.129,10.129,0,0,0,9.181,0,3.177,3.177,0,0,0,1.865-2.609,3.211,3.211,0,0,0-1.9-2.627,9.408,9.408,0,0,0-4.6-1.1,9.313,9.313,0,0,0-4.58,1.1,3.177,3.177,0,0,0-1.867,2.61m9.327.013a1.446,1.446,0,0,1-.843,1.2,4.428,4.428,0,0,1-4.012,0,1.464,1.464,0,0,1-.858-1.207,1.448,1.448,0,0,1,.845-1.2,4.43,4.43,0,0,1,4.013,0,1.459,1.459,0,0,1,.855,1.2" transform="translate(-16.87 -85.717)" fill="#dcdcdc"/>
        <path id="Trazado_903899" data-name="Trazado 903899" d="M45.353,227.964a9.033,9.033,0,0,0,3.736,1.073c.307.025.616.042.926.042A10.553,10.553,0,0,0,53.2,228.6a7.46,7.46,0,0,0,1.47-.64l.045-.029a3.747,3.747,0,0,0,1.776-1.989c.018-.057.029-.114.043-.172a2.349,2.349,0,0,0,.071-.539,3.341,3.341,0,0,0-1.965-2.746,10.281,10.281,0,0,0-9.318,0,3.308,3.308,0,0,0-1.935,2.73,2.34,2.34,0,0,0,.067.522,3.666,3.666,0,0,0,1.9,2.227m4.62-6.458a9.412,9.412,0,0,1,4.6,1.1,3.212,3.212,0,0,1,1.9,2.627,3.177,3.177,0,0,1-1.866,2.609,10.126,10.126,0,0,1-9.18,0,3.215,3.215,0,0,1-1.9-2.63,3.179,3.179,0,0,1,1.867-2.61,9.314,9.314,0,0,1,4.58-1.1" transform="translate(-16.783 -85.631)" fill="#fff"/>
        <path id="Trazado_903900" data-name="Trazado 903900" d="M54.66,211.387,54.491,223.9a8.794,8.794,0,0,0,2.453-.331l-.8-12.36a7.469,7.469,0,0,1-1.486.178" transform="translate(-21.078 -81.7)" fill="#fbb03b"/>
        <path id="Trazado_903901" data-name="Trazado 903901" d="M61.716,219.315l-.92-11.98a2.191,2.191,0,0,1-1.288,1.8c-.1.058-.212.1-.316.151l1.15,12.086a2.545,2.545,0,0,0,1.374-2.058" transform="translate(-22.897 -80.202)" fill="#fbb03b"/>
        <path id="Trazado_903902" data-name="Trazado 903902" d="M57.189,210.941l.8,12.36a6.213,6.213,0,0,0,1.4-.584c.064-.037.12-.076.18-.115l-1.151-12.086a5.624,5.624,0,0,1-1.228.424" transform="translate(-22.122 -81.433)" fill="#ffd092"/>
        <path id="Trazado_903903" data-name="Trazado 903903" d="M46.66,207.335,45.738,219.3a2.2,2.2,0,0,0,.738,1.557l.825-12.214a1.842,1.842,0,0,1-.642-1.307" transform="translate(-17.692 -80.202)" fill="#fbb03b"/>
        <path id="Trazado_903904" data-name="Trazado 903904" d="M48.433,209.962a3.469,3.469,0,0,1-.666-.495l-.825,12.214a4.137,4.137,0,0,0,.841.632,7.8,7.8,0,0,0,3.788.913l.169-12.513a6.541,6.541,0,0,1-3.306-.751" transform="translate(-18.158 -81.026)" fill="#c2882e"/>
        <path id="Trazado_903905" data-name="Trazado 903905" d="M48.548,207.514a6.991,6.991,0,0,0,6.336,0,2.193,2.193,0,0,0,1.288-1.8,2.215,2.215,0,0,0-1.309-1.813,6.5,6.5,0,0,0-3.174-.76,6.429,6.429,0,0,0-3.162.759,2.194,2.194,0,0,0-1.288,1.8v.013a2.223,2.223,0,0,0,1.308,1.8" transform="translate(-18.273 -78.579)" fill="#fbb03b"/>
        <path id="Trazado_903906" data-name="Trazado 903906" d="M56.7,219.859l-.022-.286c-.7-.126-1.411-.289-2.119-.488-.126.056-.254.109-.387.155l-.09-.261.047-.019a20.85,20.85,0,0,1-3.417-1.361c-.15.024-.3.053-.451.066l-.022-.274c.02,0,.038-.007.057-.009a10.356,10.356,0,0,1-3.615-3.006l-.032.424c1.924,2.55,6.1,4.375,10.051,5.059" transform="translate(-18.043 -82.925)" fill="#875e20"/>
        <path id="Trazado_903907" data-name="Trazado 903907" d="M58.815,220.735c-.016.005-.031.013-.047.019l.089.26c.133-.045.262-.1.387-.155a5.908,5.908,0,0,0,1.966-1.5l-.031-.4a5.626,5.626,0,0,1-2.365,1.77" transform="translate(-22.733 -84.7)" fill="#875e20"/>
        <path id="Trazado_903908" data-name="Trazado 903908" d="M49.558,225.336a10.4,10.4,0,0,1-3.786,1.174,1.85,1.85,0,0,0,.061.273,10.184,10.184,0,0,0,4.02-1.31c-.1-.045-.195-.089-.294-.137" transform="translate(-17.706 -87.165)" fill="#c2882e"/>
        <path id="Trazado_903909" data-name="Trazado 903909" d="M53.927,215c.086-.049.172-.1.256-.15a22.743,22.743,0,0,1-4.154-4.265,5,5,0,0,1-.487-.229A21.314,21.314,0,0,0,53.927,215" transform="translate(-19.164 -81.37)" fill="#c2882e"/>
        <path id="Trazado_903910" data-name="Trazado 903910" d="M55.327,215.836c-.084.052-.169.1-.256.15a6.279,6.279,0,0,1-2.515.828c-.02,0-.038.007-.058.009l.022.274c.153-.012.3-.042.451-.066,2.49-.4,4.437-2.342,5.529-3.707l-.032-.416a12.3,12.3,0,0,1-3.142,2.929" transform="translate(-20.308 -82.357)" fill="#875e20"/>
        <path id="Trazado_903911" data-name="Trazado 903911" d="M49.723,223.2c.1.048.2.093.294.137a16.552,16.552,0,0,0,1.716.675,15.808,15.808,0,0,0,4.614.835c.07,0,.133,0,.2-.006a1.936,1.936,0,0,0,.12-.421,14.6,14.6,0,0,1-4.8-.8c-1.594-.524-4.311-1.693-5.615-3.813l-.05.655a9.632,9.632,0,0,0,3.526,2.738" transform="translate(-17.87 -85.024)" fill="#875e20"/>
        <path id="Trazado_903912" data-name="Trazado 903912" d="M54.9,205.652c0-.226-.492-.408-1.1-.408s-1.1.183-1.1.408.492.408,1.1.408,1.1-.183,1.1-.408" transform="translate(-20.386 -79.393)" fill="#333"/>
      </g>
    </g>
    <g id="Grupo_1126429" data-name="Grupo 1126429" transform="translate(32.011 124.697)">
      <g id="Grupo_1126428" data-name="Grupo 1126428" clip-path="url(#clip-path-16)">
        <path id="Trazado_903913" data-name="Trazado 903913" d="M56.012,204.18l0,1.347a.7.7,0,0,0-.41-.576,1.93,1.93,0,0,0-.794-.229l0-1.347a1.927,1.927,0,0,1,.794.229.7.7,0,0,1,.41.576" transform="translate(-53.21 -203.367)" fill="#4d4d4d"/>
        <path id="Trazado_903914" data-name="Trazado 903914" d="M54.25,203.37l0,1.347a2.315,2.315,0,0,0-.884.1l0-1.347a2.316,2.316,0,0,1,.884-.094" transform="translate(-52.653 -203.362)" fill="#666"/>
        <path id="Trazado_903915" data-name="Trazado 903915" d="M53.163,203.53l0,1.347a1.634,1.634,0,0,0-.307.135l-.017.01,0-1.347.017-.01a1.536,1.536,0,0,1,.306-.135" transform="translate(-52.449 -203.427)" fill="#666"/>
        <path id="Trazado_903916" data-name="Trazado 903916" d="M52.6,203.765l0,1.347a.741.741,0,0,0-.378.465l0-1.347a.742.742,0,0,1,.378-.465" transform="translate(-52.211 -203.518)" fill="#666"/>
        <path id="Trazado_903917" data-name="Trazado 903917" d="M52.218,204.523l0,1.347a.527.527,0,0,0-.01.093l0-1.347a.475.475,0,0,1,.009-.093" transform="translate(-52.205 -203.811)" fill="#999"/>
      </g>
    </g>
    <g id="Grupo_1126431" data-name="Grupo 1126431" transform="translate(31.462 125.501)">
      <g id="Grupo_1126430" data-name="Grupo 1126430" clip-path="url(#clip-path-17)">
        <path id="Trazado_903919" data-name="Trazado 903919" d="M57.661,204.69l0,1.347a.657.657,0,0,1-.013.129l0-1.347a.658.658,0,0,0,.013-.13" transform="translate(-53.76 -204.68)" fill="#999"/>
        <path id="Trazado_903920" data-name="Trazado 903920" d="M57.314,204.9l0,1.347a1.037,1.037,0,0,1-.531.652l0-1.347a1.039,1.039,0,0,0,.531-.652" transform="translate(-53.425 -204.762)" fill="#b3b3b3"/>
        <path id="Trazado_903921" data-name="Trazado 903921" d="M56.5,205.965l0,1.347-.024.014a2.17,2.17,0,0,1-.425.187l0-1.347a2.179,2.179,0,0,0,.424-.186l.024-.014" transform="translate(-53.142 -205.173)" fill="#ccc"/>
        <path id="Trazado_903922" data-name="Trazado 903922" d="M55.276,206.292l0,1.347a3.2,3.2,0,0,1-1.229.132l0-1.347a3.21,3.21,0,0,0,1.228-.132" transform="translate(-52.367 -205.299)" fill="#b3b3b3"/>
        <path id="Trazado_903923" data-name="Trazado 903923" d="M52.99,205.8l0,1.347a2.662,2.662,0,0,1-1.1-.318.976.976,0,0,1-.575-.806l0-1.347a.977.977,0,0,0,.575.806,2.672,2.672,0,0,0,1.1.318" transform="translate(-51.309 -204.673)" fill="#999"/>
      </g>
    </g>
    <g id="Grupo_1126436" data-name="Grupo 1126436">
      <g id="Grupo_1126435" data-name="Grupo 1126435" clip-path="url(#clip-path)">
        <path id="Trazado_903925" data-name="Trazado 903925" d="M54.64,203.173a.844.844,0,0,1,.006,1.6,3.041,3.041,0,0,1-2.754,0,.845.845,0,0,1-.013-1.6,3.049,3.049,0,0,1,2.762,0m-2.361,1.372a2.189,2.189,0,0,0,1.977,0,.607.607,0,0,0,0-1.147,2.191,2.191,0,0,0-1.984,0,.607.607,0,0,0,.01,1.147" transform="translate(-19.85 -78.464)" fill="#dcdcdc"/>
        <path id="Trazado_903926" data-name="Trazado 903926" d="M47.239,207.315a1.823,1.823,0,0,0,.594,1.221,3.753,3.753,0,0,0,1.159.749,7.355,7.355,0,0,0,5.427.009,3.706,3.706,0,0,0,1.161-.745,1.8,1.8,0,0,0,.592-1.221,1.8,1.8,0,0,1-.537,1.275,3.8,3.8,0,0,1-1.166.8,6.781,6.781,0,0,1-2.765.562,7.841,7.841,0,0,1-1.411-.142,5.541,5.541,0,0,1-1.351-.429,3.826,3.826,0,0,1-1.164-.806,1.82,1.82,0,0,1-.538-1.275" transform="translate(-18.273 -80.194)" fill="#fff0dc"/>
        <path id="Trazado_903927" data-name="Trazado 903927" d="M27.146,226.962a.139.139,0,0,0,0-.015,2.659,2.659,0,0,0,.049-.481l0-.979c-.015.066-.031.132-.052.2Z" transform="translate(-10.501 -87.223)" fill="#999"/>
        <path id="Trazado_903928" data-name="Trazado 903928" d="M23.672,228.2l0,1.518c.152-.091.3-.184.438-.281.155-.111.3-.224.428-.338.042-.037.08-.075.121-.112.087-.08.171-.161.249-.244.041-.044.08-.089.119-.134.069-.08.134-.161.194-.243.033-.045.067-.09.1-.136.06-.089.113-.178.163-.269.021-.039.045-.077.064-.115a3.107,3.107,0,0,0,.165-.391c.006-.016.008-.032.013-.047a2.831,2.831,0,0,0,.082-.325l0-1.278a4.491,4.491,0,0,1-2.133,2.4" transform="translate(-9.155 -87.347)" fill="#b3b3b3"/>
        <path id="Trazado_903929" data-name="Trazado 903929" d="M22.47,229.749a8.973,8.973,0,0,1-1.766.768l0,1.531.139-.048q.317-.108.62-.235c.075-.031.15-.063.224-.1a8.223,8.223,0,0,0,.742-.375c.034-.02.063-.041.1-.061l0-1.518c-.019.011-.035.023-.054.034" transform="translate(-8.007 -88.859)" fill="#ccc"/>
        <path id="Trazado_903930" data-name="Trazado 903930" d="M13.765,231.6c-.372,0-.743-.02-1.112-.05l0,1.538.11.009c.367.027.735.041,1.1.039l.163,0q.537-.011,1.069-.063c.038,0,.076-.006.114-.01.367-.039.728-.1,1.085-.169l.21-.042c.348-.075.69-.164,1.02-.269l.062-.021,0-1.531a12.659,12.659,0,0,1-3.825.574" transform="translate(-4.893 -89.365)" fill="#b3b3b3"/>
        <path id="Trazado_903931" data-name="Trazado 903931" d="M3.9,228.09a4.409,4.409,0,0,1-2.279-2.67l0,.976a3.932,3.932,0,0,0,2.319,3.24,8.442,8.442,0,0,0,.893.438c.062.026.123.053.186.079.3.122.62.232.945.327.059.017.12.032.18.048.311.085.63.16.955.22l.114.023c.348.061.7.1,1.058.137l.114.01,0-1.538A10.859,10.859,0,0,1,3.9,228.09" transform="translate(-0.625 -87.197)" fill="#999"/>
        <path id="Trazado_903932" data-name="Trazado 903932" d="M15.2,222.722l0,.011c0,.021-.011.043-.016.064a2.12,2.12,0,0,1-.146.429c-.009.018-.014.037-.023.056a2.639,2.639,0,0,1-.278.435c-.023.029-.046.059-.071.088a3.41,3.41,0,0,1-.4.41c-.021.018-.046.036-.068.054a4.576,4.576,0,0,1-.5.355l-.053.034c-.024.015-.045.031-.069.045a6.159,6.159,0,0,1-.8.38c-.073.029-.148.058-.223.085s-.156.046-.234.071c-.135.044-.27.088-.41.126-.109.029-.216.061-.327.086-.258.057-.522.1-.789.135-.066.009-.131.023-.2.031a9.8,9.8,0,0,1-1.015.056c-.093,0-.186-.008-.279-.01-.2,0-.389-.017-.583-.033-.053,0-.107,0-.16-.009-.114-.011-.226-.028-.339-.044-.221-.03-.44-.067-.655-.112-.115-.025-.23-.05-.343-.079-.217-.055-.427-.121-.634-.193-.1-.033-.193-.062-.285-.1a6.272,6.272,0,0,1-.831-.392,2.868,2.868,0,0,1-1.692-2.364l.008-2.838a3.68,3.68,0,0,0-2.022,3.038,3.886,3.886,0,0,0,2.277,3.119,12.156,12.156,0,0,0,11.023,0,3.839,3.839,0,0,0,2.241-3.1,3.72,3.72,0,0,0-2.057-3.054l-.008,2.868a2,2,0,0,1-.036.351" transform="translate(-0.681 -84.907)" fill="#dcdcdc"/>
        <path id="Trazado_903933" data-name="Trazado 903933" d="M23.69,213.337l.037-.061.027-9.551-.037.025Z" transform="translate(-9.164 -78.805)" fill="#913616"/>
        <path id="Trazado_903934" data-name="Trazado 903934" d="M23.678,222.707a2,2,0,0,0,.036-.351l.008-2.868c-.013-.009-.024-.017-.037-.025l-.009,3.255,0-.011" transform="translate(-9.158 -84.893)" fill="#913616"/>
        <path id="Trazado_903935" data-name="Trazado 903935" d="M22.73,203.764l-.042.026c-.032.02-.062.042-.1.061a8.22,8.22,0,0,1-.741.375c-.074.033-.149.064-.224.1-.147.061-.3.116-.451.17l-.04,14.077c.019-.011.036-.023.053-.034a4.609,4.609,0,0,0,.5-.355c.022-.018.047-.036.067-.054a3.47,3.47,0,0,0,.4-.41l.07-.088a2.661,2.661,0,0,0,.278-.435c.01-.019.015-.037.023-.056a2.155,2.155,0,0,0,.147-.428c0-.021.012-.043.015-.064l.01-3.256-.017-.01.017-.027Z" transform="translate(-8.176 -78.82)" fill="#ba451c"/>
        <path id="Trazado_903936" data-name="Trazado 903936" d="M20.032,205.065l-.062.022c-.31.1-.63.18-.956.252l-.04,14.271c.077-.025.158-.044.233-.072s.15-.055.224-.085a6.148,6.148,0,0,0,.8-.38c.025-.014.045-.03.07-.045l.04-14.076c-.057.021-.112.045-.169.064s-.093.033-.139.048" transform="translate(-7.34 -79.28)" fill="#f15a24"/>
        <path id="Trazado_903937" data-name="Trazado 903937" d="M13.962,220.288a9.812,9.812,0,0,0,1.015-.056c.067-.007.131-.022.2-.031.267-.035.531-.078.789-.135.111-.025.218-.058.327-.086.14-.037.275-.082.41-.125l.04-14.272c-.021,0-.042.012-.064.017-.071.015-.141.029-.212.043-.356.071-.717.129-1.083.169-.039,0-.077.006-.116.01q-.53.052-1.067.062c-.055,0-.109,0-.164,0-.3,0-.6-.014-.9-.032L13.1,220.246c.194.016.388.028.584.033.093,0,.186.01.279.01" transform="translate(-5.067 -79.524)" fill="#ba451c"/>
        <path id="Trazado_903938" data-name="Trazado 903938" d="M5.088,213.372l-.036.024-.008,2.838A2.87,2.87,0,0,0,6.736,218.6a6.319,6.319,0,0,0,.831.392c.091.036.189.066.284.1.207.071.418.137.634.193.113.029.229.055.343.079.215.045.434.082.655.112.113.015.226.033.34.044.052,0,.106,0,.159.009l.04-14.39c-.068,0-.139,0-.207-.007l-.11-.009-.115-.01c-.356-.033-.71-.076-1.057-.137l-.114-.023c-.324-.061-.643-.135-.955-.22-.059-.016-.12-.031-.179-.048-.325-.1-.64-.2-.945-.327-.063-.026-.124-.053-.186-.079a8.439,8.439,0,0,1-.893-.438c-.065-.037-.12-.078-.182-.117L5.053,213.3a.384.384,0,0,0,.035.068" transform="translate(-1.951 -78.804)" fill="#813013"/>
        <path id="Trazado_903939" data-name="Trazado 903939" d="M14.9,196.072a3.72,3.72,0,0,0-.486-.229c-.054-.021-.111-.038-.167-.058-.121-.042-.243-.08-.371-.113-.066-.017-.132-.032-.2-.046-.126-.026-.253-.048-.383-.066-.066-.009-.132-.019-.2-.026-.031,0-.062-.01-.094-.012-.112-.009-.226-.009-.338-.012-.055,0-.11-.006-.165-.006a5.791,5.791,0,0,0-.594.033c-.038,0-.074.013-.112.018-.158.02-.313.045-.464.079-.065.015-.127.034-.19.05-.08.021-.164.039-.242.064-.026.009-.048.023-.074.033a3.7,3.7,0,0,0-.657.289l-.041.025a2.579,2.579,0,0,0-.369.267c-.028.024-.048.05-.074.075-.044.041-.086.083-.124.126a2.267,2.267,0,0,0,.668.565,5.129,5.129,0,0,0,4.652,0,2.22,2.22,0,0,0,.64-.541,2.38,2.38,0,0,0-.618-.51" transform="translate(-3.699 -75.626)" fill="#d04e1f"/>
        <path id="Trazado_903940" data-name="Trazado 903940" d="M15.173,219.215l-.032.053-.038.061-.016.027.016.01.037.025a3.723,3.723,0,0,1,2.057,3.054,3.839,3.839,0,0,1-2.241,3.1,12.156,12.156,0,0,1-11.023,0,3.886,3.886,0,0,1-2.277-3.119,3.679,3.679,0,0,1,2.022-3.038l.036-.025-.036-.056-.052-.084a3.854,3.854,0,0,0-2.135,3.206,2.777,2.777,0,0,0,.08.589,4.41,4.41,0,0,0,2.279,2.67,10.859,10.859,0,0,0,4.486,1.288c.369.03.74.051,1.112.051a12.659,12.659,0,0,0,3.825-.574,8.938,8.938,0,0,0,1.766-.768c.019-.011.035-.023.054-.034a4.489,4.489,0,0,0,2.132-2.4c.021-.065.036-.131.052-.2a2.8,2.8,0,0,0,.084-.613,3.9,3.9,0,0,0-2.188-3.233" transform="translate(-0.577 -84.797)" fill="#fff"/>
        <path id="Trazado_903941" data-name="Trazado 903941" d="M15.181,193.042l0,1.528c.032,0,.063.009.094.012.067.007.133.017.2.026.129.018.257.039.383.066.067.014.134.029.2.046.128.033.25.071.372.113.055.02.112.036.166.058a3.722,3.722,0,0,1,.486.229,2.37,2.37,0,0,1,.618.51,1.212,1.212,0,0,0,.29-.752,1.6,1.6,0,0,0-.945-1.3,4.524,4.524,0,0,0-1.858-.532" transform="translate(-5.871 -74.673)" fill="#999"/>
        <path id="Trazado_903942" data-name="Trazado 903942" d="M11.987,194.719c.064-.017.125-.036.19-.05.151-.034.307-.059.464-.079.038,0,.074-.013.112-.018a5.607,5.607,0,0,1,.593-.032c.055,0,.11,0,.165.006.113,0,.226,0,.338.012l0-1.528a5.354,5.354,0,0,0-2.1.232l0,1.521c.078-.025.161-.042.242-.064" transform="translate(-4.543 -74.66)" fill="#b3b3b3"/>
        <path id="Trazado_903943" data-name="Trazado 903943" d="M10.527,195.264a3.7,3.7,0,0,1,.657-.289c.026-.009.048-.024.074-.033l0-1.521a3.714,3.714,0,0,0-.689.3c-.031.018-.053.04-.083.058l0,1.511.041-.024" transform="translate(-4.056 -74.819)" fill="#ccc"/>
        <path id="Trazado_903944" data-name="Trazado 903944" d="M9.584,195.778a2.628,2.628,0,0,1,.369-.267l0-1.511a1.537,1.537,0,0,0-.85,1.237,1.213,1.213,0,0,0,.28.741c.037-.043.08-.084.124-.126.026-.025.045-.051.074-.075" transform="translate(-3.522 -75.043)" fill="#b3b3b3"/>
        <path id="Trazado_903945" data-name="Trazado 903945" d="M27.146,198.577a.137.137,0,0,0,0-.015,2.658,2.658,0,0,0,.049-.481l0-.982c-.016.069-.03.138-.052.205Z" transform="translate(-10.501 -76.242)" fill="#999"/>
        <path id="Trazado_903946" data-name="Trazado 903946" d="M23.672,199.823l0,1.519.041-.026.037-.024c.123-.076.247-.151.359-.231.155-.111.3-.223.428-.338.042-.037.08-.075.121-.112.087-.08.171-.162.249-.245.042-.044.08-.089.12-.134q.1-.12.193-.242c.034-.045.067-.09.1-.136.06-.089.113-.179.162-.269.021-.039.045-.077.065-.115a3.1,3.1,0,0,0,.165-.391c.006-.016.008-.033.013-.048a2.78,2.78,0,0,0,.082-.324l0-1.272a4.5,4.5,0,0,1-2.133,2.389" transform="translate(-9.155 -76.372)" fill="#b3b3b3"/>
        <path id="Trazado_903947" data-name="Trazado 903947" d="M20.839,203.616c.058-.02.112-.044.169-.064.152-.055.3-.109.45-.171.075-.031.151-.062.224-.1a8.236,8.236,0,0,0,.742-.375c.034-.02.063-.042.1-.062l0-1.518c-.019.011-.035.023-.054.034a8.937,8.937,0,0,1-1.766.768l0,1.531.139-.048" transform="translate(-8.007 -77.879)" fill="#ccc"/>
        <path id="Trazado_903948" data-name="Trazado 903948" d="M14.026,204.743c.357-.007.714-.027,1.066-.062.039,0,.078-.006.116-.01.367-.04.728-.1,1.084-.169.071-.014.141-.028.211-.043.022,0,.042-.012.064-.017.326-.072.646-.154.956-.253l.062-.021,0-1.53a12.663,12.663,0,0,1-3.826.573c-.372,0-.743-.02-1.112-.05l0,1.538.11.009c.069,0,.139,0,.208.007.3.018.6.034.9.032.055,0,.109,0,.164,0" transform="translate(-4.893 -78.385)" fill="#b3b3b3"/>
        <path id="Trazado_903949" data-name="Trazado 903949" d="M4.829,201.687l.186.079c.3.123.62.232.945.327.059.017.12.032.18.048.311.085.63.159.955.22l.114.023c.348.061.7.1,1.057.137l.115.01,0-1.538A10.866,10.866,0,0,1,3.9,199.7a4.4,4.4,0,0,1-2.279-2.675l0,.98a3.836,3.836,0,0,0,2.137,3.124c.063.038.118.078.182.116a8.326,8.326,0,0,0,.893.438" transform="translate(-0.625 -76.215)" fill="#999"/>
        <path id="Trazado_903950" data-name="Trazado 903950" d="M1.759,193.2a3.86,3.86,0,0,0,2.278,3.157,12.158,12.158,0,0,0,11.023,0,3.813,3.813,0,0,0,2.24-3.133,3.855,3.855,0,0,0-2.276-3.154A11.291,11.291,0,0,0,9.5,188.744,11.191,11.191,0,0,0,4,190.063,3.818,3.818,0,0,0,1.759,193.2m11.2.016a1.735,1.735,0,0,1-1.012,1.437,4.9,4.9,0,0,1-2.41.578,4.931,4.931,0,0,1-2.408-.575A1.758,1.758,0,0,1,6.1,193.2a1.738,1.738,0,0,1,1.015-1.439,5.314,5.314,0,0,1,4.817,0,1.752,1.752,0,0,1,1.028,1.446" transform="translate(-0.68 -73.01)" fill="#dcdcdc"/>
        <path id="Trazado_903951" data-name="Trazado 903951" d="M3.85,196.4a10.856,10.856,0,0,0,4.486,1.288c.369.03.74.05,1.112.05a12.663,12.663,0,0,0,3.826-.574,8.933,8.933,0,0,0,1.766-.768c.019-.011.035-.023.054-.034a4.5,4.5,0,0,0,2.132-2.389c.021-.067.036-.137.052-.205a2.777,2.777,0,0,0,.085-.647A4.01,4.01,0,0,0,15,189.82a12.345,12.345,0,0,0-11.189,0A3.974,3.974,0,0,0,1.49,193.1a2.769,2.769,0,0,0,.081.626A4.4,4.4,0,0,0,3.85,196.4M9.4,188.641a11.291,11.291,0,0,1,5.523,1.322,3.855,3.855,0,0,1,2.276,3.154,3.815,3.815,0,0,1-2.24,3.133,12.16,12.16,0,0,1-11.023,0A3.86,3.86,0,0,1,1.655,193.1,3.818,3.818,0,0,1,3.9,189.961a11.181,11.181,0,0,1,5.5-1.32" transform="translate(-0.576 -72.907)" fill="#fff"/>
        <path id="Trazado_903952" data-name="Trazado 903952" d="M9.852,193.308a1.74,1.74,0,0,0-1.015,1.439,1.759,1.759,0,0,0,1.031,1.45,4.929,4.929,0,0,0,2.408.575,4.9,4.9,0,0,0,2.41-.578,1.529,1.529,0,0,0-.016-2.883,5.316,5.316,0,0,0-4.818,0m5.68,1.449a1.211,1.211,0,0,1-.29.752,2.231,2.231,0,0,1-.64.541,5.131,5.131,0,0,1-4.652,0,2.267,2.267,0,0,1-.668-.565,1.212,1.212,0,0,1-.28-.741,1.54,1.54,0,0,1,.85-1.238c.03-.018.052-.04.083-.058a3.734,3.734,0,0,1,.689-.3,5.365,5.365,0,0,1,2.1-.232,4.515,4.515,0,0,1,1.858.532,1.6,1.6,0,0,1,.945,1.3" transform="translate(-3.418 -74.553)" fill="#fff"/>
        <g id="Grupo_1126434" data-name="Grupo 1126434" transform="translate(134.626 131.362)" style="mix-blend-mode: multiply;isolation: isolate">
          <g id="Grupo_1126433" data-name="Grupo 1126433">
            <g id="Grupo_1126432" data-name="Grupo 1126432" clip-path="url(#clip-path-19)">
              <path id="Trazado_903953" data-name="Trazado 903953" d="M238.505,239.17l-18.952-16.343,23.423-8.6,18.952,16.343Z" transform="translate(-219.554 -214.231)" fill="#838383"/>
            </g>
          </g>
        </g>
        <path id="Trazado_903954" data-name="Trazado 903954" d="M244.182,232.14,225.23,215.8l19.873-7.233,18.951,16.343Z" transform="translate(-87.124 -80.677)" fill="#b3b3b3"/>
      </g>
    </g>
    <g id="Grupo_1126438" data-name="Grupo 1126438" transform="translate(137.784 135.086)">
      <g id="Grupo_1126437" data-name="Grupo 1126437" clip-path="url(#clip-path-20)">
        <path id="Trazado_903955" data-name="Trazado 903955" d="M243.655,236.648,224.7,220.3a.261.261,0,0,0,.167.061l18.952,16.343a.265.265,0,0,1-.167-.061" transform="translate(-224.704 -220.304)" fill="#999"/>
        <path id="Trazado_903956" data-name="Trazado 903956" d="M243.928,236.743,224.977,220.4a.368.368,0,0,0,.091-.009l18.951,16.343a.392.392,0,0,1-.091.009" transform="translate(-224.81 -220.338)" fill="#b3b3b3"/>
        <path id="Trazado_903957" data-name="Trazado 903957" d="M244.077,236.722l-18.952-16.343a.442.442,0,0,0,.064-.018L244.141,236.7a.469.469,0,0,1-.064.018" transform="translate(-224.867 -220.326)" fill="#ccc"/>
      </g>
    </g>
    <g id="Grupo_1126440" data-name="Grupo 1126440">
      <g id="Grupo_1126439" data-name="Grupo 1126439" clip-path="url(#clip-path)">
        <path id="Trazado_903959" data-name="Trazado 903959" d="M244.3,227.808l-18.952-16.343,19.873-7.233,18.951,16.343Z" transform="translate(-87.168 -79.001)" fill="#f8f8f8"/>
      </g>
    </g>
    <g id="Grupo_1126442" data-name="Grupo 1126442" transform="translate(135.861 132.464)">
      <g id="Grupo_1126441" data-name="Grupo 1126441" clip-path="url(#clip-path-22)">
        <path id="Trazado_903960" data-name="Trazado 903960" d="M241.037,238.929l-18.951-16.343a1.361,1.361,0,0,1-.423-.7l18.951,16.343a1.361,1.361,0,0,0,.423.7" transform="translate(-221.605 -218.293)" fill="#999"/>
        <path id="Trazado_903961" data-name="Trazado 903961" d="M240.578,237.928l-18.951-16.343a1.883,1.883,0,0,1-.057-.472l18.951,16.343a1.884,1.884,0,0,0,.057.472" transform="translate(-221.569 -217.995)" fill="#b3b3b3"/>
        <path id="Trazado_903962" data-name="Trazado 903962" d="M240.52,237.154l-18.951-16.343c0-.02,0-.039,0-.059a2.519,2.519,0,0,1,.048-.419l18.952,16.343a2.518,2.518,0,0,0-.048.419c0,.02,0,.04,0,.059" transform="translate(-221.569 -217.693)" fill="#ccc"/>
        <path id="Trazado_903963" data-name="Trazado 903963" d="M240.6,236.336l-18.952-16.343a3.035,3.035,0,0,1,.161-.538L240.761,235.8a3.035,3.035,0,0,0-.161.538" transform="translate(-221.599 -217.354)" fill="#e6e6e6"/>
        <path id="Trazado_903964" data-name="Trazado 903964" d="M240.862,235.325l-18.951-16.343a3.739,3.739,0,0,1,.409-.749l18.951,16.343a3.709,3.709,0,0,0-.409.749" transform="translate(-221.701 -216.881)" fill="#fff"/>
        <path id="Trazado_903965" data-name="Trazado 903965" d="M241.529,234.257l-18.951-16.343a4,4,0,0,1,.422-.506l18.951,16.343a4,4,0,0,0-.422.507" transform="translate(-221.959 -216.561)" fill="#fff"/>
        <path id="Trazado_903966" data-name="Trazado 903966" d="M242.217,233.416l-18.951-16.343a3.8,3.8,0,0,1,.644-.529l18.951,16.343a3.824,3.824,0,0,0-.644.529" transform="translate(-222.225 -216.228)" fill="#fff"/>
        <path id="Trazado_903967" data-name="Trazado 903967" d="M243.267,232.718l-18.951-16.343a3.275,3.275,0,0,1,.505-.268l18.952,16.343a3.277,3.277,0,0,0-.505.268" transform="translate(-222.631 -216.059)" fill="#e6e6e6"/>
        <path id="Trazado_903968" data-name="Trazado 903968" d="M244.091,232.42,225.14,216.077c.042-.017.083-.034.125-.048l18.952,16.342c-.042.015-.083.032-.125.049" transform="translate(-222.95 -216.028)" fill="#e6e6e6"/>
      </g>
    </g>
    <g id="Grupo_1126444" data-name="Grupo 1126444">
      <g id="Grupo_1126443" data-name="Grupo 1126443" clip-path="url(#clip-path)">
        <path id="Trazado_903970" data-name="Trazado 903970" d="M274.663,230.885l-.048,1.817-19.872,7.233a.692.692,0,0,0-.435.575c-.006.231.179.35.413.265l19.872-7.233-.047,1.817-19.873,7.233c-1.244.453-2.229-.182-2.2-1.415a3.676,3.676,0,0,1,2.314-3.059Z" transform="translate(-97.663 -89.311)" fill="#8f8f8f"/>
        <path id="Trazado_903971" data-name="Trazado 903971" d="M243.814,206.638l-18.289,6.448a4.3,4.3,0,0,0-2.675,3.866l1,.863a2.535,2.535,0,0,1-.043-1.611,3.282,3.282,0,0,1,2-2.317l17.82-6.283,15.236,13.286c-5.111,1.77-16.4,5.657-17.177,5.819a4.64,4.64,0,0,0-2.677,2.253,3.83,3.83,0,0,0-.451,1.54l.881.76a2.908,2.908,0,0,1,.319-1.9,3.894,3.894,0,0,1,2.1-1.821c1.034-.215,17.284-5.848,17.975-6.088l.692-.24Z" transform="translate(-86.203 -79.932)" fill="#5b6989"/>
        <path id="Trazado_903972" data-name="Trazado 903972" d="M244.182,223.855,225.23,207.512l19.873-7.233,18.951,16.343Z" transform="translate(-87.124 -77.472)" fill="#b3b3b3"/>
      </g>
    </g>
    <g id="Grupo_1126446" data-name="Grupo 1126446" transform="translate(137.784 130.005)">
      <g id="Grupo_1126445" data-name="Grupo 1126445" clip-path="url(#clip-path-24)">
        <path id="Trazado_903973" data-name="Trazado 903973" d="M243.655,228.362,224.7,212.019a.261.261,0,0,0,.167.061l18.952,16.343a.265.265,0,0,1-.167-.061" transform="translate(-224.704 -212.019)" fill="#999"/>
        <path id="Trazado_903974" data-name="Trazado 903974" d="M243.928,228.457l-18.952-16.343a.368.368,0,0,0,.091-.009l18.951,16.343a.392.392,0,0,1-.091.009" transform="translate(-224.81 -212.052)" fill="#b3b3b3"/>
        <path id="Trazado_903975" data-name="Trazado 903975" d="M244.077,228.436l-18.952-16.343a.442.442,0,0,0,.064-.018l18.951,16.343a.465.465,0,0,1-.064.018" transform="translate(-224.867 -212.041)" fill="#ccc"/>
      </g>
    </g>
    <g id="Grupo_1126448" data-name="Grupo 1126448">
      <g id="Grupo_1126447" data-name="Grupo 1126447" clip-path="url(#clip-path)">
        <path id="Trazado_903977" data-name="Trazado 903977" d="M244.3,219.522l-18.952-16.343,19.873-7.233,18.951,16.343Z" transform="translate(-87.168 -75.796)" fill="#f8f8f8"/>
      </g>
    </g>
    <g id="Grupo_1126450" data-name="Grupo 1126450" transform="translate(135.861 127.383)">
      <g id="Grupo_1126449" data-name="Grupo 1126449" clip-path="url(#clip-path-26)">
        <path id="Trazado_903978" data-name="Trazado 903978" d="M241.037,230.643,222.085,214.3a1.361,1.361,0,0,1-.423-.7l18.951,16.343a1.361,1.361,0,0,0,.423.7" transform="translate(-221.605 -210.007)" fill="#999"/>
        <path id="Trazado_903979" data-name="Trazado 903979" d="M240.578,229.642,221.626,213.3a1.884,1.884,0,0,1-.057-.472L240.52,229.17a1.884,1.884,0,0,0,.057.472" transform="translate(-221.569 -209.71)" fill="#b3b3b3"/>
        <path id="Trazado_903980" data-name="Trazado 903980" d="M240.52,228.868l-18.951-16.343c0-.02,0-.039,0-.059a2.52,2.52,0,0,1,.048-.419l18.952,16.343a2.518,2.518,0,0,0-.048.419c0,.02,0,.04,0,.059" transform="translate(-221.569 -209.408)" fill="#ccc"/>
        <path id="Trazado_903981" data-name="Trazado 903981" d="M240.6,228.05l-18.952-16.343a3.035,3.035,0,0,1,.161-.538l18.951,16.343a3.034,3.034,0,0,0-.161.538" transform="translate(-221.599 -209.068)" fill="#e6e6e6"/>
        <path id="Trazado_903982" data-name="Trazado 903982" d="M240.862,227.039,221.911,210.7a3.739,3.739,0,0,1,.409-.749l18.951,16.343a3.708,3.708,0,0,0-.409.749" transform="translate(-221.701 -208.596)" fill="#fff"/>
        <path id="Trazado_903983" data-name="Trazado 903983" d="M241.529,225.971l-18.951-16.343a4,4,0,0,1,.422-.506l18.951,16.343a4,4,0,0,0-.422.507" transform="translate(-221.959 -208.276)" fill="#fff"/>
        <path id="Trazado_903984" data-name="Trazado 903984" d="M242.217,225.131l-18.951-16.343a3.8,3.8,0,0,1,.644-.529L242.861,224.6a3.824,3.824,0,0,0-.644.529" transform="translate(-222.225 -207.943)" fill="#fff"/>
        <path id="Trazado_903985" data-name="Trazado 903985" d="M243.267,224.433,224.316,208.09a3.274,3.274,0,0,1,.505-.268l18.952,16.343a3.277,3.277,0,0,0-.505.268" transform="translate(-222.631 -207.774)" fill="#e6e6e6"/>
        <path id="Trazado_903986" data-name="Trazado 903986" d="M244.091,224.134,225.14,207.791c.042-.017.083-.034.125-.048l18.952,16.342c-.042.015-.083.032-.125.049" transform="translate(-222.95 -207.743)" fill="#e6e6e6"/>
      </g>
    </g>
    <g id="Grupo_1126452" data-name="Grupo 1126452">
      <g id="Grupo_1126451" data-name="Grupo 1126451" clip-path="url(#clip-path)">
        <path id="Trazado_903988" data-name="Trazado 903988" d="M274.663,222.6l-.048,1.817-19.872,7.233a.692.692,0,0,0-.435.575c-.006.231.179.35.413.265l19.872-7.233-.047,1.817-19.873,7.233c-1.244.453-2.229-.182-2.2-1.415a3.676,3.676,0,0,1,2.314-3.059Z" transform="translate(-97.663 -86.106)" fill="#8f8f8f"/>
        <path id="Trazado_903989" data-name="Trazado 903989" d="M243.814,198.353,225.524,204.8a4.3,4.3,0,0,0-2.675,3.866l1,.863a2.533,2.533,0,0,1-.043-1.611,3.282,3.282,0,0,1,2-2.318l17.82-6.283L258.865,212.6c-5.111,1.77-16.4,5.657-17.177,5.818a4.645,4.645,0,0,0-2.677,2.253,3.836,3.836,0,0,0-.451,1.54l.881.76a2.908,2.908,0,0,1,.319-1.9,3.9,3.9,0,0,1,2.1-1.821c1.034-.215,17.284-5.848,17.975-6.088l.692-.24Z" transform="translate(-86.203 -76.727)" fill="#5b6989"/>
        <path id="Trazado_903990" data-name="Trazado 903990" d="M244.182,215.569,225.23,199.226l19.873-7.233,18.951,16.343Z" transform="translate(-87.124 -74.267)" fill="#b3b3b3"/>
      </g>
    </g>
    <g id="Grupo_1126454" data-name="Grupo 1126454" transform="translate(137.784 124.925)">
      <g id="Grupo_1126453" data-name="Grupo 1126453" clip-path="url(#clip-path-28)">
        <path id="Trazado_903991" data-name="Trazado 903991" d="M243.655,220.076,224.7,203.733a.261.261,0,0,0,.167.061l18.952,16.343a.264.264,0,0,1-.167-.061" transform="translate(-224.704 -203.734)" fill="#999"/>
        <path id="Trazado_903992" data-name="Trazado 903992" d="M243.928,220.171l-18.952-16.343a.368.368,0,0,0,.091-.009l18.951,16.343a.391.391,0,0,1-.091.009" transform="translate(-224.81 -203.767)" fill="#b3b3b3"/>
        <path id="Trazado_903993" data-name="Trazado 903993" d="M244.077,220.15l-18.952-16.343a.446.446,0,0,0,.064-.018l18.951,16.343a.465.465,0,0,1-.064.018" transform="translate(-224.867 -203.755)" fill="#ccc"/>
      </g>
    </g>
    <g id="Grupo_1126456" data-name="Grupo 1126456">
      <g id="Grupo_1126455" data-name="Grupo 1126455" clip-path="url(#clip-path)">
        <path id="Trazado_903995" data-name="Trazado 903995" d="M244.3,211.237l-18.952-16.343,19.873-7.233L264.168,204Z" transform="translate(-87.168 -72.591)" fill="#f8f8f8"/>
      </g>
    </g>
    <g id="Grupo_1126458" data-name="Grupo 1126458" transform="translate(135.861 122.303)">
      <g id="Grupo_1126457" data-name="Grupo 1126457" clip-path="url(#clip-path-30)">
        <path id="Trazado_903996" data-name="Trazado 903996" d="M241.037,222.358l-18.951-16.343a1.359,1.359,0,0,1-.423-.7l18.951,16.343a1.357,1.357,0,0,0,.423.7" transform="translate(-221.605 -201.722)" fill="#999"/>
        <path id="Trazado_903997" data-name="Trazado 903997" d="M240.578,221.357l-18.951-16.343a1.884,1.884,0,0,1-.057-.472l18.951,16.343a1.884,1.884,0,0,0,.057.472" transform="translate(-221.569 -201.424)" fill="#b3b3b3"/>
        <path id="Trazado_903998" data-name="Trazado 903998" d="M240.52,220.583,221.569,204.24c0-.02,0-.039,0-.06a2.519,2.519,0,0,1,.048-.418l18.952,16.343a2.518,2.518,0,0,0-.048.419c0,.02,0,.04,0,.059" transform="translate(-221.569 -201.122)" fill="#ccc"/>
        <path id="Trazado_903999" data-name="Trazado 903999" d="M240.6,219.765l-18.952-16.343a3.035,3.035,0,0,1,.161-.538l18.951,16.343a3.034,3.034,0,0,0-.161.538" transform="translate(-221.599 -200.783)" fill="#e6e6e6"/>
        <path id="Trazado_904000" data-name="Trazado 904000" d="M240.862,218.753,221.911,202.41a3.74,3.74,0,0,1,.409-.749L241.271,218a3.709,3.709,0,0,0-.409.749" transform="translate(-221.701 -200.31)" fill="#fff"/>
        <path id="Trazado_904001" data-name="Trazado 904001" d="M241.529,217.685l-18.951-16.343a4,4,0,0,1,.422-.506l18.951,16.343a4,4,0,0,0-.422.506" transform="translate(-221.959 -199.99)" fill="#fff"/>
        <path id="Trazado_904002" data-name="Trazado 904002" d="M242.217,216.845,223.266,200.5a3.8,3.8,0,0,1,.644-.529l18.951,16.343a3.826,3.826,0,0,0-.644.529" transform="translate(-222.225 -199.657)" fill="#fff"/>
        <path id="Trazado_904003" data-name="Trazado 904003" d="M243.267,216.147,224.316,199.8a3.276,3.276,0,0,1,.505-.268l18.952,16.343a3.277,3.277,0,0,0-.505.268" transform="translate(-222.631 -199.488)" fill="#e6e6e6"/>
        <path id="Trazado_904004" data-name="Trazado 904004" d="M244.091,215.848,225.14,199.505c.042-.017.083-.034.125-.048L244.217,215.8c-.042.015-.083.032-.125.049" transform="translate(-222.95 -199.457)" fill="#e6e6e6"/>
      </g>
    </g>
    <g id="Grupo_1126460" data-name="Grupo 1126460">
      <g id="Grupo_1126459" data-name="Grupo 1126459" clip-path="url(#clip-path)">
        <path id="Trazado_904006" data-name="Trazado 904006" d="M274.663,214.314l-.048,1.817-19.872,7.233a.692.692,0,0,0-.435.575c-.006.231.179.35.413.265l19.872-7.233-.047,1.817-19.873,7.233c-1.244.453-2.229-.182-2.2-1.415a3.676,3.676,0,0,1,2.314-3.059Z" transform="translate(-97.663 -82.901)" fill="#8f8f8f"/>
        <path id="Trazado_904007" data-name="Trazado 904007" d="M243.814,190.067l-18.289,6.448a4.3,4.3,0,0,0-2.675,3.866l1,.863a2.533,2.533,0,0,1-.043-1.611,3.282,3.282,0,0,1,2-2.318l17.82-6.283,15.236,13.286c-5.111,1.77-16.4,5.657-17.177,5.819a4.64,4.64,0,0,0-2.677,2.253,3.83,3.83,0,0,0-.451,1.54l.881.76a2.908,2.908,0,0,1,.319-1.9,3.894,3.894,0,0,1,2.1-1.821c1.034-.215,17.284-5.848,17.975-6.088l.692-.24Z" transform="translate(-86.203 -73.522)" fill="#5b6989"/>
        <path id="Trazado_904008" data-name="Trazado 904008" d="M244.182,207.283,225.23,190.94l19.873-7.233,18.951,16.343Z" transform="translate(-87.124 -71.062)" fill="#b3b3b3"/>
      </g>
    </g>
    <g id="Grupo_1126462" data-name="Grupo 1126462" transform="translate(137.784 119.844)">
      <g id="Grupo_1126461" data-name="Grupo 1126461" clip-path="url(#clip-path-32)">
        <path id="Trazado_904009" data-name="Trazado 904009" d="M243.655,211.791,224.7,195.448a.261.261,0,0,0,.167.061l18.952,16.343a.265.265,0,0,1-.167-.061" transform="translate(-224.704 -195.448)" fill="#999"/>
        <path id="Trazado_904010" data-name="Trazado 904010" d="M243.928,211.886l-18.952-16.343a.368.368,0,0,0,.091-.009l18.951,16.343a.392.392,0,0,1-.091.009" transform="translate(-224.81 -195.481)" fill="#b3b3b3"/>
        <path id="Trazado_904011" data-name="Trazado 904011" d="M244.077,211.865l-18.952-16.343a.446.446,0,0,0,.064-.018l18.951,16.343a.465.465,0,0,1-.064.018" transform="translate(-224.867 -195.47)" fill="#ccc"/>
      </g>
    </g>
    <g id="Grupo_1126464" data-name="Grupo 1126464">
      <g id="Grupo_1126463" data-name="Grupo 1126463" clip-path="url(#clip-path)">
        <path id="Trazado_904013" data-name="Trazado 904013" d="M244.3,202.951l-18.952-16.343,19.873-7.233,18.951,16.343Z" transform="translate(-87.168 -69.386)" fill="#f8f8f8"/>
      </g>
    </g>
    <g id="Grupo_1126466" data-name="Grupo 1126466" transform="translate(135.861 117.222)">
      <g id="Grupo_1126465" data-name="Grupo 1126465" clip-path="url(#clip-path-34)">
        <path id="Trazado_904014" data-name="Trazado 904014" d="M241.037,214.072l-18.951-16.343a1.361,1.361,0,0,1-.423-.7l18.951,16.343a1.361,1.361,0,0,0,.423.7" transform="translate(-221.605 -193.436)" fill="#999"/>
        <path id="Trazado_904015" data-name="Trazado 904015" d="M240.578,213.071l-18.951-16.343a1.884,1.884,0,0,1-.057-.472L240.52,212.6a1.884,1.884,0,0,0,.057.472" transform="translate(-221.569 -193.138)" fill="#b3b3b3"/>
        <path id="Trazado_904016" data-name="Trazado 904016" d="M240.52,212.3l-18.951-16.343c0-.02,0-.039,0-.059a2.519,2.519,0,0,1,.048-.419l18.952,16.343a2.518,2.518,0,0,0-.048.419c0,.02,0,.04,0,.059" transform="translate(-221.569 -192.836)" fill="#ccc"/>
        <path id="Trazado_904017" data-name="Trazado 904017" d="M240.6,211.479l-18.952-16.343a3.034,3.034,0,0,1,.161-.538l18.951,16.343a3.035,3.035,0,0,0-.161.538" transform="translate(-221.599 -192.497)" fill="#e6e6e6"/>
        <path id="Trazado_904018" data-name="Trazado 904018" d="M240.862,210.468l-18.951-16.343a3.739,3.739,0,0,1,.409-.749l18.951,16.343a3.708,3.708,0,0,0-.409.749" transform="translate(-221.701 -192.024)" fill="#fff"/>
        <path id="Trazado_904019" data-name="Trazado 904019" d="M241.529,209.4l-18.951-16.343a4,4,0,0,1,.422-.506l18.951,16.343a4,4,0,0,0-.422.507" transform="translate(-221.959 -191.704)" fill="#fff"/>
        <path id="Trazado_904020" data-name="Trazado 904020" d="M242.217,208.559l-18.951-16.343a3.8,3.8,0,0,1,.644-.529l18.951,16.343a3.826,3.826,0,0,0-.644.529" transform="translate(-222.225 -191.371)" fill="#fff"/>
        <path id="Trazado_904021" data-name="Trazado 904021" d="M243.267,207.861l-18.951-16.342a3.279,3.279,0,0,1,.505-.269l18.952,16.344a3.327,3.327,0,0,0-.505.267" transform="translate(-222.631 -191.202)" fill="#e6e6e6"/>
        <path id="Trazado_904022" data-name="Trazado 904022" d="M244.091,207.563,225.14,191.22c.042-.017.083-.034.125-.048l18.952,16.342c-.042.015-.083.032-.125.049" transform="translate(-222.95 -191.171)" fill="#e6e6e6"/>
      </g>
    </g>
    <g id="Grupo_1126468" data-name="Grupo 1126468">
      <g id="Grupo_1126467" data-name="Grupo 1126467" clip-path="url(#clip-path)">
        <path id="Trazado_904024" data-name="Trazado 904024" d="M274.663,206.028l-.048,1.817-19.872,7.233a.692.692,0,0,0-.435.575c-.006.231.179.35.413.265l19.872-7.233-.047,1.817-19.873,7.233c-1.244.453-2.229-.182-2.2-1.415a3.676,3.676,0,0,1,2.314-3.059Z" transform="translate(-97.663 -79.696)" fill="#8f8f8f"/>
        <path id="Trazado_904025" data-name="Trazado 904025" d="M243.814,181.781l-18.289,6.448a4.3,4.3,0,0,0-2.675,3.866l1,.863a2.533,2.533,0,0,1-.043-1.611,3.282,3.282,0,0,1,2-2.318l17.82-6.283,15.236,13.286c-5.111,1.77-16.4,5.657-17.177,5.819a4.64,4.64,0,0,0-2.677,2.253,3.83,3.83,0,0,0-.451,1.54l.881.76a2.908,2.908,0,0,1,.319-1.9,3.9,3.9,0,0,1,2.1-1.821c1.034-.215,17.284-5.848,17.975-6.088l.692-.24Z" transform="translate(-86.203 -70.317)" fill="#5b6989"/>
        <path id="Trazado_904026" data-name="Trazado 904026" d="M180.554,18.177a2.372,2.372,0,0,1-2.889,1.725,2.488,2.488,0,0,1-2.323-2.526,2.371,2.371,0,0,1,2.889-1.724,2.487,2.487,0,0,1,2.323,2.525" transform="translate(-67.82 -6.04)" fill="#382014"/>
        <path id="Trazado_904027" data-name="Trazado 904027" d="M191.753,23.431c-1.364.837-3.268-.232-4.761-2.353-.041-.054-.078-.117-.113-.172-.974.142-1.987-.887-3.12-1.213-3.058-.869-5.969-2.492-5.336-4.482.506-1.6,3.566-3.776,6.775-2.42a11.894,11.894,0,0,1,1.074.514,9.254,9.254,0,0,1,3.29,2.726,4.32,4.32,0,0,0,1.349,1.282,4.17,4.17,0,0,1,1.056.877c1.446,1.659,1.4,4.24-.214,5.241" transform="translate(-68.984 -4.783)" fill="#382014"/>
        <path id="Trazado_904028" data-name="Trazado 904028" d="M194.184,25.509c.737,2.063-.99,4.019-2.836,4.541a3.554,3.554,0,0,1-3.451-.559,3.249,3.249,0,0,1-.837-1.816c-.163-.819-.24-1.651-.388-2.472a4.078,4.078,0,0,0-2.518-3.33l4.112-2.123,2.881,3.678a3.324,3.324,0,0,1,3.037,2.079" transform="translate(-71.235 -7.64)" fill="#382014"/>
        <path id="Trazado_904029" data-name="Trazado 904029" d="M199.331,7.752a5.184,5.184,0,0,1-6.93,2.732,5.494,5.494,0,0,1-2.343-7.261A5.183,5.183,0,0,1,196.988.49a5.5,5.5,0,0,1,2.344,7.261" transform="translate(-73.311 0)" fill="#382014"/>
      </g>
    </g>
  </g>
</svg>
