<svg xmlns="http://www.w3.org/2000/svg" xmlns:xlink="http://www.w3.org/1999/xlink" width="93.233" height="96.432" viewBox="0 0 93.233 96.432">
  <defs>
    <clipPath id="clip-path">
      <rect id="Rectángulo_415859" data-name="Rectángulo 415859" width="93.233" height="96.432" fill="#12263f"/>
    </clipPath>
  </defs>
  <g id="Grupo_1126147" data-name="Grupo 1126147" transform="translate(0 0)">
    <g id="Grupo_1126146" data-name="Grupo 1126146" transform="translate(0 0)" clip-path="url(#clip-path)">
      <path id="Trazado_900112" data-name="Trazado 900112" d="M93.162,77.414,88.648,64.835a27.241,27.241,0,0,0-32.2-37.811,27.234,27.234,0,0,0-54.467.421,26.9,26.9,0,0,0,2.6,11.646L.073,51.685a1.505,1.505,0,0,0,.346,1.5A1.505,1.505,0,0,0,2,53.535l11.3-4.047a26.936,26.936,0,0,0,15.934,5.146,27.261,27.261,0,0,0,7.523-1.083A27.264,27.264,0,0,0,64,80.438a26.91,26.91,0,0,0,15.917-5.146l11.316,4.047a1.549,1.549,0,0,0,1.924-1.926m-78.7-30.739a1.507,1.507,0,0,0-1.414-.226L4.016,49.7,7.657,39.512a1.51,1.51,0,0,0,0-1.189A23.826,23.826,0,0,1,4.994,27.445a24.21,24.21,0,1,1,9.464,19.229M80.179,72.253a1.5,1.5,0,0,0-1.429.226A23.946,23.946,0,0,1,64,77.5,24.254,24.254,0,0,1,39.78,53.265v-.632A27.321,27.321,0,0,0,56.329,30.3,24.209,24.209,0,0,1,85.656,64.068a1.486,1.486,0,0,0,0,1.174l3.6,10.2Z" transform="translate(0 0.001)" fill="#12263f"/>
      <path id="Trazado_900113" data-name="Trazado 900113" d="M44.835,28.141a6.847,6.847,0,0,0-6.847,6.8,1.5,1.5,0,1,0,3.009,0,3.838,3.838,0,1,1,3.838,3.852,1.5,1.5,0,0,0-1.5,1.5v2.5a1.5,1.5,0,1,0,3.009,0V41.683a6.846,6.846,0,0,0-1.5-13.542" transform="translate(19.169 14.201)" fill="#12263f"/>
      <path id="Trazado_900114" data-name="Trazado 900114" d="M21.724,11.021a6.846,6.846,0,0,0-6.846,6.831,1.5,1.5,0,0,0,3.009,0,3.837,3.837,0,1,1,3.837,3.882,1.505,1.505,0,0,0-1.5,1.5v2.5a1.5,1.5,0,0,0,3.009,0V24.578a6.846,6.846,0,0,0-1.5-13.542Z" transform="translate(7.508 5.562)" fill="#12263f"/>
      <path id="Trazado_900115" data-name="Trazado 900115" d="M18.866,23.92a1.385,1.385,0,1,0,.008-.009l-.008.009" transform="translate(9.299 11.846)" fill="#12263f"/>
      <path id="Trazado_900116" data-name="Trazado 900116" d="M19.976,39.891a15.212,15.212,0,0,0-2.8,30.092l2.573,5.462a1.51,1.51,0,0,0,2.723,0l2.919-6.184a15.227,15.227,0,0,0-5.417-29.37m8.7,23.848a12.028,12.028,0,0,1-4.785,3.009,1.508,1.508,0,0,0-.888.8l-1.836,3.867-1.5-3.3a1.505,1.505,0,0,0-1.159-.843A12.2,12.2,0,1,1,28.718,63.8Z" transform="translate(2.575 20.13)" fill="#12263f"/>
      <path id="Trazado_900117" data-name="Trazado 900117" d="M44.112,41.02a1.506,1.506,0,0,0-2.129-.009l-.009.009a1.34,1.34,0,0,0-.316.5,1.55,1.55,0,0,0-.12.572,1.5,1.5,0,1,0,3.009,0,1.253,1.253,0,0,0-.12-.572,2.165,2.165,0,0,0-.314-.5" transform="translate(20.961 20.475)" fill="#12263f"/>
      <path id="Trazado_900118" data-name="Trazado 900118" d="M20.316,47.351H13.154a1.5,1.5,0,0,0,0,3.009h7.162a1.5,1.5,0,0,0,0-3.009" transform="translate(5.878 23.894)" fill="#12263f"/>
      <path id="Trazado_900119" data-name="Trazado 900119" d="M16.673,51.451H13.153a1.5,1.5,0,1,0,0,3.009h3.521a1.5,1.5,0,1,0,0-3.009" transform="translate(5.878 25.963)" fill="#12263f"/>
    </g>
  </g>
</svg>
