<svg xmlns="http://www.w3.org/2000/svg" xmlns:xlink="http://www.w3.org/1999/xlink" width="95.069" height="94.181" viewBox="0 0 95.069 94.181">
  <defs>
    <clipPath id="clip-path">
      <rect id="Rectángulo_415860" data-name="Rectángulo 415860" width="95.069" height="94.181" fill="#12263f"/>
    </clipPath>
  </defs>
  <g id="Grupo_1126149" data-name="Grupo 1126149" transform="translate(0 0)">
    <g id="Grupo_1126148" data-name="Grupo 1126148" transform="translate(0 0)" clip-path="url(#clip-path)">
      <path id="Trazado_900120" data-name="Trazado 900120" d="M26.867,39.629v3.8a4.518,4.518,0,0,0,2.249,3.946,4.581,4.581,0,0,0,2.33.65,4.629,4.629,0,0,0,2.218-.571l4.215-2.33A34.214,34.214,0,0,0,46.736,46.3c15.623,0,28.315-10.378,28.315-23.133S62.359,0,46.736,0s-28.33,10.379-28.33,23.134c0,6.18,3.074,12.137,8.461,16.478ZM46.736,3.185c13.864,0,25.145,8.953,25.145,19.964S60.6,43.114,46.736,43.114a30.518,30.518,0,0,1-8.6-1.236,1.671,1.671,0,0,0-1.205.127l-4.785,2.646a1.38,1.38,0,0,1-1.394-.016,1.408,1.408,0,0,1-.7-1.221V38.836a1.607,1.607,0,0,0-.633-1.268c-5.055-3.819-7.827-8.952-7.827-14.434,0-11.012,11.281-19.964,25.161-19.964Z" transform="translate(0.797 0)" fill="#12263f"/>
      <path id="Trazado_900121" data-name="Trazado 900121" d="M32.217,27.633A5.229,5.229,0,1,0,26.972,22.4a5.248,5.248,0,0,0,5.245,5.229m0-7.3a2.06,2.06,0,1,1-2.075,2.06,2.069,2.069,0,0,1,2.075-2.06" transform="translate(1.169 0.744)" fill="#12263f"/>
      <path id="Trazado_900122" data-name="Trazado 900122" d="M45.778,27.633A5.229,5.229,0,1,0,40.533,22.4a5.248,5.248,0,0,0,5.245,5.229m0-7.3a2.06,2.06,0,1,1-2.075,2.06,2.069,2.069,0,0,1,2.075-2.06" transform="translate(1.756 0.744)" fill="#12263f"/>
      <path id="Trazado_900123" data-name="Trazado 900123" d="M59.34,27.633A5.229,5.229,0,1,0,54.1,22.4a5.248,5.248,0,0,0,5.245,5.229m0-7.3a2.06,2.06,0,1,1-2.075,2.06,2.069,2.069,0,0,1,2.075-2.06" transform="translate(2.344 0.744)" fill="#12263f"/>
      <path id="Trazado_900124" data-name="Trazado 900124" d="M7.6,73.028a1.589,1.589,0,0,0,1.585-1.585v-8.7H45.69V70.62a1.584,1.584,0,0,0,3.169,0V62.745H85.365v8.7a1.584,1.584,0,1,0,3.169,0V61.161a1.589,1.589,0,0,0-1.585-1.585H48.858V51.7a1.584,1.584,0,1,0-3.169,0v7.874H7.6a1.59,1.59,0,0,0-1.585,1.585V71.444A1.589,1.589,0,0,0,7.6,73.028" transform="translate(0.261 2.171)" fill="#12263f"/>
      <path id="Trazado_900125" data-name="Trazado 900125" d="M7.859,75.387a7.764,7.764,0,1,0,7.859,7.764,7.828,7.828,0,0,0-7.859-7.764m0,12.359a4.6,4.6,0,1,1,0-9.19,4.6,4.6,0,1,1,0,9.19" transform="translate(0 3.266)" fill="#12263f"/>
      <path id="Trazado_900126" data-name="Trazado 900126" d="M45.886,75.387a7.764,7.764,0,1,0,7.859,7.764,7.828,7.828,0,0,0-7.859-7.764m0,12.359a4.6,4.6,0,1,1,4.69-4.595,4.65,4.65,0,0,1-4.69,4.595" transform="translate(1.648 3.266)" fill="#12263f"/>
      <path id="Trazado_900127" data-name="Trazado 900127" d="M83.914,75.387a7.764,7.764,0,1,0,7.859,7.764,7.828,7.828,0,0,0-7.859-7.764m0,12.359a4.6,4.6,0,1,1,4.69-4.595,4.65,4.65,0,0,1-4.69,4.595" transform="translate(3.295 3.266)" fill="#12263f"/>
    </g>
  </g>
</svg>
