<svg xmlns="http://www.w3.org/2000/svg" xmlns:xlink="http://www.w3.org/1999/xlink" width="39.506" height="77.45" viewBox="0 0 39.506 77.45">
  <defs>
    <clipPath id="clip-path">
      <rect id="Rectángulo_415843" data-name="Rectángulo 415843" width="39.506" height="77.45" fill="none"/>
    </clipPath>
  </defs>
  <g id="Grupo_1126128" data-name="Grupo 1126128" clip-path="url(#clip-path)">
    <path id="Trazado_900037" data-name="Trazado 900037" d="M12.6,56.473a1.219,1.219,0,0,1-1.29-1.29V34.53a1.22,1.22,0,0,1,1.29-1.292,1.22,1.22,0,0,1,1.29,1.292V55.183a1.219,1.219,0,0,1-1.29,1.29" transform="translate(7.135 20.978)" fill="#d1c4e9"/>
    <path id="Trazado_900038" data-name="Trazado 900038" d="M3.891,53.976a1.291,1.291,0,1,1,0-2.582A12.944,12.944,0,0,0,16.8,38.487a1.291,1.291,0,1,1,2.582,0A15.535,15.535,0,0,1,3.891,53.976" transform="translate(1.64 23.475)" fill="#d1c4e9"/>
    <path id="Trazado_900039" data-name="Trazado 900039" d="M26.795,53.976A15.536,15.536,0,0,1,11.3,38.485a1.22,1.22,0,0,1,1.292-1.29,1.219,1.219,0,0,1,1.29,1.29A12.946,12.946,0,0,0,26.795,51.394a1.291,1.291,0,0,1,0,2.582" transform="translate(7.134 23.475)" fill="#d1c4e9"/>
    <path id="Trazado_900040" data-name="Trazado 900040" d="M31.1,18.734a6.072,6.072,0,0,0-3.226-7.358,59.382,59.382,0,0,0-6.068-2.194,3.222,3.222,0,0,1-2.323-3.228V2.211A1.433,1.433,0,0,0,18.065.792H14.452a1.432,1.432,0,0,0-1.421,1.419V5.954a3.333,3.333,0,0,1-2.453,3.228,59.225,59.225,0,0,0-6.066,2.194,6.019,6.019,0,0,0-3.228,7.358L5.416,31.126a22.288,22.288,0,0,1,0,14.2L4.253,48.939A6.35,6.35,0,0,0,4,52.038a3.5,3.5,0,0,0,3.742,2.969H24.519a3.409,3.409,0,0,0,3.743-2.969,5.058,5.058,0,0,0-.258-3.1l-1.163-3.615a22.288,22.288,0,0,1,0-14.2Z" transform="translate(0.631 0.5)" fill="#d1c4e9"/>
    <path id="Trazado_900041" data-name="Trazado 900041" d="M28.214,18.734a6.072,6.072,0,0,0-3.226-7.358A59.382,59.382,0,0,0,18.92,9.182a3.452,3.452,0,0,1-2.453-3.228V2.211A1.253,1.253,0,0,0,15.176.792H11.3a1.433,1.433,0,0,1,1.421,1.419V5.954a3.332,3.332,0,0,0,2.452,3.228,59.382,59.382,0,0,1,6.068,2.194,6.015,6.015,0,0,1,3.226,7.358L20.34,31.126a22.266,22.266,0,0,0,0,14.2L21.5,48.939a6.37,6.37,0,0,1,.258,3.1,3.5,3.5,0,0,1-3.743,2.969h3.872a3.409,3.409,0,0,0,3.743-2.969,5.046,5.046,0,0,0-.258-3.1l-1.161-3.615a22.266,22.266,0,0,1,0-14.2Z" transform="translate(7.134 0.5)" fill="#a08dce"/>
    <path id="Trazado_900042" data-name="Trazado 900042" d="M30.587,18.734a6.072,6.072,0,0,0-3.226-7.358,59.382,59.382,0,0,0-6.068-2.194A3.452,3.452,0,0,1,18.84,5.954V2.211A1.253,1.253,0,0,0,17.55.792H13.679A1.433,1.433,0,0,1,15.1,2.211V5.954A3.332,3.332,0,0,0,17.55,9.182a59.382,59.382,0,0,1,6.068,2.194,6.015,6.015,0,0,1,3.226,7.358l-4.13,12.392a22.266,22.266,0,0,0,0,14.2l1.163,3.615a6.389,6.389,0,0,1,.256,3.1,3.5,3.5,0,0,1-3.743,2.969h3.872a3.409,3.409,0,0,0,3.743-2.969,5.046,5.046,0,0,0-.258-3.1l-1.161-3.615a22.266,22.266,0,0,1,0-14.2Z" transform="translate(8.633 0.5)" fill="#d8cafc"/>
    <path id="Trazado_900043" data-name="Trazado 900043" d="M1.048,18.734a6.14,6.14,0,0,1,3.1-7.358,59.243,59.243,0,0,1,6.068-2.194,3.193,3.193,0,0,0,2.452-3.228V2.211A1.433,1.433,0,0,1,14.085.792h3.872a1.432,1.432,0,0,0-1.419,1.419V5.954a3.333,3.333,0,0,1-2.453,3.228,59.382,59.382,0,0,0-6.068,2.194,6.015,6.015,0,0,0-3.226,7.358l4.13,12.392a22.266,22.266,0,0,1,0,14.2L7.76,48.939a6.256,6.256,0,0,0-.129,3.1,3.5,3.5,0,0,0,3.743,2.969H7.5a3.409,3.409,0,0,1-3.743-2.969,5.058,5.058,0,0,1,.258-3.1l1.163-3.615a22.288,22.288,0,0,0,0-14.2Z" transform="translate(0.481 0.5)" fill="#fff"/>
    <path id="Trazado_900044" data-name="Trazado 900044" d="M28.765,56.8H8.112a4.789,4.789,0,0,1-5.034-4,8.012,8.012,0,0,1,.258-3.874L4.5,45.309a21.677,21.677,0,0,0,0-13.426L.367,19.621A7.258,7.258,0,0,1,4.24,10.715a61.2,61.2,0,0,1,6.195-2.2,2.209,2.209,0,0,0,1.55-2.065V2.711A2.647,2.647,0,0,1,14.695,0h7.487a2.647,2.647,0,0,1,2.711,2.711V6.454a2.209,2.209,0,0,0,1.55,2.065,61.2,61.2,0,0,1,6.195,2.2,7.26,7.26,0,0,1,3.872,8.906L32.38,32.012a21.677,21.677,0,0,0,0,13.426l1.161,3.615a7.909,7.909,0,0,1,.258,3.872A4.8,4.8,0,0,1,28.765,56.8M14.695,2.582h0l-.129,3.872a4.685,4.685,0,0,1-3.357,4.518c-1.548.515-3.872,1.29-5.937,2.194a4.55,4.55,0,0,0-2.453,5.68L6.95,31.239a24.72,24.72,0,0,1,0,14.974L5.789,49.826a4.036,4.036,0,0,0-.13,2.453,2.2,2.2,0,0,0,2.453,1.936H28.765a2.2,2.2,0,0,0,2.453-1.936,5.364,5.364,0,0,0-.129-2.453l-1.163-3.613a22.914,22.914,0,0,1,0-14.974l4.132-12.393a4.676,4.676,0,0,0-2.453-5.68,48.822,48.822,0,0,0-5.937-2.194,4.687,4.687,0,0,1-3.357-4.518V2.711c0-.129,0-.129-.129-.129Z" transform="translate(0 0.001)"/>
    <path id="Trazado_900045" data-name="Trazado 900045" d="M16.249,12.535a17.335,17.335,0,0,1-2.582-.129c-5.291-.388-9.165-2.194-10.2-4.518L5.793,6.856c.646,1.419,4,2.711,8.133,3.1,5.937.517,11.359-.9,12.907-3.226l2.2,1.419c-2.2,3.1-7.616,4.389-12.78,4.389" transform="translate(2.189 4.246)"/>
    <path id="Trazado_900046" data-name="Trazado 900046" d="M11.8,56.473a1.219,1.219,0,0,1-1.29-1.29V34.53a1.22,1.22,0,0,1,1.29-1.292,1.22,1.22,0,0,1,1.29,1.292V55.183a1.219,1.219,0,0,1-1.29,1.29" transform="translate(6.635 20.978)"/>
    <path id="Trazado_900047" data-name="Trazado 900047" d="M3.1,53.976a1.291,1.291,0,0,1,0-2.582A12.946,12.946,0,0,0,16.007,38.487a1.29,1.29,0,1,1,2.58,0A15.533,15.533,0,0,1,3.1,53.976" transform="translate(1.141 23.475)"/>
    <path id="Trazado_900048" data-name="Trazado 900048" d="M26,53.976A15.536,15.536,0,0,1,10.512,38.485a1.22,1.22,0,0,1,1.292-1.29,1.219,1.219,0,0,1,1.29,1.29A12.946,12.946,0,0,0,26,51.394a1.291,1.291,0,0,1,0,2.582" transform="translate(6.634 23.475)"/>
  </g>
</svg>
