<svg xmlns="http://www.w3.org/2000/svg" xmlns:xlink="http://www.w3.org/1999/xlink" width="98.501" height="74.369" viewBox="0 0 98.501 74.369">
  <defs>
    <clipPath id="clip-path">
      <rect id="Rectángulo_415847" data-name="Rectángulo 415847" width="98.501" height="74.369" fill="none"/>
    </clipPath>
  </defs>
  <g id="Grupo_1126133" data-name="Grupo 1126133" transform="translate(0 0)">
    <g id="Grupo_1126132" data-name="Grupo 1126132" transform="translate(0 0)" clip-path="url(#clip-path)">
      <path id="Trazado_900071" data-name="Trazado 900071" d="M2.129,13.474H72.4V4.894H66.026V7.365a1.557,1.557,0,0,1-3.115,0V4.894H58.253V7.365a1.557,1.557,0,0,1-3.115,0V4.894H50.48V7.365a1.557,1.557,0,0,1-3.115,0V4.894H42.709V7.365a1.557,1.557,0,0,1-3.115,0V4.894H34.936V7.365a1.557,1.557,0,0,1-3.115,0V4.894H27.163V7.365a1.557,1.557,0,0,1-3.115,0V4.894H19.394V7.365a1.557,1.557,0,0,1-3.115,0V4.894H11.621V7.365a1.557,1.557,0,0,1-3.115,0V4.894H2.129Z" transform="translate(0.986 2.265)" fill="#b0e7c9" fill-rule="evenodd"/>
      <path id="Trazado_900072" data-name="Trazado 900072" d="M68.62,34.994a12.773,12.773,0,1,0,3.739,9.029,12.771,12.771,0,0,0-3.739-9.029" transform="translate(21.676 14.469)" fill="#d1c4e9" fill-rule="evenodd"/>
      <path id="Trazado_900073" data-name="Trazado 900073" d="M63.277,40.136V21.853A1.557,1.557,0,0,1,64.835,20.3H68.12L65.2,15.243l-2.922-5.06-2.922,5.06L56.443,20.3h3.286a1.557,1.557,0,0,1,1.557,1.557V39.128a15.977,15.977,0,0,1,1.991,1.008" transform="translate(26.132 4.714)" fill="#d1c4e9" fill-rule="evenodd"/>
      <path id="Trazado_900074" data-name="Trazado 900074" d="M10.62,37.031a2.183,2.183,0,1,0,.638,1.542,2.181,2.181,0,0,0-.638-1.542" transform="translate(3.193 16.848)" fill="#d1c4e9" fill-rule="evenodd"/>
      <path id="Trazado_900075" data-name="Trazado 900075" d="M23.873,37.031a2.183,2.183,0,1,0,.638,1.542,2.181,2.181,0,0,0-.638-1.542" transform="translate(9.329 16.848)" fill="#d1c4e9" fill-rule="evenodd"/>
      <path id="Trazado_900076" data-name="Trazado 900076" d="M37.127,37.031a2.181,2.181,0,1,0,.638,1.542,2.183,2.183,0,0,0-.638-1.542" transform="translate(15.465 16.848)" fill="#d1c4e9" fill-rule="evenodd"/>
      <path id="Trazado_900077" data-name="Trazado 900077" d="M55.127,47.9h9.956A15.928,15.928,0,0,1,72.4,38.729V12.888H2.129v44.65H65.2a15.861,15.861,0,0,1-.808-5.014q0-.766.072-1.514H55.127A5.3,5.3,0,0,1,45,51.01H35.738a5.3,5.3,0,0,1-10.124,0H16.349a5.293,5.293,0,1,1,0-3.115h9.265a5.3,5.3,0,0,1,10.124,0H45a5.3,5.3,0,0,1,10.125,0Z" transform="translate(0.986 5.966)" fill="#b0e7c9" fill-rule="evenodd"/>
      <path id="Trazado_900078" data-name="Trazado 900078" d="M56.587,21.543h5.027V16.91H56.587ZM7.731,29.291h5.027V24.658H7.731Zm8.143,0H20.9V24.658H15.874Zm8.141,0h5.027V24.658H24.015Zm8.143,0h5.027V24.658H32.158Zm8.143,0h5.027V24.658H40.3Zm8.143,0h5.027V24.658H48.444Zm8.143,0h5.027V24.658H56.587Zm5.027,3.115H56.587v4.633h5.027Zm-8.143,0H48.444v4.633h5.027Zm-8.143,0H40.3v4.633h5.027Zm-8.141,0H32.16v4.633h5.027Zm-8.143,0H24.017v4.633h5.027Zm-8.143,0H15.874v4.633H20.9Zm-8.143,0H7.731v4.633h5.027ZM7.731,21.543h5.027V16.91H7.731Zm8.143,0H20.9V16.91H15.874Zm8.141,0h5.027V16.91H24.015Zm8.143,0h5.027V16.91H32.158Zm8.143,0h5.027V16.91H40.3Zm8.143,0h5.027V16.91H48.444Z" transform="translate(3.579 7.828)" fill="#ffb74d" fill-rule="evenodd"/>
      <path id="Trazado_900079" data-name="Trazado 900079" d="M3.115,15.742H73.389V7.16H67.012V9.631a1.557,1.557,0,0,1-3.115,0V7.16H59.239V9.631a1.557,1.557,0,0,1-3.115,0V7.16H51.466V9.631a1.557,1.557,0,0,1-3.115,0V7.16H43.693V9.631a1.557,1.557,0,0,1-3.115,0V7.16H35.92V9.631a1.557,1.557,0,0,1-3.115,0V7.16H28.148V9.631a1.557,1.557,0,0,1-3.115,0V7.16H20.379V9.631a1.557,1.557,0,0,1-3.115,0V7.16H12.606V9.631a1.557,1.557,0,1,1-3.115,0V7.16H3.115Zm87.18,33.722a12.77,12.77,0,1,0,3.741,9.029,12.769,12.769,0,0,0-3.741-9.029m-10.588.079a1.557,1.557,0,0,1,3.115,0V57.6l5.027,2.9a1.554,1.554,0,1,1-1.557,2.689l-5.807-3.353-.78-.449V49.542Zm9.7-4.692V26.569a1.557,1.557,0,0,1,1.557-1.558h3.287l-2.919-5.052-2.92-5.06-2.922,5.06-2.919,5.053h3.287a1.556,1.556,0,0,1,1.557,1.557V43.844a15.684,15.684,0,0,1,1.991,1.008ZM84.3,42.9V28.127H79.881A1.558,1.558,0,0,1,78.59,25.7L82.8,18.4l4.266-7.389a1.554,1.554,0,0,1,2.7.018L94.024,18.4l4.266,7.389a1.554,1.554,0,0,1-1.344,2.332v0H92.523V47.286A15.885,15.885,0,1,1,67.616,66.623H1.557A1.557,1.557,0,0,1,0,65.064V5.6A1.557,1.557,0,0,1,1.557,4.045H9.492V1.576a1.557,1.557,0,0,1,3.115,0v2.47h4.658V1.576a1.557,1.557,0,0,1,3.113-.035.141.141,0,0,1,0,.035v2.47h4.658V1.576a1.557,1.557,0,0,1,3.115-.035v2.5h4.658V1.576a1.557,1.557,0,0,1,3.115,0V4.045h4.658V1.576A1.557,1.557,0,0,1,43.7,1.541v2.5h4.658V1.576a1.557,1.557,0,0,1,3.115-.035v2.5h4.658V1.576a1.557,1.557,0,1,1,3.115-.035v2.5H63.9V1.576a1.557,1.557,0,0,1,3.115,0v2.47h7.931A1.558,1.558,0,0,1,76.5,5.6V43.335A15.98,15.98,0,0,1,84.3,42.9ZM13.812,53.88a2.179,2.179,0,1,0,.639,1.542,2.181,2.181,0,0,0-.639-1.542m19.389,0a2.179,2.179,0,1,0,.639,1.542A2.179,2.179,0,0,0,33.2,53.88m19.39,0a2.181,2.181,0,1,0,.638,1.542,2.181,2.181,0,0,0-.638-1.542m3.52-.016a5.3,5.3,0,0,0-10.124,0H36.722a5.3,5.3,0,0,0-10.124,0H17.333a5.291,5.291,0,1,0,0,3.115H26.6a5.3,5.3,0,0,0,10.124,0h9.265a5.3,5.3,0,0,0,10.124,0h9.341c-.047.5-.072,1-.072,1.516a15.868,15.868,0,0,0,.808,5.014H3.115V18.858H73.389V44.7a15.919,15.919,0,0,0-7.322,9.167ZM9.751,21.626a1.558,1.558,0,0,0-1.557,1.558V46.426a1.558,1.558,0,0,0,1.557,1.558h57a1.557,1.557,0,0,0,1.557-1.558V23.182a1.556,1.556,0,0,0-1.557-1.557Zm50.414,7.748h5.027V24.74H60.165Zm-8.143,0h5.027V24.74H52.022Zm-8.141,0h5.027V24.74H43.881Zm-8.143,0h5.027V24.74H35.738Zm-8.143,0h5.027V24.74H27.595Zm-8.143,0h5.027V24.74H19.452Zm-8.143,0h5.027V24.74H11.309Zm5.027,10.863H11.309V44.87h5.027Zm8.143,0H19.452V44.87h5.027Zm8.143,0H27.595V44.87h5.027Zm8.143,0H35.738V44.87h5.027Zm8.143,0H43.881V44.87h5.027Zm8.143,0H52.023V44.87H57.05Zm8.143,0H60.166V44.87h5.027Zm-5.028-3.115h5.027V32.488H60.165Zm-8.143,0h5.027V32.488H52.022Zm-8.141,0h5.027V32.488H43.881Zm-8.143,0h5.027V32.488H35.738Zm-8.143,0h5.027V32.488H27.595Zm-8.143,0h5.027V32.488H19.452Zm-8.143,0h5.027V32.488H11.309Z" transform="translate(0 0)" fill-rule="evenodd"/>
    </g>
  </g>
</svg>
