<svg xmlns="http://www.w3.org/2000/svg" xmlns:xlink="http://www.w3.org/1999/xlink" width="103.089" height="82.182" viewBox="0 0 103.089 82.182">
  <defs>
    <clipPath id="clip-path">
      <rect id="Rectángulo_415848" data-name="Rectángulo 415848" width="103.089" height="82.182" fill="none"/>
    </clipPath>
  </defs>
  <g id="Grupo_1126135" data-name="Grupo 1126135" transform="translate(0 0)">
    <g id="Grupo_1126134" data-name="Grupo 1126134" transform="translate(0 0)" clip-path="url(#clip-path)">
      <path id="Trazado_900080" data-name="Trazado 900080" d="M48.688,21.882c.751-.188,7.521-1.692,7.521-1.692l8.085.941s4.136-3.009,3.949-3.949S66.174,2.517,66.174,2.517L62.036,1.388l-9.4,6.58L47.371,19.814Z" transform="translate(33.532 0.983)" fill="#ffb74d"/>
      <path id="Trazado_900081" data-name="Trazado 900081" d="M24.951,39.223c.188.376,2.068,12.973,2.068,12.973s-1.317,9.965-1.88,9.965-5.076,3.761-5.076,3.761H14.234l.188,9.024,7.332,6.392,25.76-.751,20.306.188L75.9,77.014S79.1,66.861,78.912,66.3s-8.085-22.375-8.085-22.375L69.512,30.574s1.5-11.282,1.5-11.846,6.2-8.085,6.2-8.085,9.026-7.709,8.273-8.273S39.563-.49,39.121.094s-3.829,3.218-3.078,3.218,7.146,6.58,7.146,6.58l2.444,6.956.564,9.59-3.949,5.829L34.54,38.659l-6.582.751Z" transform="translate(10.076 0.001)" fill="#ffe060"/>
      <path id="Trazado_900082" data-name="Trazado 900082" d="M20.553,26.2c.376,0,12.6-.282,12.6-.282l.282-6.862s.282-3.009.565-3.2,4.888-2.632,4.606-2.914-4.512-6.394-4.512-6.394-6.2.377-6.676.377-6.768-.753-6.768-.753l-3.1,2.256s-2.54,4.136-2.258,4.136a43.639,43.639,0,0,1,3.667,3.479Z" transform="translate(10.806 4.373)" fill="#d8cafc"/>
      <path id="Trazado_900083" data-name="Trazado 900083" d="M60.616,23.7a1.55,1.55,0,0,1,.3-3.086l.813.1a1.55,1.55,0,0,1-.415,3.072Zm6.109,1.933a1.551,1.551,0,1,1,1.687-2.6,10.189,10.189,0,0,1,3.925,4.536,1.557,1.557,0,0,1-2.871,1.2A6.933,6.933,0,0,0,66.725,25.634Zm2.639,7.974a1.554,1.554,0,0,1,2.861,1.216A12.862,12.862,0,0,1,68.2,39.844a1.552,1.552,0,1,1-1.9-2.458,9.751,9.751,0,0,0,3.059-3.778m-8.075,6.334a1.55,1.55,0,1,1,.951,2.949,27.749,27.749,0,0,1-6.227,1.228l-1.09.145a1.554,1.554,0,0,1-.5-3.067l1.31-.164a25.934,25.934,0,0,0,5.552-1.091m-13.34,4.5a1.552,1.552,0,0,1,2.362,2.015c-1.713,2-.591,4.346,1.474,5.644a1.547,1.547,0,0,1-1.645,2.62A7.7,7.7,0,0,1,46.5,49.812,6.312,6.312,0,0,1,47.948,44.446Zm9.523,12.208A1.566,1.566,0,0,1,56.016,55a1.55,1.55,0,0,1,1.645-1.448,17.3,17.3,0,0,1,5.894,1.387,1.548,1.548,0,1,1-1.238,2.838A14.4,14.4,0,0,0,57.471,56.654Zm9.064,4.333a1.553,1.553,0,1,1,2.451-1.909l.9,1.322a1.552,1.552,0,1,1-2.671,1.58Zm-36.773-43.1.851-1.467a1.548,1.548,0,1,1,2.681,1.549L31.9,20.378V29.34H43.2V20.378l-1.392-2.413a1.551,1.551,0,0,1,2.688-1.549l.845,1.467,2.217-1.2-3.011-4.37a1.754,1.754,0,0,0-2.159-.628,12.612,12.612,0,0,1-9.668,0,1.761,1.761,0,0,0-2.159.628l-3,4.37Zm-.972,13.01V20.886l-4.239-2.311a1.559,1.559,0,0,1-.536-2.242L28,10.552a4.864,4.864,0,0,1,5.9-1.744,9.55,9.55,0,0,0,7.287,0,4.86,4.86,0,0,1,5.9,1.744l3.986,5.781a1.548,1.548,0,0,1-.579,2.261l-4.2,2.294V30.9a1.553,1.553,0,0,1-1.554,1.554H30.342A1.562,1.562,0,0,1,28.79,30.893ZM51.962,6.021A20.38,20.38,0,0,1,36.777,40.8c1.814,8.925,3.382,17.131-1.971,23.28H70.058a1.555,1.555,0,0,1,1.254,2.481c-2.482,4.15-2.5,7.267-1.2,9.32,2.64,4.145,10.525,4.3,14.373.019,2.475-2.753,3.4-7.446.6-14.341l-.024-.061C80.671,50.456,77.245,39.2,78,28.683c.666-9.434,4.654-18.189,14.194-25.52h-42.6l-.642.377A20.206,20.206,0,0,1,51.962,6.021Zm-18.428,34.4a20.636,20.636,0,0,1-3.773-1.146c-1.329,1.329-2.263,2.582-4.323,2.582a4.218,4.218,0,0,1-2.066-.543L8.031,56.657a4.539,4.539,0,0,1-6.406,0l-.3-.3a4.528,4.528,0,0,1,0-6.4l15.343-15.35a4.219,4.219,0,0,1,.687-5.031L18.7,28.222A20.391,20.391,0,0,1,45.838,1.808L48.44.254a1.542,1.542,0,0,1,.755-.2H97.157a1.561,1.561,0,0,1,1.134.485c3.223,3.364,8.551,18.8.779,22.264-1.669.741-3.872.861-6.739.1a13.7,13.7,0,0,0-10.72,1.978,34.143,34.143,0,0,0-.523,4.024c-.7,9.938,2.61,20.783,6.847,31.452l.017.044c3.337,8.22,2.036,14.02-1.16,17.577A13.28,13.28,0,0,1,76.646,82.14c-.135,0-.265-.007-.4-.014H38.465v.007c-5.75,0-10.015-.738-12.9-3.216-2.91-2.5-4.232-6.589-4.019-13.2A1.555,1.555,0,0,1,23.1,64.08h7.135c7.035-5.267,5.315-13.743,3.421-23.059C33.62,40.85,33.589,40.68,33.534,40.423ZM26.85,37.789A20.529,20.529,0,0,1,20.2,31.134c-.485.483-.958.813-.958,1.411,0,.528.3.748.617,1.078l4.813,4.813a1.107,1.107,0,0,0,1.539,0ZM54.821,20.437a17.272,17.272,0,1,0-17.27,17.27,17.272,17.272,0,0,0,17.27-17.27M21.069,39.225l-2.311-2.307L3.522,52.157a1.424,1.424,0,0,0,0,2,1.7,1.7,0,0,0,1.3.71,1.4,1.4,0,0,0,1-.408Zm71.12-19.543a9.234,9.234,0,0,1,.347-5.192,13.787,13.787,0,0,0-7,.347,29.531,29.531,0,0,0-2.847,5.984,16.367,16.367,0,0,1,9.5-1.139M88.228,11.16a16.909,16.909,0,0,1,7.033.883,1.549,1.549,0,0,1,.787,2.306,6.117,6.117,0,0,0-.377,5.971c2.06.068,3.4-.687,3.986-2.709,1.2-4.051-1.071-11.1-2.854-13.924a40.041,40.041,0,0,0-8.575,7.474M67.479,67.19H24.628c.014,4.755,1,7.672,2.967,9.373,2.212,1.9,5.846,2.461,10.872,2.461v.007H68.69C65.869,76.221,65.3,72.033,67.479,67.19Z" transform="translate(-0.001 0.037)"/>
    </g>
  </g>
</svg>
