<svg xmlns="http://www.w3.org/2000/svg" xmlns:xlink="http://www.w3.org/1999/xlink" width="91.297" height="94.736" viewBox="0 0 91.297 94.736">
  <defs>
    <clipPath id="clip-path">
      <rect id="Rectángulo_415830" data-name="Rectángulo 415830" width="91.297" height="94.736" fill="none"/>
    </clipPath>
  </defs>
  <g id="Grupo_1126112" data-name="Grupo 1126112" transform="translate(0 0)">
    <g id="Grupo_1126111" data-name="Grupo 1126111" transform="translate(0 0)" clip-path="url(#clip-path)">
      <path id="Trazado_899430" data-name="Trazado 899430" d="M46.874.889a23.732,23.732,0,0,0,0,46.337,23.449,23.449,0,0,0,0-46.337" transform="translate(23.245 0.731)" fill="#dbedff"/>
      <path id="Trazado_899431" data-name="Trazado 899431" d="M32.2,24.174A23.4,23.4,0,0,1,51.3,1.128,23.417,23.417,0,1,0,47.1,47.6a23.294,23.294,0,0,0,4.2-.381A23.4,23.4,0,0,1,32.2,24.174" transform="translate(19.555 0.615)" fill="#b5dcff"/>
      <path id="Trazado_899432" data-name="Trazado 899432" d="M60.923,11.737l-.457-.16H27.85l-.406.12a1.24,1.24,0,0,0,.268,1.106L42.444,31.3a2.112,2.112,0,0,0,1.279.772l.155-.115h.437l.137.115a2.108,2.108,0,0,0,1.277-.772L60.695,12.512a.885.885,0,0,0,.228-.774" transform="translate(22.526 9.515)" fill="#0094fd"/>
      <path id="Trazado_899433" data-name="Trazado 899433" d="M44.668,11.577H33.625l-.4.266,5.722,20.23a2.051,2.051,0,0,0,.731,0L45.4,11.843Z" transform="translate(27.303 9.515)" fill="#1ca8ff"/>
      <path id="Trazado_899434" data-name="Trazado 899434" d="M32.165,7.365,32.01,7.8l2,7.635H46.734l2.011-7.428-.3-.643a2,2,0,0,0-.778-.16H32.943a2,2,0,0,0-.778.16" transform="translate(26.308 5.922)" fill="#1ca8ff"/>
      <path id="Trazado_899435" data-name="Trazado 899435" d="M35.943,7.293a2.086,2.086,0,0,0-.6.383l-7.477,6.841a1.444,1.444,0,0,0-.415.652,1.6,1.6,0,0,0-.04.195H37.994Z" transform="translate(22.529 5.995)" fill="#60b9fe"/>
      <path id="Trazado_899436" data-name="Trazado 899436" d="M50.449,14.9l-7.9-7.225a2.053,2.053,0,0,0-.6-.383L39.9,15.365H50.669a.762.762,0,0,0-.22-.465" transform="translate(32.795 5.994)" fill="#60b9fe"/>
      <path id="Trazado_899437" data-name="Trazado 899437" d="M33.221,15.436,39.31,7.205,45.4,15.436Z" transform="translate(27.303 5.922)" fill="#60b9fe"/>
      <path id="Trazado_899438" data-name="Trazado 899438" d="M46.256,43.4c-.488-.189-7.012-2.729-11.159-4.345l-1.244.472H16.644l-1.13-.5L7.689,42.1,5.126,43.764,3.215,47.9V60.326l.951.951h45.84a1.88,1.88,0,0,0,1.875-1.884V52.175a9.653,9.653,0,0,0-5.624-8.77" transform="translate(2.642 32.075)" fill="#ffb74d"/>
      <path id="Trazado_899439" data-name="Trazado 899439" d="M5.683,58.377V48.568a9.741,9.741,0,0,1,4.023-7.854l-3.321,1.3A9.681,9.681,0,0,0,.76,50.789v7.218a1.878,1.878,0,0,0,1.873,1.884H6.444a1.883,1.883,0,0,1-.762-1.514" transform="translate(0.625 33.462)" fill="#d88d2b"/>
      <path id="Trazado_899440" data-name="Trazado 899440" d="M26.177,40.368a1.047,1.047,0,0,1-.665-.973l0-3.436-.273-.122H14.577l-.57.107V39.39a.958.958,0,0,1-.445.845l-3.6,1.414a10.3,10.3,0,0,0,9.946,6.819,10.276,10.276,0,0,0,9.638-6.786c-1.807-.705-3.165-1.233-3.372-1.314" transform="translate(8.191 29.454)" fill="#ffb1a0"/>
      <path id="Trazado_899441" data-name="Trazado 899441" d="M19.762,35.838H14.577l-.572.106v3.445a.964.964,0,0,1-.443.847l-3.6,1.412a10.289,10.289,0,0,0,9.8,6.817Z" transform="translate(8.191 29.454)" fill="#ffa68e"/>
      <path id="Trazado_899442" data-name="Trazado 899442" d="M9.041,26.478H8.6a3.805,3.805,0,0,0,1.621,7.236h2.037l.279-.208V27.431Z" transform="translate(5.292 21.762)" fill="#ffb1a0"/>
      <path id="Trazado_899443" data-name="Trazado 899443" d="M23.9,26.305l-.539.158-2.538,1.11v5.861l.414.423h2.035a3.8,3.8,0,0,0,.629-7.552" transform="translate(17.117 21.62)" fill="#ffcebe"/>
      <path id="Trazado_899444" data-name="Trazado 899444" d="M9.488,29.91h0a3.793,3.793,0,0,1,1.383-2.933l-1.831-.5H8.6a3.805,3.805,0,0,0,1.623,7.236h2.037l.142-.106a3.8,3.8,0,0,1-2.913-3.7" transform="translate(5.291 21.762)" fill="#ffa68e"/>
      <path id="Trazado_899445" data-name="Trazado 899445" d="M23.877,26.309l-.51.149-2.54,1.11v5.861l.414.423h2.037a3.612,3.612,0,0,0,.6-.053Z" transform="translate(17.117 21.623)" fill="#ffb1a0"/>
      <path id="Trazado_899446" data-name="Trazado 899446" d="M27.728,28.4l-.874-.43L25.2,24.656h-.6L19.47,28.75H12.654V39.043l3.609,6.138,3.42,1.239h.867a10.32,10.32,0,0,0,7.406-9.9V29.041Z" transform="translate(10.4 20.264)" fill="#ffcebe"/>
      <path id="Trazado_899447" data-name="Trazado 899447" d="M15.523,34.671V27.276l.816-.372h-5.89l-.816.372v7.395A10.292,10.292,0,0,0,20.185,44.98a10.152,10.152,0,0,0,2.849-.408,10.233,10.233,0,0,1-7.512-9.9" transform="translate(7.917 22.112)" fill="#ffb1a0"/>
      <path id="Trazado_899448" data-name="Trazado 899448" d="M29.253,21.809a1.914,1.914,0,0,1-2.068-1.514c-.317-1.632-1.122-3.254-4.263-3.254h-6.9l-1.49.426-3.558,3.239-.705,2.605v9.94l1.457,1.78,1.08.35h7.4a7.234,7.234,0,0,0,6.389-3.853.193.193,0,0,1,.363.093,3.762,3.762,0,0,0,3.74,3.76,1.971,1.971,0,0,0,1.96-1.971V25.07a3.256,3.256,0,0,0-3.4-3.261" transform="translate(8.437 14.006)" fill="#7b6c79"/>
      <path id="Trazado_899449" data-name="Trazado 899449" d="M13.145,32.315V24.324a7.262,7.262,0,0,1,7.242-7.282H14.5a7.262,7.262,0,0,0-7.244,7.282v7.991a3.059,3.059,0,0,0,3.05,3.066h5.89a3.058,3.058,0,0,1-3.05-3.066" transform="translate(5.963 14.007)" fill="#665e68"/>
      <path id="Trazado_899450" data-name="Trazado 899450" d="M27.473,25.132a.193.193,0,0,0-.363-.093,7.234,7.234,0,0,1-6.389,3.853H9.633v7.395A10.293,10.293,0,0,0,20.185,46.6,10.3,10.3,0,0,0,30.44,36.287V28.811A3.769,3.769,0,0,1,27.473,25.132Z" transform="translate(7.917 20.495)" fill="none" stroke="#000" stroke-linecap="round" stroke-linejoin="round" stroke-width="1.519"/>
      <line id="Línea_1719" data-name="Línea 1719" y1="9.922" transform="translate(45.848 83.141)" fill="none" stroke="#000" stroke-linecap="round" stroke-linejoin="round" stroke-width="1.519"/>
      <line id="Línea_1720" data-name="Línea 1720" y2="9.922" transform="translate(10.058 83.14)" fill="none" stroke="#000" stroke-linecap="round" stroke-linejoin="round" stroke-width="1.519"/>
      <path id="Trazado_899451" data-name="Trazado 899451" d="M8.6,26.478a3.805,3.805,0,0,0,1.623,7.236h2.035V27.626H10.976A3.036,3.036,0,0,1,8.6,26.478Z" transform="translate(5.291 21.762)" fill="none" stroke="#000" stroke-linecap="round" stroke-linejoin="round" stroke-width="1.519"/>
      <path id="Trazado_899452" data-name="Trazado 899452" d="M23.718,26.305a1.967,1.967,0,0,1-1.891,1.463,3.6,3.6,0,0,1-.772-.084v6.172h2.035a3.8,3.8,0,0,0,.629-7.552Z" transform="translate(17.303 21.62)" fill="none" stroke="#000" stroke-linecap="round" stroke-linejoin="round" stroke-width="1.519"/>
      <path id="Trazado_899453" data-name="Trazado 899453" d="M19.912,48.419a10.273,10.273,0,0,0,9.638-6.786c-1.807-.705-3.165-1.233-3.372-1.314a1.045,1.045,0,0,1-.663-.973l0-3.436a10.15,10.15,0,0,1-5.6,1.68,10.722,10.722,0,0,1-5.9-1.694v3.445a.961.961,0,0,1-.443.845L9.966,41.6A10.3,10.3,0,0,0,19.912,48.419Z" transform="translate(8.191 29.502)" fill="none" stroke="#000" stroke-linecap="round" stroke-linejoin="round" stroke-width="1.519"/>
      <path id="Trazado_899454" data-name="Trazado 899454" d="M31.727,21.809a1.914,1.914,0,0,1-2.068-1.514c-.317-1.632-1.122-3.254-4.263-3.254H14.5a7.262,7.262,0,0,0-7.242,7.282v7.992A3.058,3.058,0,0,0,10.3,35.382h12.37a7.234,7.234,0,0,0,6.389-3.853.193.193,0,0,1,.363.093,3.762,3.762,0,0,0,3.74,3.76,1.971,1.971,0,0,0,1.96-1.971V25.07A3.256,3.256,0,0,0,31.727,21.809Z" transform="translate(5.963 14.006)" fill="none" stroke="#000" stroke-linecap="round" stroke-linejoin="round" stroke-width="1.519"/>
      <path id="Trazado_899455" data-name="Trazado 899455" d="M30.545,63.851h21.48A1.878,1.878,0,0,0,53.9,61.967V54.749a9.653,9.653,0,0,0-5.624-8.77c-.7-.273-13.846-5.391-14.529-5.659a1.044,1.044,0,0,1-.665-.971l0-3.436a10.159,10.159,0,0,1-5.6,1.678,10.716,10.716,0,0,1-5.9-1.694v3.445a.964.964,0,0,1-.443.847L6.383,45.978a9.684,9.684,0,0,0-5.624,8.77v7.218a1.88,1.88,0,0,0,1.875,1.884H24.1" transform="translate(0.624 29.502)" fill="none" stroke="#000" stroke-linecap="round" stroke-linejoin="round" stroke-width="1.519"/>
      <path id="Trazado_899456" data-name="Trazado 899456" d="M53.031,7.747A2.038,2.038,0,0,0,51.655,7.2H36.933a2.038,2.038,0,0,0-1.375.543l-8.4,7.69H61.433Z" transform="translate(22.317 5.921)" fill="none" stroke="#000" stroke-linecap="round" stroke-linejoin="round" stroke-width="1.519"/>
      <path id="Trazado_899457" data-name="Trazado 899457" d="M27.155,11.723l15.5,19.457a2.074,2.074,0,0,0,3.285,0l15.5-19.457Z" transform="translate(22.317 9.635)" fill="none" stroke="#000" stroke-linecap="round" stroke-linejoin="round" stroke-width="1.519"/>
      <path id="Trazado_899458" data-name="Trazado 899458" d="M33.221,11.723l5.722,20.23a2.051,2.051,0,0,0,.731,0L45.4,11.723Z" transform="translate(27.303 9.635)" fill="none" stroke="#000" stroke-linecap="round" stroke-linejoin="round" stroke-width="1.519"/>
      <path id="Trazado_899459" data-name="Trazado 899459" d="M38.206,15.364,36.155,7.293a2.056,2.056,0,0,0-.6.381l-8.4,7.69Z" transform="translate(22.317 5.995)" fill="none" stroke="#000" stroke-linecap="round" stroke-linejoin="round" stroke-width="1.519"/>
      <path id="Trazado_899460" data-name="Trazado 899460" d="M39.9,15.364l2.051-8.071a2.056,2.056,0,0,1,.6.381l8.4,7.69Z" transform="translate(32.795 5.995)" fill="none" stroke="#000" stroke-linecap="round" stroke-linejoin="round" stroke-width="1.519"/>
      <path id="Trazado_899461" data-name="Trazado 899461" d="M33.221,15.436l6.089-8.231L45.4,15.436Z" transform="translate(27.303 5.922)" fill="none" stroke="#000" stroke-linecap="round" stroke-linejoin="round" stroke-width="1.519"/>
      <path id="Trazado_899462" data-name="Trazado 899462" d="M23.9,27.425a23.428,23.428,0,1,0,0-6.477" transform="translate(19.638 0.625)" fill="none" stroke="#000" stroke-linecap="round" stroke-linejoin="round" stroke-width="1.519"/>
    </g>
  </g>
</svg>
