<svg xmlns="http://www.w3.org/2000/svg" xmlns:xlink="http://www.w3.org/1999/xlink" width="81.308" height="94.736" viewBox="0 0 81.308 94.736">
  <defs>
    <clipPath id="clip-path">
      <rect id="Rectángulo_415831" data-name="Rectángulo 415831" width="81.308" height="94.736" fill="none"/>
    </clipPath>
  </defs>
  <g id="Grupo_1126119" data-name="Grupo 1126119" transform="translate(0 0)">
    <path id="Trazado_899463" data-name="Trazado 899463" d="M25.892,9.329l-9.519,1.395,6.891,6.712-1.621,9.489,8.514-4.477,8.514,4.477L37.05,17.436l6.891-6.712L34.423,9.329,30.157.7Z" transform="translate(10.498 0.448)" fill="#ffe060"/>
    <g id="Grupo_1126114" data-name="Grupo 1126114" transform="translate(0 0)">
      <g id="Grupo_1126113" data-name="Grupo 1126113" clip-path="url(#clip-path)">
        <path id="Trazado_899464" data-name="Trazado 899464" d="M30.158.7l4.265,8.627,9.52,1.395-6.893,6.714,1.621,9.487-8.514-4.475-8.514,4.475,1.621-9.487-6.893-6.714,9.52-1.395Z" transform="translate(10.497 0.448)" fill="none" stroke="#000" stroke-linecap="round" stroke-linejoin="round" stroke-width="1.4"/>
      </g>
    </g>
    <path id="Trazado_899465" data-name="Trazado 899465" d="M46.278,7.746l3.633,7.331,8.076,1.167-5.856,5.708,1.395,8.061L46.278,26.2l-7.232,3.811,1.395-8.061-5.856-5.708,8.076-1.167Z" transform="translate(22.173 4.966)" fill="#edae65"/>
    <g id="Grupo_1126116" data-name="Grupo 1126116" transform="translate(0 0)">
      <g id="Grupo_1126115" data-name="Grupo 1126115" clip-path="url(#clip-path)">
        <path id="Trazado_899466" data-name="Trazado 899466" d="M46.278,7.746l3.633,7.331,8.076,1.167-5.856,5.708,1.395,8.061L46.278,26.2l-7.232,3.811,1.395-8.061-5.856-5.708,8.076-1.167Z" transform="translate(22.173 4.965)" fill="none" stroke="#000" stroke-linecap="round" stroke-linejoin="round" stroke-width="1.4"/>
      </g>
    </g>
    <path id="Trazado_899467" data-name="Trazado 899467" d="M8.776,15.077.7,16.243l5.854,5.708L5.159,30.013,12.408,26.2l7.232,3.811-1.393-8.061L24.1,16.243l-8.076-1.167L12.408,7.746Z" transform="translate(0.449 4.966)" fill="#edae65"/>
    <g id="Grupo_1126118" data-name="Grupo 1126118" transform="translate(0 0)">
      <g id="Grupo_1126117" data-name="Grupo 1126117" clip-path="url(#clip-path)">
        <path id="Trazado_899468" data-name="Trazado 899468" d="M12.409,7.746,8.776,15.077.7,16.244l5.856,5.708L5.16,30.013,12.409,26.2l7.232,3.811-1.395-8.061L24.1,16.244l-8.076-1.167Z" transform="translate(0.449 4.965)" fill="none" stroke="#000" stroke-linecap="round" stroke-linejoin="round" stroke-width="1.4"/>
        <path id="Trazado_899469" data-name="Trazado 899469" d="M39.977,54.646v7.866a1.627,1.627,0,0,1-1.621,1.621H2.677a1.626,1.626,0,0,1-1.621-1.621V54.646a9.8,9.8,0,0,1,4.832-8.4,10.664,10.664,0,0,1,4.039-1.411L20.3,43.424a1.813,1.813,0,0,1,.422,0l10.38,1.41a10.666,10.666,0,0,1,4.037,1.411,9.8,9.8,0,0,1,4.833,8.4" transform="translate(0.677 27.832)" fill="#d1c4e9"/>
        <path id="Trazado_899470" data-name="Trazado 899470" d="M39.977,54.646v7.866a1.627,1.627,0,0,1-1.621,1.621H2.677a1.626,1.626,0,0,1-1.621-1.621V54.646a9.8,9.8,0,0,1,4.832-8.4,10.664,10.664,0,0,1,4.039-1.411L20.3,43.424a1.813,1.813,0,0,1,.422,0l10.38,1.41a10.666,10.666,0,0,1,4.037,1.411A9.8,9.8,0,0,1,39.977,54.646Z" transform="translate(0.677 27.832)" fill="none" stroke="#000" stroke-linecap="round" stroke-linejoin="round" stroke-width="1.4"/>
        <path id="Trazado_899471" data-name="Trazado 899471" d="M9.811,41.354v6.584a3.2,3.2,0,0,0,1.475,2.691,6.669,6.669,0,0,0,7.249,0,3.221,3.221,0,0,0,1.477-2.691V41.354Z" transform="translate(6.29 26.513)" fill="#f4cfbe"/>
        <path id="Trazado_899472" data-name="Trazado 899472" d="M9.811,41.354v6.584a3.2,3.2,0,0,0,1.475,2.691,6.669,6.669,0,0,0,7.249,0,3.221,3.221,0,0,0,1.477-2.691V41.354Z" transform="translate(6.29 26.513)" fill="none" stroke="#000" stroke-miterlimit="10" stroke-width="1.4"/>
        <path id="Trazado_899473" data-name="Trazado 899473" d="M29.452,41.266H5.66V37.342a11.888,11.888,0,1,1,23.775,0v3.924Z" transform="translate(3.629 16.319)" fill="#325068"/>
        <path id="Trazado_899474" data-name="Trazado 899474" d="M29.452,41.266H5.66V37.342a11.888,11.888,0,1,1,23.775,0v3.924Z" transform="translate(3.629 16.319)" fill="none" stroke="#000" stroke-miterlimit="10" stroke-width="1.4"/>
        <path id="Trazado_899475" data-name="Trazado 899475" d="M18.31,33.577h2.14a2.5,2.5,0,0,1,0,5H18.31a.465.465,0,0,1-.455-.455V34.032a.464.464,0,0,1,.455-.455" transform="translate(11.447 21.527)" fill="#b74846"/>
        <path id="Trazado_899476" data-name="Trazado 899476" d="M18.31,33.577h2.14a2.5,2.5,0,0,1,0,5H18.31a.465.465,0,0,1-.455-.455V34.032A.464.464,0,0,1,18.31,33.577Z" transform="translate(11.447 21.527)" fill="none" stroke="#000" stroke-miterlimit="10" stroke-width="1.4"/>
        <path id="Trazado_899477" data-name="Trazado 899477" d="M6.7,34.837H7.953a17.12,17.12,0,0,0,8.936-2.5h0a17.116,17.116,0,0,0,8.936,2.5h1.249v4.671A10.3,10.3,0,0,1,17.067,49.822a10.164,10.164,0,0,1-10.379-9.99v-5Z" transform="translate(4.288 20.266)" fill="#f4cfbe"/>
        <path id="Trazado_899478" data-name="Trazado 899478" d="M6.7,34.837H7.953a17.12,17.12,0,0,0,8.936-2.5h0a17.116,17.116,0,0,0,8.936,2.5h1.249v4.671A10.3,10.3,0,0,1,17.067,49.822a10.164,10.164,0,0,1-10.379-9.99v-5Z" transform="translate(4.288 20.266)" fill="none" stroke="#000" stroke-miterlimit="10" stroke-width="1.4"/>
        <path id="Trazado_899479" data-name="Trazado 899479" d="M54.617,45.368,44.254,43.957,33.891,45.368a9.072,9.072,0,0,0-3.422,1.183,8.15,8.15,0,0,0-4.039,7.022V61.44H62.108V53.574a8.2,8.2,0,0,0-4.037-7.022,9.272,9.272,0,0,0-3.422-1.183Z" transform="translate(16.945 28.182)" fill="#a5d6a7"/>
        <path id="Trazado_899480" data-name="Trazado 899480" d="M54.617,45.368,44.254,43.957,33.891,45.368a9.072,9.072,0,0,0-3.422,1.183,8.15,8.15,0,0,0-4.039,7.022V61.44H62.108V53.574a8.2,8.2,0,0,0-4.037-7.022,9.272,9.272,0,0,0-3.422-1.183Z" transform="translate(16.945 28.182)" fill="none" stroke="#000" stroke-miterlimit="10" stroke-width="1.4"/>
        <path id="Trazado_899481" data-name="Trazado 899481" d="M43.718,41.354v6.584a3.2,3.2,0,0,1-1.475,2.691,6.669,6.669,0,0,1-7.249,0,3.221,3.221,0,0,1-1.477-2.691V41.354Z" transform="translate(21.489 26.513)" fill="#f4cfbe"/>
        <path id="Trazado_899482" data-name="Trazado 899482" d="M43.718,41.354v6.584a3.2,3.2,0,0,1-1.475,2.691,6.669,6.669,0,0,1-7.249,0,3.221,3.221,0,0,1-1.477-2.691V41.354Z" transform="translate(21.489 26.513)" fill="none" stroke="#000" stroke-miterlimit="10" stroke-width="1.4"/>
        <path id="Trazado_899483" data-name="Trazado 899483" d="M41.28,25.464A11.893,11.893,0,0,1,53.167,37.351v3.926H29.377V37.351A11.893,11.893,0,0,1,41.264,25.464Z" transform="translate(18.835 16.325)" fill="#325068"/>
        <path id="Trazado_899484" data-name="Trazado 899484" d="M41.28,25.464A11.893,11.893,0,0,1,53.167,37.351v3.926H29.377V37.351A11.893,11.893,0,0,1,41.264,25.464Z" transform="translate(18.835 16.325)" fill="none" stroke="#000" stroke-miterlimit="10" stroke-width="1.4"/>
        <path id="Trazado_899485" data-name="Trazado 899485" d="M33.225,38.573h-2.14a2.5,2.5,0,1,1,0-5h2.14a.465.465,0,0,1,.455.455v4.086a.464.464,0,0,1-.455.455" transform="translate(18.328 21.527)" fill="#b74846"/>
        <path id="Trazado_899486" data-name="Trazado 899486" d="M33.225,38.573h-2.14a2.5,2.5,0,1,1,0-5h2.14a.465.465,0,0,1,.455.455v4.086A.464.464,0,0,1,33.225,38.573Z" transform="translate(18.328 21.527)" fill="none" stroke="#000" stroke-miterlimit="10" stroke-width="1.4"/>
        <path id="Trazado_899487" data-name="Trazado 899487" d="M50.8,34.837H49.555a17.12,17.12,0,0,1-8.936-2.5h0a17.116,17.116,0,0,1-8.936,2.5H30.434v4.671A10.3,10.3,0,0,0,40.442,49.822a10.094,10.094,0,0,0,10.379-9.99v-5Z" transform="translate(19.512 20.266)" fill="#f4cfbe"/>
        <path id="Trazado_899488" data-name="Trazado 899488" d="M50.8,34.837H49.555a17.12,17.12,0,0,1-8.936-2.5h0a17.116,17.116,0,0,1-8.936,2.5H30.434v4.671A10.3,10.3,0,0,0,40.442,49.822a10.094,10.094,0,0,0,10.379-9.99v-5Z" transform="translate(19.512 20.266)" fill="none" stroke="#000" stroke-miterlimit="10" stroke-width="1.4"/>
        <path id="Trazado_899489" data-name="Trazado 899489" d="M51.175,55.635V63.5a1.627,1.627,0,0,1-1.621,1.621H13.875A1.626,1.626,0,0,1,12.254,63.5V55.635a9.8,9.8,0,0,1,4.832-8.4,10.664,10.664,0,0,1,4.039-1.411L31.5,44.413a1.813,1.813,0,0,1,.422,0l10.38,1.41a10.666,10.666,0,0,1,4.037,1.411,9.8,9.8,0,0,1,4.833,8.4" transform="translate(7.856 28.466)" fill="#ffe060"/>
        <path id="Trazado_899490" data-name="Trazado 899490" d="M51.175,55.635V63.5a1.627,1.627,0,0,1-1.621,1.621H13.875A1.626,1.626,0,0,1,12.254,63.5V55.635a9.8,9.8,0,0,1,4.832-8.4,10.664,10.664,0,0,1,4.039-1.411L31.5,44.413a1.813,1.813,0,0,1,.422,0l10.38,1.41a10.666,10.666,0,0,1,4.037,1.411A9.8,9.8,0,0,1,51.175,55.635Z" transform="translate(7.856 28.466)" fill="none" stroke="#000" stroke-miterlimit="10" stroke-width="1.4"/>
        <path id="Trazado_899491" data-name="Trazado 899491" d="M31.86,42.342v6.584a3.2,3.2,0,0,1-1.475,2.691,6.669,6.669,0,0,1-7.249,0,3.221,3.221,0,0,1-1.477-2.691V42.342Z" transform="translate(13.886 27.146)" fill="#f4cfbe"/>
        <path id="Trazado_899492" data-name="Trazado 899492" d="M31.86,42.342v6.584a3.2,3.2,0,0,1-1.475,2.691,6.669,6.669,0,0,1-7.249,0,3.221,3.221,0,0,1-1.477-2.691V42.342Z" transform="translate(13.886 27.146)" fill="none" stroke="#000" stroke-miterlimit="10" stroke-width="1.4"/>
        <path id="Trazado_899493" data-name="Trazado 899493" d="M29.422,26.452A11.893,11.893,0,0,1,41.309,38.339v3.926H17.519V38.339A11.893,11.893,0,0,1,29.406,26.452Z" transform="translate(11.232 16.959)" fill="#536882"/>
        <path id="Trazado_899494" data-name="Trazado 899494" d="M29.422,26.452A11.893,11.893,0,0,1,41.309,38.339v3.926H17.519V38.339A11.893,11.893,0,0,1,29.406,26.452Z" transform="translate(11.232 16.959)" fill="none" stroke="#000" stroke-miterlimit="10" stroke-width="1.4"/>
        <path id="Trazado_899495" data-name="Trazado 899495" d="M38.946,35.825H37.7a17.12,17.12,0,0,1-8.936-2.5h0a17.116,17.116,0,0,1-8.936,2.5H18.576V40.5A10.3,10.3,0,0,0,28.584,50.81a10.164,10.164,0,0,0,10.379-9.99v-5Z" transform="translate(11.91 20.9)" fill="#f4cfbe"/>
        <path id="Trazado_899496" data-name="Trazado 899496" d="M38.946,35.825H37.7a17.12,17.12,0,0,1-8.936-2.5h0a17.116,17.116,0,0,1-8.936,2.5H18.576V40.5A10.3,10.3,0,0,0,28.584,50.81a10.164,10.164,0,0,0,10.379-9.99v-5Z" transform="translate(11.91 20.9)" fill="none" stroke="#000" stroke-miterlimit="10" stroke-width="1.4"/>
      </g>
    </g>
  </g>
</svg>
