<svg xmlns="http://www.w3.org/2000/svg" xmlns:xlink="http://www.w3.org/1999/xlink" width="400" height="246" viewBox="0 0 400 246">
  <defs>
    <clipPath id="clip-path">
      <rect id="Rectángulo_415826" data-name="Rectángulo 415826" width="361" height="242" transform="translate(605.051 1462)" fill="#fff" stroke="#707070" stroke-width="1"/>
    </clipPath>
    <clipPath id="clip-path-2">
      <rect id="Rectángulo_415825" data-name="Rectángulo 415825" width="240.164" height="352.912" fill="none"/>
    </clipPath>
  </defs>
  <g id="Grupo_1126570" data-name="Grupo 1126570" transform="translate(-600.051 -1458)">
    <path id="Trazado_890818" data-name="Trazado 890818" d="M0,0H400V246H0Z" transform="translate(600.051 1458)" fill="#faf9fd"/>
    <rect id="Rectángulo_407751" data-name="Rectángulo 407751" width="221.387" height="222.534" transform="translate(689.051 1469.732)" fill="none"/>
    <g id="Enmascarar_grupo_1098756" data-name="Enmascarar grupo 1098756" clip-path="url(#clip-path)">
      <g id="Grupo_1126097" data-name="Grupo 1126097">
        <path id="Trazado_882655" data-name="Trazado 882655" d="M189.725,66.324c6.773,1.882,14,1.952,21.07,1.781,8.23-.2,16.572-.682,24.6,1.133,18.961,4.287,27.673,25,33.443,41.732,6.157,17.858,8.82,37.138,5.877,55.8s-11.748,36.641-25.938,49.109c-17.014,14.95-39.994,20.907-62.286,24.911-18.464,3.317-38.036,5.526-55.542-1.216-15.983-6.155-28.787-19.69-34.775-35.737S90.9,169.5,97.392,153.649c4.626-11.291,12.235-22.732,9.516-34.627-2.5-10.952-13.183-18.49-16.151-29.325-3.187-11.636,3.679-24.149,13.432-31.25,8.066-5.872,19.182-8.751,28.984-10.439,8.834-1.521,18.156-1.353,26.473,1.992,9.55,3.841,17.163,11.577,26.781,15.243q1.628.621,3.3,1.081" transform="translate(1042.312 1563.782) rotate(135)" fill="#ffe9ab"/>
        <path id="Trazado_882656" data-name="Trazado 882656" d="M31.69,250.706c1.373,5.013,2.047,10.647-.488,15.184-3.112,5.568-10.62,7.766-16.684,5.788S3.94,264.266,1.865,258.234c-2.91-8.46-3.886-31.118,8.348-33.333,11.979-2.168,19.152,17.315,21.476,25.8" transform="translate(1086.965 1700.074) rotate(135)" fill="#ffe9ab"/>
        <g id="Grupo_1126096" data-name="Grupo 1126096" transform="translate(679.176 1501)">
          <rect id="Rectángulo_415797" data-name="Rectángulo 415797" width="5.376" height="124.908" transform="translate(199.633 155.371)" fill="#492942"/>
          <g id="Grupo_1126095" data-name="Grupo 1126095" transform="translate(0 0)">
            <g id="Grupo_1126094" data-name="Grupo 1126094" clip-path="url(#clip-path-2)">
              <path id="Trazado_899297" data-name="Trazado 899297" d="M68.247,10.068s.611,10.991-1.07,12.671S47.332,29,43.364,32.049s-6.4,11.134-4.991,12.658,10.947,4.9,10.783,7.3,1.928,10.224,3.483,15.24,5.082,18.9,4.306,22.076-7.274,15.734-7.616,23.441a132.177,132.177,0,0,0,.477,16.046s16.839,5.346,27.652,4.471,27.188-3.34,27.245-5.8.13-15.973-.736-19.893-7.36-15.054-7.456-19.248,5.831-36.177,7.72-37.542,8.7-2.738,9.2-5.753S114,34.765,108.883,31.9,86.165,24.992,86.1,22.38s-.658-13.408-.658-13.408-14.755-.485-17.19,1.1" transform="translate(126.516 29.664)" fill="#fffbf3"/>
              <path id="Trazado_899298" data-name="Trazado 899298" d="M71.875,64.639s-14.331,1.69-18.3,3.747S47.7,72.5,46.523,73.165s-7.2,1.395-7.2,1.395-.585,3.821,1.395,4.263,6.615,1.395,7.941-.295,6.979-7.642,20.721-8.084,18.03,2.426,20.946,3.986,4.765,4.064,6.923,4.644,6.667,1.2,6.671-.052c0-2.027-.2-4.432-.2-4.432s-5.662.676-6.5-.537S93.67,69.526,86.63,67.464s-8.79-2.773-14.755-2.825" transform="translate(130.747 215.386)" fill="#492942"/>
              <path id="Trazado_899299" data-name="Trazado 899299" d="M75.267,62.16l-8.474-.13s.182,8.621-2.2,8.469-7.871-1.486-11.411-1.573-5.835,1.867-7.018,1.949-5.7-.048-6.048.619-1.092,2.989.087,3.31a27.007,27.007,0,0,0,7.079.442c1.525-.282,5.558-1.737,7.542-1.2s9.8,1.33,12.329,1.538,16.475-2.114,20.365-1.707,12.585,2.426,13.434,2,.321-3.661-.464-4.735-5.393.039-6.455-.581-4.826-1.993-7.828-1.165-6.49,2.738-8.989,1.516S74.89,63.23,75.267,62.16" transform="translate(131.843 206.693)" fill="#492942"/>
              <path id="Trazado_899300" data-name="Trazado 899300" d="M18.885,73.827s-7.326,18.723-5.61,20.6,11.519,4.627,14.863,2.747,4.549-4.505,4.129-7.378S18.885,73.827,18.885,73.827" transform="translate(43.367 246.002)" fill="#492942"/>
              <path id="Trazado_899301" data-name="Trazado 899301" d="M.215,73.779S1.263,87.256.934,88.967s-.663,4.973.884,6.355c.793.71,5.619,2.556,10.237,2.7,4.367.134,8.552-1.378,8.764-2.586C21.26,92.949,19,82.508,17.119,80.3s-16.9-6.52-16.9-6.52" transform="translate(0.716 245.842)" fill="#492942"/>
              <path id="Trazado_899302" data-name="Trazado 899302" d="M20.909,61.67s.663,28.822.078,31.949-1.919,4.835-2.313,7.109a45.1,45.1,0,0,1-1.975,7.178c-.676,1.785-.1,6.308-.191,8.829s-5.285,15.747-2.578,18.2,3.912,2.4,5.151,1.941a6.8,6.8,0,0,0,2.079-1.235,2.951,2.951,0,0,0,2.387.723c1.508-.182,1.815-.425,1.876-.845s2.56,1,3.678-.182,2.114-3.773,1.568-5.1-.147-7.235-.537-9.635a54.609,54.609,0,0,1,.208-11.749c.446-2.131.684-9.427,1.806-12.515,1.1-3.1,9.747-24.91,10.1-29.883S20.909,61.67,20.909,61.67" transform="translate(43.817 205.489)" fill="#ffc8cd"/>
              <path id="Trazado_899303" data-name="Trazado 899303" d="M14.463,59.2S9.252,93.771,7.584,98.913-.474,115.895.029,119.473s2.53,10.843,2.682,13.715,3.825,12.927,6.169,12.6,2.721-.979,2.721-.979-.069,1.43,1.048,1.477a8.267,8.267,0,0,0,3.123-1.122s1.356,1.811,2.881,1.386a3.637,3.637,0,0,0,2.287-3.6c-.143-1.239-2.231-9.973-2.885-13.139s-2.539-14.413-1.664-15.674,3.115-3.977,2.859-6.308-1.339-6.468.022-9.557S33.078,73.15,34.664,66.955s-20.2-7.759-20.2-7.759" transform="translate(0.002 197.25)" fill="#ffc8cd"/>
              <path id="Trazado_899304" data-name="Trazado 899304" d="M14.546,20.31s-5.463-4.839-7.005,7.664S5.284,59.823,4.357,65.537,4.348,77.173,5.908,85.209A134.53,134.53,0,0,1,8.2,102.39c.169,3.405.563,9.323.871,11.948s2.235,1.98,12.113.13c.762-.143.126-18.169-1.88-34.306-.589-4.726,1.395-9.3,1.534-13.9.364-11.957.507-22.289,1.811-22.471,16.978-2.374,57.37,63.44,59.814,66.658,2.933,3.86,9.305,13.56,12.7,10.012s-5.835-20.937-5.835-20.937S80.576,84.893,79.181,77.173s-.788-17.805.139-23.822S78.306,29.9,76.768,26.817s-.1-12.069-8.131-13.148S20.256,14.908,14.546,20.31" transform="translate(13.288 44.682)" fill="#ffc8cd"/>
              <path id="Trazado_899305" data-name="Trazado 899305" d="M4.525,60.506,3.247,64.738s9.318.892,12.052,2.773,3.392,6.775,3.392,6.775,4.917-8.638,5.051-10.354S4.525,60.506,4.525,60.506" transform="translate(10.819 201.615)" fill="#ea869f"/>
              <path id="Trazado_899306" data-name="Trazado 899306" d="M35.945,64.859l-1.5,4.007a94.356,94.356,0,0,0-10.8,1.932,49.788,49.788,0,0,0-8.417,3.487s-.481-9.626-.147-10.856,20.868,1.43,20.868,1.43" transform="translate(49.848 210.279)" fill="#ea869f"/>
              <path id="Trazado_899307" data-name="Trazado 899307" d="M14.322,26.417s8.993,15.4,9.431,22.094-.732,25.52,1.781,26.933c.962.541,3.973,1.152,4.752,2.66,1.269,2.443.013,6.208-.49,8.092a127.639,127.639,0,0,0-4.549,15.639c-2.378,11.134-4.562,26.842-7.053,40.237C13.768,165.9,2.6,227.193,2.6,227.193a106.166,106.166,0,0,1,28.679,2.552c14.2,3.518,40.609,13.334,53.866,4.271S109,221.722,110.2,217.762,95.19,172.232,95.558,156.523s-1.122-37.741-4.4-43.681S78.216,88.28,76.419,84.887s-2.257-9.938-.931-11.87,5.337-.806,6.156-6.719,2.309-18.68,2.842-22.761-.832-6.979-.736-9.942c.256-8.378-1.876-11.6-3.6-14.443s-4.25-4.492-24.182-6.5S19.508,10.856,14.322,26.417" transform="translate(8.647 39.199)" fill="#84b284"/>
              <path id="Trazado_899308" data-name="Trazado 899308" d="M27.416,30.689s36.741-.16,36.641.676c-.009.082.8,10.744,3.249,17.8,1.781,5.129,5.047,7.152,4.453,7C65.149,54.49,63.221,45.2,61.423,32.786c-7.1,0-34.57,2.686-34.631,3.253-.78,6.97-1.932,18.572-1.317,21.123.9,3.708,6.312,7.707,6.312,7.707l-10.7,2.855s-5.069-2.166-5.528-5.229-1.59-26.547-1.59-26.547S10.309,23.8,5.409,15.366c-1.074-1.854,6.715,6.477,13.443,11.575a17.687,17.687,0,0,0,8.565,3.747" transform="translate(17.69 50.323)" fill="#006f7c"/>
              <path id="Trazado_899309" data-name="Trazado 899309" d="M28.457,12.66a2.773,2.773,0,1,0,2.768,2.768,2.775,2.775,0,0,0-2.768-2.768m22.167,0A2.773,2.773,0,1,0,53.4,15.428a2.768,2.768,0,0,0-2.777-2.768m22.172,0a2.784,2.784,0,1,0,1.092.23c-.052-.013-.1-.03-.147-.039a2.738,2.738,0,0,0-.944-.191M17.371,23.75a2.77,2.77,0,1,0,2.768,2.764,2.771,2.771,0,0,0-2.768-2.764m22.167,0a2.77,2.77,0,1,0,2.777,2.764,2.761,2.761,0,0,0-2.777-2.764m22.172,0a2.77,2.77,0,1,0,2.768,2.764A2.764,2.764,0,0,0,61.71,23.75M28.457,34.827A2.77,2.77,0,1,0,31.225,37.6a2.78,2.78,0,0,0-2.768-2.777m22.167,0A2.77,2.77,0,1,0,53.4,37.6a2.772,2.772,0,0,0-2.777-2.777m22.172,0A2.77,2.77,0,1,0,75.564,37.6,2.776,2.776,0,0,0,72.8,34.827M39.538,45.913a2.773,2.773,0,1,0,2.777,2.777,2.772,2.772,0,0,0-2.777-2.777m22.172,0a2.773,2.773,0,1,0,2.768,2.777,2.775,2.775,0,0,0-2.768-2.777M28.457,57a2.773,2.773,0,1,0,2.768,2.777A2.783,2.783,0,0,0,28.457,57m22.167,0A2.773,2.773,0,1,0,53.4,59.776,2.775,2.775,0,0,0,50.624,57M72.8,57a2.773,2.773,0,1,0,2.768,2.777A2.779,2.779,0,0,0,72.8,57M39.538,68.089a2.77,2.77,0,1,0,2.777,2.764,2.761,2.761,0,0,0-2.777-2.764m22.172,0a2.77,2.77,0,1,0,2.768,2.764,2.764,2.764,0,0,0-2.768-2.764M28.457,79.175a2.747,2.747,0,0,0-1.8.706,7.7,7.7,0,0,1,.1,3.331c-.017.056-.152.676-.169.754a2.763,2.763,0,1,0,1.871-4.791m22.167,0A2.773,2.773,0,1,0,53.4,81.944a2.765,2.765,0,0,0-2.777-2.768m21.778.078a2.738,2.738,0,0,0-2.378,2.69A2.779,2.779,0,0,0,72.8,84.72a2.706,2.706,0,0,0,1.707-.645c-.247-.477-.979-1.889-1.126-2.17a12.813,12.813,0,0,1-.975-2.651m-32.863,11a2.773,2.773,0,1,0,2.777,2.777,2.772,2.772,0,0,0-2.777-2.777m22.172,0a2.773,2.773,0,1,0,2.768,2.777,2.775,2.775,0,0,0-2.768-2.777M28.457,101.338a2.773,2.773,0,1,0,2.768,2.777,2.783,2.783,0,0,0-2.768-2.777m22.167,0a2.773,2.773,0,1,0,2.777,2.777,2.775,2.775,0,0,0-2.777-2.777m22.172,0a2.773,2.773,0,1,0,2.768,2.777,2.779,2.779,0,0,0-2.768-2.777m-33.258,11.09a2.773,2.773,0,1,0,2.777,2.777,2.77,2.77,0,0,0-2.777-2.777m22.172,0a2.773,2.773,0,1,0,2.768,2.777,2.772,2.772,0,0,0-2.768-2.777m22.176,0a2.773,2.773,0,1,0,2.764,2.777,2.78,2.78,0,0,0-2.764-2.777M20,114.53c-.165.806-.321,1.538-.485,2.352A2.266,2.266,0,0,0,20,114.53m8.456,11.047a2.773,2.773,0,1,0,2.768,2.777,2.783,2.783,0,0,0-2.768-2.777m22.167,0a2.773,2.773,0,1,0,2.777,2.777,2.775,2.775,0,0,0-2.777-2.777m22.172,0a2.773,2.773,0,1,0,2.768,2.777,2.779,2.779,0,0,0-2.768-2.777m-55.425,11.09a2.773,2.773,0,0,0-1.9.771c-.1.542-.221,1.113-.321,1.646-.078.425-.195,1.07-.277,1.521a2.765,2.765,0,1,0,2.5-3.938m22.167,0a2.77,2.77,0,1,0,2.777,2.764,2.761,2.761,0,0,0-2.777-2.764m22.172,0a2.77,2.77,0,1,0,2.768,2.764,2.764,2.764,0,0,0-2.768-2.764m22.176,0a2.77,2.77,0,1,0,2.764,2.764,2.771,2.771,0,0,0-2.764-2.764M28.457,147.753a2.773,2.773,0,1,0,2.768,2.768,2.772,2.772,0,0,0-2.768-2.768m22.167,0a2.773,2.773,0,1,0,2.777,2.768,2.765,2.765,0,0,0-2.777-2.768m22.172,0a2.773,2.773,0,1,0,2.768,2.768,2.769,2.769,0,0,0-2.768-2.768m19.759,1.486a2.5,2.5,0,0,0-.03,2.53c.009-.827.026-1.672.03-2.53m-75.184,9.6a2.768,2.768,0,1,0,2.768,2.768,2.775,2.775,0,0,0-2.768-2.768m22.167,0a2.768,2.768,0,1,0,2.777,2.768,2.765,2.765,0,0,0-2.777-2.768m22.172,0a2.768,2.768,0,1,0,2.768,2.768,2.768,2.768,0,0,0-2.768-2.768m22.176,0a2.768,2.768,0,1,0,2.764,2.768,2.775,2.775,0,0,0-2.764-2.768M28.457,169.916a2.773,2.773,0,1,0,2.768,2.781,2.783,2.783,0,0,0-2.768-2.781m22.167,0A2.773,2.773,0,1,0,53.4,172.7a2.776,2.776,0,0,0-2.777-2.781m22.172,0a2.773,2.773,0,1,0,2.768,2.781,2.78,2.78,0,0,0-2.768-2.781m22.167,0a2.773,2.773,0,0,0,0,5.545,2.734,2.734,0,0,0,1.378-.416c-.455-1.72-.931-3.461-1.33-5.116l-.048-.013m-77.593,11.09a2.773,2.773,0,1,0,2.768,2.777,2.783,2.783,0,0,0-2.768-2.777m22.167,0a2.773,2.773,0,1,0,2.777,2.777,2.772,2.772,0,0,0-2.777-2.777m22.172,0a2.773,2.773,0,1,0,2.768,2.777,2.775,2.775,0,0,0-2.768-2.777m22.176,0a2.773,2.773,0,1,0,2.764,2.777,2.783,2.783,0,0,0-2.764-2.777m-77.6,11.086a2.864,2.864,0,0,0-.884.178c-.325,1.776-.568,3.1-.862,4.7a2.726,2.726,0,0,0,1.746.667,2.773,2.773,0,0,0,0-5.545m22.172,0a2.773,2.773,0,1,0,2.768,2.768,2.772,2.772,0,0,0-2.768-2.768m22.167,0A2.773,2.773,0,1,0,53.4,194.86a2.765,2.765,0,0,0-2.777-2.768m22.172,0a2.773,2.773,0,1,0,2.768,2.768,2.769,2.769,0,0,0-2.768-2.768m22.167,0a2.773,2.773,0,1,0,2.777,2.768,2.765,2.765,0,0,0-2.777-2.768m-77.593,11.09a2.77,2.77,0,1,0,2.768,2.764,2.771,2.771,0,0,0-2.768-2.764m22.167,0a2.77,2.77,0,1,0,2.777,2.764,2.761,2.761,0,0,0-2.777-2.764m22.172,0a2.77,2.77,0,1,0,2.768,2.764,2.764,2.764,0,0,0-2.768-2.764m22.176,0a2.77,2.77,0,1,0,2.764,2.764,2.771,2.771,0,0,0-2.764-2.764m-77.6,11.086a2.766,2.766,0,1,0,2.764,2.768,2.77,2.77,0,0,0-2.764-2.768m22.172,0a2.766,2.766,0,1,0,2.768,2.768,2.772,2.772,0,0,0-2.768-2.768m22.167,0a2.766,2.766,0,1,0,2.777,2.768,2.765,2.765,0,0,0-2.777-2.768m22.172,0a2.766,2.766,0,1,0,2.768,2.768,2.769,2.769,0,0,0-2.768-2.768m22.167,0a2.766,2.766,0,1,0,2.777,2.768,2.765,2.765,0,0,0-2.777-2.768M39.538,225.345a2.772,2.772,0,0,0-2.768,2.777,2.72,2.72,0,0,0,.208,1.031c1.464.407,2.651.719,4.206,1.139a2.712,2.712,0,0,0,1.131-2.17,2.783,2.783,0,0,0-2.777-2.777m22.172,0a2.773,2.773,0,1,0,2.768,2.777,2.775,2.775,0,0,0-2.768-2.777m22.176,0a2.763,2.763,0,0,0-1.161,5.277c1.334-.9,2.647-1.75,3.916-2.539a2.764,2.764,0,0,0-2.755-2.738" transform="translate(11.689 42.186)" fill="#a5d6a7"/>
              <path id="Trazado_899310" data-name="Trazado 899310" d="M21.376,48.969l5.987,58.219,9.9-6.425S24.577,62.286,21.376,48.969" transform="translate(71.227 163.172)" fill="#006f7c"/>
              <path id="Trazado_899311" data-name="Trazado 899311" d="M17.372,36.378S19.907,83.334,20.3,94.017s-4.926,60.788-4.926,60.788L25.6,156.074s-.52-53.926-1.1-69.578-7.126-50.118-7.126-50.118" transform="translate(51.218 121.217)" fill="#006f7c"/>
              <path id="Trazado_899312" data-name="Trazado 899312" d="M9.467,32.114s-1.564,6.139.056,6.658,18.1-2.088,25.988-2.807,19.577-.49,19.577-.49V27.829s-1.906-2.084-9.648-2-16.982,1.395-21.305,1.742-14.2,3.492-14.669,4.544" transform="translate(29.284 86.055)" fill="#492942"/>
              <path id="Trazado_899313" data-name="Trazado 899313" d="M14.743,37.086h-.13a.553.553,0,0,1-.4-.221c-.832-1.083.13-7.586.394-8.829.373-1.8,6.3-2.387,9.245-2.188,2.1.143,2.374.615,2.4.957.022.256.078.7.156,1.252.446,3.271.8,6.541-.264,7.447-1.352,1.148-10.046,1.581-11.4,1.581m-.065-.593c1.347.052,9.964-.49,11.077-1.438.905-.771.338-4.921.065-6.914-.078-.563-.139-1.009-.16-1.282-.221-.394-3-.671-6.282-.238-2.937.394-4.094,1.074-4.193,1.538-.537,2.56-1,7.78-.507,8.335m10.986-9.63h0Zm0-.013Z" transform="translate(46.258 86.008)" fill="#fee5c6"/>
              <path id="Trazado_899314" data-name="Trazado 899314" d="M1.882,83.955s2.179-4.479,3.05-4.107.624,3.734.624,3.734,1.3-3.548,2.738-4.016.931.81.871,1.586a11.213,11.213,0,0,0,.468,2.617s.091-3.981,1.148-4.2,4.856.065,2.864-1.152S2.008,76.3,1.882,83.955" transform="translate(6.271 258.604)" fill="#ea869f"/>
              <path id="Trazado_899315" data-name="Trazado 899315" d="M14.49,78.555a10.965,10.965,0,0,1,.949,2.136,21.9,21.9,0,0,0,1.495,3.11s-.481-2.352-.438-2.625.1-1.828.836-2.209a2.009,2.009,0,0,1,2.17.264c.351.42.632,1.668.9,2.053a3.165,3.165,0,0,1,.6,1.993.5.5,0,0,0,.455.659,31.256,31.256,0,0,0-.1-4.15c-.2-.858-3.054-4.627-6.871-1.23" transform="translate(48.282 257.112)" fill="#ea869f"/>
              <path id="Trazado_899316" data-name="Trazado 899316" d="M.5,78.754A7.8,7.8,0,0,1,5.75,76.046c3.318-.221,11.16-.663,11.879.554S20.28,87.1,20.28,87.1s-3.977-2.543-6.52-2.214-6.407,2.651-6.628,4.037.165,1.763-1.6,1.326S.118,81.3.5,78.754" transform="translate(1.584 252.521)" fill="#492942"/>
              <path id="Trazado_899317" data-name="Trazado 899317" d="M17.088,75.02S13.367,81.947,13,84.958s.533,5.229,1.23,5.671,3.115-4.848,8.27-4.328,8.331,4.02,8.157,4.588,2.27-2.933,2.214-5.367-1-8.66-1.772-9.162-8.448.988-14.01-1.339" transform="translate(43.029 249.977)" fill="#492942"/>
              <path id="Trazado_899318" data-name="Trazado 899318" d="M32.836,42.876a16.513,16.513,0,0,0-3.535.632,12.111,12.111,0,0,1-1.568.412s-3.674-1.386-4.038-1.408-1.8,1.477-1.8,1.477,3.912,1.668,4.7,1.858a14.4,14.4,0,0,0,4.995.143c1.118-.381,2.292-3.145,1.248-3.115" transform="translate(72.963 141.657)" fill="#ea869f"/>
              <path id="Trazado_899319" data-name="Trazado 899319" d="M32.609,42.926s-3.054,1.261-3.817,1.642-5.19-.191-5.887.295S21.974,47,21.974,47s5.155.334,6.1.368a7.012,7.012,0,0,0,3.483-.472c.875-.554,1.057-3.968,1.057-3.968" transform="translate(73.22 143.036)" fill="#ea869f"/>
              <path id="Trazado_899320" data-name="Trazado 899320" d="M27.008,36.3s.26,6.03-.542,7.122-4.116,4.57-4.1,6.074.992,8.413,1.022,9.57-.043,4.484-.108,5.311-.68,5.077.619,4.748a3.231,3.231,0,0,0,2.482-2.751c.212-1.43.221-7.521.451-8.7s.68-2.279,1.664-1.91,2.153,3.089,2.17,4.592a14.166,14.166,0,0,0,.516,3.214A5.031,5.031,0,0,0,29.9,65.853a25.245,25.245,0,0,0-.52,3.331l-1.616,2.079s-2.842,1.984-2.573,3.171,3.7-1.408,4.865-2.387,2.387-3.379,3.123-4.588,1.321-4.575,2.3-5.757a6.277,6.277,0,0,0,1.625-5.372c-.464-2.448-2.231-13.256-2.062-15.5S27.008,36.3,27.008,36.3" transform="translate(74.533 120.954)" fill="#ffc8cd"/>
              <path id="Trazado_899321" data-name="Trazado 899321" d="M26.945,46.68a7.838,7.838,0,0,0-1.49-2.084,3.937,3.937,0,0,0-2.032.022s.572-1.057.8-1.4a24.84,24.84,0,0,0,.684-3.227,23.075,23.075,0,0,0,1.512,3.587,5.486,5.486,0,0,1,.529,3.106" transform="translate(78.048 133.243)" fill="#ea869f"/>
              <path id="Trazado_899322" data-name="Trazado 899322" d="M3.376,49.3s24.637-10.375,26.266-9.578S33.06,67.591,32.15,69.9,4.216,80.072,4.034,76.264,1.578,51.415,3.376,49.3" transform="translate(8.958 132.203)" fill="#504f94"/>
              <path id="Trazado_899323" data-name="Trazado 899323" d="M14.716,59.693c-3.739,0-11.419-8.846-11.77-9.249a.23.23,0,1,1,.351-.3c2.469,2.864,9.44,10.059,11.965,8.989,3.128-1.326,13.009-19.027,13.109-19.209a.231.231,0,0,1,.312-.087.227.227,0,0,1,.087.312c-.407.736-10.055,18.017-13.326,19.4a1.817,1.817,0,0,1-.728.139" transform="translate(9.635 132.655)" fill="#fee5c6"/>
              <path id="Trazado_899324" data-name="Trazado 899324" d="M4.176,41.691s.26,6.442.542,7.581a44.764,44.764,0,0,0,2.374,5.095L8.24,57.018s1.438.888,1.625-.247a60.79,60.79,0,0,0,5.2,3.6s1.109-1.451.147-2.651S8.278,45.126,9.535,41.877,3.6,39.941,4.176,41.691" transform="translate(13.807 132.908)" fill="#ea869f"/>
              <path id="Trazado_899325" data-name="Trazado 899325" d="M16.847,37.161s-.52,4.514.178,5.424,2.924,6.425,2.82,7.932-1.3,7.165-1.308,9.006.6,6.373-.5,6.68S15.3,64.934,14.971,63.4a16.519,16.519,0,0,1-.36-5.056,31.489,31.489,0,0,0,.186-3.617s-2.114-.736-2.318.658-.806,7.144-.377,8.04,4.991,5.476,4.718,6.325-1.46.767-2.318.654c-.516-.065-2.1-1.88-3.7-3.193-1.079-.892-2.469-1.581-2.608-2.136C7.857,63.7,7.853,59.363,7.727,58s-1.083-3.955-1.287-2.56c-.069.468.511,1.646.719,3.2.412,3.076.6,7.122.061,6.511-.8-.923-2.084-7.612-2.6-8.729a6.233,6.233,0,0,1-.069-4.605c.641-1.529,2.846-12.533,3.921-14.027s7.72-2.136,8.378-.628" transform="translate(13.794 120.954)" fill="#ffc8cd"/>
              <path id="Trazado_899326" data-name="Trazado 899326" d="M8.884,39.774s-.377,2.062-.438,2.513-.13,1.664-.13,1.664-.8-1-1.131-.975a4.374,4.374,0,0,0-1.092.446,5.733,5.733,0,0,1,1.373-1.75,6.114,6.114,0,0,0,1.417-1.9" transform="translate(20.306 132.533)" fill="#ea869f"/>
              <path id="Trazado_899327" data-name="Trazado 899327" d="M6.5,44.5s-.832-1.854.641-2.422,5.792-2.309,6.585-2.118-1.2,14.954-2.595,14.617S5.556,53.085,6.5,44.5" transform="translate(20.879 133.102)" fill="#504f94"/>
              <path id="Trazado_899328" data-name="Trazado 899328" d="M10.989,122.854a3.946,3.946,0,0,1-1.936-.42c-4.323-2.439-3.383-24.775-3.375-25,.173-3.4-.957-11.835-1.867-18.615C3.4,75.781,3.053,73.16,2.9,71.545,1.554,57.838,4,49.4,4.023,49.321a.439.439,0,0,1,.546-.3.445.445,0,0,1,.3.55c-.022.082-2.413,8.365-1.092,21.886.156,1.6.507,4.215.91,7.243C5.6,85.52,6.739,94,6.562,97.481c-.39,7.638.065,22.575,2.924,24.186,1.3.732,4.332.13,7.564-1.5,4.077-2.049,9.045-6.156,9.643-10.973.529-4.219-.555-13.6-1.6-22.67-1-8.621-1.936-16.761-1.378-19.689.4-2.088,1.317-5.874,2.287-9.89,1.581-6.52,3.743-15.448,3.414-16.423a.441.441,0,0,1,.221-.581.451.451,0,0,1,.589.221c.42.923-.645,5.766-3.366,16.991-.966,4-1.884,7.785-2.274,9.851-.537,2.79.394,10.869,1.382,19.421,1.053,9.119,2.14,18.554,1.6,22.878-.645,5.16-5.653,9.405-10.124,11.653a15.394,15.394,0,0,1-6.459,1.9" transform="translate(8.31 132.963)" fill="#504f94"/>
              <path id="Trazado_899329" data-name="Trazado 899329" d="M7.314,26.061s8.734-5.692,15.721-6.048S68.1,18.22,68.1,18.22l-.117,2.365s-44.82,2.079-46.679,2.573S7.5,29.752,7.5,29.752Z" transform="translate(24.371 60.713)" fill="#fffbf3"/>
              <path id="Trazado_899330" data-name="Trazado 899330" d="M48.6,12.041s-1.941,8.006-2.673,9.011-2.933,2.5-3.1,3.2,1.009,2.036.42,3.279a21.527,21.527,0,0,1-2.209,3.21s.113,1.6-.624,1.945-2.448.944-2.448.944l-1.936,3.119s-.2,2.643-1.391,3.331-6.788-3.223-6.788-3.223l3.1,3.652s.381,17.393-.793,18.511-3.145-3.838-4.15-4.046S11.546,38.5,11.546,38.5a9.172,9.172,0,0,0,4.592-5.177c2.487-7.031.819-17.35,1.538-18.658,1.1-2.01,15.18-10.882,16.475-10.843S48.6,12.041,48.6,12.041" transform="translate(38.473 12.74)" fill="#fbadb5"/>
              <path id="Trazado_899331" data-name="Trazado 899331" d="M24.919,9.1s-1.473,2.638-1.85,3.054-3.323.308-3.617.338A37.415,37.415,0,0,1,15.7,10.506s.671-2.673,2.521-2.868,6.7,1.46,6.7,1.46" transform="translate(52.301 25.4)" fill="#ea869f"/>
              <path id="Trazado_899332" data-name="Trazado 899332" d="M22.124,9.48s-1.529,1.525-3,1.434S15.738,8.28,15.738,8.28a9.44,9.44,0,0,0,3.487,1.33,9.87,9.87,0,0,0,2.9-.13" transform="translate(52.441 27.592)" fill="#492942"/>
              <path id="Trazado_899333" data-name="Trazado 899333" d="M24.348,9.4s-.55,1.087-1.343.94-2.794-1.3-3.778-1.607a11.08,11.08,0,0,0-3.206-.043s2.318-1.512,4.2-1.144A14.127,14.127,0,0,1,24.348,9.4" transform="translate(53.387 24.941)" fill="#492942"/>
              <path id="Trazado_899334" data-name="Trazado 899334" d="M22.635,8.018S19.321,8.837,18.97,9.3a4.138,4.138,0,0,0-.68,1.876A28.754,28.754,0,0,0,18.615,17c.134.2,2.443-4.271,2.443-4.271a13.2,13.2,0,0,1,.152-2.3,22.589,22.589,0,0,1,1.425-2.4" transform="translate(60.823 26.719)" fill="#ea869f"/>
              <path id="Trazado_899335" data-name="Trazado 899335" d="M18.707,8.534c-.295.113-.1.983.355,1.022a9.957,9.957,0,0,0,2.205-.338c.425-.165,1.239-1.412,1.239-1.412a21.121,21.121,0,0,0-3.8.728" transform="translate(61.87 26.012)" fill="#492942"/>
              <path id="Trazado_899336" data-name="Trazado 899336" d="M19.755,11.74s-2.933-.936-2.625-1.282,4.007-.243,4.718.1.212.68.139.736a1.845,1.845,0,0,1-2.231.451" transform="translate(57.002 34.126)" fill="#ea869f"/>
              <path id="Trazado_899337" data-name="Trazado 899337" d="M20.888,11.582s-.879-.373-1.456-.684a12.9,12.9,0,0,0-3.184-.2s.879,2.426,2.153,2.955c1.3.542,1.958.251,2.56-.723.282-.446-.074-1.343-.074-1.343" transform="translate(54.14 35.592)" fill="#c3305d"/>
              <path id="Trazado_899338" data-name="Trazado 899338" d="M18.263,8.669a7.278,7.278,0,0,0,1.889.455c.91.061.923-.143.923-.143l-.087,1.551S18.6,9.717,18.263,8.669" transform="translate(60.854 28.888)" fill="#492942"/>
              <path id="Trazado_899339" data-name="Trazado 899339" d="M14.494,10.619a52.833,52.833,0,0,0,4.215,4c.762.442,3.383,1.755,3.383,1.755a2.4,2.4,0,0,0-.962,1.7,10.768,10.768,0,0,1-.516,2.6s-3.5-4.5-3.955-5.779a43.321,43.321,0,0,0-2.166-4.28" transform="translate(48.296 35.385)" fill="#c3305d"/>
              <path id="Trazado_899340" data-name="Trazado 899340" d="M16.622,10.9s.667.979,1.135,1.139a4.685,4.685,0,0,0,1.183.169l.169-.182Z" transform="translate(55.386 36.305)" fill="#fffbf3"/>
              <path id="Trazado_899341" data-name="Trazado 899341" d="M38.855,9.189S27.934-8.26,20.565,4.931c-7,12.528-17.723,39.349-8,52.873,11.957,16.631,12.676,25.3,12.676,25.3s6.264-10.328,5.311-25.958c-.342-5.61-5.242-9.34-5.874-14.482-1.139-9.2,1.91-18.455,1.828-19.334C24.8,5.265,33.882,12.3,33.882,12.3Z" transform="translate(28.908 0.001)" fill="#492942"/>
              <path id="Trazado_899342" data-name="Trazado 899342" d="M28.577,18.976a30.734,30.734,0,0,1-2.456,4.661,46.644,46.644,0,0,1-3.362,4.549s-2.04,1.482-5.411,3.934c-2.747,2-4.7-8.313-4.7-9.912,0-3.726-3.253-5.554,5.025-15.743,3.5-4.306,10.064-3.821,10.064-3.821S38.424-.05,42.877,5.287,47.833,18.6,46.733,19.448c-1.053.819-13.378-6.723-18.156-.472" transform="translate(40.031 6.546)" fill="#492942"/>
              <rect id="Rectángulo_415798" data-name="Rectángulo 415798" width="0.358" height="1.42" transform="matrix(0.999, -0.046, 0.046, 0.999, 66.09, 79.952)" fill="#29211c"/>
              <rect id="Rectángulo_415799" data-name="Rectángulo 415799" width="0.36" height="1.42" transform="translate(57.913 80.177) rotate(-2.793)" fill="#29211c"/>
              <rect id="Rectángulo_415800" data-name="Rectángulo 415800" width="0.36" height="1.42" transform="translate(46.169 80.886) rotate(-2.793)" fill="#29211c"/>
              <rect id="Rectángulo_415801" data-name="Rectángulo 415801" width="0.36" height="1.42" transform="translate(48.31 80.662) rotate(-2.793)" fill="#29211c"/>
              <rect id="Rectángulo_415802" data-name="Rectángulo 415802" width="0.36" height="1.42" transform="translate(50.27 80.57) rotate(-2.793)" fill="#29211c"/>
              <path id="Trazado_899343" data-name="Trazado 899343" d="M10,20.338l-.373-1.373.347-.091.373,1.369Z" transform="translate(32.092 62.891)" fill="#29211c"/>
              <rect id="Rectángulo_415803" data-name="Rectángulo 415803" width="0.358" height="1.421" transform="translate(39.511 82.838) rotate(-22.029)" fill="#29211c"/>
              <rect id="Rectángulo_415804" data-name="Rectángulo 415804" width="0.358" height="1.421" transform="translate(37.153 83.906) rotate(-22.029)" fill="#29211c"/>
              <rect id="Rectángulo_415805" data-name="Rectángulo 415805" width="0.358" height="1.421" transform="translate(34.84 85.016) rotate(-22.029)" fill="#29211c"/>
              <rect id="Rectángulo_415806" data-name="Rectángulo 415806" width="0.358" height="1.421" transform="translate(32.429 86.668) rotate(-22.029)" fill="#29211c"/>
              <rect id="Rectángulo_415807" data-name="Rectángulo 415807" width="0.36" height="1.42" transform="translate(52.426 80.498) rotate(-2.793)" fill="#29211c"/>
              <rect id="Rectángulo_415808" data-name="Rectángulo 415808" width="0.36" height="1.42" transform="translate(62.285 80.177) rotate(-2.793)" fill="#29211c"/>
              <rect id="Rectángulo_415809" data-name="Rectángulo 415809" width="0.358" height="1.42" transform="matrix(0.999, -0.046, 0.046, 0.999, 68.366, 79.859)" fill="#29211c"/>
              <rect id="Rectángulo_415810" data-name="Rectángulo 415810" width="0.36" height="1.418" transform="translate(64.085 79.955) rotate(-2.801)" fill="#29211c"/>
              <rect id="Rectángulo_415811" data-name="Rectángulo 415811" width="0.358" height="1.42" transform="matrix(0.999, -0.046, 0.046, 0.999, 60.105, 80.176)" fill="#29211c"/>
              <path id="Trazado_899344" data-name="Trazado 899344" d="M10.431,20.2l-.325-1.382.347-.082.325,1.382Z" transform="translate(33.675 62.438)" fill="#29211c"/>
              <rect id="Rectángulo_415812" data-name="Rectángulo 415812" width="0.36" height="1.418" transform="translate(55.309 80.379) rotate(-2.801)" fill="#29211c"/>
              <rect id="Rectángulo_415813" data-name="Rectángulo 415813" width="0.36" height="1.423" transform="translate(70.211 79.786) rotate(-2.793)" fill="#29211c"/>
              <rect id="Rectángulo_415814" data-name="Rectángulo 415814" width="0.36" height="1.418" transform="translate(72.361 79.669) rotate(-2.801)" fill="#29211c"/>
              <rect id="Rectángulo_415815" data-name="Rectángulo 415815" width="0.36" height="1.423" transform="translate(80.733 79.466) rotate(-2.793)" fill="#29211c"/>
              <rect id="Rectángulo_415816" data-name="Rectángulo 415816" width="0.36" height="1.42" transform="translate(82.661 79.243) rotate(-2.801)" fill="#29211c"/>
              <rect id="Rectángulo_415817" data-name="Rectángulo 415817" width="0.358" height="1.42" transform="matrix(0.999, -0.046, 0.046, 0.999, 84.752, 79.243)" fill="#29211c"/>
              <rect id="Rectángulo_415818" data-name="Rectángulo 415818" width="0.36" height="1.418" transform="translate(86.889 79.153) rotate(-2.801)" fill="#29211c"/>
              <rect id="Rectángulo_415819" data-name="Rectángulo 415819" width="0.36" height="1.42" transform="translate(78.532 79.468) rotate(-2.793)" fill="#29211c"/>
              <rect id="Rectángulo_415820" data-name="Rectángulo 415820" width="0.36" height="1.418" transform="translate(76.572 79.669) rotate(-2.801)" fill="#29211c"/>
              <rect id="Rectángulo_415821" data-name="Rectángulo 415821" width="0.36" height="1.42" transform="translate(74.318 79.668) rotate(-2.801)" fill="#29211c"/>
              <path id="Trazado_899345" data-name="Trazado 899345" d="M22.079,26.982s8.976,13.157,13.1,16.943,12.814,9.9,12.814,9.9l13.841-7.07,9.232-28.739L49.835,37.284S41.3,33.515,39.49,32.268,27.282,19.886,27.282,19.886s-6.671,4.978-5.2,7.1" transform="translate(72.868 60.03)" fill="#fbadb5"/>
              <path id="Trazado_899346" data-name="Trazado 899346" d="M61.4,71.115s-6.775,11.536-12.676,16.93-16,7.594-16,16.739c0,5.155,39.509,1.577,40.977-2.877s1.274-13.213-.5-15.782S61.4,71.115,61.4,71.115" transform="translate(109.03 236.965)" fill="#311b2c"/>
              <path id="Trazado_899347" data-name="Trazado 899347" d="M44.21,107.827a48.155,48.155,0,0,1-7.308-.455c-2.859-.459-4.245-1.235-4.245-2.37,0-6.511,5.064-9.626,9.96-12.641a40.01,40.01,0,0,0,6.134-4.306c5.8-5.3,12.554-16.752,12.624-16.865a.271.271,0,0,1,.221-.139.266.266,0,0,1,.243.1c.1.126,10.055,12.481,11.814,15.028s2.062,11.4.533,16.029c-.853,2.582-11.987,4.194-15.379,4.627a119.928,119.928,0,0,1-14.595.988m17.441-36c-1.191,1.98-7.235,11.814-12.52,16.644a40.783,40.783,0,0,1-6.217,4.375c-4.986,3.067-9.7,5.961-9.7,12.156,0,.775,1.339,1.421,3.773,1.811,10.583,1.7,35.593-1.56,36.654-4.778,1.49-4.51,1.235-13.07-.464-15.531C71.6,84.2,63.228,73.785,61.651,71.827" transform="translate(108.814 236.747)" fill="#fffbf3"/>
              <rect id="Rectángulo_415822" data-name="Rectángulo 415822" width="43.928" height="7.009" rx="0.727" transform="translate(140.199 339.202)" fill="#fffbf3"/>
              <path id="Trazado_899348" data-name="Trazado 899348" d="M73.361,85.81H35.728A3.433,3.433,0,0,1,32.3,82.379v-.71a3.437,3.437,0,0,1,3.431-3.435H73.361a3.44,3.44,0,0,1,3.431,3.435v.71a3.436,3.436,0,0,1-3.431,3.431M35.728,78.8a2.871,2.871,0,0,0-2.868,2.868v.71a2.871,2.871,0,0,0,2.868,2.868H73.361a2.87,2.87,0,0,0,2.864-2.868v-.71A2.87,2.87,0,0,0,73.361,78.8Z" transform="translate(107.617 260.683)" fill="#492942"/>
              <path id="Trazado_899349" data-name="Trazado 899349" d="M66.686,36.348c-.671,3.83-6.312,84.476-6.312,84.476l13.512,79.334L51.4,207.167,31.631,105.133S67.362,32.518,66.686,36.348" transform="translate(105.398 120.628)" fill="#b2a1db"/>
              <path id="Trazado_899350" data-name="Trazado 899350" d="M39.252,74.648s6.957-4.1,11.069,2.053c.9,1.347,1.659,7.092,1.659,7.092s3.643-.936,4.232,2.218-20.677-.936-20.677-.936Z" transform="translate(118.407 244.28)" fill="#311b2c"/>
              <path id="Trazado_899351" data-name="Trazado 899351" d="M34.234,33.089a33.5,33.5,0,0,0-3.591,16.154c.087,4.28-1.681,48.524-1.386,89.727.368,51.357,2.8,101.272,2.8,101.272l21.076-.147s5.047-93.279,8.318-104.859S71.469,78.095,71.469,78.095s2.851-14.863,4.172-23.328-15.526-25.78-15.526-25.78Z" transform="translate(97.376 96.586)" fill="#d1c4e9"/>
              <path id="Trazado_899352" data-name="Trazado 899352" d="M30.267,29.545l.615,10.185s9.366-.836,14.387-1.009,13.031.152,13.031.152a2.676,2.676,0,0,1-.754-3.531A17.312,17.312,0,0,0,59.275,30.2s-26.954-5.372-29.008-.654" transform="translate(100.853 91.986)" fill="#6766af"/>
              <path id="Trazado_899353" data-name="Trazado 899353" d="M35.656,10.3s-2.3,9.045-4.419,16.592,13.213,14,15.149,16.219,8.01,4.28,11.463,3.522S42.847-1.1,35.656,10.3" transform="translate(103.418 28.377)" fill="#492942"/>
              <path id="Trazado_899354" data-name="Trazado 899354" d="M40.79,4.668A14.6,14.6,0,0,1,55.623,1.713c8.738,3.158,12.6,8.131,13.707,14.777S70.7,29.6,72.562,32.549s9.457,10.826,8.829,15.8S78.259,55.743,79.255,59.1s9.977,9.648,8.482,15.219-8.573,7.958-9.1,11.931-7.321,3.47-7.321,3.47a7.27,7.27,0,0,1-5.957-.013C62.1,88.264,54.436,56.428,54.436,56.428L51.018,38.146,35.193,29.521s-9.7-8.205-7.087-16.874c1.98-6.572,9.461-12.2,12.684-7.98" transform="translate(92.167 2.686)" fill="#492942"/>
              <path id="Trazado_899355" data-name="Trazado 899355" d="M58.616,14.437s-17.562,8.612-18.2,10.93S29.83,38.645,28.482,44.091s10.055,20.179,9.08,20.794-2.7,9.154-.975,11.142,26.759,5.892,29.558,3.193S76.214,48.358,77.435,38.342,75.4,20.507,72.31,17.63s-9.591-5.264-13.694-3.193" transform="translate(94.537 45.504)" fill="#ffb74d"/>
              <path id="Trazado_899356" data-name="Trazado 899356" d="M38.868,15.7s2.855,11.991.667,14.751S30.65,40.675,31.058,42.269s5.8-1.308,7.308-1.932,3.821-3.734,6.043-5.857a27.413,27.413,0,0,1,7.763-4.839,10.435,10.435,0,0,1-4.219-3.18,22.689,22.689,0,0,1-3.812-7.767c-.905-3.843-2.218-8.279-2.417-9.032a5.638,5.638,0,0,1,.221-.788Z" transform="translate(103.429 29.568)" fill="#fbadb5"/>
              <path id="Trazado_899357" data-name="Trazado 899357" d="M32.731,11.512s.568,2.556.8,3.691.619,3.357.619,3.357l2.591-5.931s2.075,9.11,3.479,11.788,6.386,3.4,6.386,3.4A11.163,11.163,0,0,1,42,24.192a23.349,23.349,0,0,1-2.855-6.173c-1.594-5.749-2.4-8.595-2.4-8.595l-3.851,1.62Z" transform="translate(109.064 31.404)" fill="#c3305d"/>
              <path id="Trazado_899358" data-name="Trazado 899358" d="M30.255,4.437s-.62,6.468-.195,8.283,2.248,4.466,1.6,5.593-2.842,3.184-2.82,3.734S30.9,24.568,30.9,24.568a16.046,16.046,0,0,0,.632,2.461,3.408,3.408,0,0,0,.823.91s-.481.529-.23.892a1.859,1.859,0,0,0,.806.555s-.052,3.752,2.166,4.25,9.518-1.43,10.731-2.24a47.061,47.061,0,0,0,4.232-3.856l-.117-3.548s3.119-5.207.412-6.871S45.747,19.5,45.747,19.5l-.121-2.959-1.3-2s-6.078-.741-9.266-3.778a24.79,24.79,0,0,1-4.8-6.334" transform="translate(96.108 14.786)" fill="#fbadb5"/>
              <path id="Trazado_899359" data-name="Trazado 899359" d="M33.574,7.561a3.258,3.258,0,0,1-1.62.754c-1.282.338-1.239.2-1.239.2l.2-.91s-1.014.918-.78,1.373c.3.585,1.707.169,2.56-.312a3.277,3.277,0,0,0,.875-1.109" transform="translate(100.31 25.196)" fill="#492942"/>
              <path id="Trazado_899360" data-name="Trazado 899360" d="M32.589,10.172a10.252,10.252,0,0,1-1.832-.16c-.342-.143-1.144-.663-1.291-.273s.823,1.061.823,1.061a.846.846,0,0,0-.147,1.265.627.627,0,0,0,.767.13s1.681-.853,1.681-2.023" transform="translate(98.129 31.977)" fill="#c3305d"/>
              <path id="Trazado_899361" data-name="Trazado 899361" d="M29.194,4.445a24.612,24.612,0,0,0,4.783,6.3c3.188,3.032,9.262,3.773,9.262,3.773l.689,1.061s-1.884.81-6.407-1.152-8.352-9.955-8.352-9.955l.026-.026M43.928,15.579l.619.94.108,2.959-.121,3.435Z" transform="translate(97.191 14.813)" fill="#ea869f"/>
              <path id="Trazado_899362" data-name="Trazado 899362" d="M35.977,8.428c-.195.2-1.893-.793-3.175-.55s-2.3.464-2.669.221-.65-1.014-.338-1.256a5.79,5.79,0,0,1,3.934-.394c1.274.563,2.591,1.633,2.248,1.98" transform="translate(98.834 20.781)" fill="#492942"/>
              <path id="Trazado_899363" data-name="Trazado 899363" d="M33.085,10s.581-3.154,1.681-2.326.949,3.552.208,4.323-1.767-.459-1.889-2" transform="translate(110.243 25.123)" fill="#ea869f"/>
              <path id="Trazado_899364" data-name="Trazado 899364" d="M32.643,24.34a6.79,6.79,0,0,0,4.765,2.851c3.4.511,19.1,2.4,19.031,1.421s-5.783-3.509-8.4-4.271-15.392,0-15.392,0" transform="translate(108.77 79.975)" fill="#f0be8f"/>
              <path id="Trazado_899365" data-name="Trazado 899365" d="M30.381,32.152s10.965,2.79,17.281.957a48.339,48.339,0,0,0,9.782-3.834l3.3,3.752,3.232,4.007s-7.993-3.34-10.5-2.352c-1.035.407-6.459.667-10.934.1a77.917,77.917,0,0,1-12.165-2.634" transform="translate(101.233 97.549)" fill="#b2a1db"/>
              <path id="Trazado_899366" data-name="Trazado 899366" d="M72.891,77.048a1.957,1.957,0,0,0-2.084-2.1l-8.7.585a12.2,12.2,0,0,0-4.293,1.1L26.169,91.318a3.936,3.936,0,0,0-2.261,3.24l-.373,4.458,45.453.412A2.4,2.4,0,0,0,71.4,97.2Z" transform="translate(78.421 249.734)" fill="#492942"/>
              <path id="Rectángulo_415823" data-name="Rectángulo 415823" d="M.477,0H53.329A.476.476,0,0,1,53.8.476v4.71a.476.476,0,0,1-.476.476H.477A.477.477,0,0,1,0,5.185V.477A.477.477,0,0,1,.477,0Z" transform="translate(99.729 346.827)" fill="#fffbf3"/>
              <path id="Trazado_899367" data-name="Trazado 899367" d="M75.087,86.469H25.411a2.489,2.489,0,0,1-2.487-2.487V82.449a2.489,2.489,0,0,1,2.487-2.487H75.087a2.492,2.492,0,0,1,2.487,2.487v1.534a2.492,2.492,0,0,1-2.487,2.487M25.411,80.807a1.647,1.647,0,0,0-1.646,1.642v1.534a1.647,1.647,0,0,0,1.646,1.642H75.087a1.644,1.644,0,0,0,1.642-1.642V82.449a1.644,1.644,0,0,0-1.642-1.642Z" transform="translate(76.385 266.444)" fill="#492942"/>
              <path id="Trazado_899368" data-name="Trazado 899368" d="M27.859,76.853a1.285,1.285,0,0,1,1.815.511l3.908,7.616a1.487,1.487,0,0,1-.55,1.949,1.28,1.28,0,0,1-1.811-.511L27.309,78.8a1.492,1.492,0,0,1,.55-1.949" transform="translate(90.451 255.456)" fill="#fffbf3"/>
              <path id="Trazado_899369" data-name="Trazado 899369" d="M32.685,87.86a1.865,1.865,0,0,1-.464-.061,1.736,1.736,0,0,1-1.057-.862l-3.908-7.62a1.914,1.914,0,0,1,.706-2.5,1.7,1.7,0,0,1,1.352-.186,1.722,1.722,0,0,1,1.057.862l3.908,7.616a1.919,1.919,0,0,1-.706,2.5,1.707,1.707,0,0,1-.888.247M28.4,77.537a1.078,1.078,0,0,0-.394,1.4l3.912,7.616a.849.849,0,0,0,.533.433.862.862,0,0,0,.684-.091,1.078,1.078,0,0,0,.394-1.4l-3.912-7.616a.86.86,0,0,0-1.217-.342" transform="translate(90.126 255.132)" fill="#492942"/>
              <path id="Trazado_899370" data-name="Trazado 899370" d="M28.87,76.279a1.288,1.288,0,0,1,1.815.511l3.908,7.616a1.485,1.485,0,0,1-.55,1.949,1.28,1.28,0,0,1-1.811-.511L28.32,78.228a1.492,1.492,0,0,1,.55-1.949" transform="translate(93.82 253.544)" fill="#fffbf3"/>
              <path id="Trazado_899371" data-name="Trazado 899371" d="M33.7,87.289a1.687,1.687,0,0,1-.464-.065,1.722,1.722,0,0,1-1.057-.862l-3.908-7.616a1.918,1.918,0,0,1,.706-2.5,1.7,1.7,0,0,1,2.4.68l3.912,7.616a1.914,1.914,0,0,1-.706,2.5,1.712,1.712,0,0,1-.888.251M29.412,76.961a1.074,1.074,0,0,0-.394,1.4l3.912,7.616a.855.855,0,0,0,.533.438.864.864,0,0,0,.684-.1,1.069,1.069,0,0,0,.394-1.395L30.63,77.308a.866.866,0,0,0-1.217-.347" transform="translate(93.499 253.221)" fill="#492942"/>
              <path id="Trazado_899372" data-name="Trazado 899372" d="M29.89,75.617a1.285,1.285,0,0,1,1.811.511l3.912,7.616a1.485,1.485,0,0,1-.55,1.949,1.286,1.286,0,0,1-1.815-.511L29.34,77.566a1.487,1.487,0,0,1,.55-1.949" transform="translate(97.218 251.339)" fill="#fffbf3"/>
              <path id="Trazado_899373" data-name="Trazado 899373" d="M34.716,86.627a1.688,1.688,0,0,1-.464-.065A1.708,1.708,0,0,1,33.2,85.7l-3.908-7.616a1.918,1.918,0,0,1,.706-2.5,1.71,1.71,0,0,1,1.347-.186,1.729,1.729,0,0,1,1.057.866l3.912,7.616a1.913,1.913,0,0,1-.706,2.5,1.7,1.7,0,0,1-.888.251M30.877,76.174a.869.869,0,0,0-.446.126,1.077,1.077,0,0,0-.394,1.4l3.908,7.616a.861.861,0,0,0,.537.438.851.851,0,0,0,.68-.1,1.07,1.07,0,0,0,.4-1.395l-3.912-7.616a.853.853,0,0,0-.533-.438.932.932,0,0,0-.238-.035" transform="translate(96.894 251.015)" fill="#492942"/>
              <path id="Trazado_899374" data-name="Trazado 899374" d="M18.519,18.984S20.1,38.3,23.817,41.229a99.611,99.611,0,0,0,9.076,6.1s1.178,3.986.264,19.2a150.926,150.926,0,0,1-3.691,25.967l3.6,1.9s4.809-34.488,4.952-38.361S35.7,45.891,35.7,45.891s-8.8-5.142-10.427-8.027S21.2,18.737,21.2,18.737Z" transform="translate(61.707 62.436)" fill="#fffbf3"/>
              <path id="Trazado_899375" data-name="Trazado 899375" d="M21.54,37.077a14.772,14.772,0,0,0-2-1.226c-.671-.273-1.625-1.087-1.1-1.962a1.623,1.623,0,0,1,2.071-.758A21.571,21.571,0,0,1,23.4,34.682s1.781.113,2.175.069a6.207,6.207,0,0,0,1.928-.516c.247-.221,1.542-3.414,1.858-3.669s-1-.559-1.321-.81a.671.671,0,0,0-.632-.134,11.784,11.784,0,0,1-2.27.13,3.12,3.12,0,0,1-.953-.5s-1.109.606-1.213.706a10.587,10.587,0,0,1-1.066.52,18.482,18.482,0,0,1-1.066,2.266c-.208.178-1.755.325-1.75-.048s.451-1.832.537-2.322a2.086,2.086,0,0,1,.931-1.473,14.8,14.8,0,0,0,1.746-1.625,2.5,2.5,0,0,1,1.425-.866c.42.017,1.962-.078,2.461-.056s1.988.16,1.988.16A3.2,3.2,0,0,0,26.895,25.3a12.942,12.942,0,0,1-2.391-2c-.325-.325-1.408-.814-2.131-1.291a7.545,7.545,0,0,0-.962-.576s-2.608-.892-3.028-1.768a1.38,1.38,0,0,1,.4-1.568s2.5,1.087,2.95,1.3,3.539,1.395,3.786,1.438a5.032,5.032,0,0,1,1.1.381c.143.108,1.373,1.014,1.373,1.014L27.54,20.65A16.425,16.425,0,0,1,26.089,18.9a8.87,8.87,0,0,0-.6-.892s-2.222-2.192-2.179-3.015a1.511,1.511,0,0,1,.953-1.174s2.313,2.617,2.6,2.794,2.214,2.188,2.491,2.335a7.53,7.53,0,0,1,1.209,1.317c.208.286,1.274,2.3,1.274,2.3l.321-1.352a7.139,7.139,0,0,1-.671-1.616,2.389,2.389,0,0,0-.23-.81s-1.793-1.5-1.932-2.409.706-1.59,1.07-1.157a16.047,16.047,0,0,0,1.928,2.023A20.311,20.311,0,0,1,34.1,19.355a11.453,11.453,0,0,1,.936,1.547,24.1,24.1,0,0,1-.074,2.955,11.874,11.874,0,0,0-.03,3.461c.2.485,2.279,2.916,2.838,3.843a20.277,20.277,0,0,1,2.105,4.206c.1.819-2.985,5.636-4.631,5.679a11.783,11.783,0,0,1-4.926-1.157,15.811,15.811,0,0,0-3.262-1.443c-.693-.165-4.835-.905-5.515-1.369" transform="translate(60.852 46.032)" fill="#fbadb5"/>
              <path id="Trazado_899376" data-name="Trazado 899376" d="M18.874,17.879l-.446,1.85s.914.537,1.213.3,1.252-.936,1.209-1.7-1.975-.451-1.975-.451" transform="translate(61.404 59.36)" fill="#fbadb5"/>
              <path id="Trazado_899377" data-name="Trazado 899377" d="M34.1,28.585s-3.951-3.136-5.06-3.266-4.059-1.308-4.358,0-.619,2.43-.619,2.43-2.547-.321-2.578.749.65,6,.615,6.7-.052,2.63.368,3.054,5.575,2.2,7.131,2.092,4.5-11.753,4.5-11.753" transform="translate(71.576 82.324)" fill="#ea869f"/>
              <path id="Trazado_899378" data-name="Trazado 899378" d="M71.746,24.568l-2.2,13.975s-14.374-1.469-18.563-1.651S36.7,34.631,36.7,34.631s-4.64-5.259-6.2-5.6-8.751.381-8.621,1.334.325,3.5.325,3.5.1,2.634.1,3.7-.879,2.1,0,2.478,4.856,2.5,5.987,2.326,5.415-.169,6.269.221,19.378,5.593,26.1,7.252,18.823,2.582,19.967.563,10.12-23.445,10.12-23.445a34.26,34.26,0,0,0-19-2.387" transform="translate(72.899 80.297)" fill="#fbadb5"/>
              <path id="Trazado_899379" data-name="Trazado 899379" d="M33.735,24.731l-.468,3.782s8.673-2.972,11.216-2.621,6.832.381,6.832.381S42,22.634,33.735,24.731" transform="translate(110.85 80.238)" fill="#ea869f"/>
              <path id="Trazado_899380" data-name="Trazado 899380" d="M18.589,19.6l-.065-.351L19.919,19l.065.351Z" transform="translate(61.725 63.3)" fill="#29211c"/>
              <path id="Trazado_899381" data-name="Trazado 899381" d="M19.9,10.585S19.575,5.343,17.6,6.3s-4.6,8.04-3.362,8.976c3.362,2.547,5.671-4.7,5.671-4.7" transform="translate(46.364 20.617)" fill="#fbadb5"/>
              <path id="Trazado_899382" data-name="Trazado 899382" d="M18.656,20.012l-.065-.351,1.4-.256.065.351Z" transform="translate(61.947 64.662)" fill="#29211c"/>
              <path id="Trazado_899383" data-name="Trazado 899383" d="M18.869,21.435l-.065-.351,1.4-.256.065.351Z" transform="translate(62.659 69.405)" fill="#29211c"/>
              <path id="Trazado_899384" data-name="Trazado 899384" d="M18.717,20.459l-.065-.351,1.4-.256.065.351Z" transform="translate(62.152 66.154)" fill="#29211c"/>
              <path id="Trazado_899385" data-name="Trazado 899385" d="M18.942,21.856l-.065-.351,1.4-.256.065.351Z" transform="translate(62.902 70.807)" fill="#29211c"/>
              <path id="Trazado_899386" data-name="Trazado 899386" d="M19.035,22.344l-.065-.351,1.4-.256.065.351Z" transform="translate(63.212 72.434)" fill="#29211c"/>
              <path id="Trazado_899387" data-name="Trazado 899387" d="M19.418,23.763l-.065-.351,1.4-.256.065.351Z" transform="translate(64.486 77.163)" fill="#29211c"/>
              <path id="Trazado_899388" data-name="Trazado 899388" d="M19.212,23.265l-.065-.351,1.395-.256.065.351Z" transform="translate(63.799 75.501)" fill="#29211c"/>
              <path id="Trazado_899389" data-name="Trazado 899389" d="M19.1,22.792l-.065-.351,1.395-.256.065.351Z" transform="translate(63.413 73.925)" fill="#29211c"/>
              <path id="Trazado_899390" data-name="Trazado 899390" d="M18.779,20.917l-.065-.351,1.4-.256.065.351Z" transform="translate(62.357 67.678)" fill="#29211c"/>
              <path id="Trazado_899391" data-name="Trazado 899391" d="M18.361,18.421l2.838-.108L23.616,19.7l-5.359,1.213.074-2.5Z" transform="translate(60.834 61.021)" fill="#fffbf3"/>
              <rect id="Rectángulo_415824" data-name="Rectángulo 415824" width="0.359" height="1.42" transform="translate(80.474 79.388) rotate(-12.51)" fill="#29211c"/>
              <path id="Trazado_899392" data-name="Trazado 899392" d="M24.113,28.835l-2.153-.243L22,28.237l2.149.243Z" transform="translate(73.175 94.091)" fill="#29211c"/>
              <path id="Trazado_899393" data-name="Trazado 899393" d="M24.095,29.445,21.941,29.2l.043-.355,2.149.243Z" transform="translate(73.112 96.123)" fill="#29211c"/>
              <path id="Trazado_899394" data-name="Trazado 899394" d="M24.113,30.044,21.96,29.8,22,29.446l2.149.243Z" transform="translate(73.175 98.118)" fill="#29211c"/>
              <path id="Trazado_899395" data-name="Trazado 899395" d="M24.01,30.615l-2.153-.243.039-.355,2.153.243Z" transform="translate(72.83 100.022)" fill="#29211c"/>
              <path id="Trazado_899396" data-name="Trazado 899396" d="M23.979,31.136l-2.153-.243.043-.355,2.149.243Z" transform="translate(72.727 101.76)" fill="#29211c"/>
              <path id="Trazado_899397" data-name="Trazado 899397" d="M23.913,31.727l-2.127-.273.043-.355,2.131.273Z" transform="translate(72.592 103.627)" fill="#29211c"/>
              <path id="Trazado_899398" data-name="Trazado 899398" d="M23.865,32.27l-2.153-.243.043-.355,2.149.243Z" transform="translate(72.347 105.538)" fill="#29211c"/>
              <path id="Trazado_899399" data-name="Trazado 899399" d="M23.847,32.741,21.693,32.5l.039-.355,2.153.243Z" transform="translate(72.285 107.107)" fill="#29211c"/>
              <path id="Trazado_899400" data-name="Trazado 899400" d="M23.731,33.315l-2.153-.243.039-.355,2.153.243Z" transform="translate(71.901 109.02)" fill="#29211c"/>
              <path id="Trazado_899401" data-name="Trazado 899401" d="M23.655,33.845,21.519,33.6l.039-.355,2.136.247Z" transform="translate(71.705 110.769)" fill="#29211c"/>
              <path id="Trazado_899402" data-name="Trazado 899402" d="M23.6,34.351l-2.153-.243.039-.355L23.637,34Z" transform="translate(71.457 112.47)" fill="#29211c"/>
              <path id="Trazado_899403" data-name="Trazado 899403" d="M23.482,34.9l-2.153-.243.039-.355,2.153.243Z" transform="translate(71.072 114.297)" fill="#29211c"/>
              <path id="Trazado_899404" data-name="Trazado 899404" d="M23.368,35.435l-2.153-.243.039-.355,2.153.243Z" transform="translate(70.692 116.084)" fill="#29211c"/>
              <path id="Trazado_899405" data-name="Trazado 899405" d="M23.246,35.966l-2.153-.243.039-.355,2.153.243Z" transform="translate(70.284 117.852)" fill="#29211c"/>
              <path id="Trazado_899406" data-name="Trazado 899406" d="M19.736,24.623l-.186-.308,1.326-.8.186.308Z" transform="translate(65.141 78.368)" fill="#29211c"/>
              <path id="Trazado_899407" data-name="Trazado 899407" d="M20.2,25.32l-.251-.256,1.313-1.278.251.256Z" transform="translate(66.476 79.262)" fill="#29211c"/>
              <path id="Trazado_899408" data-name="Trazado 899408" d="M20.671,25.73l-.269-.238,1.261-1.408.269.238Z" transform="translate(67.983 80.253)" fill="#29211c"/>
              <path id="Trazado_899409" data-name="Trazado 899409" d="M21.166,26.044l-.269-.238L22.158,24.4l.269.238Z" transform="translate(69.632 81.298)" fill="#29211c"/>
              <path id="Trazado_899410" data-name="Trazado 899410" d="M21.675,26.366l-.269-.238,1.261-1.408.269.238Z" transform="translate(71.327 82.372)" fill="#29211c"/>
              <path id="Trazado_899411" data-name="Trazado 899411" d="M92.723,15.675S76.413,47.3,74.255,58.208s-2.565,150.55-2.565,150.55l-32.487-1.6S56.1,69.177,61.2,55.323,84.1,12.309,84.1,12.309Z" transform="translate(130.632 41.017)" fill="#30aa93"/>
              <path id="Trazado_899412" data-name="Trazado 899412" d="M81.724,12.31s-21.617,25-24.931,44.889S40.417,212.553,40.417,212.553L60.3,215.673S66.722,92.35,66.93,82.148c.645-31.611,17.233-61.161,20.69-66.888.4-.658.81-.563.81-.563Z" transform="translate(134.674 41.02)" fill="#3eccb1"/>
              <path id="Trazado_899413" data-name="Trazado 899413" d="M54.543,26.472,42.162,166.547l6.134.962Z" transform="translate(140.488 88.21)" fill="#30aa93"/>
              <path id="Trazado_899414" data-name="Trazado 899414" d="M42.343,72.387c-3.934-38.534-3.916-12.173-3.916-12.173Z" transform="translate(128.043 171.322)" fill="#6eb5ed"/>
              <path id="Trazado_899415" data-name="Trazado 899415" d="M51.41,11.038s-9.141,1.984-8.339,7.473c.351,2.4,7.092,16.869,10.176,33.981,3.968,22,4.492,46.349,4.3,50.344-.342,7.1-.875,18.052-.875,18.052l12.572-6.117s-4.731-52.7-5.84-59.415S58.973,39.032,53.246,26.59c-1.482-3.227-3.977-10.336-3.977-10.336s2.413.29,2.14-5.216" transform="translate(143.349 36.782)" fill="#3bf2d6"/>
            </g>
          </g>
        </g>
      </g>
    </g>
  </g>
</svg>
