<svg xmlns="http://www.w3.org/2000/svg" xmlns:xlink="http://www.w3.org/1999/xlink" width="658.949" height="375.162" viewBox="0 0 658.949 375.162">
  <defs>
    <clipPath id="clip-path">
      <rect id="Rectángulo_413440" data-name="Rectángulo 413440" width="658.949" height="375.162" fill="none"/>
    </clipPath>
    <clipPath id="clip-path-2">
      <path id="Trazado_895496" data-name="Trazado 895496" d="M78.7,55.52C10.456,73.482-29.911,160.1,103.937,150.644c35.869-2.533,67.545-4.923,124.867-12.712,17.079-2.316,48.075.649,84.451,3.626,72.69,5.93,166.907,11.866,214.766-24.387,53.325-40.385-141.217-75.6-303.64-75.6C168.072,41.572,115.624,45.8,78.7,55.52" transform="translate(-15.429 -41.572)" fill="none"/>
    </clipPath>
  </defs>
  <g id="Grupo_1124849" data-name="Grupo 1124849" transform="translate(0 0)">
    <g id="Grupo_1124844" data-name="Grupo 1124844" transform="translate(0 0)">
      <g id="Grupo_1124843" data-name="Grupo 1124843" clip-path="url(#clip-path)">
        <path id="Trazado_895412" data-name="Trazado 895412" d="M308.682,347.774c51.194-7.023,227.4,33.633,299.217-20.761s67.8-176.419-11.662-220.819C518.747,62.888,495.973-16.745,388.074,4.608c-118.5,23.46-165.616,7.925-235.428-.364C71.092-5.435-3.463,62.875,11.17,187.514c10.334,88.034-118.992,217.4,297.512,160.261" transform="translate(-0.002 5.378)" fill="#fff1db"/>
        <path id="Trazado_895413" data-name="Trazado 895413" d="M46.321,39.373h71.405a1.035,1.035,0,0,0,0-2.069H46.321a1.035,1.035,0,0,0,0,2.069" transform="translate(234.458 193.119)" fill="#fff"/>
        <path id="Trazado_895414" data-name="Trazado 895414" d="M46.154,40.576h71.405a1.035,1.035,0,0,0,0-2.069H46.154a1.035,1.035,0,0,0,0,2.069" transform="translate(233.594 199.346)" fill="#fff"/>
        <path id="Trazado_895415" data-name="Trazado 895415" d="M45.986,41.778h71.405a1.035,1.035,0,0,0,0-2.069H45.986a1.035,1.035,0,0,0,0,2.069" transform="translate(232.724 205.569)" fill="#fff"/>
        <path id="Trazado_895416" data-name="Trazado 895416" d="M108.021,10.95l28.828,222.8H61.484Z" transform="translate(318.297 56.684)" fill="#235d61"/>
        <path id="Trazado_895417" data-name="Trazado 895417" d="M41.181,234.379a5.163,5.163,0,0,0,5.164,5.17H188.816a5.172,5.172,0,0,0,5.17-5.17l19.136-219.1a5.162,5.162,0,0,0-5.164-5.164H65.481c-3.064,0-4.979,2.341-5.17,5.164Z" transform="translate(213.191 52.353)" fill="#449fa9"/>
        <path id="Trazado_895418" data-name="Trazado 895418" d="M175,229.215l19.328-219.1H62.26l-19.328,219.1Z" transform="translate(222.26 52.352)" fill="#c1ebf0"/>
        <path id="Trazado_895419" data-name="Trazado 895419" d="M72.871,39.985A12.144,12.144,0,1,1,85.015,27.841,12.158,12.158,0,0,1,72.871,39.985m0-22.218A10.078,10.078,0,1,0,82.945,27.841,10.09,10.09,0,0,0,72.871,17.766" transform="translate(314.38 81.26)" fill="#fff"/>
        <path id="Trazado_895420" data-name="Trazado 895420" d="M68.069,28.771a1.025,1.025,0,0,1-.667-.247l-5.553-4.707a1.034,1.034,0,0,1,1.334-1.581l4.682,3.978,6.2-8.944a1.034,1.034,0,1,1,1.7,1.18l-6.838,9.877a1.053,1.053,0,0,1-.717.439l-.136.006" transform="translate(318.292 87.1)" fill="#fff"/>
        <path id="Trazado_895421" data-name="Trazado 895421" d="M48.332,18.363h71.405a1.035,1.035,0,0,0,0-2.069H48.332a1.035,1.035,0,0,0,0,2.069" transform="translate(244.869 84.351)" fill="#fff"/>
        <path id="Trazado_895422" data-name="Trazado 895422" d="M48.165,19.565H119.57a1.035,1.035,0,0,0,0-2.069H48.165a1.035,1.035,0,0,0,0,2.069" transform="translate(244.004 90.574)" fill="#fff"/>
        <path id="Trazado_895423" data-name="Trazado 895423" d="M48,20.767H119.4a1.035,1.035,0,0,0,0-2.069H48a1.035,1.035,0,0,0,0,2.069" transform="translate(243.135 96.796)" fill="#fff"/>
        <path id="Trazado_895424" data-name="Trazado 895424" d="M72.161,46.771A12.144,12.144,0,1,1,84.3,34.627,12.154,12.154,0,0,1,72.161,46.771m0-22.218A10.078,10.078,0,1,0,82.235,34.627,10.09,10.09,0,0,0,72.161,24.552" transform="translate(310.704 116.391)" fill="#fff"/>
        <path id="Trazado_895425" data-name="Trazado 895425" d="M67.359,35.556a1.025,1.025,0,0,1-.667-.247L61.139,30.6a1.032,1.032,0,1,1,1.334-1.575L67.155,33l6.2-8.944a1.034,1.034,0,0,1,1.7,1.18l-6.838,9.877a1.053,1.053,0,0,1-.717.439l-.136.006" transform="translate(314.616 122.225)" fill="#fff"/>
        <path id="Trazado_895426" data-name="Trazado 895426" d="M47.616,24.976h71.405a1.032,1.032,0,1,0,0-2.063H47.616a1.032,1.032,0,1,0,0,2.063" transform="translate(241.162 118.617)" fill="#fff"/>
        <path id="Trazado_895427" data-name="Trazado 895427" d="M47.448,26.183h71.405a1.035,1.035,0,0,0,0-2.069H47.448a1.035,1.035,0,0,0,0,2.069" transform="translate(240.293 124.835)" fill="#fff"/>
        <path id="Trazado_895428" data-name="Trazado 895428" d="M47.281,27.385h71.405a1.035,1.035,0,0,0,0-2.069H47.281a1.035,1.035,0,0,0,0,2.069" transform="translate(239.428 131.057)" fill="#fff"/>
        <path id="Trazado_895429" data-name="Trazado 895429" d="M71.592,54.184A12.144,12.144,0,1,1,83.736,42.04,12.158,12.158,0,0,1,71.592,54.184m0-22.218A10.078,10.078,0,1,0,81.666,42.04,10.085,10.085,0,0,0,71.592,31.965" transform="translate(307.758 154.768)" fill="#fff"/>
        <path id="Trazado_895430" data-name="Trazado 895430" d="M66.787,42.969a1.025,1.025,0,0,1-.667-.247l-5.553-4.713a1.034,1.034,0,0,1,1.34-1.575l4.676,3.978,6.2-8.944a1.034,1.034,0,1,1,1.7,1.18l-6.838,9.877a1.024,1.024,0,0,1-.717.432l-.136.012" transform="translate(311.668 160.602)" fill="#fff"/>
        <path id="Trazado_895431" data-name="Trazado 895431" d="M47.023,32.561h71.405a1.035,1.035,0,0,0,0-2.069H47.023a1.035,1.035,0,0,0,0,2.069" transform="translate(238.092 157.853)" fill="#fff"/>
        <path id="Trazado_895432" data-name="Trazado 895432" d="M46.856,33.763h71.405a1.035,1.035,0,0,0,0-2.069H46.856a1.035,1.035,0,0,0,0,2.069" transform="translate(237.228 164.076)" fill="#fff"/>
        <path id="Trazado_895433" data-name="Trazado 895433" d="M46.688,34.965h71.405a1.035,1.035,0,0,0,0-2.069H46.688a1.035,1.035,0,0,0,0,2.069" transform="translate(236.358 170.299)" fill="#fff"/>
        <path id="Trazado_895434" data-name="Trazado 895434" d="M83.777,10.113v5.732a1.5,1.5,0,0,1-1.5,1.5H55.851a1.5,1.5,0,0,1-1.5-1.5V10.113Z" transform="translate(281.366 52.353)" fill="#8dc4cd"/>
        <path id="Trazado_895435" data-name="Trazado 895435" d="M54.182,26.8v7.925a1.5,1.5,0,0,0,1.5,1.495H82.114a1.5,1.5,0,0,0,1.5-1.495V26.8a1.5,1.5,0,0,0-1.093-1.439h.006c-1.532-.463-9.216-2.279-9.216-7a6.848,6.848,0,1,0-8.765.049c-.068,4.676-7.845,6.523-9.364,6.974a1.506,1.506,0,0,0-1,1.415M65.616,13.122a3.283,3.283,0,1,1,3.28,3.286,3.283,3.283,0,0,1-3.28-3.286" transform="translate(280.497 32.499)" fill="#449fa9"/>
        <path id="Trazado_895436" data-name="Trazado 895436" d="M79.008,10.316s-.383-.043-1.05-.1-1.618-.136-2.767-.2C72.906,9.9,69.854,9.809,66.8,9.8c-3.051.012-6.1.1-8.388.222-1.143.056-2.1.154-2.767.2s-1.05.1-1.05.1.383.049,1.05.1,1.624.142,2.767.2c2.285.13,5.337.216,8.388.222s6.109-.093,8.394-.222c1.149-.062,2.1-.154,2.767-.2s1.05-.1,1.05-.1" transform="translate(282.614 50.717)" fill="#388790"/>
        <path id="Trazado_895437" data-name="Trazado 895437" d="M79.008,11.007s-.383-.043-1.05-.1-1.618-.136-2.767-.2c-2.285-.13-5.337-.216-8.394-.222s-6.1.093-8.388.222c-1.143.056-2.1.148-2.767.2s-1.05.1-1.05.1.383.043,1.05.1,1.624.142,2.767.2c2.285.13,5.337.216,8.388.222s6.109-.093,8.394-.222c1.149-.062,2.1-.154,2.767-.2s1.05-.1,1.05-.1" transform="translate(282.614 54.294)" fill="#388790"/>
        <path id="Trazado_895438" data-name="Trazado 895438" d="M162.139,154.156H36.457l10.1-127.832H147.512Z" transform="translate(188.734 136.279)" fill="#3d5d81"/>
        <path id="Trazado_895439" data-name="Trazado 895439" d="M42.744,73.713a1.351,1.351,0,0,1-1.359-1.34c-.012-1.285-.179-31.583,13.657-45.567a22.3,22.3,0,0,1,16.406-6.869c30.248,0,31.138,50.274,31.156,52.411a1.356,1.356,0,0,1-1.34,1.365h-.012a1.351,1.351,0,0,1-1.359-1.34c-.006-.494-.871-49.73-28.445-49.73A19.749,19.749,0,0,0,56.97,28.708C43.924,41.9,44.091,72.039,44.1,72.348a1.358,1.358,0,0,1-1.347,1.365Z" transform="translate(214.241 103.211)" fill="#2a435f"/>
        <path id="Trazado_895440" data-name="Trazado 895440" d="M160.53,154.156H34.848l10.1-127.832H150.431Z" transform="translate(180.407 136.279)" fill="#496d98"/>
        <path id="Trazado_895441" data-name="Trazado 895441" d="M41.421,73.713a1.35,1.35,0,0,1-1.353-1.34c-.019-1.285-.179-31.583,13.657-45.567a22.3,22.3,0,0,1,16.406-6.869c30.242,0,31.132,50.274,31.156,52.411a1.358,1.358,0,0,1-1.347,1.365h-.012a1.35,1.35,0,0,1-1.353-1.34c-.006-.494-.871-49.73-28.445-49.73a19.749,19.749,0,0,0-14.479,6.066C42.607,41.9,42.774,72.039,42.78,72.348a1.358,1.358,0,0,1-1.347,1.365Z" transform="translate(207.422 103.211)" fill="#2a435f"/>
        <path id="Trazado_895442" data-name="Trazado 895442" d="M54.867,52.28l-5.325-2.261L44.181,52.28V26.324H54.867Z" transform="translate(228.723 136.278)" fill="#fff"/>
        <path id="Trazado_895443" data-name="Trazado 895443" d="M58.2,34.724l-20.89,78.009H51.009Z" transform="translate(193.174 179.761)" fill="#3e5e83"/>
        <path id="Trazado_895444" data-name="Trazado 895444" d="M113.728,110.675H39.055l9.1-75.952h59.564Z" transform="translate(202.187 179.76)" fill="#7b8eaa"/>
        <path id="Trazado_895445" data-name="Trazado 895445" d="M43.367,63.3a1.032,1.032,0,0,1-1.032-1.025c-.012-.766-.1-18.858,8.178-27.234a13.486,13.486,0,0,1,9.908-4.151c18.191,0,18.722,30.088,18.735,31.366a1.032,1.032,0,1,1-2.063.019c-.006-.29-.513-29.316-16.672-29.316a11.489,11.489,0,0,0-8.438,3.533C44.3,44.265,44.4,62.079,44.4,62.258A1.033,1.033,0,0,1,43.379,63.3Z" transform="translate(219.159 159.924)" fill="#2a435f"/>
        <path id="Trazado_895446" data-name="Trazado 895446" d="M114.948,110.675H40.275l6-75.952H108.95Z" transform="translate(208.499 179.76)" fill="#c9daf0"/>
        <path id="Trazado_895447" data-name="Trazado 895447" d="M44.372,63.3a1.032,1.032,0,0,1-1.032-1.025c-.012-.766-.105-18.858,8.178-27.234a13.486,13.486,0,0,1,9.908-4.151c18.2,0,18.728,30.088,18.741,31.366a1.035,1.035,0,1,1-2.069.019c0-.29-.513-29.316-16.672-29.316a11.479,11.479,0,0,0-8.438,3.533C45.3,44.265,45.4,62.079,45.4,62.258A1.033,1.033,0,0,1,44.384,63.3Z" transform="translate(224.362 159.924)" fill="#2a435f"/>
        <path id="Trazado_895448" data-name="Trazado 895448" d="M129.436,27.332c-7.153,2.075-12.138,25.393-15.146,31.91S51.477,85.729,33.836,94.463c-8.425,8.425-15.529,27.438-15.529,45.851,9.1,2.916,108.183-65.432,108.183-65.432s3.119-26.1,3.119-39.52c7.276,0,18.413,5.417,20.514.383,1.377-3.3-13.534-10.488-20.687-8.413" transform="translate(94.774 139.579)" fill="#db754d"/>
        <path id="Trazado_895449" data-name="Trazado 895449" d="M45.568,36.719c11.724,3.57,85.334,4.417,91.505,5.139S163.251,30.1,175.926,38.2c10.711,6.85,35.832,25.77,24.2,37.173a6.3,6.3,0,0,1-4.7,3.929c-1.767,3.589-4.565,3.953-6.282,3.336-1.427,2.113-3.8,3.527-5.819.97-7.239-4.188-37.049-15.115-43.208-17.53S58.077,86.548,29.045,83.163c-1.272-7.981-.655-41.089,16.523-46.444" transform="translate(148.19 183.555)" fill="#ef703a"/>
        <path id="Trazado_895450" data-name="Trazado 895450" d="M67.764,61.254c.778-1.946.179-4.4-.568-6.257a19.563,19.563,0,0,0-1.631-3.156c-.71-1.075-1.476-2.088-2.248-3.119a61.51,61.51,0,0,0-5.306-5.535c-1.563-1.427-3.156-2.817-4.725-4.244a60.43,60.43,0,0,1,5.362,3.8A42.409,42.409,0,0,1,64.1,48.079c.8,1.081,1.575,2.131,2.273,3.28a17.274,17.274,0,0,1,1.476,3.224c.7,2.008,1.093,4.756-.086,6.671" transform="translate(275.853 201.604)" fill="#c1572c"/>
        <path id="Trazado_895451" data-name="Trazado 895451" d="M67.763,61.4a11.7,11.7,0,0,0-.679-6.541A21.647,21.647,0,0,0,65.638,51.6c-.649-1.124-1.34-2.193-2.051-3.28A37.2,37.2,0,0,0,58.738,42.6c-1.5-1.5-3.033-2.965-4.546-4.447a56.4,56.4,0,0,1,5.065,3.91c.976.852,1.878,1.779,2.767,2.718A21.573,21.573,0,0,1,64.514,47.9a24.407,24.407,0,0,1,3.311,6.764,10.365,10.365,0,0,1-.062,6.739" transform="translate(280.548 197.529)" fill="#c1572c"/>
        <path id="Trazado_895452" data-name="Trazado 895452" d="M64.851,59.434a4,4,0,0,0,.086-2.644,12.119,12.119,0,0,0-1.167-3,43.511,43.511,0,0,0-3.712-5.436c-2.31-2.953-5-5.572-7.425-8.419a51.372,51.372,0,0,1,8.685,8.376A22.994,22.994,0,0,1,64.425,53.3a10.755,10.755,0,0,1,.964,3.379,3.857,3.857,0,0,1-.537,2.755" transform="translate(272.478 206.765)" fill="#c1572c"/>
        <path id="Trazado_895453" data-name="Trazado 895453" d="M88.719,15.864C53.974,27.223,48.89,30.262,30.181,77.7S13.367,179.787,0,215.867C.649,243.577,12.49,255.906,27.395,265c19.748,12.051,44.344,16.146,62.338,17.672,0-23.386,24.677-90.924,40.545-124.329,22.552,15.368,31.311,35.6,46.957,26.246,5.689-9.926,6.622-36.537,16.529-46.444-2.3-7.2-5.516-8.981-13.311-11.211s-12.7-12.026-18.932-18.265C155.282,92.2,141.983,58.46,131.748,48.225c-12.193-17.376-33-29.464-43.029-32.361" transform="translate(0 82.125)" fill="#d1c4e9"/>
        <path id="Trazado_895454" data-name="Trazado 895454" d="M72.155,104.713c2.829-6.338,5.238-12.632,7.876-18.185C67.46,76.428,27.52,43.536,9.706,29.737c17.987,19.278,49.539,53.375,62.449,74.976" transform="translate(50.247 153.945)" fill="#a79dba"/>
        <path id="Trazado_895455" data-name="Trazado 895455" d="M78.4,85.785a.751.751,0,0,1-.605-.3c-.309-.383-31.045-38.976-61.8-64.024a.773.773,0,0,1,.976-1.2C47.864,45.418,78.7,84.142,79.008,84.525a.775.775,0,0,1-.605,1.26" transform="translate(81.333 104.006)" fill="#a79dba"/>
        <path id="Trazado_895456" data-name="Trazado 895456" d="M80.685,87.954a.786.786,0,0,1-.488-.173c-.389-.309-39.5-31.694-70.331-56.8a.775.775,0,1,1,.982-1.2c30.823,25.1,69.929,56.476,70.318,56.791a.772.772,0,0,1-.482,1.377" transform="translate(49.593 153.29)" fill="#a79dba"/>
        <path id="Trazado_895457" data-name="Trazado 895457" d="M44.755,34.5A75.433,75.433,0,0,0,32.2,54.107a85.84,85.84,0,0,0-4.281,12.267A108.416,108.416,0,0,0,26,77.258a44.587,44.587,0,0,1,.34-10.81,57.734,57.734,0,0,1,3.824-12.854,57.1,57.1,0,0,1,6.708-11.149,39.558,39.558,0,0,1,7.882-7.95" transform="translate(133.733 178.577)" fill="#a79dba"/>
        <path id="Trazado_895458" data-name="Trazado 895458" d="M26.786,83.857c-2.174-13.781-5.294-23.633-8.919-35.239S17.249,9.3,44.947,1.685c22.91-6.3,54.759,7.1,71.442,7.1s16.437,17.561-3.873,26.987C86.771,52.089,51.445,91.109,26.786,83.857" transform="translate(86.079 -0.001)" fill="#2e1c1c"/>
        <path id="Trazado_895459" data-name="Trazado 895459" d="M121.823,39.864c.445-2.415,4.867-25.449,4.009-32.639-7.616,0-30.421-5.4-33.318,2.211S80.9,13.34,76.521,22.142,70.153,33.218,65.131,35.2c2.9-16.319-8.882-20.489-15.591-16.134-9.037,5.862-4.169,20.229,0,24.4C35.031,61.959,27.415,64.053,14.363,70.217c11.606,17.771,34.27,36.6,44.6,46.939,0-11.965.729-21.755,9.79-30.823,10.884,2.9,25.838,9.451,33.726,2.539,5.707-5,9.9-13.25,13.305-23.892,4.064,1.365,8.858,2.668,9.685-.945,1.229-5.337-4.1-21.755-3.651-24.17" transform="translate(74.356 27.772)" fill="#ff885a"/>
        <path id="Trazado_895460" data-name="Trazado 895460" d="M35.441,14.968c-.352,2.23-1.835,3.854-3.317,3.626s-2.4-2.23-2.051-4.46,1.841-3.854,3.317-3.62,2.4,2.23,2.051,4.454" transform="translate(155.309 54.316)" fill="#2e1c1c"/>
        <path id="Trazado_895461" data-name="Trazado 895461" d="M37.821,11.829a31.849,31.849,0,0,0-3.935-.908,17.614,17.614,0,0,0-3.953.093c2.162-2,6.072-1.421,7.888.815" transform="translate(154.961 50.692)" fill="#d56537"/>
        <path id="Trazado_895462" data-name="Trazado 895462" d="M44.725,15.486c2.255-.927,1.723-5.8-4.713-7.165C35.293,7.326,29.128,9.593,29.128,11.9s5.263.877,9.3,2c2.446.679,4.756,2.224,6.3,1.587" transform="translate(150.794 41.828)" fill="#2e1c1c"/>
        <path id="Trazado_895463" data-name="Trazado 895463" d="M20.057,11.532A13.492,13.492,0,0,0,23.4,12.588c1.18.216,2.366.086,3.552.229-2.045,1.365-5.757,1.291-6.893-1.285" transform="translate(103.834 59.699)" fill="#d56537"/>
        <path id="Trazado_895464" data-name="Trazado 895464" d="M28.606,18.966c0-5.077-.908-12.15-5.442-10.155S19.9,19.33,24.424,23.135c0-3.447.735-5.077,4.182-4.169" transform="translate(105.261 43.821)" fill="#d56537"/>
        <path id="Trazado_895465" data-name="Trazado 895465" d="M22.091,14.285c-2.582,8.394-.927,20.81,8.506,30.428a33.413,33.413,0,0,1,3.824-4.559c-5.1-2.1-12.329-9.185-12.329-25.869" transform="translate(108.693 73.951)" fill="#d56537"/>
        <path id="Trazado_895466" data-name="Trazado 895466" d="M36.722,23.317a6.849,6.849,0,0,1-7.888-8.3c.71,1.767,1.223,3.57,2.631,4.948A11.619,11.619,0,0,0,34.14,22a19.61,19.61,0,0,1,2.582,1.316" transform="translate(148.184 77.73)" fill="#d56537"/>
        <path id="Trazado_895467" data-name="Trazado 895467" d="M93.653,8.182c9.445.432,28.951,8.592,27.456,41.021s32.33,72.177-9.21,97.083c-11.835-16.956-13.157-26-17.215-30.452,2.533-13.768.649-20.8,4.454-41.762s5.905-39.174-4.4-41.54c-1.3-13-4.083-14.077-1.087-24.349" transform="translate(477.905 42.356)" fill="#2e1c1c"/>
        <path id="Trazado_895468" data-name="Trazado 895468" d="M90.385,7.523c8.073-1.736,18.525-.2,17.728,17.011s.414,22.947-15.461,20.538c.63-13.651,1.433-31.064-2.267-37.55" transform="translate(467.917 36.096)" fill="#c73c36"/>
        <path id="Trazado_895469" data-name="Trazado 895469" d="M90.6,64.95C78.145,61.429,60.88,48.013,92.723,18.975c9-8.209,28.21-18.79,57.445-14.077s36.9,33.522,28.76,53.888c-7.845,19.624-9.661,33.825-21.551,36.222C145.3,106.021,100.913,71.146,90.6,64.95" transform="translate(386.169 19.326)" fill="#2e1c1c"/>
        <path id="Trazado_895470" data-name="Trazado 895470" d="M151.141,59.414c3.786-3.453,9.333-14.979,4.41-20.378s-14.312-4.373-18.661,7.734C128.533,43.224,122.863,43,120.521,32.3s-7.1-10.285-15.844-12.267S94.307,12.3,90.7,8.349c-3,8.3-6.838,30.761-7.258,39.81-.117,2.668-8.722,15.893-8.382,18.8.216,1.785,5.386,2.02,9.123,1.186,1.266,12.552,4.565,22.533,12.632,26.635,3.187,1.618,14.621-.062,23.892-4.892,9.914,10.871,15.5,12.706,21.446,34.436,7.091-10.087,26.74-24.331,37.9-27.284C169.066,85,158.93,75.233,151.141,59.414" transform="translate(388.526 43.22)" fill="#ff885a"/>
        <path id="Trazado_895471" data-name="Trazado 895471" d="M77.333,17.761c-.21,2.02.7,3.774,2.045,3.91s2.6-1.377,2.811-3.4-.7-3.768-2.045-3.91-2.6,1.384-2.811,3.4" transform="translate(400.193 74.279)" fill="#2e1c1c"/>
        <path id="Trazado_895472" data-name="Trazado 895472" d="M77.275,14.632a5.479,5.479,0,0,1,3.743-.877,5.228,5.228,0,0,1,2.286.859c.1.074,1.137.964,1.013,1.13a13.849,13.849,0,0,0-3.095-.927c-1.309-.148-2.625-.167-3.947-.185" transform="translate(400.048 71.059)" fill="#d56537"/>
        <path id="Trazado_895473" data-name="Trazado 895473" d="M77.545,16.014c-1.742-1.328-.229-3.861,5.677-3.552,4.336.222,9.34,2.069,8.7,4.052-.445,1.377-2.687-.778-8.506-1.05-3.416-.154-4.682,1.458-5.874.55" transform="translate(397.931 64.383)" fill="#2e1c1c"/>
        <path id="Trazado_895474" data-name="Trazado 895474" d="M77.019,24.385a14.384,14.384,0,0,1,1.76-.741,10.411,10.411,0,0,0,2.378-1.421c1.328-.84,2.112-2.316,3.088-3.49.241,3.576-3.638,7.153-7.227,5.652" transform="translate(398.722 96.978)" fill="#d56537"/>
        <path id="Trazado_895475" data-name="Trazado 895475" d="M96.583,16.616c-2.4,3.237-7.5,3.867-10.995,2.335,3.9-.062,7.486-.463,10.995-2.335" transform="translate(443.083 86.018)" fill="#d56537"/>
        <path id="Trazado_895476" data-name="Trazado 895476" d="M85.93,20.956c1.791-4.651,4.793-8.141,7.561-6.591S93.744,26.052,87.073,27c.914-2.8.432-4.318-1.143-6.047" transform="translate(444.854 72.432)" fill="#d56537"/>
        <path id="Trazado_895477" data-name="Trazado 895477" d="M82.441,32.824C84,34.535,85.449,36.018,86.814,37.4A43.857,43.857,0,0,0,98.68,19.371c-4.114,7.073-11.038,10.223-16.239,13.453" transform="translate(426.792 100.281)" fill="#d56537"/>
        <path id="Trazado_895478" data-name="Trazado 895478" d="M81.6,62.441c-2.341-3.78-5.93-24.479-11.458-17.3-1.9-5.565-5.948-6.937-7.147-.834-1.4-5.7-6.6-6.653-7.276-.846-3.014-3.805-8.827-4.46-7.141.859s2.378,15.084,7.8,13.608c3.366,4.25,7.7,3.78,8.771,2.162,2.032,2.563,6.282,2.977,7.554-.259,2.545,3.212,4.577,3.972,8.895,2.607" transform="translate(249.913 204.729)" fill="#ff885a"/>
        <path id="Trazado_895479" data-name="Trazado 895479" d="M68.972,46.312c-5.7,4.5-15.35,8.586-18.111,5.09S66.112,34.138,71.832,34.8s18.7,14.843,24.115,17.981c2.724,1.587,6.819.161,11.4-.179,1.977,7.381.185,20.032-4.583,23.713-1.717,0-5.108.068-6.22.068-3.4,0-7.332-.439-8.357.371,1.248-3.564,6.183-10.4-19.216-30.446" transform="translate(261.821 180.058)" fill="#ff885a"/>
        <path id="Trazado_895480" data-name="Trazado 895480" d="M51.942,40.453c.556,2.5.939,5.022,1.365,7.536.4,2.378.92,4.762,1.2,7.153a26.758,26.758,0,0,1-2.193-6.992,24.779,24.779,0,0,1-.371-7.7" transform="translate(268.11 209.421)" fill="#e57040"/>
        <path id="Trazado_895481" data-name="Trazado 895481" d="M50.944,40.318c.358,2.7.655,5.4,1.025,8.1.216,1.569.426,3.144.679,4.713.161.988.352,1.97.457,2.965a27.254,27.254,0,0,1-2.082-7.178,24.818,24.818,0,0,1-.08-8.6" transform="translate(261.961 208.722)" fill="#e57040"/>
        <path id="Trazado_895482" data-name="Trazado 895482" d="M50.04,40.181c.229,2.533.309,5.077.408,7.616.056,1.353.13,2.693.161,4.04l.1,2.811a3.486,3.486,0,0,1-.253-.778,17.683,17.683,0,0,1-.513-1.946,36.221,36.221,0,0,1-.519-4.466,23.245,23.245,0,0,1,.618-7.276" transform="translate(255.589 208.013)" fill="#e57040"/>
        <path id="Trazado_895483" data-name="Trazado 895483" d="M51.471,45.593a19.271,19.271,0,0,0,3.966-1.439,32.36,32.36,0,0,0,4.608-2.526c2.712-1.674,5.17-3.688,7.789-5.5a31.037,31.037,0,0,1-7.252,6.368,21.647,21.647,0,0,1-4.521,2.224,12.445,12.445,0,0,1-4.589.877" transform="translate(266.462 187.01)" fill="#d86333"/>
        <path id="Trazado_895484" data-name="Trazado 895484" d="M131.168,48.836c-8.87-1.384-23.071-8.771-32.163-4.157C78.77,54.932,49.1,60.609,48.089,62.7c-1.618,3.329,1.847,6.381,10.439,6.381s62.208,1.662,75.6-1.39c6.146-6.14,3.088-17.456-2.959-18.852" transform="translate(246.953 223.54)" fill="#ff885a"/>
        <path id="Trazado_895485" data-name="Trazado 895485" d="M49.478,55.56c8.586-7.276,22.848-9.827,36.2-9.976-12.774,1.476-26.938,4.083-36.2,9.976" transform="translate(256.144 235.984)" fill="#d56537"/>
        <path id="Trazado_895486" data-name="Trazado 895486" d="M48.391,59.976c8.642-9.735,26.518-13.132,41.466-15.245-14.4,3.329-32.058,6.6-41.466,15.245" transform="translate(250.517 231.568)" fill="#d56537"/>
        <path id="Trazado_895487" data-name="Trazado 895487" d="M254.234,20.662C272.8,25.7,275.773,32.651,294.686,86.4s21.347,69.256,38.161,105.4c-22.138,35.054-48.884,49.656-89.034,56.951-7.567-24.183-13.75-57.322-34.263-77.836-9.142,10.192-14.293,16.177-24.38,16.177s-94.983-2.1-110.116,0c.136-7.276-.655-16.511-2.5-21.687,8.827-2.52,39.65-10.495,52.683-13.021-19.216.673-1.359.093-66.217-2.971,3.786-6.8,4.583-15.93,4.583-23.713,50.842-5.553,75.149-13.768,94.847-13,8.907-12.7,32.522-29.328,46.6-45.722,5.918-12.138,8.734-21.749,13.132-26.147,13.75-13.75,20.625-20.174,36.042-20.174" transform="translate(305.563 106.964)" fill="#a5d6a7"/>
        <path id="Trazado_895488" data-name="Trazado 895488" d="M82.171,52.5a.779.779,0,0,1-.778-.778c0-7.993-6.041-14.831-6.109-14.9a.776.776,0,0,1,1.149-1.044c.29.321,6.51,7.344,6.51,15.949a.774.774,0,0,1-.772.778" transform="translate(388.715 183.911)" fill="#87af87"/>
        <path id="Trazado_895489" data-name="Trazado 895489" d="M70.456,132.978a.774.774,0,0,1-.161-1.532c17.227-3.589,44.19-9.445,51.639-9.692,4.281-9.228,10.025-25.22,16.1-42.139,7.7-21.446,15.671-43.622,21.619-54.759a.775.775,0,0,1,1.365.735C155.13,36.624,147.18,58.744,139.5,80.141c-6.189,17.221-12.033,33.491-16.357,42.707l-.21.445h-.494c-6.566,0-34.01,5.812-34.288,5.868-.056.012-17.635,3.817-17.691,3.817" transform="translate(360.731 126.569)" fill="#87af87"/>
        <path id="Trazado_895490" data-name="Trazado 895490" d="M88.116,52.258a.768.768,0,0,1-.729-.507c-2.384-6.368-8.833-10.062-8.895-10.1a.776.776,0,0,1,.76-1.353c.284.161,7,4.009,9.587,10.915a.767.767,0,0,1-.451.994.814.814,0,0,1-.272.049" transform="translate(404.297 208.111)" fill="#87af87"/>
        <path id="Trazado_895491" data-name="Trazado 895491" d="M128.077,34.134C117.286,55.148,93.06,87.089,83.393,101.172a78.121,78.121,0,0,1,11.884,15.609c8.444-19.822,22.694-55.166,32.8-82.647" transform="translate(431.72 176.708)" fill="#87af87"/>
        <path id="Trazado_895492" data-name="Trazado 895492" d="M84.048,108.846a.791.791,0,0,1-.469-.154.773.773,0,0,1-.154-1.087c.408-.544,40.935-54.518,47.76-74.284a.785.785,0,0,1,.994-.476.77.77,0,0,1,.476.982c-6.9,19.995-46.315,72.486-47.989,74.71a.778.778,0,0,1-.618.309" transform="translate(431.065 169.806)" fill="#87af87"/>
      </g>
    </g>
    <g id="Grupo_1124846" data-name="Grupo 1124846" transform="translate(95.305 256.786)">
      <g id="Grupo_1124845" data-name="Grupo 1124845" clip-path="url(#clip-path-2)">
        <path id="Trazado_895493" data-name="Trazado 895493" d="M21.859,53.718c28.636,15.387,50,47.618,50,68.484H372.493c0-20.866,21.372-53.1,50-68.484-12.589-6.473-388.047-6.473-400.636,0" transform="translate(17.857 -3.827)" fill="#624a42"/>
        <path id="Rectángulo_413441" data-name="Rectángulo 413441" d="M1.038,0H412.131a1.038,1.038,0,0,1,1.038,1.038V15.2a1.037,1.037,0,0,1-1.037,1.037H1.037A1.037,1.037,0,0,1,0,15.2V1.038A1.038,1.038,0,0,1,1.038,0Z" transform="translate(33.301 33.653)" fill="#624a42"/>
        <path id="Trazado_895494" data-name="Trazado 895494" d="M133.337,118.133H273.059c0-20.872,21.372-53.1,50-68.484h-282c63.468,21.026,86.625,57.656,92.271,68.484" transform="translate(117.291 0.242)" fill="#57403a"/>
        <path id="Trazado_895495" data-name="Trazado 895495" d="M423.365,51.55H22.729a1.035,1.035,0,1,1,0-2.069H423.365a1.035,1.035,0,0,1,0,2.069" transform="translate(16.988 -0.628)" fill="#a88176"/>
      </g>
    </g>
    <g id="Grupo_1124848" data-name="Grupo 1124848" transform="translate(0 0)">
      <g id="Grupo_1124847" data-name="Grupo 1124847" clip-path="url(#clip-path)">
        <path id="Trazado_895497" data-name="Trazado 895497" d="M75.489,24.231A19.145,19.145,0,1,1,56.34,5.082,19.149,19.149,0,0,1,75.489,24.231" transform="translate(192.572 26.307)" fill="#496d98"/>
        <path id="Trazado_895498" data-name="Trazado 895498" d="M58.185,22.824H42.434a2.334,2.334,0,0,1-2.211-2.15L38.363,9.728a2.231,2.231,0,0,1,2.218-2.285H60.044a2.23,2.23,0,0,1,2.224,2.224L60.4,20.662c-.34,1.4-1.124,2.162-2.218,2.162M40.581,8.184A1.487,1.487,0,0,0,39.1,9.667l1.853,10.871c.093.457.432,1.544,1.482,1.544H58.185c.735,0,1.242-.531,1.495-1.569L61.527,9.6a1.475,1.475,0,0,0-1.482-1.421Z" transform="translate(198.603 38.53)" fill="#fff"/>
        <path id="Trazado_895499" data-name="Trazado 895499" d="M39.786,16.312a.968.968,0,0,1-.445-.111.938.938,0,0,1-.371-1.26L43.5,6.614a.926.926,0,1,1,1.625.889L40.6,15.83a.925.925,0,0,1-.815.482" transform="translate(201.176 31.736)" fill="#fff"/>
        <path id="Trazado_895500" data-name="Trazado 895500" d="M46.182,16.312a.925.925,0,0,1-.815-.482L40.839,7.5a.926.926,0,1,1,1.625-.889L47,14.941a.938.938,0,0,1-.371,1.26.968.968,0,0,1-.445.111" transform="translate(210.828 31.736)" fill="#fff"/>
        <path id="Trazado_895501" data-name="Trazado 895501" d="M40.608,22.824a.372.372,0,0,1-.371-.371V7.814a.371.371,0,1,1,.741,0V22.453a.372.372,0,0,1-.371.371" transform="translate(208.304 38.53)" fill="#fff"/>
        <path id="Trazado_895502" data-name="Trazado 895502" d="M59.9,9.369h-21a.371.371,0,1,1,0-.741h21a.371.371,0,0,1,0,.741" transform="translate(199.436 44.665)" fill="#fff"/>
        <path id="Trazado_895503" data-name="Trazado 895503" d="M59,9.99H38.988a.371.371,0,0,1,0-.741H59a.371.371,0,1,1,0,.741" transform="translate(199.918 47.88)" fill="#fff"/>
        <path id="Trazado_895504" data-name="Trazado 895504" d="M61.312,8.789H38.785a.371.371,0,1,1,0-.741H61.312a.371.371,0,1,1,0,.741" transform="translate(198.867 41.662)" fill="#fff"/>
        <path id="Trazado_895505" data-name="Trazado 895505" d="M41.11,22.824h-.025a.373.373,0,0,1-.346-.4l.927-14.639a.355.355,0,0,1,.4-.346.373.373,0,0,1,.346.4l-.927,14.639a.371.371,0,0,1-.371.346" transform="translate(210.903 38.53)" fill="#fff"/>
        <path id="Trazado_895506" data-name="Trazado 895506" d="M41.6,22.826h-.049a.379.379,0,0,1-.321-.42L43.09,7.767a.37.37,0,1,1,.735.093L41.965,22.5a.367.367,0,0,1-.364.321" transform="translate(213.432 38.528)" fill="#fff"/>
        <path id="Trazado_895507" data-name="Trazado 895507" d="M40.886,22.824a.371.371,0,0,1-.371-.346L39.589,7.839a.373.373,0,0,1,.346-.4.365.365,0,0,1,.4.346l.927,14.639a.373.373,0,0,1-.346.4Z" transform="translate(204.944 38.53)" fill="#fff"/>
        <path id="Trazado_895508" data-name="Trazado 895508" d="M41.176,22.826a.367.367,0,0,1-.364-.321L38.952,7.859a.37.37,0,1,1,.735-.093l1.859,14.639a.379.379,0,0,1-.327.42h-.043" transform="translate(201.639 38.528)" fill="#fff"/>
        <path id="Trazado_895509" data-name="Trazado 895509" d="M86.336,30.286A19.145,19.145,0,1,1,67.187,11.138,19.149,19.149,0,0,1,86.336,30.286" transform="translate(248.726 57.659)" fill="#496d98"/>
        <path id="Trazado_895510" data-name="Trazado 895510" d="M71.79,28.563a.431.431,0,0,0-.093-.6l-4.157-2.99a.433.433,0,0,0-.6.1.423.423,0,0,0,.056.55c-.772.957-3.527,3.885-9.222-.216s-3.8-7.641-3.138-8.672a.433.433,0,0,0,.544-.124.44.44,0,0,0-.1-.605l-4.157-2.983a.428.428,0,0,0-.6.1.422.422,0,0,0,.049.544C46.4,19.859,54.8,26.5,56.243,27.531s10.4,6.893,15.016,1.161a.424.424,0,0,0,.531-.13" transform="translate(255.316 66.986)" fill="#fff"/>
        <path id="Trazado_895511" data-name="Trazado 895511" d="M54.99,17.628a.179.179,0,0,1-.111-.031.236.236,0,0,1-.1-.321c.043-.074.976-1.865-.445-2.983s-2.8.3-2.866.358a.238.238,0,1,1-.34-.334,2.615,2.615,0,0,1,3.5-.4c1.736,1.365.581,3.564.568,3.589a.234.234,0,0,1-.21.124" transform="translate(264.333 69.335)" fill="#fff"/>
        <path id="Trazado_895512" data-name="Trazado 895512" d="M57.738,20.257a.31.31,0,0,1-.148-.037.318.318,0,0,1-.13-.432c.074-.136,1.76-3.379-.815-5.4s-5.1.537-5.207.642a.308.308,0,0,1-.445.006.313.313,0,0,1-.012-.445c.031-.031,3.045-3.07,6.06-.7,3,2.36,1,6.171.976,6.208a.317.317,0,0,1-.278.167" transform="translate(263.475 67.206)" fill="#fff"/>
        <path id="Trazado_895513" data-name="Trazado 895513" d="M61.48,24.12a.349.349,0,0,1-.185-.049.4.4,0,0,1-.167-.537c.124-.222,2.9-5.553-1.34-8.889s-8.407.871-8.58,1.05a.4.4,0,1,1-.574-.55c.049-.049,4.849-4.9,9.642-1.124,4.775,3.756,1.587,9.828,1.557,9.889a.4.4,0,0,1-.352.21" transform="translate(261.556 65.147)" fill="#fff"/>
        <path id="Trazado_895514" data-name="Trazado 895514" d="M98.928,24.212A19.145,19.145,0,1,1,79.779,5.064,19.149,19.149,0,0,1,98.928,24.212" transform="translate(313.914 26.214)" fill="#496d98"/>
        <path id="Rectángulo_413442" data-name="Rectángulo 413442" d="M.234,0H24.6a.235.235,0,0,1,.235.235v16.5a.235.235,0,0,1-.235.235H.234A.234.234,0,0,1,0,16.74V.234A.234.234,0,0,1,.234,0Z" transform="translate(381.276 41.935)" fill="#fff"/>
        <path id="Trazado_895515" data-name="Trazado 895515" d="M73.72,16.851a.356.356,0,0,1-.229-.08L61.947,7.709a.379.379,0,0,1-.062-.525.373.373,0,0,1,.519-.062L73.72,16.011,84.9,7.2a.366.366,0,0,1,.519.062.371.371,0,0,1-.062.519L73.949,16.771a.356.356,0,0,1-.229.08" transform="translate(319.973 36.466)" fill="#496d98"/>
        <path id="Trazado_895516" data-name="Trazado 895516" d="M71.774,16.643a.393.393,0,0,1-.278-.117L64.479,8.569a.378.378,0,0,1,.031-.525.367.367,0,0,1,.525.037l7.017,7.944a.371.371,0,0,1-.031.525.354.354,0,0,1-.247.093" transform="translate(333.328 41.159)" fill="#496d98"/>
        <path id="Trazado_895517" data-name="Trazado 895517" d="M62.178,16.728a.33.33,0,0,1-.241-.093.364.364,0,0,1-.037-.519l7-8.055a.372.372,0,0,1,.562.488l-7,8.049a.36.36,0,0,1-.278.13" transform="translate(319.977 41.074)" fill="#496d98"/>
      </g>
    </g>
  </g>
</svg>
