<svg id="Grupo_1126153" data-name="Grupo 1126153" xmlns="http://www.w3.org/2000/svg" xmlns:xlink="http://www.w3.org/1999/xlink" width="85" height="84.791" viewBox="0 0 85 84.791">
  <defs>
    <clipPath id="clip-path">
      <rect id="Rectángulo_415896" data-name="Rectángulo 415896" width="85" height="84.791" fill="none"/>
    </clipPath>
  </defs>
  <g id="Grupo_1126152" data-name="Grupo 1126152" transform="translate(0 0)" clip-path="url(#clip-path)">
    <path id="Trazado_900202" data-name="Trazado 900202" d="M42.749,22.373H2.625A1.735,1.735,0,0,1,.89,20.637V7.06A1.735,1.735,0,0,1,2.625,5.325H42.749A1.735,1.735,0,0,1,44.484,7.06V20.637a1.735,1.735,0,0,1-1.735,1.735" transform="translate(0.455 2.725)" fill="#f9d335"/>
    <path id="Trazado_900203" data-name="Trazado 900203" d="M60.136,6.717H34.611L31.282,24.446a3.862,3.862,0,0,0,.311,2.414c1.289,2.518,5.018,8.1,12.534,7.57h6.489c7.516.532,11.246-5.052,12.536-7.57a3.872,3.872,0,0,0,.31-2.414Z" transform="translate(15.969 3.437)" fill="#87828e"/>
    <path id="Trazado_900204" data-name="Trazado 900204" d="M42.578,7.636H34.573v11.2A11.249,11.249,0,0,0,45.806,30.118,11.113,11.113,0,0,0,56.733,19.039V7.636Z" transform="translate(17.687 3.907)" fill="#ffbb98"/>
    <path id="Trazado_900205" data-name="Trazado 900205" d="M47.524,29.96a10.909,10.909,0,0,1-1.719.159A11.25,11.25,0,0,1,34.573,18.841V10.113a2.474,2.474,0,0,1,2.476-2.476h3.712a2.475,2.475,0,0,0-2.476,2.476v8.728A11.317,11.317,0,0,0,47.524,29.96" transform="translate(17.687 3.908)" fill="#ffcaa6"/>
    <path id="Trazado_900206" data-name="Trazado 900206" d="M53.606,10.112v8.926A11.113,11.113,0,0,1,42.68,30.118a10.605,10.605,0,0,1-2-.159,11.122,11.122,0,0,0,9.209-10.921V10.112a2.475,2.475,0,0,0-2.476-2.476h3.714A2.477,2.477,0,0,1,53.606,10.112Z" transform="translate(20.814 3.907)" fill="#ffaa80"/>
    <path id="Trazado_900207" data-name="Trazado 900207" d="M69.091,44.589a2.683,2.683,0,0,1-2.682,2.682H31.145a2.682,2.682,0,0,1-2.68-2.682A20.325,20.325,0,0,1,41.787,25.249c.183-.068.372-.135.559-.2a20.211,20.211,0,0,1,6.429-1.04h.006a20.218,20.218,0,0,1,6.429,1.04c.187.062.375.128.561.2A20.323,20.323,0,0,1,69.091,44.589Z" transform="translate(14.563 12.285)" fill="#d1c4e9"/>
    <path id="Trazado_900208" data-name="Trazado 900208" d="M62.846,44.589a2.683,2.683,0,0,1-2.68,2.683H56.452a2.684,2.684,0,0,0,2.682-2.683A20.328,20.328,0,0,0,40.675,24.1c.609-.057,1.229-.085,1.855-.085h0a20.2,20.2,0,0,1,6.429,1.043c.189.059.376.128.562.195a20.328,20.328,0,0,1,13.32,19.338" transform="translate(20.809 12.285)" fill="#a08dce"/>
    <path id="Trazado_900209" data-name="Trazado 900209" d="M50.636,24.1A20.325,20.325,0,0,0,32.179,44.589a2.683,2.683,0,0,0,2.68,2.683H31.147a2.684,2.684,0,0,1-2.682-2.683,20.322,20.322,0,0,1,13.32-19.338c.186-.067.375-.136.562-.195a20.2,20.2,0,0,1,6.429-1.043h0q.941,0,1.855.085" transform="translate(14.563 12.285)" fill="#f973a3"/>
    <rect id="Rectángulo_415893" data-name="Rectángulo 415893" width="7.141" height="10.125" transform="translate(59.771 33.43)" fill="#ffbb98"/>
    <rect id="Rectángulo_415894" data-name="Rectángulo 415894" width="3.712" height="10.125" transform="translate(59.771 33.432)" fill="#ffcaa6"/>
    <path id="Trazado_900210" data-name="Trazado 900210" d="M46.217,24.349l-3.9,6.749L44.7,35.216,49.15,27.51,50.191,25.7Z" transform="translate(21.65 12.457)" fill="#a4a4a5"/>
    <path id="Trazado_900211" data-name="Trazado 900211" d="M40.254,24.349,36.28,25.7c1.348,2.337.265.461,5.493,9.512L44.152,31.1l-3.9-6.749" transform="translate(18.561 12.457)" fill="#a4a4a5"/>
    <path id="Trazado_900212" data-name="Trazado 900212" d="M52.835.891H40.16c-3.983,0-7.213,2.875-7.213,6.421v5.865a1.115,1.115,0,0,0,1.114,1.114h15.17a14.45,14.45,0,0,0,8.506-2.549,5.379,5.379,0,0,0,2.31-4.43c0-3.546-3.229-6.421-7.212-6.421" transform="translate(16.856 0.456)" fill="#87828e"/>
    <path id="Trazado_900213" data-name="Trazado 900213" d="M43.475.891c-3.982,0-7.213,2.874-7.213,6.421v6.981h-2.2a1.114,1.114,0,0,1-1.114-1.114V7.312c0-3.548,3.232-6.421,7.213-6.421Z" transform="translate(16.856 0.456)" fill="#a4a4a5"/>
    <path id="Trazado_900214" data-name="Trazado 900214" d="M55.508,7.312h0A5.381,5.381,0,0,1,53.2,11.744a14.449,14.449,0,0,1-8.5,2.549H41.822a14.42,14.42,0,0,0,8.3-2.561,5.369,5.369,0,0,0,2.295-4.42c0-3.546-3.229-6.421-7.213-6.421h3.1c3.982,0,7.213,2.875,7.213,6.421" transform="translate(21.396 0.456)" fill="#796e84"/>
    <rect id="Rectángulo_415895" data-name="Rectángulo 415895" width="5.13" height="9.389" transform="translate(46.471 43.204)" fill="#87828e"/>
    <path id="Trazado_900215" data-name="Trazado 900215" d="M46.424,30.531V68.425A1.472,1.472,0,0,1,44.953,69.9H2.359A1.471,1.471,0,0,1,.89,68.428V60.3a4.049,4.049,0,0,1,4.05-4.051H26.864A3.944,3.944,0,0,0,30.807,52.3V35.462A2.159,2.159,0,0,0,28.649,33.3h-8a2.16,2.16,0,0,0-2.159,2.159v5.433a3.267,3.267,0,0,1-3.267,3.267H4.158A3.268,3.268,0,0,1,.89,40.895V30.531A4.05,4.05,0,0,1,4.94,26.48H42.374A4.052,4.052,0,0,1,46.424,30.531Z" transform="translate(0.455 13.547)" fill="#a5d6a7"/>
    <path id="Trazado_900216" data-name="Trazado 900216" d="M8.338,42.833h-3.1a.653.653,0,0,1-.655-.653v-4H8.991v4a.652.652,0,0,1-.653.653" transform="translate(2.343 19.531)" fill="#87828e"/>
    <path id="Trazado_900217" data-name="Trazado 900217" d="M4.94,46.173H8.208a4.049,4.049,0,0,0-4.05,4.051v9.6h-1.8A1.47,1.47,0,0,1,.89,58.352V50.224a4.049,4.049,0,0,1,4.05-4.051" transform="translate(0.455 23.622)" fill="#77ad77"/>
    <path id="Trazado_900218" data-name="Trazado 900218" d="M4.941,26.48H8.206a4.05,4.05,0,0,0-4.05,4.051v13.63A3.268,3.268,0,0,1,.89,40.893V30.531A4.051,4.051,0,0,1,4.941,26.48" transform="translate(0.455 13.547)" fill="#77ad77"/>
    <path id="Trazado_900219" data-name="Trazado 900219" d="M33.489,30.529v37.9A1.47,1.47,0,0,1,32.02,69.9h-1.8V30.53a4.051,4.051,0,0,0-4.05-4.051H29.44a4.05,4.05,0,0,1,4.05,4.05" transform="translate(13.39 13.547)" fill="#77ad77"/>
    <path id="Trazado_900220" data-name="Trazado 900220" d="M26.4,34.348a3.178,3.178,0,1,1-3.179,3.179A3.179,3.179,0,0,1,26.4,34.348" transform="translate(11.881 17.573)" fill="#f9d335"/>
    <path id="Trazado_900221" data-name="Trazado 900221" d="M26.4,43.129a3.178,3.178,0,1,1-3.179,3.179A3.179,3.179,0,0,1,26.4,43.129" transform="translate(11.881 22.065)" fill="#f9d335"/>
    <path id="Trazado_900222" data-name="Trazado 900222" d="M8.215,8.48,9.1,10.272a.648.648,0,0,0,.488.355l1.977.287a.65.65,0,0,1,.36,1.108l-1.43,1.394a.652.652,0,0,0-.187.576l.339,1.967a.65.65,0,0,1-.943.686l-1.767-.93a.651.651,0,0,0-.606,0l-1.767.93a.65.65,0,0,1-.943-.686l.339-1.967a.652.652,0,0,0-.187-.576l-1.43-1.394a.65.65,0,0,1,.36-1.108l1.977-.287a.648.648,0,0,0,.488-.355L7.05,8.48a.65.65,0,0,1,1.165,0" transform="translate(1.608 4.154)" fill="#f9d335"/>
    <path id="Trazado_900223" data-name="Trazado 900223" d="M17.412,8.48l.884,1.791a.648.648,0,0,0,.488.355l1.977.287a.65.65,0,0,1,.36,1.108l-1.43,1.394a.652.652,0,0,0-.187.576l.339,1.967a.65.65,0,0,1-.943.686l-1.767-.93a.651.651,0,0,0-.606,0l-1.767.93a.65.65,0,0,1-.943-.686l.339-1.967a.652.652,0,0,0-.187-.576l-1.43-1.394a.65.65,0,0,1,.36-1.108l1.977-.287a.648.648,0,0,0,.488-.355l.884-1.791a.65.65,0,0,1,1.165,0" transform="translate(6.314 4.154)" fill="#f9d335"/>
    <path id="Trazado_900224" data-name="Trazado 900224" d="M26.609,8.48l.884,1.791a.648.648,0,0,0,.488.355l1.977.287a.65.65,0,0,1,.36,1.108l-1.43,1.394a.652.652,0,0,0-.187.576l.339,1.967a.65.65,0,0,1-.943.686l-1.767-.93a.651.651,0,0,0-.606,0l-1.767.93a.65.65,0,0,1-.943-.686l.339-1.967a.652.652,0,0,0-.187-.576l-1.43-1.394a.65.65,0,0,1,.36-1.108l1.977-.287a.648.648,0,0,0,.488-.355l.884-1.791a.65.65,0,0,1,1.165,0" transform="translate(11.019 4.154)" fill="#f9d335"/>
    <path id="Trazado_900225" data-name="Trazado 900225" d="M38.8,15.171a1.484,1.484,0,1,0-1.484-1.484A1.485,1.485,0,0,0,38.8,15.171" transform="translate(19.089 6.243)" fill="#12263f"/>
    <path id="Trazado_900226" data-name="Trazado 900226" d="M46.015,15.171a1.484,1.484,0,1,0-1.484-1.484,1.485,1.485,0,0,0,1.484,1.484" transform="translate(22.782 6.243)" fill="#12263f"/>
    <path id="Trazado_900227" data-name="Trazado 900227" d="M73.9,37.7a16.092,16.092,0,0,0,6.417-6.792,5.2,5.2,0,0,0,.434-3.274L77.577,10.7a6.678,6.678,0,0,0,.673-2.934C78.249,3.486,74.41,0,69.692,0H57.017c-4.721,0-8.56,3.486-8.56,7.767v5.87a2.04,2.04,0,0,0,.03.36L45.93,27.635a5.2,5.2,0,0,0,.434,3.274A16.079,16.079,0,0,0,52.785,37.7a21.541,21.541,0,0,0-5.118,3.982,5.392,5.392,0,0,0-4.837-3H40.686v-2.9a1.346,1.346,0,0,0-2.692,0v2.9H32.229v-2.9a1.346,1.346,0,0,0-2.692,0v2.9H10.475V37.533h.778a1.346,1.346,0,0,0,0-2.692H7.006a1.346,1.346,0,1,0,0,2.692h.777V38.68H5.395A5.4,5.4,0,0,0,0,44.078v10.36a4.62,4.62,0,0,0,4.615,4.615h.961v2.657a2.006,2.006,0,0,0,2,2h.206V65.2a1.346,1.346,0,0,0,2.692,0V63.711h.206a2,2,0,0,0,2-2V59.053h3a4.62,4.62,0,0,0,4.613-4.615V49.007a.813.813,0,0,1,.815-.81h8a.811.811,0,0,1,.812.81V65.851a2.6,2.6,0,0,1-2.6,2.6H5.395A5.4,5.4,0,0,0,0,73.846v8.128A2.82,2.82,0,0,0,2.818,84.79H45.408a2.82,2.82,0,0,0,2.816-2.819V60.9h32.75A4.032,4.032,0,0,0,85,56.872v-.258A21.764,21.764,0,0,0,73.9,37.7Zm-10.56,4.251c-.054-.1-2.16-3.74-2.225-3.855V35.166a12.255,12.255,0,0,0,2.228.206,12.025,12.025,0,0,0,2.221-.2V38.1c-.065.115-2.169,3.759-2.224,3.855m-6.569-3.137c.085-.057,1.274-.42,1.386-.452.1.165,2.9,5.025,3,5.189l-.825,1.43c-3.794-6.571-3.341-5.786-3.56-6.167M53.609,16.092H66.07a15.851,15.851,0,0,0,7-1.481v8.336a9.773,9.773,0,0,1-9.6,9.732,9.9,9.9,0,0,1-9.868-9.934Zm14.915,22.27c.337.094,1.211.363,1.386.452-.221.384.121-.207-3.56,6.167l-.825-1.43c.1-.163,2.9-5.026,3-5.189m9.585-10.233a2.543,2.543,0,0,1-.186,1.552,12.492,12.492,0,0,1-7.431,6.48,21.414,21.414,0,0,0-2.234-.648V34.353a12.489,12.489,0,0,0,7.508-11.4v-7.3ZM51.149,7.767c0-2.8,2.632-5.074,5.868-5.074H69.692c3.233,0,5.865,2.278,5.865,5.074,0,3.867-5.62,5.694-9.47,5.634H51.149ZM48.76,29.682a2.543,2.543,0,0,1-.184-1.552l2.257-12.04a.792.792,0,0,0,.085,0v6.653a12.756,12.756,0,0,0,7.508,11.583v1.185a20.492,20.492,0,0,0-2.234.648,12.483,12.483,0,0,1-7.431-6.48m-.535,14.867h2.029v6.7H48.224ZM8.268,59.053h1.72v1.965H8.268ZM45.532,81.971a.125.125,0,0,1-.124.127H2.818a.125.125,0,0,1-.125-.124V73.846a2.706,2.706,0,0,1,2.7-2.706H27.319a5.294,5.294,0,0,0,5.291-5.289V49.007a3.507,3.507,0,0,0-3.5-3.5h-8a3.507,3.507,0,0,0-3.507,3.5v5.431a1.923,1.923,0,0,1-1.921,1.923H4.615a1.924,1.924,0,0,1-1.923-1.923V44.078a2.7,2.7,0,0,1,2.7-2.706H42.83a2.706,2.706,0,0,1,2.7,2.706Zm36.776-25.1a1.336,1.336,0,0,1-1.333,1.336H48.224v-4.27h2.221a2.5,2.5,0,0,0,2.5-2.5V44.356A2.5,2.5,0,0,0,51.26,42a18.319,18.319,0,0,1,3.049-2.066l4.86,8.414a1.346,1.346,0,0,0,2.329,0l1.844-3.188,1.844,3.188a1.344,1.344,0,0,0,2.328,0l4.86-8.414a19.051,19.051,0,0,1,9.934,16.682Z" transform="translate(0 0)" fill="#12263f"/>
    <path id="Trazado_900228" data-name="Trazado 900228" d="M43.043,19.759a3.373,3.373,0,0,0,3.369-3.369,1.346,1.346,0,0,0-2.692,0,.677.677,0,1,1-1.354,0,1.346,1.346,0,0,0-2.692,0,3.373,3.373,0,0,0,3.369,3.369" transform="translate(20.297 7.697)" fill="#12263f"/>
    <path id="Trazado_900229" data-name="Trazado 900229" d="M12.4,50.352H11.047a1.346,1.346,0,1,0,0,2.692H12.4a1.346,1.346,0,1,0,0-2.692" transform="translate(4.962 25.76)" fill="#77ad77"/>
    <path id="Trazado_900230" data-name="Trazado 900230" d="M9.073,50.352H5.034a1.346,1.346,0,0,0,0,2.692H9.073a1.346,1.346,0,1,0,0-2.692" transform="translate(1.887 25.76)" fill="#77ad77"/>
    <path id="Trazado_900231" data-name="Trazado 900231" d="M26.857,33.457a4.524,4.524,0,1,0,4.526,4.526,4.528,4.528,0,0,0-4.526-4.526m0,6.356a1.832,1.832,0,1,1,1.834-1.831,1.832,1.832,0,0,1-1.834,1.831" transform="translate(11.426 17.117)" fill="#12263f"/>
    <path id="Trazado_900232" data-name="Trazado 900232" d="M26.857,42.24a4.523,4.523,0,1,0,4.526,4.523,4.527,4.527,0,0,0-4.526-4.523m0,6.353a1.831,1.831,0,1,1,1.834-1.831,1.832,1.832,0,0,1-1.834,1.831" transform="translate(11.426 21.61)" fill="#12263f"/>
    <path id="Trazado_900233" data-name="Trazado 900233" d="M4.024,14.58l-.275,1.608a2,2,0,0,0,2.9,2.1l1.444-.757,1.444.757a1.994,1.994,0,0,0,2.893-2.1l-.275-1.608,1.167-1.138a2,2,0,0,0-1.1-3.406L10.6,9.8l-.72-1.463a2,2,0,0,0-3.581,0L5.579,9.8l-1.616.233a2,2,0,0,0-1.106,3.406Zm2.3-2.165a2,2,0,0,0,1.5-1.094l.26-.525.258.525a1.99,1.99,0,0,0,1.5,1.094l.582.085-.42.407a2,2,0,0,0-.573,1.767l.1.579-.518-.274a2,2,0,0,0-1.858,0l-.518.274.1-.579a2.006,2.006,0,0,0-.573-1.767l-.42-.407Z" transform="translate(1.152 3.698)" fill="#12263f"/>
    <path id="Trazado_900234" data-name="Trazado 900234" d="M13.221,14.581l-.275,1.608a2,2,0,0,0,2.9,2.1l1.444-.757,1.444.757a1.994,1.994,0,0,0,2.893-2.1l-.272-1.608,1.167-1.138a2,2,0,0,0-1.106-3.406L19.8,9.8l-.72-1.463a2,2,0,0,0-3.581,0L14.776,9.8l-1.616.233a2,2,0,0,0-1.106,3.406Zm2.3-2.165a2,2,0,0,0,1.5-1.094l.26-.525.258.525a1.99,1.99,0,0,0,1.5,1.094l.579.085-.42.407a2,2,0,0,0-.573,1.767l.1.579-.518-.274a2,2,0,0,0-1.858,0l-.518.274.1-.579a2.006,2.006,0,0,0-.573-1.767l-.42-.407Z" transform="translate(5.857 3.698)" fill="#12263f"/>
    <path id="Trazado_900235" data-name="Trazado 900235" d="M22.416,14.581l-.272,1.608a1.994,1.994,0,0,0,2.895,2.1l1.444-.757,1.444.757a2,2,0,0,0,2.9-2.1l-.277-1.608,1.167-1.138a2,2,0,0,0-1.106-3.406L28.992,9.8l-.72-1.463a2,2,0,0,0-3.581,0L23.972,9.8l-1.616.233a2,2,0,0,0-1.106,3.406Zm2.3-2.165a1.99,1.99,0,0,0,1.5-1.094l.26-.525.258.525a1.99,1.99,0,0,0,1.5,1.094l.579.085-.42.407a2,2,0,0,0-.573,1.767l.1.579-.518-.274a2,2,0,0,0-1.858,0l-.518.274.1-.579a2.006,2.006,0,0,0-.573-1.767l-.42-.407Z" transform="translate(10.562 3.698)" fill="#12263f"/>
    <path id="Trazado_900236" data-name="Trazado 900236" d="M3.082,24.175H43.2a3.086,3.086,0,0,0,3.082-3.082V7.514A3.084,3.084,0,0,0,43.2,4.435H3.082A3.084,3.084,0,0,0,0,7.514V21.093A3.086,3.086,0,0,0,3.082,24.175ZM2.692,7.514a.388.388,0,0,1,.39-.387H43.2a.387.387,0,0,1,.39.387V21.093a.389.389,0,0,1-.39.39H3.082a.39.39,0,0,1-.39-.39Z" transform="translate(0 2.269)" fill="#12263f"/>
  </g>
</svg>
