<svg xmlns="http://www.w3.org/2000/svg" xmlns:xlink="http://www.w3.org/1999/xlink" width="103.382" height="124.754" viewBox="0 0 103.382 124.754">
  <defs>
    <clipPath id="clip-path">
      <rect id="Rectángulo_406904" data-name="Rectángulo 406904" width="103.382" height="124.754" fill="#ffb74d"/>
    </clipPath>
  </defs>
  <g id="Grupo_1110457" data-name="Grupo 1110457" clip-path="url(#clip-path)">
    <path id="Trazado_877715" data-name="Trazado 877715" d="M220.21,17.885c-.51,2.878-.877,5.6-1.49,8.264-1.052,4.577-2.408,9.088-3.351,13.686-.81,3.95-1.327,7.969-1.784,11.98-.7,6.181-1.248,12.381-1.857,18.573-.174,1.768-.3,3.543-.522,5.3-.154,1.214-.687,2.214-2.115,2.221-1.143.005-1.923-.98-1.857-2.652.1-2.5.371-5,.6-7.493.427-4.667.8-9.34,1.333-14,.52-4.575,1.009-9.168,1.868-13.685.786-4.13,2.231-8.133,3.053-12.258a72.915,72.915,0,0,0,1.767-12.7A11.055,11.055,0,0,0,203.937,4.087a10.765,10.765,0,0,0-7.611,3.828c-.372.426-.661.927-1.05,1.335-.852.9-1.844,1.392-3.014.6-1.241-.837-1-1.941-.326-2.981A13.98,13.98,0,0,1,202.156.165c9.426-1.207,15.782,4.382,17.481,11.54a8.92,8.92,0,0,0,.539,1.268c1.191.241,2.435.572,3.7.733,5.037.64,11.751,6.39,12.114,12.669a55.391,55.391,0,0,1,.223,7,15.443,15.443,0,0,1-5.509,10.742c-2,1.774-3.828,3.735-5.686,5.659-5.01,5.185-4.971,12.034.079,17.113,3.257,3.276,6.418,6.659,9.819,9.779a20.6,20.6,0,0,1,.876,29.249,22.857,22.857,0,0,1-7.652,4.992,47.208,47.208,0,0,0-16.08,10.638,24.985,24.985,0,0,1-3.14,2.661,1.993,1.993,0,0,1-2.861-.12,1.961,1.961,0,0,1,.251-3.019c3.13-2.8,6.232-5.654,9.543-8.233a44.4,44.4,0,0,1,10.661-5.735c11.328-4.643,14.672-18.1,5.84-27.059-3.3-3.348-6.59-6.708-9.982-9.961a16.292,16.292,0,0,1-5.3-10.89,15.5,15.5,0,0,1,4.572-11.908c2.28-2.416,4.669-4.729,7.038-7.059a10.629,10.629,0,0,0,3.337-8.061c-.025-1.54.052-3.084-.033-4.62-.27-4.889-5.324-9.8-10.1-9.852a15,15,0,0,0-1.68.193" transform="translate(-138.078 0)" fill="#ffb74d"/>
    <path id="Trazado_877716" data-name="Trazado 877716" d="M170.414,46.83a9.119,9.119,0,0,0-1.685,5.323c0,1.7.041,3.41-.087,5.1-.09,1.185-.585,2.235-2.02,2.333-1.207.083-2.108-.763-2.225-2.384-.455-6.3.594-12.115,5.566-16.638a14.66,14.66,0,0,1,7.02-3.66,4.832,4.832,0,0,0,3.447-2.249c2.013-3.032,5.275-3.648,7.986-1.57a6.282,6.282,0,0,1,2.131,3.091,21.006,21.006,0,0,1,.109,10.106,5.6,5.6,0,0,1-5.58,4.5,5.922,5.922,0,0,1-5.5-4.684,17.132,17.132,0,0,1-.178-2.417c-.053-.871-.1-1.742-.142-2.585-2.16-.112-2.726.085-5.139,1.841.839,3.915,1.488,8.076,2.647,12.091A93.733,93.733,0,0,1,180.5,75.042c.459,7.1,1.225,14.175,1.9,21.258.758,7.967,1.576,15.928,2.333,23.9.1,1.1.014,2.221.014,3.333l.49.02c.314-2.869.662-5.735.933-8.609.228-2.415.365-4.839.546-7.258a4.274,4.274,0,0,1,.095-.722c.3-1.2.853-2.139,2.294-2.028A2.28,2.28,0,0,1,191,107.605c-.1,1.451-.237,2.9-.383,4.347-.438,4.343-.891,8.684-1.332,13.027-.18,1.768-.2,3.565-.547,5.3-.425,2.15-1.481,2.874-3.571,2.858a3.325,3.325,0,0,1-3.7-3.1c-.28-1.508-.437-3.044-.568-4.575-.689-8.056-1.3-16.119-2.04-24.171-.716-7.809-1.533-15.608-2.341-23.408-.442-4.26-.656-8.575-1.515-12.754-1.236-6.018-2.966-11.935-4.587-18.3m13.441-5.955a27.7,27.7,0,0,0,.063,4.1,1.33,1.33,0,0,0,2.658.015,29.04,29.04,0,0,0,.064-4.12Z" transform="translate(-118.541 -22.994)" fill="#ffb74d"/>
    <path id="Trazado_877717" data-name="Trazado 877717" d="M7.827,216.932c-1.627,1.787-2.716,3.085-3.915,4.272-1.172,1.161-2.42,1.317-3.206.568-.8-.765-.7-2.358.328-3.505,1.115-1.248,2.306-2.428,3.627-3.806-1.151-1.211-2.136-2.25-3.123-3.287C.1,209.663-.239,208.042.7,207.137c.866-.836,2.4-.538,3.9.793.544.482,1.029,1.031,1.559,1.529s1.067.955,1.811,1.617c1.005-.929,1.923-1.793,2.861-2.636.6-.538,1.159-1.332,1.855-1.488a3.492,3.492,0,0,1,2.638.381c.826.665.531,1.8-.18,2.607-.749.848-1.582,1.62-2.365,2.438-.547.571-1.072,1.163-1.733,1.882,1.176,1.212,2.255,2.286,3.291,3.4,1.562,1.682,1.789,3.032.723,4.008s-2.339.71-3.953-.948c-1.009-1.037-1.9-2.188-3.277-3.788" transform="translate(-0.125 -149.109)" fill="#ffb74d"/>
    <path id="Trazado_877718" data-name="Trazado 877718" d="M131.62,278.267c-.546.809-1.049,1.652-1.653,2.415a10.547,10.547,0,0,1-1.556,1.528c-1.4,1.159-2.577,1.289-3.473.439-.957-.907-.822-2.168.454-3.652.579-.673,1.249-1.267,1.863-1.911.546-.572,1.071-1.164,1.744-1.9l-2.63-2.692c-.453-.463-.924-.908-1.356-1.389a2.089,2.089,0,0,1-.325-2.855,2.372,2.372,0,0,1,3.111-.088,31.075,31.075,0,0,1,2.289,2.165c.577.543,1.171,1.068,1.9,1.727.659-.544,1.219-.97,1.737-1.442.538-.49,1.027-1.032,1.551-1.537,1.523-1.47,3.088-1.834,4.034-.948s.63,2.531-.8,4.036c-.89.937-1.784,1.87-2.662,2.818-.1.1-.092.3-.21.727.479.529,1.051,1.179,1.642,1.81.664.707,1.417,1.343,2,2.109a2.23,2.23,0,0,1,.028,3.1c-.99.983-2.129.565-3-.331-1.234-1.269-2.387-2.617-3.575-3.931l-1.113-.2" transform="translate(-89.65 -193.094)" fill="#ffb74d"/>
    <path id="Trazado_877719" data-name="Trazado 877719" d="M132.165,150.853c1.675-1.833,2.768-3.134,3.974-4.32,1.174-1.155,2.439-1.287,3.208-.5a2.57,2.57,0,0,1-.245,3.328c-1.116,1.269-2.336,2.447-3.773,3.936,1.132,1.184,2.223,2.221,3.182,3.368a5.356,5.356,0,0,1,1.262,2.249,1.682,1.682,0,0,1-2.341,2.047,10.433,10.433,0,0,1-2.765-1.877c-.862-.7-1.633-1.509-2.616-2.432-1.138,1.072-2.109,2.013-3.111,2.92-.536.485-1.075,1.179-1.7,1.294a3.3,3.3,0,0,1-2.408-.429,1.706,1.706,0,0,1,.039-2.6c1.3-1.416,2.661-2.783,4.128-4.307-1.143-1.177-2.158-2.2-3.151-3.251-1.708-1.8-1.989-3.184-.872-4.189,1.067-.96,2.339-.692,3.958.979,1.008,1.041,1.891,2.2,3.234,3.787" transform="translate(-89.642 -105.001)" fill="#ffb74d"/>
    <path id="Trazado_877720" data-name="Trazado 877720" d="M69.485,211.337c1.049-1.018,1.964-1.911,2.884-2.8a14.823,14.823,0,0,1,1.6-1.487,2.066,2.066,0,0,1,2.872.179,1.807,1.807,0,0,1-.106,2.789c-.776.825-1.6,1.606-2.384,2.425-.547.571-1.062,1.173-1.789,1.981,1.349,1.379,2.592,2.617,3.8,3.892,1.247,1.319,1.385,2.249.539,3.154-.887.95-2.206.909-3.436-.214-1.305-1.191-2.54-2.46-3.961-3.846-1.215,1.171-2.29,2.241-3.4,3.268-.529.488-1.1,1.192-1.711,1.266a3.513,3.513,0,0,1-2.376-.629,1.566,1.566,0,0,1,.04-2.382c.7-.788,1.466-1.51,2.194-2.27.66-.689,1.307-1.389,2.174-2.312-1.235-1.277-2.353-2.408-3.443-3.564-1.51-1.6-1.756-2.642-.882-3.556.98-1.024,2.3-.824,3.793.6,1.161,1.107,2.3,2.235,3.6,3.5" transform="translate(-44.354 -149.029)" fill="#ffb74d"/>
    <path id="Trazado_877721" data-name="Trazado 877721" d="M69.989,150.481c1.237-1.4,2.234-2.565,3.274-3.688a4.783,4.783,0,0,1,1.307-1.061,2.035,2.035,0,0,1,2.635.513,1.793,1.793,0,0,1-.186,2.615c-1.322,1.4-2.675,2.772-4.19,4.335.919,1.005,1.71,1.884,2.518,2.748.5.531,1.026,1.033,1.533,1.556.825.852,1.141,1.781.31,2.8a2.137,2.137,0,0,1-3.051.215c-.884-.7-1.636-1.562-2.453-2.346-.576-.554-1.162-1.1-1.963-1.854-.921.879-1.774,1.692-2.626,2.507a21.466,21.466,0,0,1-1.758,1.669,2.194,2.194,0,0,1-3.064-.151,1.865,1.865,0,0,1,.2-2.634c.765-.936,1.668-1.758,2.5-2.642.489-.521.952-1.068,1.59-1.787-.643-.729-1.2-1.385-1.783-2.015-.769-.83-1.62-1.592-2.323-2.473-.629-.788-1-1.706-.157-2.631a2.147,2.147,0,0,1,3.06-.1c1.456,1.26,2.794,2.656,4.632,4.429" transform="translate(-44.594 -104.948)" fill="#ffb74d"/>
    <path id="Trazado_877722" data-name="Trazado 877722" d="M69.371,94.894c-1.045,1.245-1.908,2.313-2.818,3.338a7.283,7.283,0,0,1-1.435,1.3,2.082,2.082,0,0,1-2.864-.316,1.733,1.733,0,0,1,.077-2.434c.585-.769,1.3-1.444,1.958-2.154.708-.759,1.423-1.51,2.373-2.517-1.36-1.381-2.628-2.595-3.8-3.9a3.152,3.152,0,0,1-.97-1.827,2.231,2.231,0,0,1,1.07-1.709,2.809,2.809,0,0,1,2.235.2,17,17,0,0,1,2.482,2.308c.631.6,1.271,1.192,2.041,1.911,1.233-1.2,2.315-2.275,3.426-3.32a6.221,6.221,0,0,1,1.511-1.192,2,2,0,0,1,2.6.646,1.735,1.735,0,0,1-.183,2.428c-1.32,1.417-2.686,2.791-4.2,4.358.5.631.892,1.205,1.36,1.711.77.833,1.63,1.584,2.375,2.437,1.19,1.364,1.284,2.373.407,3.2-.926.868-2.177.733-3.446-.417-.66-.6-1.262-1.259-1.9-1.881-.574-.559-1.163-1.1-2.3-2.173" transform="translate(-44.577 -60.861)" fill="#ffb74d"/>
    <path id="Trazado_877723" data-name="Trazado 877723" d="M72.8,275.55c1.379,1.4,2.576,2.58,3.739,3.8,1.362,1.423,1.514,2.413.566,3.33-.922.893-2.2.794-3.442-.356-1.291-1.192-2.526-2.445-3.909-3.791-1.327,1.3-2.458,2.442-3.636,3.536a4.928,4.928,0,0,1-1.569,1.091,2.006,2.006,0,0,1-2.085-3.27c1.342-1.384,2.685-2.766,4.181-4.308-.645-.744-1.142-1.351-1.675-1.923-.553-.593-1.155-1.138-1.71-1.728-1.511-1.609-1.762-2.642-.89-3.559.977-1.026,2.3-.827,3.8.6,1.163,1.108,2.3,2.239,3.606,3.505,1.048-1.02,1.962-1.916,2.883-2.8a14.467,14.467,0,0,1,1.6-1.486,2.088,2.088,0,0,1,2.878.181c.9.869.559,1.82-.076,2.621-.7.885-1.544,1.658-2.321,2.483-.549.584-1.092,1.174-1.937,2.084" transform="translate(-44.64 -193.136)" fill="#ffb74d"/>
    <path id="Trazado_877724" data-name="Trazado 877724" d="M7.955,89.485c1.555-1.532,2.819-2.777,4.082-4.024.9-.887,1.867-1.352,2.983-.385a2.2,2.2,0,0,1-.027,3.253c-1.228,1.383-2.567,2.667-4.018,4.158,1,1.042,1.882,1.962,2.766,2.879.394.408.8.8,1.19,1.217a2.143,2.143,0,0,1,.409,2.864,2.343,2.343,0,0,1-3.108.157,28.539,28.539,0,0,1-2.3-2.162c-.581-.547-1.174-1.08-2-1.836C6.8,96.681,5.8,97.693,4.727,98.631a4.937,4.937,0,0,1-1.969,1.305c-.686.139-1.872-.068-2.143-.531A2.722,2.722,0,0,1,.682,97a23.712,23.712,0,0,1,2.812-3.01c.432-.457.815-.959,1.348-1.591-1.039-1.056-2-2.027-2.951-3a12.519,12.519,0,0,1-1.164-1.24,2.258,2.258,0,0,1,0-3.09c1.083-.878,2.1-.59,3.026.319,1.318,1.292,2.642,2.577,4.2,4.1" transform="translate(-0.087 -60.992)" fill="#ffb74d"/>
    <path id="Trazado_877725" data-name="Trazado 877725" d="M4.566,153.2c-1.174-1.219-2.075-2.139-2.956-3.077a6.685,6.685,0,0,1-1.241-1.48c-.485-.994-.618-2.115.387-2.87a1.97,1.97,0,0,1,2.662.325c1.355,1.266,2.664,2.581,4.18,4.059l2.849-2.712a17.252,17.252,0,0,1,1.593-1.5,2.179,2.179,0,0,1,3.065.218c.83,1.024.51,1.957-.317,2.809-1.29,1.329-2.584,2.654-4.062,4.17.976,1.054,1.831,1.987,2.7,2.909.444.472.939.9,1.36,1.391.962,1.12,1.077,2.271.236,3.016a2.211,2.211,0,0,1-3.091-.091c-.816-.659-1.515-1.462-2.275-2.192-.63-.605-1.272-1.2-2.04-1.919-1.345,1.311-2.537,2.508-3.769,3.663s-2.412,1.366-3.222.652c-.835-.736-.768-2.362.25-3.509,1.116-1.257,2.319-2.436,3.693-3.865" transform="translate(0.001 -104.892)" fill="#ffb74d"/>
    <path id="Trazado_877726" data-name="Trazado 877726" d="M129.349,214.427c-1.456-1.479-2.716-2.714-3.924-4s-1.31-2.271-.41-3.152a2.263,2.263,0,0,1,3.259.179c1.369,1.23,2.656,2.552,4.1,3.953,1.364-1.331,2.553-2.528,3.784-3.682s2.41-1.359,3.217-.642c.831.738.764,2.36-.253,3.505-1.115,1.256-2.317,2.434-3.642,3.814.716.8,1.281,1.452,1.871,2.082.663.709,1.415,1.346,2.007,2.109a2.351,2.351,0,0,1,.079,3.124c-.648.8-1.964.7-3.01-.321-1.266-1.238-2.4-2.615-3.766-4.132-1.313,1.244-2.28,2.173-3.261,3.086a11.266,11.266,0,0,1-1.823,1.585,2,2,0,0,1-2.65-.423,1.765,1.765,0,0,1,.093-2.614c1.32-1.413,2.685-2.783,4.328-4.476" transform="translate(-89.748 -149.108)" fill="#ffb74d"/>
  </g>
</svg>
