<svg id="Grupo_1126503" data-name="Grupo 1126503" xmlns="http://www.w3.org/2000/svg" xmlns:xlink="http://www.w3.org/1999/xlink" width="79.328" height="110.82" viewBox="0 0 79.328 110.82">
  <defs>
    <clipPath id="clip-path">
      <rect id="Rectángulo_416544" data-name="Rectángulo 416544" width="79.328" height="110.82" fill="none"/>
    </clipPath>
  </defs>
  <g id="Grupo_1126502" data-name="Grupo 1126502" transform="translate(0 0)" clip-path="url(#clip-path)">
    <path id="Trazado_904156" data-name="Trazado 904156" d="M13.147,16.705a1.982,1.982,0,0,0,0-3.964,1.986,1.986,0,0,0-1.984,1.98,1.986,1.986,0,0,0,1.984,1.984" transform="translate(32.265 36.825)" fill="#12263f"/>
    <path id="Trazado_904157" data-name="Trazado 904157" d="M8.509,18.442a1.982,1.982,0,0,0,0,3.964,1.982,1.982,0,0,0,0-3.964" transform="translate(18.859 53.303)" fill="#12263f"/>
    <path id="Trazado_904158" data-name="Trazado 904158" d="M18.226,10.6h0a1.615,1.615,0,0,1-1.614-1.614V1.618a1.614,1.614,0,1,1,3.229,0V8.987A1.615,1.615,0,0,1,18.226,10.6" transform="translate(48.014 -0.001)" fill="#12263f"/>
    <path id="Trazado_904159" data-name="Trazado 904159" d="M18.226,14.894h0a1.615,1.615,0,0,1-1.614-1.614V5.911a1.614,1.614,0,1,1,3.229,0V13.28a1.615,1.615,0,0,1-1.614,1.614" transform="translate(48.014 12.407)" fill="#12263f"/>
    <path id="Trazado_904160" data-name="Trazado 904160" d="M18.226,19.188h0a1.615,1.615,0,0,1-1.614-1.614V10.205a1.614,1.614,0,1,1,3.229,0v7.368a1.615,1.615,0,0,1-1.614,1.614" transform="translate(48.014 24.818)" fill="#12263f"/>
    <path id="Trazado_904161" data-name="Trazado 904161" d="M18.226,23.482h0a1.615,1.615,0,0,1-1.614-1.614V14.5a1.614,1.614,0,1,1,3.229,0v7.368a1.615,1.615,0,0,1-1.614,1.614" transform="translate(48.014 37.229)" fill="#12263f"/>
    <path id="Trazado_904162" data-name="Trazado 904162" d="M18.226,27.775h0a1.615,1.615,0,0,1-1.614-1.614V18.792a1.614,1.614,0,1,1,3.229,0v7.368a1.615,1.615,0,0,1-1.614,1.614" transform="translate(48.014 49.638)" fill="#12263f"/>
    <path id="Trazado_904163" data-name="Trazado 904163" d="M18.226,32.069h0a1.615,1.615,0,0,1-1.614-1.614V23.086a1.614,1.614,0,1,1,3.229,0v7.368a1.615,1.615,0,0,1-1.614,1.614" transform="translate(48.014 62.049)" fill="#12263f"/>
    <path id="Trazado_904164" data-name="Trazado 904164" d="M18.226,36.362h0a1.615,1.615,0,0,1-1.614-1.614V27.379a1.614,1.614,0,1,1,3.229,0v7.368a1.615,1.615,0,0,1-1.614,1.614" transform="translate(48.014 74.457)" fill="#12263f"/>
    <path id="Trazado_904165" data-name="Trazado 904165" d="M77.729,3.056H29.745a1.6,1.6,0,0,0-1.591,1.6V15.719H13.095a1.6,1.6,0,0,0-1.6,1.6v10.1H1.6a1.6,1.6,0,0,0-1.6,1.6V80.754a1.6,1.6,0,0,0,1.6,1.6l63.751.035a1.6,1.6,0,0,0,1.373,0l.171-.035H77.729a1.6,1.6,0,0,0,1.6-1.6V4.651a1.6,1.6,0,0,0-1.6-1.6m-1.6,38.063H52.943a1.6,1.6,0,0,0,0,3.19h23.19V63.3H35.1a1.6,1.6,0,0,0,0,3.19H62.475v-.054H73.768v.054h2.365V79.159H67.649v-.016H64.416l0,.016H3.19V30.607H11.5V64.893a1.6,1.6,0,0,0,1.6,1.6H19.44a1.6,1.6,0,1,0,0-3.19H14.69V18.909H28.154v23.8a1.6,1.6,0,0,0,1.591,1.6h8.329a1.6,1.6,0,1,0,0-3.19H31.34V6.242H60.172V6.227H72.457v.016h3.676Z" transform="translate(0 8.832)" fill="#12263f"/>
  </g>
</svg>
