<svg id="Grupo_1126145" data-name="Grupo 1126145" xmlns="http://www.w3.org/2000/svg" xmlns:xlink="http://www.w3.org/1999/xlink" width="81.993" height="87.839" viewBox="0 0 81.993 87.839">
  <defs>
    <clipPath id="clip-path">
      <rect id="Rectángulo_415858" data-name="Rectángulo 415858" width="81.993" height="87.839" fill="#12263f"/>
    </clipPath>
  </defs>
  <g id="Grupo_1126144" data-name="Grupo 1126144" clip-path="url(#clip-path)">
    <path id="Trazado_900104" data-name="Trazado 900104" d="M81.99,80.52V26.1A4.372,4.372,0,0,0,80.7,22.989L59.006,1.292A4.38,4.38,0,0,0,55.888,0H19.044a7.321,7.321,0,0,0-4.888,1.881A8.763,8.763,0,0,0,2.579,15l2.259,2.259a4.36,4.36,0,0,0,5.829,5.829l1.049,1.049V80.52a7.329,7.329,0,0,0,7.322,7.319H74.671A7.323,7.323,0,0,0,81.99,80.52Zm-5-57.1H62.96a4.391,4.391,0,0,1-4.392-4.392V5ZM4.649,4.644a5.867,5.867,0,0,1,8.286,0L15,6.714,6.722,15l-2.073-2.07a5.868,5.868,0,0,1,0-8.283M7.757,20.172a1.468,1.468,0,0,1,0-2.07L18.113,7.749a1.464,1.464,0,1,1,2.07,2.07L9.83,20.172a1.466,1.466,0,0,1-2.073,0M39.714,31.691c1.906,2.954,3.661,8.762,2.2,10.219s-7.264-.3-10.216-2.2ZM29.495,37.772,12.932,21.207l8.283-8.283L37.778,29.49ZM74.671,84.912H19.044a4.391,4.391,0,0,1-4.392-4.392V27.064L28.46,40.875a19.916,19.916,0,0,0,11.5,4.463,6.825,6.825,0,0,0,2.779-.539L44,46.052a1.464,1.464,0,1,0,2.07-2.07l-1.251-1.251c1.826-4.083-1.569-11.922-3.926-14.277l-17.8-17.79a4.363,4.363,0,0,0-5.827-5.832l-.942-.945a4.392,4.392,0,0,1,2.719-.958H55.638v16.1a7.328,7.328,0,0,0,7.322,7.319h16.1V80.52A4.391,4.391,0,0,1,74.671,84.912Z" transform="translate(0 0)" fill="#12263f"/>
    <path id="Trazado_900105" data-name="Trazado 900105" d="M22.888,23.569a1.463,1.463,0,0,0,2.07,0l3.357-3.357,3.357,3.357a1.464,1.464,0,0,0,2.07-2.07l-3.357-3.357,3.357-3.357a1.464,1.464,0,0,0-2.07-2.07l-3.357,3.357-3.357-3.357a1.464,1.464,0,0,0-2.07,2.07l3.357,3.357L22.888,21.5A1.463,1.463,0,0,0,22.888,23.569Z" transform="translate(39.037 21.385)" fill="#12263f"/>
    <path id="Trazado_900106" data-name="Trazado 900106" d="M33.754,25.023a1.463,1.463,0,0,0-2.07,0L28.327,28.38,24.97,25.023a1.464,1.464,0,0,0-2.07,2.07l3.357,3.357L22.9,33.807a1.464,1.464,0,1,0,2.07,2.07l3.357-3.357,3.357,3.357a1.464,1.464,0,0,0,2.07-2.07L30.4,30.45l3.357-3.357a1.463,1.463,0,0,0,0-2.07" transform="translate(39.025 42.748)" fill="#12263f"/>
    <path id="Trazado_900107" data-name="Trazado 900107" d="M34.062,18.637l-7.338,7.771-2.358-2.021a1.464,1.464,0,1,0-1.9,2.223l3.417,2.927a1.465,1.465,0,0,0,2.018-.1l8.3-8.784a1.465,1.465,0,0,0-2.13-2.013Z" transform="translate(38.082 31.596)" fill="#12263f"/>
    <path id="Trazado_900108" data-name="Trazado 900108" d="M41.16,18.713H8.951a1.464,1.464,0,0,0,0,2.927H41.16a1.464,1.464,0,1,0,0-2.927" transform="translate(13.017 32.525)" fill="#12263f"/>
    <path id="Trazado_900109" data-name="Trazado 900109" d="M41.16,20.852H8.951a1.464,1.464,0,0,0,0,2.927H41.16a1.464,1.464,0,1,0,0-2.927" transform="translate(13.017 36.243)" fill="#12263f"/>
    <path id="Trazado_900110" data-name="Trazado 900110" d="M41.16,25.129H8.951a1.464,1.464,0,0,0,0,2.927H41.16a1.464,1.464,0,1,0,0-2.927" transform="translate(13.017 43.677)" fill="#12263f"/>
    <path id="Trazado_900111" data-name="Trazado 900111" d="M41.16,27.268H8.951a1.464,1.464,0,0,0,0,2.927H41.16a1.464,1.464,0,1,0,0-2.927" transform="translate(13.017 47.395)" fill="#12263f"/>
  </g>
</svg>
