<svg id="Grupo_1126127" data-name="Grupo 1126127" xmlns="http://www.w3.org/2000/svg" xmlns:xlink="http://www.w3.org/1999/xlink" width="46.531" height="74.451" viewBox="0 0 46.531 74.451">
  <defs>
    <clipPath id="clip-path">
      <rect id="Rectángulo_415842" data-name="Rectángulo 415842" width="46.531" height="74.451" fill="none"/>
    </clipPath>
  </defs>
  <g id="Grupo_1126126" data-name="Grupo 1126126" transform="translate(0 0)" clip-path="url(#clip-path)">
    <path id="Trazado_900033" data-name="Trazado 900033" d="M10.1,70.475l12.024,2.732L30.6,71.569l5.193-7.925,4.665-18.353S40.164.519,39.345.519,21.9.823,21.9.823s2.691,13.086,1.872,12.538S11.745,12.27,11.745,12.27,8.631,65.723,9.286,66.922c1.638,3.007.819,3.553.819,3.553" transform="translate(6.021 0.34)" fill="#f2c63b"/>
    <path id="Trazado_900034" data-name="Trazado 900034" d="M37.481,38c0,16.639-8.31,30.127-18.562,30.127S.356,54.634.356,38,8.666,7.868,18.919,7.868,37.481,21.356,37.481,38" transform="translate(0.233 5.152)" fill="#ffe060"/>
    <path id="Trazado_900035" data-name="Trazado 900035" d="M18.088,48.123l0,0A39.509,39.509,0,0,0,20.5,33.835a39.667,39.667,0,0,0-2.371-14.18,1.109,1.109,0,0,0-.165-.409c-1.354-3.128-3.232-5.188-5.6-5.188-5.29,0-8.143,10.19-8.143,19.776s2.853,19.776,8.143,19.776c2.446,0,4.365-2.2,5.727-5.489m-1.074-4.206A41.966,41.966,0,0,1,15.85,33.835a41.952,41.952,0,0,1,1.165-10.079,41.715,41.715,0,0,1,1.162,10.079,41.74,41.74,0,0,1-1.162,10.081M13.324,35h.223a47.294,47.294,0,0,0,.488,5.817H7.074A44.053,44.053,0,0,1,6.566,35h.177a3.49,3.49,0,0,0,6.581,0m-.963-18.613c.915,0,1.867.847,2.729,2.327h-.4a1.163,1.163,0,0,0,0,2.327h.692a32.743,32.743,0,0,0-1.157,4.653H12.361a1.163,1.163,0,1,0,0,2.327h1.511c-.182,1.5-.288,3.066-.324,4.653H12.361A1.163,1.163,0,0,0,11.2,33.835a1.163,1.163,0,0,1-2.327,0,1.164,1.164,0,0,0-1.163-1.163H6.566c.228-9.393,3.157-16.286,5.8-16.286M7.526,43.142h6.922a28.606,28.606,0,0,0,1.311,4.5c-1.021,2.294-2.237,3.639-3.4,3.639-1.789,0-3.71-3.177-4.835-8.143" transform="translate(2.762 9.206)"/>
    <path id="Trazado_900036" data-name="Trazado 900036" d="M27.918,1.163v10.47h-12.8C6.642,11.633,0,25.429,0,43.041s6.642,31.41,15.121,31.41H31.408c8.059,0,14.455-12.464,15.07-28.82a1.141,1.141,0,0,0,.053-.263,1.007,1.007,0,0,0-.038-.184c.023-.708.038-1.421.038-2.143V1.163A1.164,1.164,0,0,0,45.368,0H29.081a1.164,1.164,0,0,0-1.163,1.163m0,12.8V26.091c-1.647-5.428-4.076-9.682-6.985-12.131ZM2.327,43.041c0-15.764,5.86-29.081,12.795-29.081s12.8,13.318,12.8,29.081-5.86,29.083-12.8,29.083S2.327,58.806,2.327,43.041M44.191,44.2H40.714a1.163,1.163,0,1,0,0,2.327H44.1c-.088,1.59-.233,3.146-.435,4.653H39.551a1.163,1.163,0,0,0,0,2.327h3.758c-.286,1.623-.632,3.18-1.038,4.653H38.388a1.163,1.163,0,0,0,0,2.327h3.174a33.176,33.176,0,0,1-1.951,4.665c-.022,0-.038-.012-.06-.012H34.9a1.163,1.163,0,1,0,0,2.327h3.341c-1.991,2.929-4.341,4.653-6.831,4.653H20.933c5.515-4.642,9.311-15.77,9.311-29.083V11.633h3.49A1.164,1.164,0,0,0,34.9,10.47a2.327,2.327,0,1,1,4.653,0,1.164,1.164,0,0,0,1.163,1.163H44.2v4.653h-3.49a1.163,1.163,0,1,0,0,2.327H44.2v4.653h-3.49a1.163,1.163,0,1,0,0,2.327H44.2v4.653h-3.49a1.163,1.163,0,1,0,0,2.327H44.2v4.652h-3.49a1.163,1.163,0,1,0,0,2.327H44.2v3.49c0,.391-.007.778-.013,1.163M44.2,2.327v6.98H41.73a4.654,4.654,0,0,0-9.012,0H30.245V2.327Z" transform="translate(0 0)"/>
  </g>
</svg>
