<svg id="Grupo_1126501" data-name="Grupo 1126501" xmlns="http://www.w3.org/2000/svg" xmlns:xlink="http://www.w3.org/1999/xlink" width="77.092" height="77.092" viewBox="0 0 77.092 77.092">
  <defs>
    <clipPath id="clip-path">
      <rect id="Rectángulo_416543" data-name="Rectángulo 416543" width="77.092" height="77.092" fill="none"/>
    </clipPath>
  </defs>
  <g id="Grupo_1126500" data-name="Grupo 1126500" transform="translate(0 0)" clip-path="url(#clip-path)">
    <path id="Trazado_904130" data-name="Trazado 904130" d="M37.085,3.707A33.378,33.378,0,1,0,70.463,37.086,33.379,33.379,0,0,0,37.085,3.707m0,59.5A26.122,26.122,0,1,1,63.206,37.086,26.151,26.151,0,0,1,37.085,63.207" transform="translate(1.461 1.461)" fill="#ffb74d"/>
    <path id="Trazado_904131" data-name="Trazado 904131" d="M32.981,14.116A18.866,18.866,0,1,0,51.848,32.982,18.888,18.888,0,0,0,32.981,14.116" transform="translate(5.564 5.565)" fill="#ffb74d"/>
    <path id="Trazado_904132" data-name="Trazado 904132" d="M19.32,21.77V43.539H42.539V21.77a11.61,11.61,0,1,0-23.219,0" transform="translate(7.616 4.005)" fill="#58565b"/>
    <rect id="Rectángulo_416540" data-name="Rectángulo 416540" width="23.219" height="10.158" transform="translate(26.936 37.385)" fill="#474549"/>
    <path id="Trazado_904133" data-name="Trazado 904133" d="M20.882,32.1v13.32H39.748V32.1h-5.37V23.8H26.251v8.3Z" transform="translate(8.232 9.381)" fill="#ffe5c2"/>
    <path id="Trazado_904134" data-name="Trazado 904134" d="M33.032,32.1V23.8H24.905v8.3H24.3a11.568,11.568,0,0,0,9.345,0Z" transform="translate(9.577 9.381)" fill="#fed2a4"/>
    <path id="Trazado_904135" data-name="Trazado 904135" d="M22.41,29.751h4.209v.29a11.408,11.408,0,0,0,6.157,10.127,11.408,11.408,0,0,0,6.157-10.127v-.29h4.209a7.774,7.774,0,0,1,7.774,7.774V45.1H14.636V37.525a7.774,7.774,0,0,1,7.774-7.774" transform="translate(5.77 11.728)" fill="#b2a3d8"/>
    <rect id="Rectángulo_416541" data-name="Rectángulo 416541" width="36.281" height="4.354" transform="translate(20.406 52.478)" fill="#d1c4e9"/>
    <path id="Trazado_904136" data-name="Trazado 904136" d="M29.7,30.987h0a7.256,7.256,0,0,0,7.255-7.257V18.071H22.442V23.73A7.257,7.257,0,0,0,29.7,30.987" transform="translate(8.847 7.124)" fill="#ffe5c2"/>
    <path id="Trazado_904137" data-name="Trazado 904137" d="M29.7,30.987h0a7.256,7.256,0,0,0,7.255-7.257V18.071H22.442V23.73A7.257,7.257,0,0,0,29.7,30.987" transform="translate(8.847 7.124)" fill="none" stroke="#000" stroke-miterlimit="13.333" stroke-width="1.5"/>
    <path id="Trazado_904138" data-name="Trazado 904138" d="M59.946,54.815l-5.131,5.131-8.209-8.209-3.078,7.183L34.8,34.8,58.92,43.528l-7.183,3.078Z" transform="translate(13.72 13.72)" fill="#feef8f"/>
    <path id="Trazado_904139" data-name="Trazado 904139" d="M43.3,42.265l-3.611,8.428L41.6,55.979l3.08-7.184L52.888,57l2.576-2.575Z" transform="translate(15.646 16.661)" fill="#f7d700"/>
    <path id="Trazado_904140" data-name="Trazado 904140" d="M9.231,29.435H1.394a1.394,1.394,0,0,1,0-2.788H9.231a1.394,1.394,0,0,1,0,2.788" transform="translate(0 10.504)"/>
    <line id="Línea_1721" data-name="Línea 1721" x2="7.837" transform="translate(67.861 38.546)" fill="none" stroke="#000" stroke-linecap="round" stroke-miterlimit="13.333" stroke-width="2"/>
    <path id="Trazado_904141" data-name="Trazado 904141" d="M28.041,58.3A1.393,1.393,0,0,1,26.647,56.9V49.068a1.394,1.394,0,0,1,2.788,0V56.9A1.393,1.393,0,0,1,28.041,58.3" transform="translate(10.504 18.793)"/>
    <path id="Trazado_904142" data-name="Trazado 904142" d="M49.968,41.21a1.371,1.371,0,0,1-.559-.119,1.392,1.392,0,0,1-.715-1.836,31.7,31.7,0,0,0,2.2-7.292,1.395,1.395,0,0,1,2.748.482,34.541,34.541,0,0,1-2.4,7.93,1.392,1.392,0,0,1-1.277.834" transform="translate(19.148 12.146)"/>
    <path id="Trazado_904143" data-name="Trazado 904143" d="M32.2,53.666a1.394,1.394,0,0,1-.24-2.767,31.825,31.825,0,0,0,7.29-2.2,1.393,1.393,0,1,1,1.121,2.551,34.458,34.458,0,0,1-7.929,2.4,1.45,1.45,0,0,1-.243.021" transform="translate(12.146 19.149)"/>
    <path id="Trazado_904144" data-name="Trazado 904144" d="M28.041,10.625a1.393,1.393,0,0,1-1.394-1.394V1.394a1.394,1.394,0,0,1,2.788,0V9.231a1.393,1.393,0,0,1-1.394,1.394" transform="translate(10.504 0)"/>
    <path id="Trazado_904145" data-name="Trazado 904145" d="M42.9,39.2a1.255,1.255,0,0,1-1.255-1.255V22.125a10.309,10.309,0,0,0-2.865-7.149,1.258,1.258,0,0,1-.325-1.107,1.239,1.239,0,0,1-1.14-.166,10.355,10.355,0,0,0-16.379,8.422V37.943a1.255,1.255,0,0,1-2.511,0V22.125A12.865,12.865,0,0,1,38.773,11.663a1.254,1.254,0,0,1,.5,1.26,1.252,1.252,0,0,1,1.319.321,12.808,12.808,0,0,1,3.558,8.881V37.943A1.255,1.255,0,0,1,42.9,39.2" transform="translate(7.261 3.65)"/>
    <path id="Trazado_904146" data-name="Trazado 904146" d="M29.7,30.987h0a7.256,7.256,0,0,0,7.255-7.257V18.071H22.442V23.73A7.257,7.257,0,0,0,29.7,30.987Z" transform="translate(8.847 7.124)" fill="none" stroke="#000" stroke-miterlimit="13.333" stroke-width="1.561" stroke-dasharray="18.736 1.561 62.454 1.561"/>
    <path id="Trazado_904147" data-name="Trazado 904147" d="M44.764,38.546a1.256,1.256,0,0,1-1.217-.955,6.5,6.5,0,0,0-6.327-4.948H29.661V26.857a1.255,1.255,0,0,1,2.511,0v3.275H37.22a9.01,9.01,0,0,1,8.764,6.858,1.257,1.257,0,0,1-.917,1.52,1.329,1.329,0,0,1-.3.036" transform="translate(11.692 10.092)"/>
    <rect id="Rectángulo_416542" data-name="Rectángulo 416542" width="2.176" height="4.354" transform="translate(25.848 52.478)"/>
    <path id="Trazado_904148" data-name="Trazado 904148" d="M29.743,42.028l-.577-.3a12.62,12.62,0,0,1-6.834-11.241v-.612a1.255,1.255,0,1,1,2.51,0v.612a10.113,10.113,0,0,0,4.9,8.69,10.113,10.113,0,0,0,4.9-8.69v-.466a1.255,1.255,0,1,1,2.51,0v.466A12.62,12.62,0,0,1,30.32,41.728Z" transform="translate(8.803 11.282)"/>
    <path id="Trazado_904149" data-name="Trazado 904149" d="M28.713,26.5v4.53h-6.3a7.775,7.775,0,0,0-7.774,7.774v7.577" transform="translate(5.77 10.447)" fill="none" stroke="#000" stroke-linecap="round" stroke-miterlimit="13.333" stroke-width="1.8"/>
    <path id="Trazado_904150" data-name="Trazado 904150" d="M43.333,42.373H11.869a1.255,1.255,0,1,1,0-2.511H43.333a1.255,1.255,0,0,1,0,2.511" transform="translate(4.184 15.714)"/>
    <path id="Trazado_904151" data-name="Trazado 904151" d="M55.171,61.555a1.249,1.249,0,0,1-.888-.367l-6.9-6.9-2.349,5.479a1.3,1.3,0,0,1-1.189.76A1.256,1.256,0,0,1,42.7,59.7L33.979,35.587a1.255,1.255,0,0,1,1.608-1.608l12.208,4.415a1.259,1.259,0,0,1,.81.962,1.257,1.257,0,0,1,1.235-.223L59.7,42.7a1.256,1.256,0,0,1,.068,2.334L54.29,47.383l6.9,6.9a1.254,1.254,0,0,1,0,1.775l-5.131,5.131a1.246,1.246,0,0,1-.887.367M46.96,50.836a1.262,1.262,0,0,1,.888.368l7.322,7.322,3.356-3.357L51.2,47.847a1.255,1.255,0,0,1,.393-2.04l4.262-1.826L48.988,41.5a1.259,1.259,0,0,1-.81-.962,1.259,1.259,0,0,1-1.237.223L37.25,37.25l6.731,18.61L45.807,51.6a1.264,1.264,0,0,1,1.153-.761" transform="translate(13.365 13.365)"/>
    <path id="Trazado_904152" data-name="Trazado 904152" d="M59.273,32.925A1.4,1.4,0,0,1,57.9,31.772a32.117,32.117,0,0,0-9.84-17.97,1.387,1.387,0,0,1-.448-1.074,1.408,1.408,0,0,1-1.132-.286A31.918,31.918,0,0,0,31.965,5.835a1.394,1.394,0,0,1,.482-2.747,34.72,34.72,0,0,1,15.785,7.183,1.39,1.39,0,0,1,.517,1.133,1.413,1.413,0,0,1,1.2.346,34.917,34.917,0,0,1,10.7,19.538A1.394,1.394,0,0,1,59.516,32.9a1.45,1.45,0,0,1-.243.021" transform="translate(12.146 1.21)"/>
    <path id="Trazado_904153" data-name="Trazado 904153" d="M4.464,32.925a1.45,1.45,0,0,1-.243-.021,1.394,1.394,0,0,1-1.132-1.614,34.917,34.917,0,0,1,10.7-19.538,1.406,1.406,0,0,1,1.2-.346,1.39,1.39,0,0,1,.517-1.133A34.72,34.72,0,0,1,31.289,3.089a1.394,1.394,0,1,1,.482,2.747,31.918,31.918,0,0,0-14.516,6.607,1.415,1.415,0,0,1-1.132.286,1.387,1.387,0,0,1-.448,1.074,32.117,32.117,0,0,0-9.84,17.97,1.4,1.4,0,0,1-1.372,1.153" transform="translate(1.209 1.21)"/>
    <path id="Trazado_904154" data-name="Trazado 904154" d="M31.532,60.669a1.45,1.45,0,0,1-.243-.021A34.725,34.725,0,0,1,15.5,53.465a1.39,1.39,0,0,1-.517-1.136,1.4,1.4,0,0,1-1.2-.346,34.915,34.915,0,0,1-10.7-19.537,1.394,1.394,0,1,1,2.747-.482,32.108,32.108,0,0,0,9.84,17.968,1.384,1.384,0,0,1,.448,1.076,1.408,1.408,0,0,1,1.131.286A31.916,31.916,0,0,0,31.772,57.9a1.394,1.394,0,0,1-.24,2.767" transform="translate(1.209 12.146)"/>
    <path id="Trazado_904155" data-name="Trazado 904155" d="M25.878,13.715a7.249,7.249,0,0,1,7.547,1.647" transform="translate(10.201 5.236)" fill="none" stroke="#fff" stroke-miterlimit="13.333" stroke-width="1.561" stroke-dasharray="1.561 1.561 62.454 1.561"/>
    <line id="Línea_1722" data-name="Línea 1722" x2="6.53" transform="translate(14.601 30.419)" fill="none" stroke="#fff" stroke-miterlimit="13.333" stroke-width="1.561" stroke-dasharray="1.561 1.561"/>
    <line id="Línea_1723" data-name="Línea 1723" x2="6.53" transform="translate(55.961 30.419)" fill="none" stroke="#fff" stroke-miterlimit="13.333" stroke-width="1.561" stroke-dasharray="1.561 1.561"/>
  </g>
</svg>
