<svg id="Grupo_1126137" data-name="Grupo 1126137" xmlns="http://www.w3.org/2000/svg" xmlns:xlink="http://www.w3.org/1999/xlink" width="93.039" height="93.013" viewBox="0 0 93.039 93.013">
  <defs>
    <clipPath id="clip-path">
      <rect id="Rectángulo_415854" data-name="Rectángulo 415854" width="93.039" height="93.013" fill="none"/>
    </clipPath>
  </defs>
  <g id="Grupo_1126136" data-name="Grupo 1126136" transform="translate(0 0)" clip-path="url(#clip-path)">
    <path id="Trazado_900084" data-name="Trazado 900084" d="M80.549,23.932v9.3H60.4L52.644,22.383H15.44v-9.3a3.11,3.11,0,0,1,3.1-3.1h34.1L60.4,20.831H77.448a3.111,3.111,0,0,1,3.1,3.1" transform="translate(10.94 7.072)" fill="#ee8700"/>
    <path id="Trazado_900085" data-name="Trazado 900085" d="M67.39,2.458V39.664H20.884V2.458a1.55,1.55,0,0,1,1.55-1.55H65.84a1.55,1.55,0,0,1,1.55,1.55" transform="translate(14.798 0.644)" fill="#e6e7e8"/>
    <path id="Trazado_900086" data-name="Trazado 900086" d="M80.549,28.09v31a3.111,3.111,0,0,1-3.1,3.1H18.539a3.11,3.11,0,0,1-3.1-3.1V17.239h37.2L60.4,28.09Z" transform="translate(10.94 12.215)" fill="#ffb74d"/>
    <path id="Trazado_900087" data-name="Trazado 900087" d="M37.142,51.644c0,.526-.015,1.039-.062,1.55H18.539a3.108,3.108,0,0,1-3.1-3.1V29.942a21.7,21.7,0,0,1,21.7,21.7" transform="translate(10.94 21.216)" fill="#ee8700"/>
    <path id="Trazado_900088" data-name="Trazado 900088" d="M22.625,28.127a21.7,21.7,0,1,1-21.7,21.7,21.7,21.7,0,0,1,21.7-21.7" transform="translate(0.654 19.93)" fill="#3bf2d6"/>
    <path id="Trazado_900089" data-name="Trazado 900089" d="M35.556,47.256A15.5,15.5,0,1,1,31.014,36.3a15.5,15.5,0,0,1,4.541,10.96" transform="translate(3.225 22.503)" fill="#e6e7e8"/>
    <rect id="Rectángulo_415849" data-name="Rectángulo 415849" width="3.101" height="12.401" transform="translate(82.188 27.904)" fill="#cc7400"/>
    <rect id="Rectángulo_415850" data-name="Rectángulo 415850" width="3.101" height="12.401" transform="translate(32.581 17.053)" fill="#cc7400"/>
    <path id="Trazado_900090" data-name="Trazado 900090" d="M88.388,26.355H83.737V3.1a3.111,3.111,0,0,0-3.1-3.1H37.23a3.109,3.109,0,0,0-3.1,3.1V15.5H29.48a4.665,4.665,0,0,0-4.651,4.651V46.584c-.513-.031-1.023-.077-1.55-.077A23.253,23.253,0,1,0,45.663,75.961H88.388a4.667,4.667,0,0,0,4.651-4.651V31a4.664,4.664,0,0,0-4.651-4.649M37.23,3.1H80.636V38.756h-8.51l-7.285-10.2a1.55,1.55,0,0,0-1.256-.651H37.23Zm-9.3,17.052A1.551,1.551,0,0,1,29.48,18.6H34.13v9.3h-6.2ZM23.279,89.912A20.153,20.153,0,1,1,43.432,69.759,20.152,20.152,0,0,1,23.279,89.912m66.658-18.6a1.549,1.549,0,0,1-1.55,1.55H46.3a22.678,22.678,0,0,0,.232-3.1,23.3,23.3,0,0,0-18.6-22.787V31H62.793l7.285,10.2a1.559,1.559,0,0,0,1.256.651h18.6Zm0-32.555h-6.2v-9.3h4.651A1.55,1.55,0,0,1,89.938,31Z" transform="translate(0 0)"/>
    <rect id="Rectángulo_415851" data-name="Rectángulo 415851" width="31.004" height="3.101" transform="translate(43.432 9.301)"/>
    <rect id="Rectángulo_415852" data-name="Rectángulo 415852" width="31.004" height="3.101" transform="translate(43.432 15.502)"/>
    <rect id="Rectángulo_415853" data-name="Rectángulo 415853" width="31.004" height="3.101" transform="translate(43.432 21.704)"/>
    <path id="Trazado_900091" data-name="Trazado 900091" d="M20.7,30.848A17.052,17.052,0,1,0,37.749,47.9,17.054,17.054,0,0,0,20.7,30.848m13.86,18.6A13.892,13.892,0,0,1,31.588,56.6l-2.122-2.122L27.274,56.67,29.4,58.792a13.892,13.892,0,0,1-7.149,2.97V58.752h-3.1v3.009A13.88,13.88,0,0,1,12,58.792l2.12-2.122-2.192-2.192L9.807,56.6a13.894,13.894,0,0,1-2.971-7.149H9.846v-3.1H6.836A13.882,13.882,0,0,1,9.807,39.2l2.12,2.12,2.192-2.192L12,37.011a13.882,13.882,0,0,1,7.147-2.971V37.05h3.1V34.04A13.894,13.894,0,0,1,29.4,37.011l-2.122,2.12,2.192,2.192,2.122-2.12a13.88,13.88,0,0,1,2.969,7.147H31.548v3.1Z" transform="translate(2.582 21.858)"/>
    <path id="Trazado_900092" data-name="Trazado 900092" d="M13.816,43.4l-2.647,2.647,2.192,2.192,3.1-3.1a1.551,1.551,0,0,0,.454-1.1V36.292h-3.1Z" transform="translate(7.914 25.716)"/>
  </g>
</svg>
