<svg xmlns="http://www.w3.org/2000/svg" xmlns:xlink="http://www.w3.org/1999/xlink" width="85" height="146" viewBox="0 0 85 146">
  <defs>
    <clipPath id="clip-path">
      <rect id="Rect치ngulo_416538" data-name="Rect치ngulo 416538" width="85" height="146" transform="translate(705.051 6021)" fill="#fff" stroke="#707070" stroke-width="1"/>
    </clipPath>
    <clipPath id="clip-path-2">
      <rect id="Rect치ngulo_415841" data-name="Rect치ngulo 415841" width="84.026" height="84.026" fill="#ffb74d"/>
    </clipPath>
  </defs>
  <g id="Enmascarar_grupo_1098759" data-name="Enmascarar grupo 1098759" transform="translate(-705.051 -6021)" clip-path="url(#clip-path)">
    <g id="Grupo_1126125" data-name="Grupo 1126125" transform="translate(705.974 6050.855)">
      <g id="Grupo_1126124" data-name="Grupo 1126124" transform="translate(0 0.001)" clip-path="url(#clip-path-2)">
        <path id="Trazado_900028" data-name="Trazado 900028" d="M23.548,24.656a2.711,2.711,0,1,1,5.422,0v2.711H31.68V24.656a5.422,5.422,0,1,0-10.843,0v2.711h2.711Z" transform="translate(14.4 13.291)" fill="#ffb74d"/>
        <path id="Trazado_900029" data-name="Trazado 900029" d="M9.617,27.366h2.711V24.656a2.711,2.711,0,1,1,5.422,0v2.711h2.709V24.656a5.421,5.421,0,1,0-10.841,0Z" transform="translate(6.646 13.291)" fill="#ffb74d"/>
        <path id="Trazado_900030" data-name="Trazado 900030" d="M13.625,29.959a8.131,8.131,0,1,0,16.261,0V27.248H13.625Zm13.552,0a5.422,5.422,0,1,1-10.843,0Z" transform="translate(9.416 18.829)" fill="#ffb74d"/>
        <path id="Trazado_900031" data-name="Trazado 900031" d="M59.632,50.145V46.953a12.2,12.2,0,1,0,0-15.3v-.482A25.562,25.562,0,0,0,30.2,5.716l-.09-1.037A5.122,5.122,0,0,0,23.384.264,30.2,30.2,0,0,0,2.711,28.949v4.309a8.095,8.095,0,0,0,0,12.089v4.8a12.212,12.212,0,0,0,12.2,12.2h5.42a4.01,4.01,0,0,0,2.023-.56,7.051,7.051,0,0,0-2.023,4.936A17.329,17.329,0,0,0,37.635,84.028h35.55a5.427,5.427,0,0,0,5.422-5.422V59.632a5.427,5.427,0,0,0-5.422-5.422H70.474V75.9H55.552a5.537,5.537,0,0,0-10.244-2.8l-1.618-.167.254-.889a9.163,9.163,0,0,0,.144-4.4A17.708,17.708,0,0,0,59.632,50.145Zm2.86-4.065H75.745a9.455,9.455,0,0,1-13.253,0m6.627-16.263A9.478,9.478,0,0,1,75.9,45.931V43.369H73.184V35.237H70.474v8.132H67.763V32.526H65.052V43.369H62.341v2.562a9.479,9.479,0,0,1,6.778-16.114m-63.7-.868A27.491,27.491,0,0,1,24.241,2.834a2.46,2.46,0,0,1,.764-.123,2.4,2.4,0,0,1,2.4,2.2l.117,1.336A25.772,25.772,0,0,0,8.131,31.171a8.129,8.129,0,0,0-2.709.473Zm2.709,4.933h2.711V44.724H8.131a5.421,5.421,0,0,1,0-10.841m5.422,25.654a9.5,9.5,0,0,1-8.131-9.391V46.961a8.087,8.087,0,0,0,2.709.473h2.937A17.527,17.527,0,0,0,14.6,55.584a4.029,4.029,0,0,0-1.043,2.694Zm6.859-34.21A5.408,5.408,0,0,0,22.3,26.641a17.085,17.085,0,0,0,17.448-.911l.7-.465,1.911.095a6.774,6.774,0,0,1,6.436,6.769v12.6A14.925,14.925,0,0,1,33.882,59.632H28.461a14.893,14.893,0,0,1-4.145-.583,4,4,0,0,0,.079-.771,4.072,4.072,0,0,0-4.067-4.067H17.618a3.966,3.966,0,0,0-.587.061,14.852,14.852,0,0,1-3.479-9.548V32.643a6.739,6.739,0,0,1,4.292-6.306ZM34.44,65.94a7.022,7.022,0,0,0-1.111-3.047l2.559.284A6.4,6.4,0,0,1,41.335,71.3l-.377,1.326A7.647,7.647,0,0,1,34.44,65.94ZM20.328,59.632H16.263V58.278a1.358,1.358,0,0,1,1.355-1.356h2.711a1.355,1.355,0,1,1,0,2.711m2.711,7.087a4.366,4.366,0,0,1,8.706-.482,10.286,10.286,0,0,0,2.54,5.682A13.366,13.366,0,0,1,26.227,75.8,14.505,14.505,0,0,1,23.039,66.719Zm50.145-9.8A2.714,2.714,0,0,1,75.9,59.632V75.9H73.184ZM75.9,78.606a2.714,2.714,0,0,1-2.711,2.711H54.211A2.714,2.714,0,0,1,51.5,78.606ZM46.87,75.987l.617-1.234A2.827,2.827,0,0,1,52.843,75.9H48.789v2.711a5.346,5.346,0,0,0,.756,2.711H37.635a14.521,14.521,0,0,1-9.068-3.179A16.127,16.127,0,0,0,36.329,73.7a10.228,10.228,0,0,0,4.608,1.671ZM43.078,65a9.084,9.084,0,0,0-3.717-3.538A17.64,17.64,0,0,0,51.5,44.724v-12.6a9.471,9.471,0,0,0-8.371-9.411,8.939,8.939,0,0,0,1.595-5.1H42.013a6.232,6.232,0,0,1-2.78,5.193l-.994.663a14.377,14.377,0,0,1-14.736.737l-.132-.061a2.685,2.685,0,0,1,1-5.178H27.1V16.263H24.368a5.351,5.351,0,0,0-5.234,6.653l-2.283.9a9.422,9.422,0,0,0-5.9,7.356h-.115a23.04,23.04,0,0,1,46.08,0V50.145A14.965,14.965,0,0,1,43.078,65" transform="translate(0 -0.001)" fill="#ffb74d"/>
        <path id="Trazado_900032" data-name="Trazado 900032" d="M47.461,24.4a12.2,12.2,0,1,0-12.2-12.2,12.212,12.212,0,0,0,12.2,12.2M43.4,20.756V20.33a4.065,4.065,0,1,1,8.131,0v.426a9.365,9.365,0,0,1-8.131,0m1.355-9.913a2.711,2.711,0,1,1,2.711,2.709,2.714,2.714,0,0,1-2.711-2.709m2.711-8.132A9.478,9.478,0,0,1,54.1,18.964a6.8,6.8,0,0,0-2.853-4.253,5.421,5.421,0,1,0-7.569,0,6.788,6.788,0,0,0-2.853,4.253A9.479,9.479,0,0,1,47.461,2.711" transform="translate(24.369 -0.001)" fill="#ffb74d"/>
      </g>
    </g>
  </g>
</svg>
