<svg xmlns="http://www.w3.org/2000/svg" xmlns:xlink="http://www.w3.org/1999/xlink" width="505" height="504" viewBox="0 0 505 504">
  <defs>
    <clipPath id="clip-path">
      <rect id="Rectángulo_416531" data-name="Rectángulo 416531" width="505" height="504" transform="translate(180.051 5010)" fill="#fff" stroke="#707070" stroke-width="1"/>
    </clipPath>
    <clipPath id="clip-path-2">
      <rect id="Rectángulo_415840" data-name="Rectángulo 415840" width="432.583" height="401.228" fill="none"/>
    </clipPath>
  </defs>
  <g id="Enmascarar_grupo_1098758" data-name="Enmascarar grupo 1098758" transform="translate(-180.051 -5010)" clip-path="url(#clip-path)">
    <g id="Grupo_1126123" data-name="Grupo 1126123" transform="translate(216.051 5067)">
      <g id="Grupo_1126122" data-name="Grupo 1126122" transform="translate(0 0)" clip-path="url(#clip-path-2)">
        <path id="Trazado_899794" data-name="Trazado 899794" d="M44.689,2.37c.72,2.406,1.093,4.993,2.428,7.3,1.505,2.593,3.873,4.455,4.3,7.7.412,3.093-2.593,6.015-1.868,8.828.709,2.736,4.647,5.361,5.828,8.322,1.214,3.043,1.439,5.114-.923,7.531-2.785,2.856-3.955,3.334-1.527,7.064,4.01,6.158,4.417,10.959-2.659,15.227C46.019,66.9,39.059,69.487,34,68.393c-3.076-.659-4.252-2.675-4.873-5.773a7.89,7.89,0,0,1-.027-4.136c.483-1.45,2.439-2.153,2.472-3.895.055-2.626-4.548-4.241-6.268-6.191-2.4-2.719-3.977-5.241-2.6-8.795,1.274-3.285,4.027-4.785,2.379-8.608-1.23-2.856-3.79-5-4.746-8.053-1.956-6.246,2.071-16.194,7-20.259C31.648-.871,43.953-.745,44.382,6.814" transform="translate(89.116 1.91)" fill="#001848"/>
        <path id="Trazado_899795" data-name="Trazado 899795" d="M58.944,30.33l-.813.132L36.68,33.95v.011l-3.17.511a8.457,8.457,0,0,1-9.163-5.054l-2.2-5.186L17.025,12.125a15.323,15.323,0,0,1-1.132-4.268l-.225-1.884a2.758,2.758,0,0,1,1.769-2.9l.7-.264a2.773,2.773,0,0,1,3.62,1.829l.621.428a1.684,1.684,0,0,1,.549,2.087L21.3,10.592l7.515,12.294h.011l2.346,3.851,19.287-7.559.055-.033,1.077-.417.33.522,2.137,3.378,3.268,5.142v.011Z" transform="translate(70.317 11.854)" fill="#ffa998"/>
        <path id="Trazado_899796" data-name="Trazado 899796" d="M25.863,13.212,45.144,5.648c-.253.143-.511.313-.8.505-.088.071-.187.137-.286.22l-.022.011c-1.8,1.291-4.071,3.175-5.718,4.461-.176.143-.346.28-.527.423-.637.489-1.258.95-1.84,1.4-.862.665-1.681,1.307-2.483,1.989a5.41,5.41,0,0,0-2.236,4.422,4.507,4.507,0,0,0,.126,1.346v.005l-3.17.516a8.447,8.447,0,0,1-9.157-5.059l-2.2-5.18A5.984,5.984,0,0,0,23.5,9.361h.016Z" transform="translate(75.631 25.378)" fill="#fdb54e"/>
        <path id="Trazado_899797" data-name="Trazado 899797" d="M33.154,74.439c-.038.264-.082.5-.121.731a4.126,4.126,0,0,1,.483.494v.011a10.059,10.059,0,0,1,1.675,4.982v.011c1.373,10.91-3.543,32.641-3.735,33.454l-.005.22-.011.253c.379,2.368.972,5.092-1.423,4.944l-.313-.022a3.28,3.28,0,0,0-2.5.961c-1.494,1.494-5.175,1.236-7.169.632-.121-.027-.22-.066-.33-.1a1.1,1.1,0,0,1-.22-1.956l7.581-5.312c0-.011.016-.033.06-.071.148-.17.549-.6.538-.764l-2.5-54.246L23.617,25.087A18.444,18.444,0,0,1,23.98,20.9v-.011a27.886,27.886,0,0,1,2.115-6.405c3.038,1.945,8.883,10.778,12.393,18.04a1.919,1.919,0,0,0,.374.538c-.731,5.5-1.324,12.728-2.027,16.782-.533,3.016-1.022,6.136-1.467,9.135-.95,6.356-1.692,12.184-2.214,15.464" transform="translate(85.298 65.063)" fill="#ffa998"/>
        <path id="Trazado_899798" data-name="Trazado 899798" d="M30.016,38.4l-.313-.022a3.253,3.253,0,0,0-2.494.967c-1.494,1.494-5.175,1.23-7.169.632-.121-.033-.225-.071-.335-.1a1.1,1.1,0,0,1-.22-1.956l7.581-5.312.06-.071c1.516.242,3.021.472,4.323.67l-.011.253c.385,2.368.972,5.092-1.423,4.944" transform="translate(85.293 146.198)" fill="#001848"/>
        <path id="Trazado_899799" data-name="Trazado 899799" d="M28.936,16.16c-.791-2.054,1.368-10.844,1.9-11.646l-6.9-.687-.516,2.637c-.352,1.818-.621,3.659-.791,5.5l-.3,3.214Z" transform="translate(100.325 17.201)" fill="#ff9581"/>
        <path id="Trazado_899800" data-name="Trazado 899800" d="M26.358,9.557l-4.543,3.109,2.406-6.488.22-.621c.121,0,.242-.011.374-.011a5.659,5.659,0,0,1,1.23.137c1.379.3,3.181.494,4.829.775Z" transform="translate(98.02 24.925)" fill="#ff9581"/>
        <path id="Trazado_899801" data-name="Trazado 899801" d="M50.771,125.612c-.11.258-.231.439-.363.692a14.276,14.276,0,0,0-1.192,3.4,2.233,2.233,0,0,1-1.675,1.857c-1.472.439-3.307.862-4.862,1.28a1.97,1.97,0,0,1,.489-2.714c.22-.181.621-.385.846-.544a2.875,2.875,0,0,0,1.192-1.637,4.241,4.241,0,0,0-.22-2.186c-.17-.621-.456-1.423-.8-2.346-2.247-6.015-7.625-17.447-9-21.451-1.505-4.411-2.719-7.833-3.669-10.6v-.005c-.676-1.939-1.225-3.554-1.675-4.988v-.011c-.121-.428-.253-.829-.363-1.22-1.461-5.147-1.412-7.982-.731-15.557.121-1.351.258-2.856.423-4.554.357-3.95,1.45-12.552,1.785-14.991.049-.39.088-.692.126-.912.082-.544.1-.665.11-.665l.011-.027c.022-.2.044-.39.049-.571A6.314,6.314,0,0,0,31,44.921a4.132,4.132,0,0,0-.181-.439c-1.412-3.131-3.79-4.477-7.07-4.757-.071-.005-.143-.005-.209-.005a9.309,9.309,0,0,0-2.417.489c-.28-2.758-.571-5.955-.813-8.613v-.011l-.011-.06c-.022-.192-.038-.379-.06-.549V30.93c-.121-1.324-.181-2.214-.291-3.576-.049-.747-.132-1.005-.143-2.148,0-.17,0-.39.011-.654.033-1.862.093-7.669.132-12.453l16.809,1.34a12.9,12.9,0,0,0,.851,3.049A15.229,15.229,0,0,0,41.031,21.1a23.108,23.108,0,0,1,3.4,4.614,2.3,2.3,0,0,1,.132.231c3.488,7.29,4.581,14.239,1.214,21.781-2.247,7.383-4.345,14.744-6.2,22.193q-1.4,5.5-2.587,11.063a.993.993,0,0,1,.538-.049c1.626.39,2.225,2.626,2.609,3.873,2.225,7.279,2.736,14.969,4.274,22.413.461,2.247,2.362,11.981,3.637,13.59a2.285,2.285,0,0,0,.231.231c.742.72,1.917.928,2.516,1.84a2.66,2.66,0,0,1-.027,2.73" transform="translate(88.967 54.364)" fill="#ffa998"/>
        <path id="Trazado_899802" data-name="Trazado 899802" d="M32.331,36.5c-.11.258-.231.439-.363.692a14.276,14.276,0,0,0-1.192,3.4A2.233,2.233,0,0,1,29.1,42.451c-1.472.439-3.307.862-4.862,1.28a1.97,1.97,0,0,1,.489-2.714c.22-.181.621-.385.846-.544a2.875,2.875,0,0,0,1.192-1.637,4.241,4.241,0,0,0-.22-2.186c-.17-.621-.456-1.423-.8-2.346l4.1-2.373c.742.72,1.917.928,2.516,1.84a2.66,2.66,0,0,1-.027,2.73" transform="translate(107.407 143.475)" fill="#001848"/>
        <path id="Trazado_899803" data-name="Trazado 899803" d="M53.772,67.673A39.3,39.3,0,0,1,45.7,62.817l.994,3.79s-1.577,1.445-3.648-4.51A152.924,152.924,0,0,0,35.32,37.087a133.428,133.428,0,0,0-5.938-12.75c-2.065-3.889-3.851-6.757-5.015-8.509-.11-.176-.22-.346-.308-.522a6.584,6.584,0,0,1-.8-2.681v-.011a6.055,6.055,0,0,1,1.494-4.609,6.519,6.519,0,0,1,1.412-1.165,4.673,4.673,0,0,1,4.2-.555l.143.06.066.033.093.038.016.022a5.66,5.66,0,0,1,2.9,3.851,149.517,149.517,0,0,1,9.168,24.632,104.641,104.641,0,0,1,3.576,23.253s7.844,2.867,8.949,8.262a1.112,1.112,0,0,1-1.505,1.236" transform="translate(104.39 27.009)" fill="#ffa998"/>
        <path id="Trazado_899804" data-name="Trazado 899804" d="M42.9,17.254c.659-1.763.478-4.235-1.022-4.565a2.565,2.565,0,0,0-1.527.236C39.9,7.6,36.826,1.318,33.08.488c-4.9-1.082-9.514.8-11.964,13.53-.972,5.037,1.763,10.849,6.521,12.343,3.571,1.121,8.355-2.247,10.91-6.13,1.681-.247,3.516-.736,4.351-2.977" transform="translate(94.001 1.023)" fill="#ffa998"/>
        <path id="Trazado_899805" data-name="Trazado 899805" d="M23.128,5.846l-.066.011c-.588-.005-1.39-.066-1.538-.6-.209-.742,1.192-1.686,1.8-2.06a.277.277,0,0,1,.379.093.271.271,0,0,1-.093.374c-.862.527-1.621,1.23-1.56,1.445,0,.005.1.2,1.011.2a.271.271,0,0,1,.269.275.277.277,0,0,1-.2.264" transform="translate(96.619 14.172)" fill="#001848"/>
        <path id="Trazado_899806" data-name="Trazado 899806" d="M24.38,3.829a.916.916,0,1,1-1.813-.2.916.916,0,1,1,1.813.2" transform="translate(101.371 12.245)" fill="#001848"/>
        <path id="Trazado_899807" data-name="Trazado 899807" d="M23.188,3.695a.916.916,0,1,1-1.813-.2.916.916,0,1,1,1.813.2" transform="translate(96.015 11.643)" fill="#001848"/>
        <path id="Trazado_899808" data-name="Trazado 899808" d="M25.881,4.328a.309.309,0,0,1-.269-.2,1.964,1.964,0,0,0-2.472-1.3.308.308,0,0,1-.39-.2.314.314,0,0,1,.2-.4A2.571,2.571,0,0,1,26.194,3.9a.313.313,0,0,1-.181.4.369.369,0,0,1-.132.022" transform="translate(102.15 9.516)" fill="#001848"/>
        <path id="Trazado_899809" data-name="Trazado 899809" d="M24.471,2.859a.258.258,0,0,1-.28.022,1.646,1.646,0,0,0-2.28.527.262.262,0,1,1-.45-.269,2.154,2.154,0,0,1,2.977-.72.262.262,0,0,1,.033.439" transform="translate(96.255 9.441)" fill="#001848"/>
        <path id="Trazado_899810" data-name="Trazado 899810" d="M22.138,5.348a.247.247,0,0,1,.253-.126A1.654,1.654,0,0,0,24.3,3.859a.261.261,0,0,1,.516.077,2.163,2.163,0,0,1-2.477,1.8.25.25,0,0,1-.231-.286.233.233,0,0,1,.033-.1" transform="translate(99.318 16.34)" fill="#001848"/>
        <path id="Trazado_899811" data-name="Trazado 899811" d="M39.364,4.115c-.055,2.856-2.741,5.1-5.537,5.68-2.554.533-5.29.027-7.767.862-2.241.753-3.977,2.494-5.631,4.18q.783-2.62,1.571-5.246a15.473,15.473,0,0,1,1.9-4.5C25.543,2.737,28.35,1.5,31.1.66A12.766,12.766,0,0,1,34.569,0c4.488-.077,8.212,4.06,9.014,8.476S46.511,16.1,38.9,24.8c1.593-5.1-3.724-8.009-.132-18.688" transform="translate(91.793 0)" fill="#001848"/>
        <path id="Trazado_899812" data-name="Trazado 899812" d="M45.773,48.928c-2.247,7.383-4.34,14.744-6.2,22.193l-7.883-.253-2.95-.088-7.262-.22L19.938,36.986a18.735,18.735,0,0,1,.363-4.191v-.011l-.011-.06c-.022-.192-.038-.385-.06-.555V32.13c-.121-1.324-.181-2.214-.291-3.582-.049-.742-.132-1-.137-2.142,0-.17,0-.4.005-.654.033-2.054.1-8.938.154-13.92L36.616,13.81a15.127,15.127,0,0,0,.983,3.878A15.3,15.3,0,0,0,41.027,22.3a23.109,23.109,0,0,1,3.4,4.614,2.306,2.306,0,0,1,.132.231c3.488,7.29,4.581,14.239,1.214,21.781" transform="translate(88.971 53.165)" fill="#001848"/>
        <path id="Trazado_899813" data-name="Trazado 899813" d="M50.016,18.991c-.681,1.373-1.747,4.6-2.258,5.581A7.125,7.125,0,0,1,46.6,26.1a3.56,3.56,0,0,1-.242.308,2.169,2.169,0,0,1-.209.28c-1.022,1.324-3.12,3.906-3.126,3.922a46.313,46.313,0,0,0-3.323,5.521c-.417.808-.84,1.642-1.335,2.56h-.005a.769.769,0,0,1-.033.132,10.263,10.263,0,0,0-.148,3.214c.038.258.077.544.126.829l-16.8-1.346c.011-.5.016-.994.016-1.456.011-1.241.033-2.357.044-3.241.049-3.208.066-7.927.242-11.305a7.032,7.032,0,0,0,.055-1.209,6.9,6.9,0,0,1-2.274-3.433V20.87a4.652,4.652,0,0,1-.132-1.346,5.423,5.423,0,0,1,2.236-4.417c.8-.681,1.626-1.324,2.477-1.994.593-.445,1.214-.906,1.846-1.4.181-.143.352-.291.533-.423,1.642-1.285,3.922-3.17,5.718-4.466l.016-.005c.1-.082.2-.154.291-.22.28-.192.544-.368.791-.511l.06-.022a3.851,3.851,0,0,1,.692-.313h.011c.121-.044.253-.077.374-.11a2.617,2.617,0,0,1,.549-.1l-.22.615-2.406,6.488,4.543-3.1,4.51-3.1c.593.093,1.165.209,1.686.341a9.429,9.429,0,0,1,.994.286c.461.159.89.335,1.291.5.862.33,1.538.621,1.9.791a.43.43,0,0,1,.143.06l.071.022.088.049.022.016c2.258,1.61,4.158,6.806,2.346,10.476" transform="translate(87.409 24.934)" fill="#fdb54e"/>
        <path id="Trazado_899814" data-name="Trazado 899814" d="M37.723,34.572c-3.071-1.555-5.587-.983-7.432,2.164a132.56,132.56,0,0,0-5.938-12.744c.1-.121.181-.231.242-.313a6.978,6.978,0,0,0,1.154-1.533c.511-.983,1.577-4.2,2.258-5.576C29.818,12.9,27.917,7.7,25.659,6.089A5.682,5.682,0,0,1,28.554,9.94a149.2,149.2,0,0,1,9.168,24.632" transform="translate(109.42 27.36)" fill="#fdb54e"/>
        <path id="Trazado_899815" data-name="Trazado 899815" d="M50.283,27.1l-.137-.005H16.488c-1.818,0-3.043-.5-3.642-1.494a3.652,3.652,0,0,1,.115-3.329c2.373-4.208,6.658-6.872,12.4-7.724a28.967,28.967,0,0,1,6.993-.148V12.764a.828.828,0,0,1,.7-.818c2.011-.291,3.422-1.011,4.081-2.087a2.846,2.846,0,0,0,.3-2.329,3.7,3.7,0,0,0-1.038-1.522c-1.225-1.115-2.368-1.571-3.395-1.351-1.928.423-3.054,3.038-3.065,3.065a.826.826,0,0,1-1.522-.643c.06-.137,1.461-3.422,4.224-4.032,1.582-.346,3.219.242,4.867,1.747A5.308,5.308,0,0,1,39.011,7a4.537,4.537,0,0,1-.461,3.719,6.5,6.5,0,0,1-4.543,2.736V14.5a33.968,33.968,0,0,1,11.3,1.686,12.778,12.778,0,0,1,6.779,5.883c.9,1.7,1.049,3.027.45,3.95A2.682,2.682,0,0,1,50.283,27.1M29.419,16.027c-4.488,0-11.959.978-15.518,6.987a1.94,1.94,0,0,0-.148,1.648c.28.439,1.093.681,2.285.681H50.684c.22.011.791-.033.983-.324.088-.132.313-.687-.544-2.225a11.28,11.28,0,0,0-6.081-5,34.937,34.937,0,0,0-11.821-1.522.952.952,0,0,1-.176-.016,26.868,26.868,0,0,0-3.626-.225" transform="translate(56.05 13.258)" fill="#001848"/>
        <path id="Trazado_899816" data-name="Trazado 899816" d="M43.055,48.924l.082,37.437H14.715l.22-36.041a17.269,17.269,0,0,1,6.691-14.881l.005-.06a12.077,12.077,0,0,0,.286-2.62,12.47,12.47,0,0,0-.555-3.648,9.888,9.888,0,0,0-.341-.956L13.2,8.768a15.009,15.009,0,0,1,11.4-3.68l-.049,1.373a4.993,4.993,0,0,0,9.674.231l.143-1.263c4.845.132,8.6.824,11.283,3.34L38.43,28.824c-.027.093-.066.192-.1.286a26.9,26.9,0,0,0-1.346,6.2.513.513,0,0,1,.082.071,17.3,17.3,0,0,1,6,13.085c0,.148-.011.313-.011.461" transform="translate(59.307 22.473)" fill="#cfc2e7"/>
        <path id="Trazado_899817" data-name="Trazado 899817" d="M30.309,15.586l.082.071H14.955a12.07,12.07,0,0,0,.28-2.62,12.65,12.65,0,0,0-.549-3.648H31.655a26.965,26.965,0,0,0-1.346,6.2" transform="translate(65.988 42.192)" fill="#a3d4a5"/>
        <path id="Trazado_899818" data-name="Trazado 899818" d="M16.339,3.974c-.258.994-1.154,1.978-.385,2.966a4,4,0,0,0,3.889.956,3.137,3.137,0,0,0,1.675-3.208c-.154-.846-1.637-2.082-2.472-1.906" transform="translate(70.317 12.424)" fill="#ffa998"/>
        <path id="Trazado_899819" data-name="Trazado 899819" d="M39.479,10.608C39.523,7.4,36.342-3.334,25.2,1.028c-4.68,1.835-7.136,6.625-6.911,11.431.2,4.241,2.532,9.284,1.626,13.519-.428,2.005-2.686,4.351-4.038,5.8a67.142,67.142,0,0,0-5.966,7.279C6.107,44.391.7,50.791,3.24,57.916A15.886,15.886,0,0,0,17.4,68.15c5.614.1,12.261-4.845,13.986-10.239,2.082-6.521-.621-12.942-.956-19.391-.374-7.273,1.06-12.008,5.043-18.062,1.95-2.961,3.955-6.191,4-9.849" transform="translate(11.609 0)" fill="#48220c"/>
        <path id="Trazado_899820" data-name="Trazado 899820" d="M26.309,13.684l.126,48.83-14.376.549C7.077,47.138-.312,17.919,10.96,13.684Z" transform="translate(22.631 61.486)" fill="#fdb54e"/>
        <path id="Trazado_899821" data-name="Trazado 899821" d="M19.777,24.849C12.938,20.2,4.154,61.423,4.094,64.889l2.928,2.516L27.3,29.6Z" transform="translate(18.395 110.011)" fill="#ce807a"/>
        <path id="Trazado_899822" data-name="Trazado 899822" d="M13.569,41.652l-4.548.406a1.877,1.877,0,0,1-1.879-1.1,8.213,8.213,0,0,0-2.626-3.142,2.074,2.074,0,0,1-.335-2.988l1.7-2.752c.005-.093-.736,1.027.044-.291l3.214,2.961.577,2.538a2.575,2.575,0,0,0,1.89,1.983l.868.214a1.64,1.64,0,0,1,1.093,2.17" transform="translate(16.611 142.823)" fill="#fdb54e"/>
        <path id="Trazado_899823" data-name="Trazado 899823" d="M7.726,23.123l14.085-.549-.577,10.4-7.74,47.885H9.935s-9.328-46.984.983-47.434c0,0-.566-1.516-3.192-10.305" transform="translate(27.255 101.431)" fill="#ce807a"/>
        <path id="Trazado_899824" data-name="Trazado 899824" d="M20.2,38.014l-.319.082c-1.978.428-6.6-.247-9.124.181l-1.972-.022c-2.318.005-2.373-2.011-1.862-4.158l-.055-.912c1.412,0,3.1.011,4.565.016l9.1,3.038a.987.987,0,0,1-.33,1.774" transform="translate(29.918 149.109)" fill="#fdb54e"/>
        <path id="Trazado_899825" data-name="Trazado 899825" d="M10.66,30.06c4.3,2.681,12.426,7.767,16.645,10.41a16.952,16.952,0,0,0,5.828,2.285,4.15,4.15,0,0,0,4.856-4.845,27.809,27.809,0,0,0-4.642-10.9l-8.63-12.14a4.6,4.6,0,0,1-.736-3.686l.709-3.164a3.955,3.955,0,0,0-.923-3.521l-.313-.346a1.941,1.941,0,0,0-2.922.044,3.972,3.972,0,0,0-.873,3.29l.791,4.2L29.128,32.3,17.587,22.255a9.366,9.366,0,0,0-7.015-2.274l-.478.044a3.9,3.9,0,0,0-3.323,5.158A9.382,9.382,0,0,0,10.66,30.06" transform="translate(29.446 15.759)" fill="#ce807a"/>
        <path id="Trazado_899826" data-name="Trazado 899826" d="M7.276,12.787a14.416,14.416,0,0,1,4.6-9.415c1.747-1.56,3.669-2.538,5.334-2.34,3.955.467,8.509,3.252,6.048,13.393.005.005,3.62,2.148-.308,2.406-1.1,3.961-3.878,7.531-6.965,7.531-2.131,0-5.867-2.214-7.284-4.537a10.825,10.825,0,0,1-1.461-6.652Z" transform="translate(32.292 4.523)" fill="#ce807a"/>
        <path id="Trazado_899827" data-name="Trazado 899827" d="M10.014,6a3.421,3.421,0,0,0,1.714.731.179.179,0,0,0,.192-.165.171.171,0,0,0-.159-.192,2.482,2.482,0,0,1-2.3-2.368.178.178,0,0,0-.181-.176.187.187,0,0,0-.176.187A2.6,2.6,0,0,0,10.014,6" transform="translate(40.898 17.21)" fill="#001848"/>
        <path id="Trazado_899828" data-name="Trazado 899828" d="M9.724,3.066a.217.217,0,0,0,.192.049,1.423,1.423,0,0,1,1.769.967.223.223,0,0,0,.428-.121,1.85,1.85,0,0,0-2.3-1.285.23.23,0,0,0-.17.269.22.22,0,0,0,.077.121" transform="translate(43.33 11.755)" fill="#001848"/>
        <path id="Trazado_899829" data-name="Trazado 899829" d="M9.626,3.916a.872.872,0,0,0,.615,1.055.865.865,0,0,0,.939-.775.865.865,0,0,0-.61-1.055.869.869,0,0,0-.945.775" transform="translate(43.18 14.069)" fill="#001848"/>
        <path id="Trazado_899830" data-name="Trazado 899830" d="M23.2,51.005c0,.006-15.672.753-17.469,0l.088-.2C9.832,41.9,9.03,31.059,6.866,21.781c-1.093-4.7-1.137-13.1,2.917-14.854l3.862-1.549,6.965,4.96L25.8,18.2a7.644,7.644,0,0,1-1.478,10.838,3.749,3.749,0,0,0-.934,2.439c1.445,8.5-.192,19.523-.192,19.523" transform="translate(25.742 24.165)" fill="#a3d4a5"/>
        <path id="Trazado_899831" data-name="Trazado 899831" d="M7.17,11.38,9.818,4.041,14.229,7.7c-1.89,1.22-1.066,4.8-.093,8.641Z" transform="translate(32.217 18.158)" fill="#ce807a"/>
        <path id="Trazado_899832" data-name="Trazado 899832" d="M32.37,11.181a4.582,4.582,0,0,1-4.691,2.488,9.372,9.372,0,0,0,1.027-3.225,10.143,10.143,0,0,1-2.659.879,19.534,19.534,0,0,1-4.57.126,17.807,17.807,0,0,1-1.4,3.279,2.129,2.129,0,0,0-2.192-1.648c-1.027.2-1.648,1.467-1.384,2.846a2.516,2.516,0,0,0,1.851,2.153c-.17.313-.313.588-.423.786a6.175,6.175,0,0,1-3.5,2.708,4.952,4.952,0,0,1-3.851-.379c-3.054-1.527-4.532-5.268-4.224-8.663a12.7,12.7,0,0,1,3.928-7.954A15.094,15.094,0,0,1,18.334.721a9.077,9.077,0,0,1,4.768.4,5,5,0,0,1,2.34,2.071l-.06-.121c1.225,2.076,4.4,2.016,6.015,3.845a4.263,4.263,0,0,1,.972,4.268" transform="translate(28.369 2.614)" fill="#48220c"/>
        <path id="Trazado_899833" data-name="Trazado 899833" d="M22.836,54.849A1.753,1.753,0,0,1,20,55.975a10.749,10.749,0,0,1-3.389-3.016,46.475,46.475,0,0,1-2.675-4.5A25.951,25.951,0,0,1,11.662,45.6c-.857-1.143-1.752-2.741-2.725-4A30.881,30.881,0,0,1,4.027,30.656c-.764-3.181.912-6.751,2.038-8.646,1.961-3.29,3.5-6.5,5.378-9.306a20.47,20.47,0,0,1,6.251-6.3,4.845,4.845,0,0,1,1.95-.753,2.376,2.376,0,0,1,2.346,1.1L22,6.772a7.915,7.915,0,0,1,1.071,3.543,9.6,9.6,0,0,1-2.005,6.51A58.474,58.474,0,0,1,17.353,21.5a78.208,78.208,0,0,1-6.7,6.8,44.972,44.972,0,0,0,3,9.816,62.85,62.85,0,0,1,2.428,8.674,9.749,9.749,0,0,1,3.763-.291.249.249,0,0,1,.181.088.238.238,0,0,1,.016.22,2.093,2.093,0,0,1-.978.846c-.132.066-.269.1-.374.17,2.4,1.945,4.4,3.648,4.142,7.031" transform="translate(17.227 25.298)" fill="#ce807a"/>
        <path id="Trazado_899834" data-name="Trazado 899834" d="M19.679,10.907A7.848,7.848,0,0,0,18.6,7.364l-.011-.016a4.361,4.361,0,0,1-.522-.489,4.344,4.344,0,0,0-5.015-.945,29.014,29.014,0,0,0-7.427,4.878c-2.417,2.362-.1,2.027,1.818,2.351a2.692,2.692,0,0,1,.6.154c1.571.571.214,2.093.478,3.779.428,2.675,2.51-.884,3.455,1.335.791,1.835-.637,4.12,1.983,3.68a57.2,57.2,0,0,0,3.708-4.675,9.564,9.564,0,0,0,2.011-6.51" transform="translate(20.625 24.701)" fill="#fdb54e"/>
        <path id="Trazado_899835" data-name="Trazado 899835" d="M60.735,9.3a7.993,7.993,0,0,0-7.114-7.762,11.661,11.661,0,0,0-11.811,6.9,10.031,10.031,0,0,0-.769,7.279,31.1,31.1,0,0,0,2.824,5.323c1.681,2.9,3.318,5.367,2.961,8.916-.2,1.972-1.121,4.153-3.181,4.713-2.225.6-4.114-.011-4.889-2.285-.214,3.192,1.752,5.158,4.565,6.24A9.622,9.622,0,0,0,53.33,36.683c2.867-2.488,3.8-6.037,3.642-9.69-.148-3.461-2.192-6.163-.879-9.635a8.676,8.676,0,0,1,2.736-3.637c1.005-.89,2.714-2.906,1.681-4.307" transform="translate(174.069 6.55)" fill="#48220c"/>
        <path id="Trazado_899836" data-name="Trazado 899836" d="M68.386,29.179A147.5,147.5,0,0,1,46.3,15.451a5.6,5.6,0,0,1-3.17-3.565l-.011-.027-.038-.088v-.082a.446.446,0,0,1-.038-.143A4.636,4.636,0,0,1,44.4,7.579,6.364,6.364,0,0,1,45.8,6.431a6.058,6.058,0,0,1,4.768-.544l.011-.005a6.869,6.869,0,0,1,2.439,1.307,4.539,4.539,0,0,1,.445.412c1.472,1.467,3.911,3.757,7.279,6.526a129.919,129.919,0,0,0,11.2,8.262c-3.411,1.176-4.455,3.5-3.554,6.79" transform="translate(193.137 25.304)" fill="#fdb54e"/>
        <path id="Trazado_899837" data-name="Trazado 899837" d="M75.98,33.8c-5.015-2.126-6.262-10.3-6.262-10.3A103.794,103.794,0,0,1,47.86,15.472c-.9-3.285.143-5.614,3.56-6.79a150.742,150.742,0,0,0,22.753,12.4c5.361,3.186,3.659,4.428,3.659,4.428l-3.483-1.7a38.979,38.979,0,0,1,3.126,8.784A1.1,1.1,0,0,1,75.98,33.8" transform="translate(213.663 39.011)" fill="#ffa998"/>
        <path id="Trazado_899838" data-name="Trazado 899838" d="M48.919,73.879c.038.258.077.494.121.725a3.617,3.617,0,0,0-.478.483V75.1A10.031,10.031,0,0,0,46.9,80.031v.011c-1.357,10.8,3.5,32.306,3.691,33.113l.011.214.011.253c-.379,2.34-.961,5.037,1.412,4.889l.308-.016a3.219,3.219,0,0,1,2.466.95c1.483,1.478,5.125,1.22,7.1.626.121-.027.22-.071.33-.1a1.087,1.087,0,0,0,.22-1.934l-7.5-5.263-.06-.071c-.148-.165-.544-.593-.538-.753l2.483-53.686,1.527-33.229A18.387,18.387,0,0,0,58,20.885v-.011a27.845,27.845,0,0,0-2.093-6.339c-3,1.923-8.795,10.668-12.266,17.853a1.905,1.905,0,0,1-.368.538c.725,5.438,1.307,12.6,2.005,16.606.527,2.988,1.011,6.076,1.45,9.042.939,6.29,1.675,12.058,2.192,15.3" transform="translate(194.432 65.31)" fill="#ffa998"/>
        <path id="Trazado_899839" data-name="Trazado 899839" d="M46.305,38.212l.308-.022a3.243,3.243,0,0,1,2.472.956c1.478,1.478,5.12,1.22,7.1.626.115-.033.22-.071.324-.1a1.091,1.091,0,0,0,.22-1.939l-7.5-5.257c0-.011-.016-.033-.06-.071-1.494.236-2.983.467-4.274.665l.006.247c-.374,2.346-.961,5.043,1.412,4.895" transform="translate(200.15 145.609)" fill="#001848"/>
        <path id="Trazado_899840" data-name="Trazado 899840" d="M53.221,20.389l-2.384-6.422-.214-.615c-.121,0-.242-.011-.368-.011l-.121-1.285q-.255-2.744-.786-5.449l-.511-2.615-6.828.681c.527.8,2.664,9.5,1.884,11.53l2.642-.4,2.186,1.505Z" transform="translate(188.757 17.938)" fill="#ff9581"/>
        <path id="Trazado_899841" data-name="Trazado 899841" d="M41.662,14.621l-.06.115.016-.055.044-.06" transform="translate(186.929 65.696)" fill="#ffa998"/>
        <path id="Trazado_899842" data-name="Trazado 899842" d="M61.861,37.927c-.115.4-.236.786-.363,1.22v.011c-.445,1.417-.994,3.01-1.653,4.922v.011c-.945,2.741-2.142,6.125-3.631,10.5-1.368,3.95-6.685,15.266-8.9,21.226-.346.906-.621,1.7-.8,2.324a4.206,4.206,0,0,0-.22,2.164,2.845,2.845,0,0,0,1.192,1.615c.214.154.61.363.824.538a1.958,1.958,0,0,1,.489,2.686c-1.544-.412-3.351-.835-4.812-1.269a2.2,2.2,0,0,1-1.653-1.835,14.239,14.239,0,0,0-1.192-3.373c-.121-.247-.247-.423-.352-.681a2.613,2.613,0,0,1-.027-2.7c.588-.9,1.758-1.11,2.488-1.824.082-.071.159-.154.231-.225,1.263-1.593,3.142-11.234,3.6-13.458,1.522-7.366,2.027-14.98,4.23-22.176.374-1.23.972-3.444,2.576-3.84a1.043,1.043,0,0,1,.538.049Q53.244,28.3,51.868,22.876l7.8-.247,2.917-.093c.67,7.5.725,10.305-.725,15.392" transform="translate(181.491 101.256)" fill="#ffa998"/>
        <path id="Trazado_899843" data-name="Trazado 899843" d="M40.787,36.332c.11.258.231.434.357.687a13.961,13.961,0,0,1,1.181,3.362,2.2,2.2,0,0,0,1.659,1.835c1.456.439,3.274.857,4.812,1.274a1.963,1.963,0,0,0-.483-2.692c-.22-.176-.615-.379-.835-.533A2.815,2.815,0,0,1,46.3,38.645a4.154,4.154,0,0,1,.22-2.164c.165-.615.445-1.406.791-2.324l-4.06-2.351c-.736.714-1.9.923-2.488,1.829a2.625,2.625,0,0,0,.027,2.7" transform="translate(181.493 142.913)" fill="#001848"/>
        <path id="Trazado_899844" data-name="Trazado 899844" d="M41.3,17.457c-.665-1.785-.483-4.285,1.033-4.62a2.617,2.617,0,0,1,1.544.236C44.336,7.684,47.45,1.329,51.241.494c4.955-1.1,9.624.8,12.107,13.689.978,5.1-1.791,10.976-6.6,12.492-3.615,1.137-8.46-2.274-11.047-6.2-1.7-.253-3.56-.753-4.4-3.016" transform="translate(183.942 1.028)" fill="#ffa998"/>
        <path id="Trazado_899845" data-name="Trazado 899845" d="M44.673,5.915l.071.011c.593-.005,1.4-.066,1.549-.61.214-.753-1.2-1.708-1.824-2.087a.276.276,0,0,0-.379.093.271.271,0,0,0,.093.379c.873.533,1.642,1.247,1.577,1.467,0,0-.093.2-1.016.2a.276.276,0,0,0-.071.544" transform="translate(197.925 14.333)" fill="#001848"/>
        <path id="Trazado_899846" data-name="Trazado 899846" d="M43.062,3.875a.927.927,0,1,0,1.835-.2.928.928,0,1,0-1.835.2" transform="translate(193.461 12.38)" fill="#001848"/>
        <path id="Trazado_899847" data-name="Trazado 899847" d="M44.268,3.739a.927.927,0,1,0,1.835-.2.928.928,0,1,0-1.835.2" transform="translate(198.88 11.769)" fill="#001848"/>
        <path id="Trazado_899848" data-name="Trazado 899848" d="M42.912,4.376a.307.307,0,0,0,.275-.2,1.981,1.981,0,0,1,2.5-1.313.314.314,0,1,0,.192-.6A2.6,2.6,0,0,0,42.6,3.948a.308.308,0,0,0,.181.407.279.279,0,0,0,.132.022" transform="translate(191.304 9.621)" fill="#001848"/>
        <path id="Trazado_899849" data-name="Trazado 899849" d="M44.068,2.89a.269.269,0,0,0,.286.022,1.661,1.661,0,0,1,2.307.538.266.266,0,0,0,.363.088.261.261,0,0,0,.088-.363,2.183,2.183,0,0,0-3.01-.731A.263.263,0,0,0,44,2.8a.229.229,0,0,0,.071.088" transform="translate(197.542 9.548)" fill="#001848"/>
        <path id="Trazado_899850" data-name="Trazado 899850" d="M46.067,5.411a.261.261,0,0,0-.253-.132,1.653,1.653,0,0,1-1.928-1.373.274.274,0,0,0-.3-.225.266.266,0,0,0-.225.3,2.181,2.181,0,0,0,2.5,1.824.257.257,0,0,0,.236-.286.235.235,0,0,0-.033-.11" transform="translate(194.807 16.53)" fill="#001848"/>
        <path id="Trazado_899851" data-name="Trazado 899851" d="M61.96,5.777C61.729,5.074,57.9-.82,51.55.1a12.252,12.252,0,0,0-9.811,7.361c-.884,1.846-.61,6.63.549,8.537,2.225,3.669,3.488-1.555,4.06-3.312,1.384,2.6,6.218-1.406,5.686-3.549,1.659,2.758,6,2.159,5.916-1.4,1.577,1.851,4.922.786,4.01-1.961" transform="translate(185.198 0.002)" fill="#48220c"/>
        <path id="Trazado_899852" data-name="Trazado 899852" d="M67.058,68.852l-7.2.22-2.911.088-7.806.253c-1.835-7.377-3.9-14.662-6.13-21.973-3.334-7.46-2.258-14.337,1.2-21.556.005-.011.148-.247.159-.291l.06-.071a23.051,23.051,0,0,1,3-4.147c.1-.1.187-.2.275-.28A15.107,15.107,0,0,0,51.1,16.529a6.41,6.41,0,0,0,.253-.637c.1-.291.192-.582.269-.879.071-.258.121-.511.17-.758s.1-.505.148-.742l16.634-1.335c0,.483,0,.983.016,1.478.038,4.395-1.533,55.2-1.533,55.2" transform="translate(184.209 54.719)" fill="#001848"/>
        <path id="Trazado_899853" data-name="Trazado 899853" d="M59.623,13.364,42.989,14.7c.049-.291.093-.571.137-.829L59.6,11.914c0,.467.011.956.022,1.45" transform="translate(193.161 53.533)" fill="#001848"/>
        <path id="Trazado_899854" data-name="Trazado 899854" d="M41.467,19.006c.676,1.362,6.911,11.486,6.916,11.5a45.549,45.549,0,0,1,3.285,5.46c.418.8.835,1.626,1.324,2.532l.011.005a.81.81,0,0,0,.027.132,10.03,10.03,0,0,1,.148,3.175c-.038.258-.077.538-.126.824l16.634-1.329c-.011-.494-.022-.983-.022-1.45-.011-1.22-.027-2.324-.038-3.2-.049-3.181-.071-7.844-.236-11.19a6.48,6.48,0,0,1-.06-1.2,6.818,6.818,0,0,0,2.252-3.395v-.011a4.4,4.4,0,0,0,.126-1.329A5.363,5.363,0,0,0,69.5,15.155c-.8-.676-1.61-1.313-2.455-1.967-.582-.445-1.2-.9-1.824-1.39-.181-.137-.346-.275-.527-.417-1.626-1.269-3.878-3.137-5.658-4.417l-.016-.005c-.1-.082-.2-.154-.291-.22-.275-.192-.533-.357-.786-.5l-.055-.027A3.946,3.946,0,0,0,57.2,5.9h-.011c-.121-.038-.247-.082-.368-.11a3.517,3.517,0,0,0-.544-.1l.22.615,2.379,6.422L54.382,9.657,49.916,6.591c-.588.1-1.154.209-1.67.335a9.2,9.2,0,0,0-.983.286c-.456.159-.884.33-1.28.489-.851.33-1.516.615-1.873.786a.7.7,0,0,0-.143.06l-.066.027-.093.038-.016.022c-2.236,1.6-4.12,6.74-2.324,10.371" transform="translate(183.103 25.594)" fill="#fdb54e"/>
        <path id="Trazado_899855" data-name="Trazado 899855" d="M60.026,24.746c-3.455.187-5.625,5.356-6.433,7.718-.478-.725-.972-1.472-1.472-2.214-1.209-1.758-3.06-4.45-4.955-7.213-.588-.868-1.187-1.736-1.769-2.593-.725-1.066-1.417-2.115-2.054-3.065-.665-.994-1.307-1.967-1.906-2.917a5.879,5.879,0,0,1-.319-.566,4.615,4.615,0,0,1-.126-4.763L41,9.118a4.677,4.677,0,0,1,1.675-1.884,5.278,5.278,0,0,1,1.813-.775l.06-.011a4.665,4.665,0,0,1,4.944,1.7,7.142,7.142,0,0,1,.549.725c1.093,1.642,2.252,3.483,3.422,5.394.643,1.049,1.3,2.115,1.923,3.137.406.665.8,1.324,1.214,1.978.352.555.67,1.093.972,1.582a1.538,1.538,0,0,0,.11.176c.148.247.3.494.456.742.385.61.769,1.214,1.137,1.791v.022c0,.1.126.258.28.412v.011l.055.082.027.044.011.016c.055.055.165.209.374.489" transform="translate(181.49 28.204)" fill="#fdb54e"/>
        <path id="Trazado_899856" data-name="Trazado 899856" d="M65.554,9.943c-.577.049-1.291-.033-1.758-.011s-.632.115-.665.538c-.132,1.637-.027,3.351-.176,5a2.181,2.181,0,0,1-.461,1.439c-.445.714-.582.923-1.357,2.071s-.632,1.088-2.181,3.279-5.021,8.108-7.3,10.943-5.68,3.406-8.493.154l-.022-.011a.374.374,0,0,0,.055.1c-.082-.11-.22-.3-.407-.588.808-2.357,2.983-7.531,6.438-7.718,1.747-1.8,5.729-5.076,7.136-6.328s1.84-1.6,2.39-2.093a1.25,1.25,0,0,1,.269-.214V16.5l.038-.044.011-.011a1.582,1.582,0,0,0,.445-1.769c-.363-1.247-.994-2.719-1.357-3.972a3.169,3.169,0,0,1,.676-3.142,3.95,3.95,0,0,1,.7-.747,1.935,1.935,0,0,1,2.45-.33c1.077.571,2.73,1.533,3.851,2.214a.659.659,0,0,1-.291,1.241" transform="translate(192.289 27.796)" fill="#ffab9c"/>
        <path id="Trazado_899857" data-name="Trazado 899857" d="M156.886,119.173H57.837a5.748,5.748,0,0,1-5.6-4.461L35.836,43.3A22.954,22.954,0,0,1,58.2,15.208h98.868A6.49,6.49,0,0,1,163.56,21.7v90.8a6.674,6.674,0,0,1-6.674,6.674" transform="translate(158.361 68.334)" fill="#1c476d"/>
        <path id="Trazado_899858" data-name="Trazado 899858" d="M138.965,119.173H57.978c-2.192,0-4.092-1.851-4.581-4.461L39.988,43.3c-2.7-14.376,6.229-28.093,18.293-28.093h80.839c2.928,0,5.306,2.906,5.306,6.493v90.8c0,3.686-2.444,6.674-5.46,6.674" transform="translate(177.496 68.334)" fill="#001848"/>
        <rect id="Rectángulo_415835" data-name="Rectángulo 415835" width="71.967" height="27.576" transform="translate(241.885 115.825)" fill="#1c476d"/>
        <rect id="Rectángulo_415836" data-name="Rectángulo 415836" width="67.391" height="23.341" transform="translate(244.17 117.94)" fill="#fff"/>
        <path id="Trazado_899859" data-name="Trazado 899859" d="M99.427,6.485H53.3L47.334,36.924H93.461Z" transform="translate(212.684 29.141)" fill="#001848"/>
        <path id="Trazado_899860" data-name="Trazado 899860" d="M78.33,8.309H52.682L49.359,25.234H75.012Z" transform="translate(221.782 37.337)" fill="#1c476d"/>
        <path id="Trazado_899861" data-name="Trazado 899861" d="M53.8,9.576l-1.39-1.549-3.3,17.529,1.368.945Z" transform="translate(220.666 36.07)" fill="#466784"/>
        <path id="Trazado_899862" data-name="Trazado 899862" d="M49.71,8.324l25.736-.363,1.307,1.912H51.1Z" transform="translate(223.361 35.772)" fill="#285174"/>
        <path id="Trazado_899863" data-name="Trazado 899863" d="M48.147,37.9l-.994-1.269L52.871,6.268l1.241,1.2Z" transform="translate(211.869 28.163)" fill="#1c476d"/>
        <path id="Trazado_899864" data-name="Trazado 899864" d="M48.194,6.268H94.447l1.115,1.2H49.435Z" transform="translate(216.547 28.163)" fill="#285174"/>
        <rect id="Rectángulo_415837" data-name="Rectángulo 415837" width="34.624" height="3.615" transform="translate(268.252 79.927)" fill="#001848"/>
        <path id="Trazado_899865" data-name="Trazado 899865" d="M50.435,35.38,52.457,9.913H66.448L68.47,35.38Z" transform="translate(226.619 44.544)" fill="#1c476d"/>
        <path id="Trazado_899866" data-name="Trazado 899866" d="M85.092,12.7l3.741,7.6a32.646,32.646,0,0,1-10.4-.851c-1.785-.489-3.895-.747-5.5-1.165a30.437,30.437,0,0,1-4.081-1.2,31.721,31.721,0,0,1-4.477-.626,8.168,8.168,0,0,1-3.873-1.434,3.091,3.091,0,0,1-.225-4.472c3.159-2.565,6.125-2.038,9.437,3.466,1.708-.253,7.4-1.291,10.41-1.187,1.313.027,3.1-.011,4.977-.132" transform="translate(266.982 40.751)" fill="#ce807a"/>
        <path id="Trazado_899867" data-name="Trazado 899867" d="M82.877,19.684c-2.2,3.258-4.988,6.328-7.674,9.893a17.107,17.107,0,0,1-6.466,5.438l-3.62-7.344c.461-.077.89-.17,1.3-.275a91.338,91.338,0,0,1,4.373-10.212c1.038-2.071,2.17-4.1,3.406-6.059a11.173,11.173,0,0,1,6.136-5.032,9.37,9.37,0,0,1,4.29-.4c.027-.005.022.005.022.005a2.775,2.775,0,0,1,2.225,2.033,5.6,5.6,0,0,1,.028,2.444,23.685,23.685,0,0,1-4.016,9.5" transform="translate(292.588 25.103)" fill="#fdb54e"/>
        <path id="Trazado_899868" data-name="Trazado 899868" d="M73.337,16.951a8.293,8.293,0,0,1-1.945.56c-1.115.165-2.313.3-3.56.368l-3.741-7.6a45.518,45.518,0,0,0,5.631-.676Z" transform="translate(287.982 43.167)" fill="#a3d4a5"/>
        <path id="Trazado_899869" data-name="Trazado 899869" d="M93.7,34.9l-6.889,3.247a92.569,92.569,0,0,0-9.9-18.095c-1.4-1.961-7.5-10.141-6.51-12.514,1.049-2.477,3.109-2.593,6.488-1.17l.049.022a12.714,12.714,0,0,1,3.917,2.582c6.718,6.548,11.311,20.259,11.085,20.248.577,1.653,1.17,3.593,1.758,5.68" transform="translate(315.872 24.475)" fill="#fdb54e"/>
        <path id="Trazado_899870" data-name="Trazado 899870" d="M86.586,43.342c-1.159,3.428-2.12,2.807-2.747,1.555a6.2,6.2,0,0,1-.434-3.884,11.872,11.872,0,0,0,.115-3.917l-.033-.2a.358.358,0,0,0-.637-.17A8.263,8.263,0,0,0,81.06,40.87s-2.527,3.2.11-7.877l-7.526-18.32,6.345-3c2.45,9.273,4.62,19.21,4.62,19.21s4.845,3.966,1.978,12.459" transform="translate(330.902 52.45)" fill="#ce807a"/>
        <path id="Trazado_899871" data-name="Trazado 899871" d="M100.547,21.838l-1.121,3.823A72.494,72.494,0,0,0,96.58,49.6H69.422c.747-4.34,1.011-8.163.275-10.36L66.972,29.172a17.045,17.045,0,0,1,8.4-19.49l4.466-2.34,4.351-2.28L90.51,7.007a14.643,14.643,0,0,1,3.115,1.527,15.007,15.007,0,0,1,6.922,13.3" transform="translate(298.242 22.745)" fill="#fdb54e"/>
        <path id="Trazado_899872" data-name="Trazado 899872" d="M80.365,64.587c.593,2.543,1.434,5.46-1.17,5.477l-.467-.011a3.4,3.4,0,0,0-2.538,1.241C74.663,73.019,70.67,73,68.45,72.5c-.121-.022-.231-.06-.352-.093a1.192,1.192,0,0,1-.4-2.1l7.658-6.729c-.038-.11-.088-.231-.132-.341-5.032-13.4-8.273-25.577-9.712-38.228h13.1a349.045,349.045,0,0,0,1.505,38.228c.011.148.027.3.038.456Z" transform="translate(294.385 112.368)" fill="#ce807a"/>
        <path id="Trazado_899873" data-name="Trazado 899873" d="M82.4,71.86h-.461A3.382,3.382,0,0,0,79.4,73.09c-1.527,1.725-5.521,1.7-7.74,1.209-.121-.027-.242-.06-.363-.088a1.191,1.191,0,0,1-.385-2.1l7.647-6.729c-.269-.714-.533-1.434-.8-2.148-4.872-13.327-7.96-25.494-9.24-38.228H81.868a337.719,337.719,0,0,0,1.313,38.228c.06.753.121,1.5.192,2.258l.2.89C84.159,68.932,85,71.849,82.4,71.86" transform="translate(307.901 112.368)" fill="#ce807a"/>
        <path id="Trazado_899874" data-name="Trazado 899874" d="M100.219,41.02a226.684,226.684,0,0,0-4.1,37.975H82.767c-1.214-12.047-.819-24.61,1.2-39.145l.374-4.7a227.32,227.32,0,0,0-4.993,43.847h-13.1a130.012,130.012,0,0,1,4.406-51.856A138.612,138.612,0,0,0,74.01,12.993h27.159c.06,1.23.148,2.472.269,3.713a83.4,83.4,0,0,1-1.22,24.313" transform="translate(293.659 58.381)" fill="#a3d4a5"/>
        <path id="Trazado_899875" data-name="Trazado 899875" d="M78.965,33.318c.593,2.543,1.434,5.46-1.17,5.477l-.467-.011a3.4,3.4,0,0,0-2.538,1.241c-1.527,1.725-5.521,1.708-7.74,1.2-.121-.022-.231-.06-.352-.093a1.192,1.192,0,0,1-.4-2.1l7.658-6.729c-.038-.11-.088-.231-.132-.341h4.894c.011.148.027.3.038.456Z" transform="translate(295.785 143.637)" fill="#001848"/>
        <path id="Trazado_899876" data-name="Trazado 899876" d="M80.832,40.591h-.461a3.382,3.382,0,0,0-2.532,1.231c-1.527,1.725-5.521,1.7-7.74,1.208-.121-.027-.242-.06-.363-.088a1.191,1.191,0,0,1-.385-2.1L77,34.115c-.269-.714-.533-1.434-.8-2.148h5.416c.06.753.121,1.5.192,2.258l.2.89c.582,2.549,1.423,5.466-1.181,5.477" transform="translate(309.464 143.637)" fill="#001848"/>
        <path id="Trazado_899877" data-name="Trazado 899877" d="M81.512,15.56l-6.35,2.994-1.615-3.922c-.082-.192-.159-.385-.242-.577l6.889-3.247c.445,1.522.89,3.126,1.318,4.752" transform="translate(329.378 48.564)" fill="#a3d4a5"/>
        <path id="Trazado_899878" data-name="Trazado 899878" d="M74.944,24.825c3.422-1.659,8.509-2.582,10.7-6.339,1.912-3.285,1.252-7.8-.082-11.157C84.25,4.044,81.02.583,77.207.259a12.791,12.791,0,0,0-5.653.709c-2.022.906-2.477,2.005-2.433,4.06a57.563,57.563,0,0,0,1.329,11.767c.813,3.362,2.576,6.026,4.257,8.992a1.177,1.177,0,0,0,.588-.5" transform="translate(310.567 0.944)" fill="#6a3e00"/>
        <path id="Trazado_899879" data-name="Trazado 899879" d="M83.68,13.772s-.352.071-.956.22a32.543,32.543,0,0,0-7.971,3.131,3.957,3.957,0,0,1-5.812-4.318l4.345-2.28-.159-5.4,6.779-1.28c.11.374.494,7.053.494,7.053Z" transform="translate(309.149 17.282)" fill="#c67068"/>
        <path id="Trazado_899880" data-name="Trazado 899880" d="M73.47,5.061s-4.851,5.2,0,5.081a82.1,82.1,0,0,0,8.718-3.3L85,8.676s-9.487,5.872-13.42,3.516c0,0-4.016-1.923-2.461-4.851Z" transform="translate(308.965 22.741)" fill="#a3d4a5"/>
        <path id="Trazado_899881" data-name="Trazado 899881" d="M89.149,16.564c.643-1.686.489-4.06-.945-4.384a2.466,2.466,0,0,0-1.467.209c-.39-5.114-3.3-11.157-6.883-11.981C75.164-.663,70.72,1.1,68.275,13.3c-.967,4.823,1.615,10.415,6.163,11.887,3.422,1.1,8.037-2.093,10.52-5.8,1.61-.22,3.378-.681,4.191-2.824" transform="translate(305.871 0.642)" fill="#ce807a"/>
        <path id="Trazado_899882" data-name="Trazado 899882" d="M71.54,3.839a.916.916,0,1,1-1.774-.423.916.916,0,1,1,1.774.423" transform="translate(313.345 11.812)" fill="#001848"/>
        <path id="Trazado_899883" data-name="Trazado 899883" d="M70.346,3.555a.916.916,0,1,1-1.774-.423.916.916,0,1,1,1.774.423" transform="translate(307.98 10.536)" fill="#001848"/>
        <path id="Trazado_899884" data-name="Trazado 899884" d="M72.673,4.614a.313.313,0,0,1-.236-.242,1.952,1.952,0,0,0-2.23-1.67.311.311,0,1,1-.093-.615,2.562,2.562,0,0,1,2.933,2.159.31.31,0,0,1-.242.368.268.268,0,0,1-.132,0" transform="translate(313.839 9.257)" fill="#001848"/>
        <path id="Trazado_899885" data-name="Trazado 899885" d="M71.655,2.739a.272.272,0,0,1-.28-.022,1.646,1.646,0,0,0-2.34.154.261.261,0,0,1-.4-.341A2.158,2.158,0,0,1,71.694,2.3a.267.267,0,0,1,.044.368.205.205,0,0,1-.082.071" transform="translate(308.132 7.962)" fill="#001848"/>
        <path id="Trazado_899886" data-name="Trazado 899886" d="M69.286,5.051a.258.258,0,0,1,.258-.11A1.643,1.643,0,0,0,71.533,3.7a.259.259,0,1,1,.505.115,2.152,2.152,0,0,1-2.576,1.637.261.261,0,0,1-.214-.3.241.241,0,0,1,.038-.1" transform="translate(311.127 15.736)" fill="#001848"/>
        <path id="Trazado_899887" data-name="Trazado 899887" d="M69.446,8.278a1.1,1.1,0,0,1-.5-.374c-.406-.544-.247-1.39.428-2.263l1.917-3.027a.248.248,0,0,1,.346-.077.254.254,0,0,1,.077.346L69.787,5.927c-.637.824-.643,1.406-.439,1.681a1,1,0,0,0,1.17.143.27.27,0,0,1,.341.132.238.238,0,0,1-.121.319,1.843,1.843,0,0,1-1.291.077" transform="translate(308.798 11.223)" fill="#001848"/>
        <path id="Trazado_899888" data-name="Trazado 899888" d="M81.767.969C80.46.166,77.911.348,76.323.254A39.287,39.287,0,0,0,71,.04c-1.121.088-3.2.22-3.351,1.428-.17,1.4,2.087,2.23,3.148,2.477-.093,1.011-1.324,1.736-1.857,2.6a13.016,13.016,0,0,0-1.192,2.741c2.23-.258,3.516-1.939,5.411-2.747,1.357,3.027,4.444,4.208,7.619,5a24.079,24.079,0,0,1-.923-2.714,11.147,11.147,0,0,0,4.01,2.593c1.725.676,1.741.533,1.39,2.488-.4,2.192-1.011,5.378-.137,7.542a17.608,17.608,0,0,1,3.455-6.839c1.582-2.137,3.038-3.785,1.835-6.493C88.689,4.248,85.354.529,80.734.518" transform="translate(303.926 -0.001)" fill="#48220c"/>
        <path id="Trazado_899889" data-name="Trazado 899889" d="M94.058,33.434l-.137-.005H60.06c-1.829,0-3.065-.505-3.664-1.505a3.668,3.668,0,0,1,.115-3.345c2.39-4.235,6.7-6.916,12.475-7.767a28.757,28.757,0,0,1,7.037-.148V19.009a.824.824,0,0,1,.709-.818c2.022-.3,3.439-1.022,4.1-2.1a2.865,2.865,0,0,0,.308-2.346,3.682,3.682,0,0,0-1.049-1.522c-1.23-1.132-2.379-1.588-3.411-1.362-1.939.423-3.071,3.054-3.082,3.082a.831.831,0,0,1-1.533-.643c.06-.143,1.472-3.444,4.252-4.06,1.588-.352,3.241.242,4.895,1.752a5.372,5.372,0,0,1,1.5,2.225,4.565,4.565,0,0,1-.461,3.741c-.6.978-1.873,2.208-4.57,2.752v1.049a34.175,34.175,0,0,1,11.366,1.7,12.854,12.854,0,0,1,6.823,5.922c.9,1.7,1.055,3.038.45,3.972a2.7,2.7,0,0,1-2.263,1.088m-20.99-11.14c-4.515,0-12.03.983-15.612,7.031a1.943,1.943,0,0,0-.148,1.659c.28.439,1.1.681,2.3.681H94.459c.22.011.8-.033.989-.324.088-.132.313-.692-.544-2.241a11.368,11.368,0,0,0-6.119-5.032A35.138,35.138,0,0,0,76.9,22.536a.738.738,0,0,1-.187-.016,26.883,26.883,0,0,0-3.642-.225" transform="translate(251.721 41.06)" fill="#001848"/>
        <path id="Trazado_899890" data-name="Trazado 899890" d="M111.728,32.167l-9.707,9.1-1.209-2.532L98.126,33.1l2.23,35.454h-32.3c-1.132,0,1.126-34.525,1.126-34.525l-4.823,5.065-2.236,2.362-7.8-10.613a38.887,38.887,0,0,1,2.06-4.147c6.68-11.734,16.551-14.568,20.863-15.255a14.673,14.673,0,0,1,2.137-.22c6.306,15.414,12.711.736,12.711.736a16.4,16.4,0,0,1,3.016.654c8.306,2.554,12.975,10.613,15.123,15.557a33,33,0,0,1,1.494,4" transform="translate(244.087 50.397)" fill="#a3d4a5"/>
        <path id="Trazado_899891" data-name="Trazado 899891" d="M64.359,26.431l-2.241,2.362L54.323,18.18a38.885,38.885,0,0,1,2.054-4.147c2.313,3.351,5.966,9.157,7.982,12.4" transform="translate(244.087 63.054)" fill="#fdb54e"/>
        <path id="Trazado_899892" data-name="Trazado 899892" d="M73.7,18.306l-9.707,9.1-1.209-2.532L72.207,14.3a33.009,33.009,0,0,1,1.494,4" transform="translate(282.114 64.259)" fill="#fdb54e"/>
        <path id="Trazado_899893" data-name="Trazado 899893" d="M76.365,12.606c-1.533,5.581-4.895,9.454-8.789,9.454-4.164,0-7.718-4.428-9.08-10.624a14.772,14.772,0,0,1,2.142-.22c6.306,15.414,12.711.736,12.711.736a16.4,16.4,0,0,1,3.016.654" transform="translate(262.833 50.397)" fill="#fdb54e"/>
        <path id="Trazado_899894" data-name="Trazado 899894" d="M59.472,11.976s-.4,1.8,2.95,3c0,0,5.048,1.4,4.6-3.7,0,0-6.5-5.252-7.548.7" transform="translate(267.157 41.062)" fill="#ce807a"/>
        <path id="Trazado_899895" data-name="Trazado 899895" d="M71.36,45.448c.291-2.159-2.878-4.1-4.515-4.867-2.455-1.148-5.246-2.5-7.894-1.192-4.532,2.247-7.932,7.982-7.086,13.068a7.5,7.5,0,0,0,2.747,4.5c1.209,1.143,3.06,3.192,2.428,5.076-.319.956-1.384,1.417-2.164,1.961a9.409,9.409,0,0,0-2.593,2.7c-1.049,1.582-1.994,3.494-1.686,5.46.4,2.5,3.428,4.016,2.093,6.954-.7,1.544-2.615,1.84-4.142,1.708-2.329-.2-2.027-1.159-2.835-2.895-.818,2.791-1.3,6.114,1.285,8.157a19.169,19.169,0,0,0,13.426,3.713c3.988-.3,6.839-3.29,9.866-5.537,3.691-2.747,6.872-5.526,8.624-9.888a25.142,25.142,0,0,0-.28-19.721,27.813,27.813,0,0,0-4.153-6.109,13.8,13.8,0,0,0-3.367-3.576" transform="translate(202.468 174.563)" fill="#583517"/>
        <path id="Trazado_899896" data-name="Trazado 899896" d="M58.739,50.585l6.85,23.846.022.049L81.052,89.2a10.43,10.43,0,0,1,3.159,9.619,9.221,9.221,0,0,1-1.522,3.549s-2.269-.4-1.8-8.146l-2.225,2.313s-2.087,2.049.115-5.274L65.836,82.8a19.966,19.966,0,0,1-8.58-12.569L52.1,45.641s4.779-1.423,6.636,4.944" transform="translate(234.112 204.468)" fill="#ffab9c"/>
        <path id="Trazado_899897" data-name="Trazado 899897" d="M49.5,52.657l.165-1.538,2.741-.731c-.011-.242-.011-.472-.022-.72-.022-.934-.022-1.868.006-2.8l.082-2.615L58.947,45.4a5.267,5.267,0,0,0-.187,3.318,10.1,10.1,0,0,0,.3,1.159c.049.176.11.352.165.527.049.137.11.28.159.418l2.269.192.818.066.154,1.642c.016.209.027.412.027.615A6.593,6.593,0,1,1,49.5,52.657" transform="translate(222.275 198.836)" fill="#ff9581"/>
        <path id="Trazado_899898" data-name="Trazado 899898" d="M68.7,59.042a28.534,28.534,0,0,1-17.276,1.824c.038-.39.066-.775.077-1.159a8.62,8.62,0,0,0-.483-3.45l-1.813-3.065A77.254,77.254,0,0,1,68.652,50.11l-.192.566-.275.791a9.675,9.675,0,0,0,.516,7.575" transform="translate(221.095 225.158)" fill="#ffab9c"/>
        <path id="Trazado_899899" data-name="Trazado 899899" d="M48.752,55.658c-.445-1.818.011-4.23,1.527-4.384a2.534,2.534,0,0,1,1.478.4c1.055-5.2,4.8-11.047,8.591-11.437,4.955-.511,9.295,1.868,10.261,14.711.385,5.081-2.977,10.5-7.839,11.431-3.653.7-7.987-3.164-10.069-7.29-1.626-.434-3.384-1.132-3.95-3.433" transform="translate(218.325 180.519)" fill="#ffab9c"/>
        <path id="Trazado_899900" data-name="Trazado 899900" d="M51.934,45.87l.066.016c.582.066,1.373.093,1.582-.417.291-.709-.983-1.8-1.544-2.241a.272.272,0,0,0-.335.428c.791.621,1.461,1.4,1.379,1.61,0,0-.121.181-1.022.082a.271.271,0,0,0-.126.522" transform="translate(231.858 193.983)" fill="#001848"/>
        <path id="Trazado_899901" data-name="Trazado 899901" d="M50.549,43.634a.911.911,0,1,0,.912-.994.954.954,0,0,0-.912.994" transform="translate(227.13 191.593)" fill="#001848"/>
        <path id="Trazado_899902" data-name="Trazado 899902" d="M51.767,43.646a.911.911,0,1,0,.912-.994.954.954,0,0,0-.912.994" transform="translate(232.603 191.647)" fill="#001848"/>
        <path id="Trazado_899903" data-name="Trazado 899903" d="M50.543,43.981a.3.3,0,0,0,.286-.165,1.944,1.944,0,0,1,2.587-1,.316.316,0,0,0,.412-.154.324.324,0,0,0-.154-.412,2.551,2.551,0,0,0-3.389,1.28.309.309,0,0,0,.126.417.261.261,0,0,0,.132.033" transform="translate(225.784 188.835)" fill="#001848"/>
        <path id="Trazado_899904" data-name="Trazado 899904" d="M51.712,42.765a.263.263,0,0,0,.275.055,1.638,1.638,0,0,1,2.192.78.259.259,0,1,0,.472-.214,2.144,2.144,0,0,0-2.857-1.049.255.255,0,0,0-.143.335.212.212,0,0,0,.06.093" transform="translate(231.998 189.359)" fill="#001848"/>
        <path id="Trazado_899905" data-name="Trazado 899905" d="M53.348,45.537a.256.256,0,0,0-.236-.154,1.637,1.637,0,0,1-1.725-1.56.263.263,0,0,0-.269-.253.258.258,0,0,0-.247.269,2.14,2.14,0,0,0,2.236,2.06.255.255,0,0,0,.264-.253.246.246,0,0,0-.022-.11" transform="translate(228.572 195.772)" fill="#001848"/>
        <path id="Trazado_899906" data-name="Trazado 899906" d="M91.445,168.34a3.228,3.228,0,0,1-.33.088c-2.027.511-5.718.615-7.141-.95a3.279,3.279,0,0,0-2.461-1.066l-.308.011c-2.4.044-1.692-2.653-1.2-5v-.472c-.022-.137-.159-.857-.346-2.011-1.236-7.416-5-32.872.472-36.986-.577-4.466-1.379-15.474-2.7-25.483-.522-4.081-.8-11.327-1.291-16.859a2.056,2.056,0,0,1-3.159-.428c-.808,5.894-1.423,13.53-2.5,17.87-2.065,8.295-4.356,16.54-5.971,21.286,3.8,2.115-2.884,25.2-7.075,40.656l-.027.093.352,1.659c.385,2.247.967,4.829-1.3,4.708l-.3-.022a3.066,3.066,0,0,0-2.362.934c-1.412,1.434-4.9,1.209-6.817.665-.1-.027-.2-.066-.3-.1a1.034,1.034,0,0,1-.231-1.84l7.366-5.114a6.8,6.8,0,0,0,.181-.972v-.039H54c.346-13.376.873-77.741,8.954-96.813a21.586,21.586,0,0,1,.945-1.95,16.213,16.213,0,0,0,1.549-3.878,16,16,0,0,0,.478-2.758A28.535,28.535,0,0,0,83.2,51.735a9.981,9.981,0,0,0,1.357,2.005c.159.176.313.352.478.516A22.76,22.76,0,0,1,89.714,61.6a24.4,24.4,0,0,1,2.011,10.706l-7.8,86.623-.088.972c-.016.192.56.829.566.857l7.35,5.642a1.094,1.094,0,0,1-.308,1.939" transform="translate(206.592 232.459)" fill="#cfc2e7"/>
        <path id="Trazado_899907" data-name="Trazado 899907" d="M49.522,56.317a28.959,28.959,0,0,0,19.117-2.576,9.636,9.636,0,0,1-1.362-2.005A28.473,28.473,0,0,1,50.005,53.56a16.547,16.547,0,0,1-.483,2.758" transform="translate(222.515 232.464)" fill="#00d1be"/>
        <path id="Trazado_899908" data-name="Trazado 899908" d="M56.449,77.72l-.291-.016a3.054,3.054,0,0,0-2.368.928c-1.406,1.434-4.895,1.209-6.817.67-.093-.033-.2-.071-.3-.11a1.033,1.033,0,0,1-.225-1.84l7.361-5.109a6.322,6.322,0,0,0,.181-.978l3.439-.006-.027.1.352,1.653c.39,2.247.967,4.829-1.3,4.708" transform="translate(206.59 320.19)" fill="#a3d4a5"/>
        <path id="Trazado_899909" data-name="Trazado 899909" d="M64.015,80.659a3.225,3.225,0,0,1-.33.088c-2.027.511-5.718.615-7.141-.95a3.279,3.279,0,0,0-2.461-1.066l-.308.011c-2.4.044-1.692-2.653-1.2-5v-.472c-.022-.137-.159-.857-.346-2.011l4.268-.005-.088.972c-.016.192.56.829.566.857l7.35,5.642a1.094,1.094,0,0,1-.308,1.939" transform="translate(234.021 320.141)" fill="#a3d4a5"/>
        <path id="Trazado_899910" data-name="Trazado 899910" d="M74.606,66.248l-1.6,4.6a77.21,77.21,0,0,0-19.446,3.082l-.049-.088-2.252-3.823A23.237,23.237,0,0,1,48.31,58.107a23.776,23.776,0,0,1,.066-4.334,23.457,23.457,0,0,1,2.538-7.119l2.615-.687h.011l1.653-.434-.159,1.544a6.593,6.593,0,1,0,13.151.681,5.7,5.7,0,0,0-.033-.615L68,45.494l1.736.154,3.252,7.894L74.32,56.75a13.413,13.413,0,0,1,.286,9.5" transform="translate(216.751 204.417)" fill="#a3d4a5"/>
        <path id="Trazado_899911" data-name="Trazado 899911" d="M61.738,51.019a10.51,10.51,0,0,1-.511,3.236l-5.735,18.77s-9.635,1.785-9.212.187l5.158-19.4a19.624,19.624,0,0,1,2.8-6.427,3.913,3.913,0,0,1,3.3-1.769,3.972,3.972,0,0,1,3.933,3.1,10.258,10.258,0,0,1,.269,2.307" transform="translate(207.888 204.956)" fill="#ffab9c"/>
        <path id="Trazado_899912" data-name="Trazado 899912" d="M60.608,65.812l-.89-.4c.027-.055,2.653-6.01,1.549-10.717A5.85,5.85,0,0,0,58.2,50.848a6.1,6.1,0,0,0-5.131-.22c-2.747,1.148-4.894,4.016-6.389,8.531l-.923-.308c1.582-4.79,3.917-7.861,6.938-9.119a7.04,7.04,0,0,1,5.944.247,6.81,6.81,0,0,1,3.571,4.493c1.187,5.026-1.489,11.08-1.6,11.338" transform="translate(205.612 221.03)" fill="#1c476d"/>
        <path id="Trazado_899913" data-name="Trazado 899913" d="M61.228,52.163,46.4,85.557l7.454.22Z" transform="translate(208.469 234.383)" fill="#1c476d"/>
        <path id="Trazado_899914" data-name="Trazado 899914" d="M42.284,83.139c.489-.148,22.588,9.97,22.588,9.97L79.7,59.716,59.093,50.482Z" transform="translate(189.993 226.829)" fill="#001848"/>
        <path id="Trazado_899915" data-name="Trazado 899915" d="M44.495,59.718,53.927,64.7l3.8-7.636-9.509-4.191Z" transform="translate(199.928 237.576)" fill="#fff"/>
        <path id="Trazado_899916" data-name="Trazado 899916" d="M78.413,60.192S54.27,75.947,53.9,76.139c-3.076,1.67-5.62.835-7-.851-4.235-10.08,14.425-12.382,14.425-12.382l15.035-7.443c-1.516-6.812,4.592-9.69,4.592-9.69,3.378-.319.374,8.24.374,8.24,2.23-3.411,2.2-.192,2.2-.192-1.851,5.268-5.109,6.372-5.109,6.372" transform="translate(207.89 205.627)" fill="#ffab9c"/>
        <path id="Trazado_899917" data-name="Trazado 899917" d="M68.909,50.3s-.335,3.444-11.327.2c1.73-.308,3.027-.84,2.895-2.1,0,0-8.7,1.642-6.7,9.751l-2.631-4.125s-4.68-3.653-1.016-9.306a11.564,11.564,0,0,1,10.009-5.065c4.724.093,10.992,1.6,12.4,8.63A13.71,13.71,0,0,1,70,58.958l-.011.011A44.815,44.815,0,0,0,68.909,50.3" transform="translate(218.938 178.17)" fill="#784d25"/>
        <path id="Trazado_899918" data-name="Trazado 899918" d="M54.037,43.964c1.461,1.747,4.439,2.615,4.526,5.422.071,2.153-1.868,4.065-.654,6.268.571,1.044,2.983,2.027,2.922.066.006,1.642.033,3.713-1.736,4.526a5.957,5.957,0,0,1-4.823-.428c-1.549-1.005-1.9-2.752-2.878-4.213-1.225-1.84-2.906-2.7-2.884-5.164" transform="translate(217.972 197.542)" fill="#ffd73c"/>
        <path id="Trazado_899919" data-name="Trazado 899919" d="M89.652,190.733H76.161V45.8H72.9V190.733H60.313a2.145,2.145,0,1,0,0,4.29H89.652a2.145,2.145,0,0,0,0-4.29" transform="translate(261.35 205.81)" fill="#001848"/>
        <path id="Trazado_899920" data-name="Trazado 899920" d="M95.457,62.667l-1.983,4.565L86.338,83.678c6.372,6.922,7.152,21.127,4.477,39.832H63.162c-2.67-18.7-1.884-32.91,4.477-39.832L60.866,68.061,58.52,62.667c-3.422-7.575,6.845-10.25,6.845-10.25,5.032-1.027,6.724-3.5,7.2-5.62a4.549,4.549,0,0,1,8.844,0c.478,2.115,2.17,4.592,7.207,5.62,0,0,10.261,2.675,6.839,10.25" transform="translate(259.809 194.622)" fill="#001848"/>
        <path id="Trazado_899921" data-name="Trazado 899921" d="M121.952,132.368c-23.313,17.611-45.665,19.529-66.71,0,0-44.962,23.989-61.574,23.989-61.574l-1.769-4.076-5-11.547c4.367-13.6,15.656-6.614,15.656-6.614,9.267-5.669,14.31-.159,16.947,5.784L99.7,66.718,97.93,70.794c28.021,12.217,24.022,61.574,24.022,61.574" transform="translate(248.217 207.512)" fill="#a3d4a5"/>
        <path id="Trazado_899922" data-name="Trazado 899922" d="M81.524,49.921,79.755,54h-18.7l-1.769-4.076Z" transform="translate(266.391 224.307)" fill="#fdb54e"/>
        <path id="Trazado_899923" data-name="Trazado 899923" d="M105.376,80.374a81.337,81.337,0,0,0,1.192-23.731c-.121-1.214-.626-3.1-.681-4.307l-25.659.352a141.373,141.373,0,0,1-3.713,14.134,126.939,126.939,0,0,0-4.3,50.615c1.406,12.349,4.565,24.236,9.481,37.31.038.11.088.225.126.335l-7.471,6.57a1.164,1.164,0,0,0,.385,2.049c.115.027.225.066.341.088,2.17.489,6.07.511,7.553-1.176a3.332,3.332,0,0,1,2.483-1.209l.45.011c2.543-.022,1.725-2.867,1.143-5.35l-.2-.873c-.005-.148-.028-.3-.038-.445A341.21,341.21,0,0,1,85,117.437,221.588,221.588,0,0,1,89.88,74.644l-.368,4.587c-1.967,14.189-2.351,26.45-1.17,38.206,1.252,12.426,4.263,24.3,9.02,37.31.253.7.511,1.4.775,2.1l-7.46,6.57a1.157,1.157,0,0,0,.374,2.043c.115.033.236.06.352.093,2.17.478,6.07.5,7.553-1.187a3.316,3.316,0,0,1,2.472-1.2h.456c2.538-.011,1.719-2.857,1.148-5.35l-.2-.862c-.066-.742-.126-1.467-.187-2.208a328.748,328.748,0,0,1-1.28-37.31,221.47,221.47,0,0,1,4.01-37.063" transform="translate(320.587 235.16)" fill="#1c476d"/>
        <path id="Trazado_899924" data-name="Trazado 899924" d="M90.923,51.162l3.653,7.416a31.749,31.749,0,0,1-10.157-.835c-1.741-.478-3.8-.725-5.372-1.132a29.53,29.53,0,0,1-3.988-1.176,30.112,30.112,0,0,1-4.362-.6,8,8,0,0,1-3.779-1.4,3.015,3.015,0,0,1-.22-4.367c3.076-2.5,5.977-1.989,9.207,3.384,1.67-.247,7.229-1.258,10.163-1.159,1.28.027,3.032-.011,4.856-.126" transform="translate(295.956 213.954)" fill="#ffab9c"/>
        <path id="Trazado_899925" data-name="Trazado 899925" d="M97.147,46.316a2.7,2.7,0,0,0-2.17-1.983s.006-.011-.022-.005a9.136,9.136,0,0,0-4.186.385,10.887,10.887,0,0,0-5.988,4.911c-1.209,1.912-2.313,3.895-3.329,5.916A88.976,88.976,0,0,0,77.185,65.5c-.4.1-.813.192-1.258.269a43.535,43.535,0,0,1-5.5.659l3.653,7.416c1.219-.071,2.39-.2,3.472-.357a7.855,7.855,0,0,0,1.9-.549,16.66,16.66,0,0,0,6.312-5.312c2.626-3.472,5.339-6.477,7.493-9.652A23.248,23.248,0,0,0,97.18,48.7a5.484,5.484,0,0,0-.033-2.384" transform="translate(316.451 198.684)" fill="#001848"/>
        <path id="Trazado_899926" data-name="Trazado 899926" d="M82.628,94H75.816c-3.351-22.7-3.065-40.875,3.73-49.571h.011l1.428-.807,6.938.368.071.016a4.442,4.442,0,0,1,.461.137C86.242,46.973,81.172,57.24,82.628,94" transform="translate(331.262 196.005)" fill="#fdb54e"/>
        <path id="Trazado_899927" data-name="Trazado 899927" d="M86.729,76.221c-.06,8.19,3.032,16.782,2.73,17.348L79.472,98.71a2.749,2.749,0,0,1-4-2.291c-1.785-33.866,3.571-49.989,6.751-52.7A10.055,10.055,0,0,1,85.8,45.98a18.133,18.133,0,0,1,4.867,9.042c1.544,6.076-3.884,14.244-3.939,21.2" transform="translate(337.499 196.432)" fill="#001848"/>
        <path id="Trazado_899928" data-name="Trazado 899928" d="M78.321,97.89l-4.268-4.554c.731-5.109,2.785-10.734,2.065-13.321L73.46,68.149c-2.027-9.009-.434-17.408,6.405-21.819l1.7-.956,2.845-1.6c-6.3,8.048-6.01,31.361-3.274,52.785a1.637,1.637,0,0,1-2.818,1.335" transform="translate(326.395 196.671)" fill="#001848"/>
        <path id="Trazado_899929" data-name="Trazado 899929" d="M84.632,72.3c.582,2.483,1.4,5.328-1.143,5.345l-.45-.005a3.3,3.3,0,0,0-2.483,1.209c-1.489,1.686-5.389,1.664-7.553,1.17a2.91,2.91,0,0,1-.346-.088,1.167,1.167,0,0,1-.385-2.049l7.476-6.564c-.038-.11-.088-.231-.126-.335H84.4c.011.148.027.3.038.439Z" transform="translate(322.666 318.928)" fill="#001848"/>
        <path id="Trazado_899930" data-name="Trazado 899930" d="M86.455,79.4H86a3.3,3.3,0,0,0-2.472,1.2c-1.489,1.681-5.389,1.664-7.553,1.181-.121-.033-.236-.06-.357-.088a1.164,1.164,0,0,1-.374-2.049l7.465-6.57c-.269-.7-.522-1.4-.78-2.1h5.29c.06.742.115,1.467.187,2.208l.2.868c.571,2.488,1.384,5.334-1.154,5.345" transform="translate(336.015 318.923)" fill="#001848"/>
        <path id="Trazado_899931" data-name="Trazado 899931" d="M76.808,55.395c-2.994,1.714-1.428-6.438-1.428-6.438l-.159-5.268,6.619-1.252c.11.363.483,6.883.483,6.883l.066.022c.374.088-2.576,4.329-5.581,6.054" transform="translate(336.862 190.676)" fill="#ff9581"/>
        <path id="Trazado_899932" data-name="Trazado 899932" d="M93.953,54.916c.626-1.648.478-3.961-.923-4.279a2.4,2.4,0,0,0-1.434.2c-.379-4.988-3.214-10.888-6.713-11.69-4.581-1.049-8.916.67-11.305,12.58-.945,4.713,1.577,10.168,6.015,11.6,3.34,1.082,7.844-2.038,10.267-5.658,1.571-.22,3.3-.665,4.093-2.758" transform="translate(329.72 174.741)" fill="#ffab9c"/>
        <path id="Trazado_899933" data-name="Trazado 899933" d="M76.765,42.5a.894.894,0,1,1-.637-1.159.937.937,0,0,1,.637,1.159" transform="translate(337.015 185.643)" fill="#001848"/>
        <path id="Trazado_899934" data-name="Trazado 899934" d="M75.6,42.221a.894.894,0,1,1-.637-1.159.937.937,0,0,1,.637,1.159" transform="translate(331.776 184.399)" fill="#001848"/>
        <path id="Trazado_899935" data-name="Trazado 899935" d="M77.867,43.254a.316.316,0,0,1-.231-.236,1.911,1.911,0,0,0-2.175-1.632.3.3,0,1,1-.093-.6A2.5,2.5,0,0,1,78.23,42.9a.3.3,0,0,1-.231.357.268.268,0,0,1-.132,0" transform="translate(337.494 183.151)" fill="#001848"/>
        <path id="Trazado_899936" data-name="Trazado 899936" d="M76.876,41.424A.262.262,0,0,1,76.6,41.4a1.607,1.607,0,0,0-2.28.148.26.26,0,0,1-.363.033.265.265,0,0,1-.027-.363A2.1,2.1,0,0,1,76.909,41a.25.25,0,0,1,.049.357.205.205,0,0,1-.082.071" transform="translate(331.927 181.888)" fill="#001848"/>
        <path id="Trazado_899937" data-name="Trazado 899937" d="M74.564,43.678a.254.254,0,0,1,.253-.11,1.6,1.6,0,0,0,1.939-1.2.253.253,0,0,1,.494.11,2.1,2.1,0,0,1-2.516,1.6.257.257,0,0,1-.209-.3.22.22,0,0,1,.038-.1" transform="translate(334.849 189.472)" fill="#001848"/>
        <path id="Trazado_899938" data-name="Trazado 899938" d="M74.719,46.829a1.073,1.073,0,0,1-.489-.363c-.4-.533-.236-1.362.417-2.214l1.873-2.95a.243.243,0,1,1,.412.258l-1.884,2.972c-.621.808-.626,1.373-.428,1.642a.975.975,0,0,0,1.143.137.265.265,0,0,1,.33.132.231.231,0,0,1-.115.313,1.809,1.809,0,0,1-1.258.071" transform="translate(332.573 185.07)" fill="#001848"/>
        <path id="Trazado_899939" data-name="Trazado 899939" d="M73,40.845c1.115-2.164,4.746-2.142,6.757-1.862,1.335.192,6.757-.071,7.5-.082,2.538-.049,3.785.461,4.768,1.165a8.985,8.985,0,0,1,2.725,3.483,6.523,6.523,0,0,1,.319,5.081c-.066.242-.253,2.285-.505,2.4H94.5c-1.511-.231-3.054,4.68-2.884,5.9a15.971,15.971,0,0,0-.775-1.961,8,8,0,0,1-.483-3.236,7.629,7.629,0,0,1,.467-2.384s-1.23-1.033-1.077-1.544c-2.527,1.983-5.372.808-7.575-.967a5.333,5.333,0,0,1-3.225.956,3.79,3.79,0,0,1-2.862-1.23c-.181-.264-.2-.791-.4-.884s-.84.137-1.066.165c-2.011.231-1.225-2.159-.28-3.021-1.093-.39-2.043-.632-1.346-1.978" transform="translate(326.919 174.563)" fill="#001848"/>
        <path id="Trazado_899940" data-name="Trazado 899940" d="M107.43,75.92H74.251c-1.791,0-2.988-.494-3.576-1.472a3.574,3.574,0,0,1,.11-3.263c2.335-4.136,6.542-6.751,12.179-7.586a28.433,28.433,0,0,1,6.867-.143v-1.61a.806.806,0,0,1,.692-.8c1.972-.286,3.356-1,4-2.054a2.788,2.788,0,0,0,.3-2.285,3.669,3.669,0,0,0-1.022-1.489c-1.2-1.1-2.324-1.549-3.334-1.329-1.89.412-3,2.977-3.01,3a.81.81,0,0,1-1.494-.626c.06-.137,1.439-3.362,4.153-3.961,1.549-.341,3.159.236,4.779,1.714a5.212,5.212,0,0,1,1.461,2.17,4.429,4.429,0,0,1-.45,3.648,6.381,6.381,0,0,1-4.461,2.692v1.022A33.4,33.4,0,0,1,102.541,65.2a12.586,12.586,0,0,1,6.663,5.779c.879,1.664,1.027,2.972.439,3.878a2.628,2.628,0,0,1-2.214,1.06M86.945,65.049c-4.406,0-11.739.961-15.238,6.861a1.917,1.917,0,0,0-.143,1.62c.269.428,1.071.665,2.241.665h34.02c.214.011.775-.033.961-.313.088-.132.308-.681-.527-2.192a11.116,11.116,0,0,0-5.971-4.911,34.428,34.428,0,0,0-11.607-1.494.951.951,0,0,1-.176-.016,26.33,26.33,0,0,0-3.56-.22" transform="translate(315.908 234.592)" fill="#001848"/>
        <path id="Trazado_899941" data-name="Trazado 899941" d="M95.854,56.213H73.909A87.485,87.485,0,0,0,71.8,81.487l2.895,46.627h5.894L84.23,69.562l4.3,58.553h5.23l2.911-46.858c.516-8.355-.8-16.738-1.862-25.044Z" transform="translate(321.853 252.58)" fill="#a3d4a5"/>
        <rect id="Rectángulo_415838" data-name="Rectángulo 415838" width="2.016" height="5.779" transform="translate(394.086 306.134)" fill="#001848"/>
        <rect id="Rectángulo_415839" data-name="Rectángulo 415839" width="2.021" height="5.779" transform="translate(415.005 306.134)" fill="#001848"/>
        <path id="Trazado_899942" data-name="Trazado 899942" d="M90.814,50.073l8.02,2.011a31.815,31.815,0,0,1-7.207,7.207c-1.489,1.022-3.016,2.428-4.345,3.362a28.329,28.329,0,0,1-3.472,2.28,30.854,30.854,0,0,1-3.285,2.939,7.99,7.99,0,0,1-3.516,1.978,3.021,3.021,0,0,1-3.472-2.659c.088-3.972,2.351-5.845,8.542-4.829.89-1.439,3.719-6.328,5.691-8.5.846-.961,1.95-2.318,3.043-3.785" transform="translate(330.421 224.992)" fill="#ffab9c"/>
        <path id="Trazado_899943" data-name="Trazado 899943" d="M88.419,54.728a23.188,23.188,0,0,0-4.537-8.992,5.493,5.493,0,0,0-1.835-1.522,2.71,2.71,0,0,0-2.917.374s-.011-.011-.022.011A9.1,9.1,0,0,0,76.7,48.042a10.91,10.91,0,0,0-.132,7.74c.676,2.159,1.478,4.285,2.362,6.367a88.635,88.635,0,0,0,4.834,9.7c-.176.374-.379.747-.61,1.137a44.048,44.048,0,0,1-3.054,4.62l8.02,2.011c.736-.978,1.39-1.95,1.972-2.884a8.016,8.016,0,0,0,.813-1.8,16.654,16.654,0,0,0,.033-8.251c-.95-4.252-1.483-8.262-2.516-11.959" transform="translate(341.137 197.457)" fill="#001848"/>
        <path id="Trazado_899944" data-name="Trazado 899944" d="M101.81,66.972A12.246,12.246,0,0,0,97.1,62.138a13.068,13.068,0,0,0-1.956-.934A24.454,24.454,0,0,0,90.2,59.99a38.934,38.934,0,0,0-6.147-.439V58.524a6.415,6.415,0,0,0,4.461-2.686,4.47,4.47,0,0,0,.456-3.653,5.332,5.332,0,0,0-1.467-2.17c-1.615-1.483-3.23-2.055-4.779-1.708-2.714.588-4.092,3.818-4.153,3.955a.8.8,0,0,0,.434,1.055.814.814,0,0,0,1.06-.423c.011-.033,1.126-2.6,3.016-3.016,1.005-.214,2.126.231,3.329,1.329A3.724,3.724,0,0,1,87.434,52.7a2.826,2.826,0,0,1-.3,2.3c-.648,1.049-2.038,1.763-4,2.049a.8.8,0,0,0-.7.8v1.615a28.291,28.291,0,0,0-2.917-.148,26.293,26.293,0,0,0-3.95.3,21.7,21.7,0,0,0-4.224,1.049,14.6,14.6,0,0,0-7.954,6.531,3.6,3.6,0,0,0-.11,3.269c.593.972,1.791,1.467,3.576,1.467h33.185a2.626,2.626,0,0,0,2.214-1.066c.582-.9.434-2.2-.445-3.878m-.412,2.906c-.187.275-.747.324-.967.313H66.412c-1.17,0-1.967-.236-2.247-.67-.324-.511.022-1.373.148-1.615a13.158,13.158,0,0,1,7.218-5.631,25.074,25.074,0,0,1,8.026-1.23h.308a26.021,26.021,0,0,1,3.247.22.655.655,0,0,0,.176.016,40.066,40.066,0,0,1,6.5.346A24.788,24.788,0,0,1,94.9,62.781a12.1,12.1,0,0,1,1.912.884,10.7,10.7,0,0,1,4.054,4.016c.84,1.516.621,2.06.533,2.2" transform="translate(282.696 216.612)" fill="#001848"/>
        <path id="Trazado_899945" data-name="Trazado 899945" d="M104.6,128.068c-12.288,2.642-25.9,3.12-37.283-1.088-13.766-5.087,3.8-35.585,11.1-42.743l-.494-4.213C74.5,70,71.919,60.358,74.754,53.2l-.187-1.621a21.221,21.221,0,0,1,4.224-1.055,26.242,26.242,0,0,1,3.95-.3l.341,1.741.066.33a5.056,5.056,0,0,0,9.86.253l.412-1.637a24.36,24.36,0,0,1,4.944,1.214,13.13,13.13,0,0,1,1.961.934l-.3,1.527c2.186,7.383-.577,16.194-4.812,25.434l-.8,4.213c10.651,6.592,25.148,40.612,10.184,43.831" transform="translate(279.474 225.688)" fill="#fdb54e"/>
        <path id="Trazado_899946" data-name="Trazado 899946" d="M82.354,55.651l-.8,4.213h-16l-.494-4.213Z" transform="translate(292.335 250.057)" fill="#cfc2e7"/>
        <path id="Trazado_899947" data-name="Trazado 899947" d="M65.9,50.832s-.764,5.592,4.614,5.592a4.251,4.251,0,0,0,3.389-5.268s-6.74-7.493-8-.324" transform="translate(295.954 214.454)" fill="#ffab9c"/>
        <path id="Trazado_899948" data-name="Trazado 899948" d="M36.262,72.193a1.574,1.574,0,0,1,.016.368L28.742,78.1a1.106,1.106,0,0,0,.275,1.961c.1.033.214.071.324.1,2.043.555,5.762.736,7.235-.813a3.288,3.288,0,0,1,2.5-1.022l.313.016c2.417.093,1.763-2.648,1.318-5.026,0,0-.1-.912-.2-1.961l.049,1.121Z" transform="translate(126.981 320.631)" fill="#48220c"/>
        <path id="Trazado_899949" data-name="Trazado 899949" d="M31.861,71.357c-.093,1.049-.192,1.961-.192,1.961-.445,2.384-1.1,5.125,1.313,5.032l.313-.016a3.253,3.253,0,0,1,2.5,1.022c1.472,1.549,5.191,1.368,7.235.813.11-.033.22-.066.33-.1a1.1,1.1,0,0,0,.269-1.956L36.1,72.56a2.015,2.015,0,0,1,.016-.368l-4.3.291c.016-.379.027-.747.044-1.126" transform="translate(140.358 320.626)" fill="#48220c"/>
        <path id="Trazado_899950" data-name="Trazado 899950" d="M51.419,153.918l-.154.011-4.3.286c.022-.368.027-.742.038-1.121.9-28.422-.956-75.357-2.011-71.857-4.136,13.717-1.588,43.243-2.7,71.857a9.462,9.462,0,0,0,.044,1.121l-4.3-.286-.148-.011c-5.114-21.177-10.322-43.347-10-66.545,0-1.033.022-2.06.06-3.093.126-3.488.192-7.053.648-12.673.28-3.631,3.362-17.458,3.455-18.441H59.516c.033.818.082,1.631.154,2.434h.071c1.516,5.675,2.1,21.632,2.313,27.554v.06c.906,25.181-5.405,48.505-10.635,70.7" transform="translate(125.211 238.889)" fill="#a3d4a5"/>
        <path id="Trazado_899951" data-name="Trazado 899951" d="M38.11,75.022l-.851-.505c.038-.055,3.367-5.746,2.8-10.607a5.933,5.933,0,0,0-2.642-4.23,6.179,6.179,0,0,0-5.136-.807c-2.895.835-5.389,3.477-7.416,7.844l-.9-.412c2.153-4.642,4.856-7.46,8.037-8.383a7.159,7.159,0,0,1,5.955.934,6.912,6.912,0,0,1,3.082,4.938c.61,5.2-2.785,10.981-2.928,11.228" transform="translate(107.681 259.007)" fill="#1c476d"/>
        <path id="Trazado_899952" data-name="Trazado 899952" d="M42.55,60.826l-18.787,31.9L31.245,93.8Z" transform="translate(106.772 273.307)" fill="#1c476d"/>
        <path id="Trazado_899953" data-name="Trazado 899953" d="M19.834,89.633c.505-.093,21.583,12.645,21.583,12.645L60.2,70.379,40.527,58.7Z" transform="translate(89.119 263.755)" fill="#001848"/>
        <path id="Trazado_899954" data-name="Trazado 899954" d="M22.326,67.548l8.916,6.1,4.7-7.246-9.086-5.317Z" transform="translate(100.316 274.484)" fill="#fff"/>
        <path id="Trazado_899955" data-name="Trazado 899955" d="M40.428,74.06l-.945-.286c.022-.066,1.912-6.383.2-10.97a5.9,5.9,0,0,0-3.571-3.483,6.174,6.174,0,0,0-5.18.428c-2.615,1.5-4.411,4.653-5.345,9.377l-.967-.187c.989-5.021,2.944-8.4,5.823-10.047a7.138,7.138,0,0,1,6-.5,6.875,6.875,0,0,1,4.158,4.065c1.829,4.905-.1,11.333-.181,11.6" transform="translate(110.642 260.409)" fill="#a3d4a5"/>
        <path id="Trazado_899956" data-name="Trazado 899956" d="M36.879,60.753,26.184,96.2l7.52-.725Z" transform="translate(117.651 272.979)" fill="#0094a0"/>
        <path id="Trazado_899957" data-name="Trazado 899957" d="M21.821,94.49c.472-.214,23.967,7.174,23.967,7.174l10.7-35.443L34.6,59.536Z" transform="translate(98.047 267.511)" fill="#a3d4a5"/>
        <path id="Trazado_899958" data-name="Trazado 899958" d="M23.753,69.312,33.86,73.13l2.851-8.152L26.626,61.962Z" transform="translate(106.727 278.414)" fill="#fff"/>
        <path id="Trazado_899959" data-name="Trazado 899959" d="M42.828,70.128l-.972.17c-.011-.06-1.2-6.548-4.812-9.86a5.915,5.915,0,0,0-4.763-1.472A6.175,6.175,0,0,0,27.864,61.7c-1.648,2.527-1.813,6.158-.494,10.789l-.95.269c-1.4-4.916-1.192-8.817.615-11.6a7.194,7.194,0,0,1,5.125-3.181,6.922,6.922,0,0,1,5.554,1.73c3.856,3.538,5.065,10.135,5.114,10.415" transform="translate(114.598 260.276)" fill="#1c476d"/>
        <path id="Trazado_899960" data-name="Trazado 899960" d="M29.157,59.741l6.6,36.426L42.127,92.1Z" transform="translate(131.012 268.433)" fill="#820200"/>
        <path id="Trazado_899961" data-name="Trazado 899961" d="M29.588,100.688c.319-.4,24.6-4.515,24.6-4.515L47.584,59.741l-22.528,4.01Z" transform="translate(112.583 268.432)" fill="#fdb54e"/>
        <path id="Trazado_899962" data-name="Trazado 899962" d="M27.061,71.982l10.739-1.2-1.17-8.559-10.355,1.9Z" transform="translate(118.06 279.598)" fill="#fff"/>
        <path id="Trazado_899963" data-name="Trazado 899963" d="M40.79,75.477l.709-.687c-.044-.044-4.592-4.823-5.147-9.685a5.941,5.941,0,0,1,1.6-4.724,6.159,6.159,0,0,1,4.812-1.961c3.01.148,6.043,2.148,9.014,5.938l.78-.61C49.4,59.727,46.13,57.6,42.817,57.431a7.173,7.173,0,0,0-5.581,2.274,6.928,6.928,0,0,0-1.868,5.51c.6,5.2,5.224,10.058,5.422,10.261" transform="translate(158.73 258.014)" fill="#1c476d"/>
        <path id="Trazado_899964" data-name="Trazado 899964" d="M35.7,60.875,61.293,87.627l-7.031,2.758Z" transform="translate(160.408 273.526)" fill="#820200"/>
        <path id="Trazado_899965" data-name="Trazado 899965" d="M79.409,83.354c-.516.022-18.117,17.249-18.117,17.249L35.7,73.856l16.485-15.87Z" transform="translate(160.405 260.547)" fill="#fdb54e"/>
        <path id="Trazado_899966" data-name="Trazado 899966" d="M51.815,65.458l-7.284,7.987L38.3,67.463l7.625-7.257Z" transform="translate(172.074 270.523)" fill="#fff"/>
        <path id="Trazado_899967" data-name="Trazado 899967" d="M37.791,75.195l.851-.494c-.033-.06-3.318-5.773-2.708-10.635a5.939,5.939,0,0,1,2.675-4.208,6.215,6.215,0,0,1,5.147-.769c2.884.862,5.361,3.521,7.35,7.91l.9-.412c-2.109-4.653-4.79-7.493-7.965-8.443a7.159,7.159,0,0,0-5.966.89,6.92,6.92,0,0,0-3.115,4.911c-.654,5.191,2.692,11,2.835,11.25" transform="translate(156.687 259.933)" fill="#a3d4a5"/>
        <path id="Trazado_899968" data-name="Trazado 899968" d="M34.76,61.021,53.289,93.074,45.8,94.09Z" transform="translate(156.187 274.182)" fill="#0094a0"/>
        <path id="Trazado_899969" data-name="Trazado 899969" d="M74.976,90.021c-.505-.1-21.687,12.47-21.687,12.47L34.76,70.438,54.536,58.924Z" transform="translate(156.186 264.761)" fill="#a3d4a5"/>
        <path id="Trazado_899970" data-name="Trazado 899970" d="M50.735,67.813,41.77,73.845l-4.642-7.284,9.124-5.246Z" transform="translate(166.828 275.504)" fill="#fff"/>
        <path id="Trazado_899971" data-name="Trazado 899971" d="M34.124,72.253l.983-.055c0-.066-.324-6.652,2.428-10.7a5.928,5.928,0,0,1,4.3-2.527,6.2,6.2,0,0,1,4.933,1.653c2.181,2.082,3.17,5.576,2.944,10.388l.989.044c.236-5.1-.857-8.855-3.257-11.146a7.174,7.174,0,0,0-5.713-1.923,6.91,6.91,0,0,0-5,2.955c-2.95,4.329-2.615,11.025-2.6,11.311" transform="translate(153.24 260.37)" fill="#1c476d"/>
        <path id="Trazado_899972" data-name="Trazado 899972" d="M37.793,60.271l1.917,36.97-7.13-2.5Z" transform="translate(146.391 270.813)" fill="#1c476d"/>
        <path id="Trazado_899973" data-name="Trazado 899973" d="M60.429,97.034c-.406-.319-24.983,1.236-24.983,1.236L33.529,61.3l22.846-1.258Z" transform="translate(150.654 269.785)" fill="#001848"/>
        <path id="Trazado_899974" data-name="Trazado 899974" d="M46.616,70.194,35.888,71.485l-.818-8.6,10.514-.522Z" transform="translate(157.577 280.228)" fill="#fff"/>
        <path id="Trazado_899975" data-name="Trazado 899975" d="M37.6,65.449c-.945-1.252,1.961.687.093-3.889l-.511.846-2.109.731a27.914,27.914,0,0,1,.753-3.56q.453-1.31.862-2.62s4.62-.165,3.944,1.022c0,0,4.384,3.648.934,7.564-.571.648-3.455.6-3.966-.093" transform="translate(157.573 255.885)" fill="#ce807a"/>
        <path id="Trazado_899976" data-name="Trazado 899976" d="M31.4,65.449c.945-1.252-1.961.687-.093-3.889l.511.846,2.109.731a27.918,27.918,0,0,0-.753-3.56q-.453-1.31-.862-2.62s-4.62-.165-3.944,1.022c0,0-4.384,3.648-.934,7.564.571.648,3.455.6,3.966-.093" transform="translate(117.328 255.885)" fill="#ce807a"/>
        <path id="Trazado_899977" data-name="Trazado 899977" d="M78.881,113.22H74.41c1.231.027.005-23.841-5.889-44.276l-1.588,6.564a43.987,43.987,0,0,0-1.209,8.344c-.121,3.065,2.813,22.643,2.884,25.412-10,3.757-20.957,4.488-33.553,0,.434-4.285,3.7-21.2,4.109-27.34.1-1.434-.824-11.14-1.115-12.547-3.631,11.772-5.5,27.554-6.79,44.7H26.619c-.242-22.632-1.132-40.068,4.812-53.982,2.549-5.955,6.927-12.772,13.156-14.513l.1-.033c1.055-.286,2.115-.544,3.186-.742l.093-.022h9.234c.681.044,1.34.093,2,.159,1.939.176.165-.176,1.939.176a26.357,26.357,0,0,1,15.161,20.3c2.148,13.733,5.878,33.509,2.576,47.8" transform="translate(118.744 201.231)" fill="#fdb54e"/>
        <path id="Trazado_899978" data-name="Trazado 899978" d="M42.127,56.507H35.162V60.55h5.29Z" transform="translate(157.99 253.902)" fill="#cfc2e7"/>
        <path id="Trazado_899979" data-name="Trazado 899979" d="M26.12,56.663h6.965v4.043H27.8Z" transform="translate(117.365 254.603)" fill="#cfc2e7"/>
        <path id="Trazado_899980" data-name="Trazado 899980" d="M33.04,62.154c-1.307-1.653-2.911-3.2-3.038-5.471a20.213,20.213,0,0,1,.077-5.312A23.348,23.348,0,0,1,31.2,48.432c-.643-.016-1.626,1.044-2.115,1.472A39.573,39.573,0,0,1,34.166,42.3a11.059,11.059,0,0,1,7.158-3.378,10.753,10.753,0,0,1,3.95.269c1.3.357,1.736,1.187,2.785,1.857.7.445,1.181-.2,2.011.011a4.111,4.111,0,0,1,2.291,1.857c.983,1.9.78,4.461,1.4,6.493a2.338,2.338,0,0,0-1.066-1.011c1.11.928,1.187,4.114,1.23,5.46a9.56,9.56,0,0,1-2.324,6.12,10.687,10.687,0,0,1-6.191,3.664c-2.516.434-5.356-.2-7.855-.544-.994-.137-3.944-.56-4.279-1.642" transform="translate(130.709 174.562)" fill="#48220c"/>
        <path id="Trazado_899981" data-name="Trazado 899981" d="M34.639,57.826h0a4.005,4.005,0,0,1-4-4V43.549h8.009V53.821a4.005,4.005,0,0,1-4,4" transform="translate(137.646 195.677)" fill="#c67068"/>
        <path id="Trazado_899982" data-name="Trazado 899982" d="M56.155,50.6C55.6,53,53.788,53.767,52.1,54.239a17.746,17.746,0,0,1-3.12,4.461,10.036,10.036,0,0,1-2.714,2.258,8.409,8.409,0,0,1-2.258.917c-.049.011-.11.033-.17.044-.121.027-.225.055-.335.077a1.7,1.7,0,0,1-.236.016,1.088,1.088,0,0,1-.2.022,3.08,3.08,0,0,1-.456.027,3.023,3.023,0,0,1-.445-.027,1.026,1.026,0,0,1-.192-.022A1.782,1.782,0,0,1,41.735,62c-.1-.022-.225-.049-.335-.077l-.165-.044a8.605,8.605,0,0,1-2.972-1.362A10.048,10.048,0,0,1,36.27,58.7a17.3,17.3,0,0,1-3.126-4.461c-1.692-.472-3.5-1.236-4.06-3.642-.434-1.9.082-4.4,1.659-4.537a2.637,2.637,0,0,1,1.538.439l.06.346c.22,1.209.917,5.164.917,4.856,0-.363.78-6.493.78-6.493s.665,1.351,4.3-.9c0,0,2.4,1.181,5.043-2.324,0,0,4.5.89,5.224-1.252,0,0,5.043,6.488.621,10.965,0,0,2.466.324,4.027-5.356A2.314,2.314,0,0,1,54.5,46.06c1.582.137,2.093,2.642,1.659,4.537" transform="translate(130.022 183.042)" fill="#ce807a"/>
        <path id="Trazado_899983" data-name="Trazado 899983" d="M33.8,43.081a.948.948,0,1,1-1.06-.917.986.986,0,0,1,1.06.917" transform="translate(143.431 189.427)" fill="#001848"/>
        <path id="Trazado_899984" data-name="Trazado 899984" d="M32.287,43.081a.948.948,0,1,1-1.873.231.948.948,0,1,1,1.873-.231" transform="translate(136.619 189.427)" fill="#001848"/>
        <path id="Trazado_899985" data-name="Trazado 899985" d="M35.267,43.013a.312.312,0,0,1-.319-.137,2.031,2.031,0,0,0-2.8-.72.321.321,0,0,1-.439-.1.326.326,0,0,1,.1-.445,2.664,2.664,0,0,1,3.664.906.327.327,0,0,1-.088.45.277.277,0,0,1-.126.049" transform="translate(142.281 185.232)" fill="#001848"/>
        <path id="Trazado_899986" data-name="Trazado 899986" d="M31.481,45.828a.328.328,0,0,1,.269-.225,2.018,2.018,0,0,0,1.912-2.153.328.328,0,0,1,.3-.346.325.325,0,0,1,.346.3,2.656,2.656,0,0,1-2.477,2.846.321.321,0,0,1-.357-.28.378.378,0,0,1,.011-.137" transform="translate(141.392 193.673)" fill="#001848"/>
        <path id="Trazado_899987" data-name="Trazado 899987" d="M33.3,42.4a.272.272,0,0,1-.286.066,1.692,1.692,0,0,0-2.252.879.279.279,0,0,1-.357.148.272.272,0,0,1-.143-.357A2.233,2.233,0,0,1,33.2,41.951a.273.273,0,0,1,.159.346.23.23,0,0,1-.06.1" transform="translate(135.885 187.717)" fill="#001848"/>
        <path id="Trazado_899988" data-name="Trazado 899988" d="M32.151,48.489a1.092,1.092,0,0,1-.615-.181c-.588-.379-.736-1.258-.4-2.34l.764-3.609a.254.254,0,0,1,.3-.2.264.264,0,0,1,.2.308L31.635,46.1c-.319,1.022-.115,1.588.181,1.774A1.019,1.019,0,0,0,33,47.594a.272.272,0,0,1,.374.011.25.25,0,0,1,0,.352,1.928,1.928,0,0,1-1.219.533" transform="translate(139.112 189.419)" fill="#001848"/>
        <path id="Trazado_899989" data-name="Trazado 899989" d="M29.935,46.561h0c1,4.268,4.027,7.185,7.46,7.185h.385l-4-9.289Z" transform="translate(134.506 199.757)" fill="#cfc2e7"/>
        <path id="Trazado_899990" data-name="Trazado 899990" d="M35.4,44.457l-4,9.289h.385c3.433,0,6.46-2.917,7.46-7.185Z" transform="translate(141.052 199.757)" fill="#cfc2e7"/>
        <path id="Trazado_899991" data-name="Trazado 899991" d="M50.515,51.286c-1.56,5.686-4.027,5.356-4.027,5.356,4.422-4.477-.621-10.959-.621-10.959-.72,2.137-5.219,1.252-5.219,1.252-2.648,3.5-5.043,2.318-5.043,2.318-3.642,2.252-4.307.9-4.307.9s-.78,6.13-.78,6.493c0,.308-.7-3.648-.917-4.851-.038-.22-.055-.346-.055-.346a20.709,20.709,0,0,1,4.417-8.872,7.077,7.077,0,0,1,2.944-2.362,4.973,4.973,0,0,1,1.763-.533c.417-.027.813-.049,1.2-.038.406-.011.8.011,1.214.038a5,5,0,0,1,1.769.533A7.045,7.045,0,0,1,45.8,42.574a20.718,20.718,0,0,1,4.422,8.872,1.955,1.955,0,0,1,.3-.159" transform="translate(132.762 178.102)" fill="#48220c"/>
        <path id="Trazado_899992" data-name="Trazado 899992" d="M7.591,71.174l.868-.516C8.426,70.6,5.02,64.791,5.6,59.82a6.068,6.068,0,0,1,2.7-4.318,6.316,6.316,0,0,1,5.241-.824c2.961.857,5.51,3.549,7.575,8.015l.917-.423c-2.2-4.741-4.96-7.619-8.212-8.564a7.312,7.312,0,0,0-6.081.961A7.047,7.047,0,0,0,4.6,59.7c-.626,5.312,2.84,11.223,2.988,11.47" transform="translate(20.342 240.047)" fill="#1c476d"/>
        <path id="Trazado_899993" data-name="Trazado 899993" d="M4.429,56.675,23.616,89.255l-7.636,1.1Z" transform="translate(19.898 254.654)" fill="#1c476d"/>
        <path id="Trazado_899994" data-name="Trazado 899994" d="M45.661,86.1C45.145,86,23.617,99.01,23.617,99.01L4.429,66.43,24.529,54.5Z" transform="translate(19.901 244.901)" fill="#001848"/>
        <path id="Trazado_899995" data-name="Trazado 899995" d="M20.766,63.54l-9.108,6.235-4.8-7.4,9.278-5.433Z" transform="translate(30.812 255.858)" fill="#fff"/>
        <path id="Trazado_899996" data-name="Trazado 899996" d="M4.909,70.192l.967-.3c-.022-.06-1.95-6.515-.209-11.2a6.049,6.049,0,0,1,3.642-3.56,6.313,6.313,0,0,1,5.3.439c2.67,1.533,4.51,4.757,5.46,9.58l.989-.192c-1.011-5.125-3.01-8.58-5.949-10.261a7.3,7.3,0,0,0-6.136-.511,7.043,7.043,0,0,0-4.246,4.153c-1.862,5.01.1,11.569.187,11.849" transform="translate(17.63 241.48)" fill="#a3d4a5"/>
        <path id="Trazado_899997" data-name="Trazado 899997" d="M3.46,56.6,14.386,92.8,6.7,92.059Z" transform="translate(15.548 254.319)" fill="#0094a0"/>
        <path id="Trazado_899998" data-name="Trazado 899998" d="M38.864,91.059c-.478-.214-24.478,7.328-24.478,7.328L3.46,62.181l22.358-6.823Z" transform="translate(15.547 248.738)" fill="#a3d4a5"/>
        <path id="Trazado_899999" data-name="Trazado 899999" d="M18.761,65.344l-10.327,3.9L5.522,60.917l10.305-3.082Z" transform="translate(24.812 259.869)" fill="#fff"/>
        <path id="Trazado_900000" data-name="Trazado 900000" d="M2.922,66.174l.994.176c.011-.066,1.225-6.691,4.916-10.069a6.047,6.047,0,0,1,4.862-1.511,6.289,6.289,0,0,1,4.51,2.8c1.681,2.576,1.851,6.284.505,11.014l.967.275c1.434-5.021,1.225-9-.626-11.843a7.318,7.318,0,0,0-5.23-3.247,7.072,7.072,0,0,0-5.675,1.763c-3.939,3.615-5.175,10.355-5.224,10.64" transform="translate(13.129 241.344)" fill="#1c476d"/>
        <path id="Trazado_900001" data-name="Trazado 900001" d="M13.249,55.567,6.5,92.773,0,88.62Z" transform="translate(-0.002 249.676)" fill="#820200"/>
        <path id="Trazado_900002" data-name="Trazado 900002" d="M26.316,97.387c-.33-.412-25.132-4.614-25.132-4.614L7.93,55.567l23.011,4.092Z" transform="translate(5.32 249.677)" fill="#fdb54e"/>
        <path id="Trazado_900003" data-name="Trazado 900003" d="M14.183,68.069,3.213,66.844l1.2-8.74,10.575,1.945Z" transform="translate(14.435 261.08)" fill="#fff"/>
        <path id="Trazado_900004" data-name="Trazado 900004" d="M30.478,41.049c1.412-.154,2.565-.8,4.109-.483,1.675.341,3.159,1.6,4.433,2.483a8.752,8.752,0,0,1,4.027,6.586c.154,1.461-.352,2.06-.928,3.3-.7,1.489.753,2.466,1.879,3.763,2.846,3.29,7.559,6.768,8.339,10.959a7.763,7.763,0,0,1-.214,3.917c-.56,1.522-1.928,1.89-3.054,3.027-.884.906-.577,1.956-.961,3.153a10.467,10.467,0,0,1-2.543,4.241c-3.307,3.137-8.575,5.312-13.574,5.944-2.324.3-5.131.626-7.24-.3-1.066-.472-1.835-1.231-2.824-1.769-1.077-.588-.588-.467-1.906-.478-4.675-.033-8.454-1.642-10.228-5.356-1.73-3.626.472-5.988,2.554-8.866-6.29-4.993-4.642-12.909.044-18.3.9-1.033,2.225-1.538,3.186-2.434a28.1,28.1,0,0,0,2.769-3.664,16.611,16.611,0,0,1,7.438-5.51c2.087-.906,8.141-3.983,9.553-.61" transform="translate(36.963 175.688)" fill="#48220c"/>
        <path id="Trazado_900005" data-name="Trazado 900005" d="M17.137,60.04c-7.5-1.384-6.218-7.971-5.74-9.729l2.351-.2c.055-.143.115-.3.165-.434.06-.181.121-.363.17-.544a11.1,11.1,0,0,0,.313-1.2,5.5,5.5,0,0,0-.2-3.422l6.674-1.2.088,2.692c.033.967.033,1.928.011,2.895-.011.253-.011.494-.022.742l4.543,1.187c1.467,9.426-8.35,9.207-8.35,9.207" transform="translate(49.447 194.644)" fill="#ff9581"/>
        <path id="Trazado_900006" data-name="Trazado 900006" d="M8.837,89.766l15.9-15.227.022-.049,7.015-24.621c1.9-6.57,6.834-5.114,6.834-5.114L33.348,70.139a20.687,20.687,0,0,1-8.822,12.986L9.721,93.458c.4,6.713-4.142,4.779-4.719,3.648-1.681-3.318,1.159-4.774,3.834-7.339" transform="translate(20.212 200.476)" fill="#ffa998"/>
        <path id="Trazado_900007" data-name="Trazado 900007" d="M22,59.025c-1.033,7.592-2.626,20.127-3.7,28.6,6.641,4.966.225,40.288.225,40.288l-3.873-.06L8.885,60.272Z" transform="translate(39.923 265.215)" fill="#ffa998"/>
        <path id="Trazado_900008" data-name="Trazado 900008" d="M16.794,71.326a3.054,3.054,0,0,1-.368.89l-7.57,5.839a1.126,1.126,0,0,0,.324,1.994c.11.038.225.071.335.1,2.1.516,5.905.615,7.372-1a3.344,3.344,0,0,1,2.538-1.1l.319.011c2.472.038,1.736-2.747,1.225-5.169l.011-1.445Z" transform="translate(37.671 320.487)" fill="#fdb54e"/>
        <path id="Trazado_900009" data-name="Trazado 900009" d="M30.423,129.753,26.9,129.7c-4.362-15.936-11.349-39.832-7.427-42.029C16,77.551,13.328,67.646,12.207,58.176l12.728,2.175c1.934,19.77,5.059,53.675,5.488,69.4" transform="translate(54.849 261.4)" fill="#ffa998"/>
        <path id="Trazado_900010" data-name="Trazado 900010" d="M15.086,73.019c-.4,2.318-.989,4.982,1.357,4.856l.3-.022a3.16,3.16,0,0,1,2.444.95c1.456,1.478,5.059,1.242,7.031.676l.313-.1a1.072,1.072,0,0,0,.231-1.906l-7.394-5.257a6.371,6.371,0,0,1-.2-1.038l-3.724.126Z" transform="translate(66.121 319.799)" fill="#fdb54e"/>
        <path id="Trazado_900011" data-name="Trazado 900011" d="M37.123,88.73c4.884,9.113,5.757,38.6,5.757,38.6l-32.41-1.456L8.442,101.293c-.505-6.01,2.582-14.392,6.85-18.644a10.025,10.025,0,0,0,2.966-7.125,10.208,10.208,0,0,0-.56-3.3l-2.153-6.141a13.807,13.807,0,0,1,.275-9.794l4.7-11.47,2.631-.231c-.483,1.758-1.758,8.344,5.74,9.729,0,0,9.816.22,8.35-9.207l2.7.7a24.4,24.4,0,0,1-.3,24.11l-4.219,7.207a8.933,8.933,0,0,0-.494,3.554,18.179,18.179,0,0,0,2.192,8.042" transform="translate(37.69 200.364)" fill="#fdb54e"/>
        <path id="Trazado_900012" data-name="Trazado 900012" d="M32.768,55.058c.456-1.873-.022-4.367-1.588-4.521a2.607,2.607,0,0,0-1.522.417c-1.1-5.367-4.982-11.382-8.894-11.778-5.114-.516-9.586,1.945-10.553,15.2-.379,5.246,3.1,10.827,8.119,11.778,3.768.714,8.234-3.285,10.371-7.542,1.675-.456,3.488-1.176,4.065-3.554" transform="translate(45.763 175.752)" fill="#ffa998"/>
        <path id="Trazado_900013" data-name="Trazado 900013" d="M12.587,44.99l-.066.016c-.6.071-1.423.1-1.637-.428-.3-.731,1.011-1.862,1.588-2.313a.286.286,0,0,1,.4.049.279.279,0,0,1-.049.39c-.813.643-1.505,1.45-1.417,1.664.005,0,.126.187,1.055.082a.28.28,0,0,1,.132.538" transform="translate(48.706 189.65)" fill="#001848"/>
        <path id="Trazado_900014" data-name="Trazado 900014" d="M13.712,42.688a.938.938,0,1,1-.939-1.022.982.982,0,0,1,.939,1.022" transform="translate(53.218 187.217)" fill="#001848"/>
        <path id="Trazado_900015" data-name="Trazado 900015" d="M12.483,42.694a.938.938,0,1,1-.939-1.022.982.982,0,0,1,.939,1.022" transform="translate(47.696 187.244)" fill="#001848"/>
        <path id="Trazado_900016" data-name="Trazado 900016" d="M15.353,43.033a.322.322,0,0,1-.3-.17,2,2,0,0,0-2.664-1.027.317.317,0,1,1-.264-.577,2.624,2.624,0,0,1,3.494,1.307.318.318,0,0,1-.132.428.3.3,0,0,1-.132.038" transform="translate(53.626 184.328)" fill="#001848"/>
        <path id="Trazado_900017" data-name="Trazado 900017" d="M13.668,41.788a.268.268,0,0,1-.286.055,1.684,1.684,0,0,0-2.258.813.263.263,0,0,1-.352.132.259.259,0,0,1-.132-.352,2.205,2.205,0,0,1,2.939-1.093.271.271,0,0,1,.148.352.248.248,0,0,1-.06.093" transform="translate(47.692 184.881)" fill="#001848"/>
        <path id="Trazado_900018" data-name="Trazado 900018" d="M11.528,44.649a.26.26,0,0,1,.242-.159,1.679,1.679,0,0,0,1.774-1.615.27.27,0,0,1,.28-.258.274.274,0,0,1,.258.28,2.213,2.213,0,0,1-2.3,2.126.266.266,0,0,1-.275-.264.246.246,0,0,1,.022-.11" transform="translate(51.699 191.485)" fill="#001848"/>
        <path id="Trazado_900019" data-name="Trazado 900019" d="M27.635,42.529c.286,2.911-2.175,5.515-4.949,6.444-2.543.846-5.383.665-7.806,1.807-2.186,1.033-3.752,3.016-5.23,4.927l.972-5.521a15.784,15.784,0,0,1,1.39-4.818c1.4-2.587,4.1-4.18,6.8-5.361a13.074,13.074,0,0,1,3.45-1.093c4.559-.61,8.85,3.148,10.2,7.548s3.889,7.41-2.807,17.172c1.011-5.378-4.752-7.7-2.373-19" transform="translate(43.36 174.56)" fill="#48220c"/>
        <path id="Trazado_900020" data-name="Trazado 900020" d="M12.4,43.875a4.1,4.1,0,0,0-.753,6.773c1.17.972,2.681,2,2.225,3.785a3.677,3.677,0,0,1-3.757,2.5c3.274.873,8.553-1.692,8.646-5.274a6.7,6.7,0,0,0-1.373-4.092c-1.049-1.4-3.378-2.1-4.158-3.527" transform="translate(45.436 197.142)" fill="#48220c"/>
        <path id="Trazado_900021" data-name="Trazado 900021" d="M14,50.69a12.133,12.133,0,0,0,.725,3.29l6.724,18.9s8.894,1.143,8.377-.467L23.572,52.821a21.841,21.841,0,0,0-3.06-6.411,3.467,3.467,0,0,0-3.137-1.582,3.737,3.737,0,0,0-3.323,3.466A12.051,12.051,0,0,0,14,50.69" transform="translate(62.733 201.38)" fill="#ffa998"/>
        <path id="Trazado_900022" data-name="Trazado 900022" d="M16.931,65.99l.884-.483c-.033-.06-3.219-5.971-2.461-10.9a6.023,6.023,0,0,1,2.84-4.208,6.3,6.3,0,0,1,5.257-.637c2.917.956,5.361,3.735,7.262,8.256l.928-.39c-2.022-4.8-4.669-7.767-7.877-8.822a7.307,7.307,0,0,0-6.1.736,7.037,7.037,0,0,0-3.307,4.911c-.813,5.274,2.434,11.283,2.571,11.536" transform="translate(63.936 217.694)" fill="#1c476d"/>
        <path id="Trazado_900023" data-name="Trazado 900023" d="M14.066,51.638,32.034,84.784l-7.652.824Z" transform="translate(63.2 232.022)" fill="#0094a0"/>
        <path id="Trazado_900024" data-name="Trazado 900024" d="M54.457,81.833c-.511-.115-22.423,12.085-22.423,12.085L14.065,60.777,34.516,49.6Z" transform="translate(63.198 222.884)" fill="#a3d4a5"/>
        <path id="Trazado_900025" data-name="Trazado 900025" d="M30.262,58.79l-9.295,5.889L16.44,57.137l9.443-5.087Z" transform="translate(73.871 233.874)" fill="#fff"/>
        <path id="Trazado_900026" data-name="Trazado 900026" d="M15.386,59.968S41.49,74.212,41.9,74.382c3.3,1.467,5.839.4,7.125-1.445,3.549-10.712-15.837-11.569-15.837-11.569L17.121,54.936c1-7.13-5.51-9.6-5.51-9.6-3.5-.049.286,8.509.286,8.509-2.576-3.329-2.291-.022-2.291-.022,2.335,5.274,5.779,6.141,5.779,6.141" transform="translate(43.123 203.72)" fill="#ffab9c"/>
        <path id="Trazado_900027" data-name="Trazado 900027" d="M15.161,43.875a4.106,4.106,0,0,0-.747,6.773c1.17.972,2.681,2,2.225,3.785a3.677,3.677,0,0,1-3.757,2.5c3.274.873,8.553-1.692,8.646-5.274a6.709,6.709,0,0,0-1.379-4.092c-1.049-1.4-3.373-2.1-4.153-3.527" transform="translate(57.878 197.142)" fill="#48220c"/>
      </g>
    </g>
  </g>
</svg>
